%TF.GenerationSoftware,KiCad,Pcbnew,9.0.7-9.0.7~ubuntu24.04.1*%
%TF.CreationDate,2026-02-08T18:37:26+03:00*%
%TF.ProjectId,Linear_PowerSup_v1,4c696e65-6172-45f5-906f-776572537570,rev?*%
%TF.SameCoordinates,Original*%
%TF.FileFunction,Drillmap*%
%TF.FilePolarity,Positive*%
%FSLAX45Y45*%
G04 Gerber Fmt 4.5, Leading zero omitted, Abs format (unit mm)*
G04 Created by KiCad (PCBNEW 9.0.7-9.0.7~ubuntu24.04.1) date 2026-02-08 18:37:26*
%MOMM*%
%LPD*%
G01*
G04 APERTURE LIST*
%ADD10C,0.050000*%
%ADD11C,0.200000*%
%ADD12C,0.100000*%
%ADD13C,0.106000*%
%ADD14C,0.120000*%
%ADD15C,0.130000*%
%ADD16C,0.160000*%
G04 APERTURE END LIST*
D10*
X7000000Y-3900000D02*
X17500000Y-3900000D01*
X7000000Y-14400000D02*
X7000000Y-3900000D01*
X17500000Y-14400000D02*
X7000000Y-14400000D01*
X17500000Y-3900000D02*
X17500000Y-14400000D01*
D11*
D12*
X8810000Y-6560000D02*
X8890000Y-6640000D01*
X8890000Y-6560000D02*
X8810000Y-6640000D01*
X8810000Y-6910000D02*
X8890000Y-6990000D01*
X8890000Y-6910000D02*
X8810000Y-6990000D01*
X9410000Y-7010000D02*
X9490000Y-7090000D01*
X9490000Y-7010000D02*
X9410000Y-7090000D01*
X9860000Y-8610000D02*
X9940000Y-8690000D01*
X9940000Y-8610000D02*
X9860000Y-8690000D01*
X9860000Y-9110000D02*
X9940000Y-9190000D01*
X9940000Y-9110000D02*
X9860000Y-9190000D01*
X9910000Y-7010000D02*
X9990000Y-7090000D01*
X9990000Y-7010000D02*
X9910000Y-7090000D01*
X16185000Y-8325000D02*
X16265000Y-8405000D01*
X16265000Y-8325000D02*
X16185000Y-8405000D01*
X16935000Y-8595000D02*
X17015000Y-8675000D01*
X17015000Y-8595000D02*
X16935000Y-8675000D01*
X7422950Y-7350000D02*
G75*
G02*
X7336590Y-7350000I-43180J0D01*
G01*
X7336590Y-7350000D02*
G75*
G02*
X7422950Y-7350000I43180J0D01*
G01*
X8563410Y-7350000D02*
G75*
G02*
X8477050Y-7350000I-43180J0D01*
G01*
X8477050Y-7350000D02*
G75*
G02*
X8563410Y-7350000I43180J0D01*
G01*
X7846000Y-6755000D02*
X7846000Y-6845000D01*
X7801000Y-6800000D02*
X7891000Y-6800000D01*
X8100000Y-6755000D02*
X8100000Y-6845000D01*
X8055000Y-6800000D02*
X8145000Y-6800000D01*
X16300000Y-7247000D02*
X16300000Y-7337000D01*
X16255000Y-7292000D02*
X16345000Y-7292000D01*
X16300000Y-7755000D02*
X16300000Y-7845000D01*
X16255000Y-7800000D02*
X16345000Y-7800000D01*
X8385356Y-9685356D02*
X8385356Y-9614644D01*
X8314644Y-9614644D01*
X8314644Y-9685356D01*
X8385356Y-9685356D01*
X9027356Y-8284356D02*
X9027356Y-8213644D01*
X8956644Y-8213644D01*
X8956644Y-8284356D01*
X9027356Y-8284356D01*
X9135356Y-9685356D02*
X9135356Y-9614644D01*
X9064644Y-9614644D01*
X9064644Y-9685356D01*
X9135356Y-9685356D01*
X9535356Y-8285356D02*
X9535356Y-8214644D01*
X9464644Y-8214644D01*
X9464644Y-8285356D01*
X9535356Y-8285356D01*
D13*
X8870000Y-7553000D02*
X8923000Y-7500000D01*
X8870000Y-7447000D01*
X8817000Y-7500000D01*
X8870000Y-7553000D01*
X9040000Y-7553000D02*
X9093000Y-7500000D01*
X9040000Y-7447000D01*
X8987000Y-7500000D01*
X9040000Y-7553000D01*
X9210000Y-7553000D02*
X9263000Y-7500000D01*
X9210000Y-7447000D01*
X9157000Y-7500000D01*
X9210000Y-7553000D01*
X9380000Y-7553000D02*
X9433000Y-7500000D01*
X9380000Y-7447000D01*
X9327000Y-7500000D01*
X9380000Y-7553000D01*
X9550000Y-7553000D02*
X9603000Y-7500000D01*
X9550000Y-7447000D01*
X9497000Y-7500000D01*
X9550000Y-7553000D01*
D14*
X11740000Y-7440000D02*
X11860000Y-7560000D01*
X11860000Y-7440000D02*
X11740000Y-7560000D01*
X11860000Y-7500000D02*
G75*
G02*
X11740000Y-7500000I-60000J0D01*
G01*
X11740000Y-7500000D02*
G75*
G02*
X11860000Y-7500000I60000J0D01*
G01*
X11740000Y-8023000D02*
X11860000Y-8143000D01*
X11860000Y-8023000D02*
X11740000Y-8143000D01*
X11860000Y-8083000D02*
G75*
G02*
X11740000Y-8083000I-60000J0D01*
G01*
X11740000Y-8083000D02*
G75*
G02*
X11860000Y-8083000I60000J0D01*
G01*
X11740000Y-8606000D02*
X11860000Y-8726000D01*
X11860000Y-8606000D02*
X11740000Y-8726000D01*
X11860000Y-8666000D02*
G75*
G02*
X11740000Y-8666000I-60000J0D01*
G01*
X11740000Y-8666000D02*
G75*
G02*
X11860000Y-8666000I60000J0D01*
G01*
X11740000Y-9772000D02*
X11860000Y-9892000D01*
X11860000Y-9772000D02*
X11740000Y-9892000D01*
X11860000Y-9832000D02*
G75*
G02*
X11740000Y-9832000I-60000J0D01*
G01*
X11740000Y-9832000D02*
G75*
G02*
X11860000Y-9832000I60000J0D01*
G01*
X11740000Y-10355000D02*
X11860000Y-10475000D01*
X11860000Y-10355000D02*
X11740000Y-10475000D01*
X11860000Y-10415000D02*
G75*
G02*
X11740000Y-10415000I-60000J0D01*
G01*
X11740000Y-10415000D02*
G75*
G02*
X11860000Y-10415000I60000J0D01*
G01*
X11740000Y-10940000D02*
X11860000Y-11060000D01*
X11860000Y-10940000D02*
X11740000Y-11060000D01*
X11860000Y-11000000D02*
G75*
G02*
X11740000Y-11000000I-60000J0D01*
G01*
X11740000Y-11000000D02*
G75*
G02*
X11860000Y-11000000I60000J0D01*
G01*
X11740069Y-9188996D02*
X11860069Y-9308996D01*
X11860069Y-9188996D02*
X11740069Y-9308996D01*
X11860069Y-9248996D02*
G75*
G02*
X11740069Y-9248996I-60000J0D01*
G01*
X11740069Y-9248996D02*
G75*
G02*
X11860069Y-9248996I60000J0D01*
G01*
X14785983Y-7439959D02*
X14905983Y-7559959D01*
X14905983Y-7439959D02*
X14785983Y-7559959D01*
X14905983Y-7499959D02*
G75*
G02*
X14785983Y-7499959I-60000J0D01*
G01*
X14785983Y-7499959D02*
G75*
G02*
X14905983Y-7499959I60000J0D01*
G01*
X14786994Y-8023000D02*
X14906994Y-8143000D01*
X14906994Y-8023000D02*
X14786994Y-8143000D01*
X14906994Y-8083000D02*
G75*
G02*
X14786994Y-8083000I-60000J0D01*
G01*
X14786994Y-8083000D02*
G75*
G02*
X14906994Y-8083000I60000J0D01*
G01*
X14786994Y-8606000D02*
X14906994Y-8726000D01*
X14906994Y-8606000D02*
X14786994Y-8726000D01*
X14906994Y-8666000D02*
G75*
G02*
X14786994Y-8666000I-60000J0D01*
G01*
X14786994Y-8666000D02*
G75*
G02*
X14906994Y-8666000I60000J0D01*
G01*
X14787500Y-9190000D02*
X14907500Y-9310000D01*
X14907500Y-9190000D02*
X14787500Y-9310000D01*
X14907500Y-9250000D02*
G75*
G02*
X14787500Y-9250000I-60000J0D01*
G01*
X14787500Y-9250000D02*
G75*
G02*
X14907500Y-9250000I60000J0D01*
G01*
X14788509Y-9772500D02*
X14908509Y-9892500D01*
X14908509Y-9772500D02*
X14788509Y-9892500D01*
X14908509Y-9832500D02*
G75*
G02*
X14788509Y-9832500I-60000J0D01*
G01*
X14788509Y-9832500D02*
G75*
G02*
X14908509Y-9832500I60000J0D01*
G01*
X14788509Y-10355000D02*
X14908509Y-10475000D01*
X14908509Y-10355000D02*
X14788509Y-10475000D01*
X14908509Y-10415000D02*
G75*
G02*
X14788509Y-10415000I-60000J0D01*
G01*
X14788509Y-10415000D02*
G75*
G02*
X14908509Y-10415000I60000J0D01*
G01*
X14789016Y-10940041D02*
X14909016Y-11060041D01*
X14909016Y-10940041D02*
X14789016Y-11060041D01*
X14909016Y-11000041D02*
G75*
G02*
X14789016Y-11000041I-60000J0D01*
G01*
X14789016Y-11000041D02*
G75*
G02*
X14909016Y-11000041I60000J0D01*
G01*
D15*
X7935000Y-7785000D02*
X8065000Y-7915000D01*
X8065000Y-7785000D02*
X7935000Y-7915000D01*
X8000000Y-7785000D02*
X8000000Y-7915000D01*
X7935000Y-7850000D02*
X8065000Y-7850000D01*
X7935000Y-8285000D02*
X8065000Y-8415000D01*
X8065000Y-8285000D02*
X7935000Y-8415000D01*
X8000000Y-8285000D02*
X8000000Y-8415000D01*
X7935000Y-8350000D02*
X8065000Y-8350000D01*
X16385000Y-9135000D02*
X16515000Y-9265000D01*
X16515000Y-9135000D02*
X16385000Y-9265000D01*
X16450000Y-9135000D02*
X16450000Y-9265000D01*
X16385000Y-9200000D02*
X16515000Y-9200000D01*
X16385000Y-9635000D02*
X16515000Y-9765000D01*
X16515000Y-9635000D02*
X16385000Y-9765000D01*
X16450000Y-9635000D02*
X16450000Y-9765000D01*
X16385000Y-9700000D02*
X16515000Y-9700000D01*
D16*
X10270000Y-8046000D02*
X10430000Y-8206000D01*
X10430000Y-8046000D02*
X10270000Y-8206000D01*
X10406569Y-8182569D02*
X10406569Y-8069431D01*
X10293431Y-8069431D01*
X10293431Y-8182569D01*
X10406569Y-8182569D01*
X10270000Y-8554000D02*
X10430000Y-8714000D01*
X10430000Y-8554000D02*
X10270000Y-8714000D01*
X10406569Y-8690569D02*
X10406569Y-8577431D01*
X10293431Y-8577431D01*
X10293431Y-8690569D01*
X10406569Y-8690569D01*
X10270000Y-9062000D02*
X10430000Y-9222000D01*
X10430000Y-9062000D02*
X10270000Y-9222000D01*
X10406569Y-9198569D02*
X10406569Y-9085431D01*
X10293431Y-9085431D01*
X10293431Y-9198569D01*
X10406569Y-9198569D01*
X10270000Y-9570000D02*
X10430000Y-9730000D01*
X10430000Y-9570000D02*
X10270000Y-9730000D01*
X10406569Y-9706569D02*
X10406569Y-9593431D01*
X10293431Y-9593431D01*
X10293431Y-9706569D01*
X10406569Y-9706569D01*
D11*
X7258277Y-14713984D02*
X7258277Y-14513984D01*
X7258277Y-14513984D02*
X7305896Y-14513984D01*
X7305896Y-14513984D02*
X7334467Y-14523508D01*
X7334467Y-14523508D02*
X7353515Y-14542555D01*
X7353515Y-14542555D02*
X7363039Y-14561603D01*
X7363039Y-14561603D02*
X7372562Y-14599698D01*
X7372562Y-14599698D02*
X7372562Y-14628269D01*
X7372562Y-14628269D02*
X7363039Y-14666365D01*
X7363039Y-14666365D02*
X7353515Y-14685412D01*
X7353515Y-14685412D02*
X7334467Y-14704460D01*
X7334467Y-14704460D02*
X7305896Y-14713984D01*
X7305896Y-14713984D02*
X7258277Y-14713984D01*
X7458277Y-14713984D02*
X7458277Y-14580650D01*
X7458277Y-14618746D02*
X7467801Y-14599698D01*
X7467801Y-14599698D02*
X7477324Y-14590174D01*
X7477324Y-14590174D02*
X7496372Y-14580650D01*
X7496372Y-14580650D02*
X7515420Y-14580650D01*
X7582086Y-14713984D02*
X7582086Y-14580650D01*
X7582086Y-14513984D02*
X7572562Y-14523508D01*
X7572562Y-14523508D02*
X7582086Y-14533031D01*
X7582086Y-14533031D02*
X7591610Y-14523508D01*
X7591610Y-14523508D02*
X7582086Y-14513984D01*
X7582086Y-14513984D02*
X7582086Y-14533031D01*
X7705896Y-14713984D02*
X7686848Y-14704460D01*
X7686848Y-14704460D02*
X7677324Y-14685412D01*
X7677324Y-14685412D02*
X7677324Y-14513984D01*
X7810658Y-14713984D02*
X7791610Y-14704460D01*
X7791610Y-14704460D02*
X7782086Y-14685412D01*
X7782086Y-14685412D02*
X7782086Y-14513984D01*
X8039229Y-14713984D02*
X8039229Y-14513984D01*
X8039229Y-14513984D02*
X8105896Y-14656841D01*
X8105896Y-14656841D02*
X8172562Y-14513984D01*
X8172562Y-14513984D02*
X8172562Y-14713984D01*
X8353515Y-14713984D02*
X8353515Y-14609222D01*
X8353515Y-14609222D02*
X8343991Y-14590174D01*
X8343991Y-14590174D02*
X8324943Y-14580650D01*
X8324943Y-14580650D02*
X8286848Y-14580650D01*
X8286848Y-14580650D02*
X8267801Y-14590174D01*
X8353515Y-14704460D02*
X8334467Y-14713984D01*
X8334467Y-14713984D02*
X8286848Y-14713984D01*
X8286848Y-14713984D02*
X8267801Y-14704460D01*
X8267801Y-14704460D02*
X8258277Y-14685412D01*
X8258277Y-14685412D02*
X8258277Y-14666365D01*
X8258277Y-14666365D02*
X8267801Y-14647317D01*
X8267801Y-14647317D02*
X8286848Y-14637793D01*
X8286848Y-14637793D02*
X8334467Y-14637793D01*
X8334467Y-14637793D02*
X8353515Y-14628269D01*
X8448753Y-14580650D02*
X8448753Y-14780650D01*
X8448753Y-14590174D02*
X8467801Y-14580650D01*
X8467801Y-14580650D02*
X8505896Y-14580650D01*
X8505896Y-14580650D02*
X8524944Y-14590174D01*
X8524944Y-14590174D02*
X8534467Y-14599698D01*
X8534467Y-14599698D02*
X8543991Y-14618746D01*
X8543991Y-14618746D02*
X8543991Y-14675888D01*
X8543991Y-14675888D02*
X8534467Y-14694936D01*
X8534467Y-14694936D02*
X8524944Y-14704460D01*
X8524944Y-14704460D02*
X8505896Y-14713984D01*
X8505896Y-14713984D02*
X8467801Y-14713984D01*
X8467801Y-14713984D02*
X8448753Y-14704460D01*
X8629705Y-14694936D02*
X8639229Y-14704460D01*
X8639229Y-14704460D02*
X8629705Y-14713984D01*
X8629705Y-14713984D02*
X8620182Y-14704460D01*
X8620182Y-14704460D02*
X8629705Y-14694936D01*
X8629705Y-14694936D02*
X8629705Y-14713984D01*
X8629705Y-14590174D02*
X8639229Y-14599698D01*
X8639229Y-14599698D02*
X8629705Y-14609222D01*
X8629705Y-14609222D02*
X8620182Y-14599698D01*
X8620182Y-14599698D02*
X8629705Y-14590174D01*
X8629705Y-14590174D02*
X8629705Y-14609222D01*
D12*
X6917500Y-15002500D02*
X6997500Y-15082500D01*
X6997500Y-15002500D02*
X6917500Y-15082500D01*
D11*
X7296372Y-14933984D02*
X7315420Y-14933984D01*
X7315420Y-14933984D02*
X7334467Y-14943508D01*
X7334467Y-14943508D02*
X7343991Y-14953031D01*
X7343991Y-14953031D02*
X7353515Y-14972079D01*
X7353515Y-14972079D02*
X7363039Y-15010174D01*
X7363039Y-15010174D02*
X7363039Y-15057793D01*
X7363039Y-15057793D02*
X7353515Y-15095888D01*
X7353515Y-15095888D02*
X7343991Y-15114936D01*
X7343991Y-15114936D02*
X7334467Y-15124460D01*
X7334467Y-15124460D02*
X7315420Y-15133984D01*
X7315420Y-15133984D02*
X7296372Y-15133984D01*
X7296372Y-15133984D02*
X7277324Y-15124460D01*
X7277324Y-15124460D02*
X7267801Y-15114936D01*
X7267801Y-15114936D02*
X7258277Y-15095888D01*
X7258277Y-15095888D02*
X7248753Y-15057793D01*
X7248753Y-15057793D02*
X7248753Y-15010174D01*
X7248753Y-15010174D02*
X7258277Y-14972079D01*
X7258277Y-14972079D02*
X7267801Y-14953031D01*
X7267801Y-14953031D02*
X7277324Y-14943508D01*
X7277324Y-14943508D02*
X7296372Y-14933984D01*
X7448753Y-15114936D02*
X7458277Y-15124460D01*
X7458277Y-15124460D02*
X7448753Y-15133984D01*
X7448753Y-15133984D02*
X7439229Y-15124460D01*
X7439229Y-15124460D02*
X7448753Y-15114936D01*
X7448753Y-15114936D02*
X7448753Y-15133984D01*
X7572562Y-15019698D02*
X7553515Y-15010174D01*
X7553515Y-15010174D02*
X7543991Y-15000650D01*
X7543991Y-15000650D02*
X7534467Y-14981603D01*
X7534467Y-14981603D02*
X7534467Y-14972079D01*
X7534467Y-14972079D02*
X7543991Y-14953031D01*
X7543991Y-14953031D02*
X7553515Y-14943508D01*
X7553515Y-14943508D02*
X7572562Y-14933984D01*
X7572562Y-14933984D02*
X7610658Y-14933984D01*
X7610658Y-14933984D02*
X7629705Y-14943508D01*
X7629705Y-14943508D02*
X7639229Y-14953031D01*
X7639229Y-14953031D02*
X7648753Y-14972079D01*
X7648753Y-14972079D02*
X7648753Y-14981603D01*
X7648753Y-14981603D02*
X7639229Y-15000650D01*
X7639229Y-15000650D02*
X7629705Y-15010174D01*
X7629705Y-15010174D02*
X7610658Y-15019698D01*
X7610658Y-15019698D02*
X7572562Y-15019698D01*
X7572562Y-15019698D02*
X7553515Y-15029222D01*
X7553515Y-15029222D02*
X7543991Y-15038746D01*
X7543991Y-15038746D02*
X7534467Y-15057793D01*
X7534467Y-15057793D02*
X7534467Y-15095888D01*
X7534467Y-15095888D02*
X7543991Y-15114936D01*
X7543991Y-15114936D02*
X7553515Y-15124460D01*
X7553515Y-15124460D02*
X7572562Y-15133984D01*
X7572562Y-15133984D02*
X7610658Y-15133984D01*
X7610658Y-15133984D02*
X7629705Y-15124460D01*
X7629705Y-15124460D02*
X7639229Y-15114936D01*
X7639229Y-15114936D02*
X7648753Y-15095888D01*
X7648753Y-15095888D02*
X7648753Y-15057793D01*
X7648753Y-15057793D02*
X7639229Y-15038746D01*
X7639229Y-15038746D02*
X7629705Y-15029222D01*
X7629705Y-15029222D02*
X7610658Y-15019698D01*
X7772562Y-14933984D02*
X7791610Y-14933984D01*
X7791610Y-14933984D02*
X7810658Y-14943508D01*
X7810658Y-14943508D02*
X7820182Y-14953031D01*
X7820182Y-14953031D02*
X7829705Y-14972079D01*
X7829705Y-14972079D02*
X7839229Y-15010174D01*
X7839229Y-15010174D02*
X7839229Y-15057793D01*
X7839229Y-15057793D02*
X7829705Y-15095888D01*
X7829705Y-15095888D02*
X7820182Y-15114936D01*
X7820182Y-15114936D02*
X7810658Y-15124460D01*
X7810658Y-15124460D02*
X7791610Y-15133984D01*
X7791610Y-15133984D02*
X7772562Y-15133984D01*
X7772562Y-15133984D02*
X7753515Y-15124460D01*
X7753515Y-15124460D02*
X7743991Y-15114936D01*
X7743991Y-15114936D02*
X7734467Y-15095888D01*
X7734467Y-15095888D02*
X7724943Y-15057793D01*
X7724943Y-15057793D02*
X7724943Y-15010174D01*
X7724943Y-15010174D02*
X7734467Y-14972079D01*
X7734467Y-14972079D02*
X7743991Y-14953031D01*
X7743991Y-14953031D02*
X7753515Y-14943508D01*
X7753515Y-14943508D02*
X7772562Y-14933984D01*
X7963039Y-14933984D02*
X7982086Y-14933984D01*
X7982086Y-14933984D02*
X8001134Y-14943508D01*
X8001134Y-14943508D02*
X8010658Y-14953031D01*
X8010658Y-14953031D02*
X8020182Y-14972079D01*
X8020182Y-14972079D02*
X8029705Y-15010174D01*
X8029705Y-15010174D02*
X8029705Y-15057793D01*
X8029705Y-15057793D02*
X8020182Y-15095888D01*
X8020182Y-15095888D02*
X8010658Y-15114936D01*
X8010658Y-15114936D02*
X8001134Y-15124460D01*
X8001134Y-15124460D02*
X7982086Y-15133984D01*
X7982086Y-15133984D02*
X7963039Y-15133984D01*
X7963039Y-15133984D02*
X7943991Y-15124460D01*
X7943991Y-15124460D02*
X7934467Y-15114936D01*
X7934467Y-15114936D02*
X7924943Y-15095888D01*
X7924943Y-15095888D02*
X7915420Y-15057793D01*
X7915420Y-15057793D02*
X7915420Y-15010174D01*
X7915420Y-15010174D02*
X7924943Y-14972079D01*
X7924943Y-14972079D02*
X7934467Y-14953031D01*
X7934467Y-14953031D02*
X7943991Y-14943508D01*
X7943991Y-14943508D02*
X7963039Y-14933984D01*
X8115420Y-15133984D02*
X8115420Y-15000650D01*
X8115420Y-15019698D02*
X8124943Y-15010174D01*
X8124943Y-15010174D02*
X8143991Y-15000650D01*
X8143991Y-15000650D02*
X8172563Y-15000650D01*
X8172563Y-15000650D02*
X8191610Y-15010174D01*
X8191610Y-15010174D02*
X8201134Y-15029222D01*
X8201134Y-15029222D02*
X8201134Y-15133984D01*
X8201134Y-15029222D02*
X8210658Y-15010174D01*
X8210658Y-15010174D02*
X8229705Y-15000650D01*
X8229705Y-15000650D02*
X8258277Y-15000650D01*
X8258277Y-15000650D02*
X8277324Y-15010174D01*
X8277324Y-15010174D02*
X8286848Y-15029222D01*
X8286848Y-15029222D02*
X8286848Y-15133984D01*
X8382086Y-15133984D02*
X8382086Y-15000650D01*
X8382086Y-15019698D02*
X8391610Y-15010174D01*
X8391610Y-15010174D02*
X8410658Y-15000650D01*
X8410658Y-15000650D02*
X8439229Y-15000650D01*
X8439229Y-15000650D02*
X8458277Y-15010174D01*
X8458277Y-15010174D02*
X8467801Y-15029222D01*
X8467801Y-15029222D02*
X8467801Y-15133984D01*
X8467801Y-15029222D02*
X8477325Y-15010174D01*
X8477325Y-15010174D02*
X8496372Y-15000650D01*
X8496372Y-15000650D02*
X8524944Y-15000650D01*
X8524944Y-15000650D02*
X8543991Y-15010174D01*
X8543991Y-15010174D02*
X8553515Y-15029222D01*
X8553515Y-15029222D02*
X8553515Y-15133984D01*
X8943991Y-14924460D02*
X8772563Y-15181603D01*
X9201134Y-14933984D02*
X9220182Y-14933984D01*
X9220182Y-14933984D02*
X9239229Y-14943508D01*
X9239229Y-14943508D02*
X9248753Y-14953031D01*
X9248753Y-14953031D02*
X9258277Y-14972079D01*
X9258277Y-14972079D02*
X9267801Y-15010174D01*
X9267801Y-15010174D02*
X9267801Y-15057793D01*
X9267801Y-15057793D02*
X9258277Y-15095888D01*
X9258277Y-15095888D02*
X9248753Y-15114936D01*
X9248753Y-15114936D02*
X9239229Y-15124460D01*
X9239229Y-15124460D02*
X9220182Y-15133984D01*
X9220182Y-15133984D02*
X9201134Y-15133984D01*
X9201134Y-15133984D02*
X9182087Y-15124460D01*
X9182087Y-15124460D02*
X9172563Y-15114936D01*
X9172563Y-15114936D02*
X9163039Y-15095888D01*
X9163039Y-15095888D02*
X9153515Y-15057793D01*
X9153515Y-15057793D02*
X9153515Y-15010174D01*
X9153515Y-15010174D02*
X9163039Y-14972079D01*
X9163039Y-14972079D02*
X9172563Y-14953031D01*
X9172563Y-14953031D02*
X9182087Y-14943508D01*
X9182087Y-14943508D02*
X9201134Y-14933984D01*
X9353515Y-15114936D02*
X9363039Y-15124460D01*
X9363039Y-15124460D02*
X9353515Y-15133984D01*
X9353515Y-15133984D02*
X9343991Y-15124460D01*
X9343991Y-15124460D02*
X9353515Y-15114936D01*
X9353515Y-15114936D02*
X9353515Y-15133984D01*
X9486848Y-14933984D02*
X9505896Y-14933984D01*
X9505896Y-14933984D02*
X9524944Y-14943508D01*
X9524944Y-14943508D02*
X9534468Y-14953031D01*
X9534468Y-14953031D02*
X9543991Y-14972079D01*
X9543991Y-14972079D02*
X9553515Y-15010174D01*
X9553515Y-15010174D02*
X9553515Y-15057793D01*
X9553515Y-15057793D02*
X9543991Y-15095888D01*
X9543991Y-15095888D02*
X9534468Y-15114936D01*
X9534468Y-15114936D02*
X9524944Y-15124460D01*
X9524944Y-15124460D02*
X9505896Y-15133984D01*
X9505896Y-15133984D02*
X9486848Y-15133984D01*
X9486848Y-15133984D02*
X9467801Y-15124460D01*
X9467801Y-15124460D02*
X9458277Y-15114936D01*
X9458277Y-15114936D02*
X9448753Y-15095888D01*
X9448753Y-15095888D02*
X9439229Y-15057793D01*
X9439229Y-15057793D02*
X9439229Y-15010174D01*
X9439229Y-15010174D02*
X9448753Y-14972079D01*
X9448753Y-14972079D02*
X9458277Y-14953031D01*
X9458277Y-14953031D02*
X9467801Y-14943508D01*
X9467801Y-14943508D02*
X9486848Y-14933984D01*
X9620182Y-14933984D02*
X9743991Y-14933984D01*
X9743991Y-14933984D02*
X9677325Y-15010174D01*
X9677325Y-15010174D02*
X9705896Y-15010174D01*
X9705896Y-15010174D02*
X9724944Y-15019698D01*
X9724944Y-15019698D02*
X9734468Y-15029222D01*
X9734468Y-15029222D02*
X9743991Y-15048269D01*
X9743991Y-15048269D02*
X9743991Y-15095888D01*
X9743991Y-15095888D02*
X9734468Y-15114936D01*
X9734468Y-15114936D02*
X9724944Y-15124460D01*
X9724944Y-15124460D02*
X9705896Y-15133984D01*
X9705896Y-15133984D02*
X9648753Y-15133984D01*
X9648753Y-15133984D02*
X9629706Y-15124460D01*
X9629706Y-15124460D02*
X9620182Y-15114936D01*
X9934468Y-15133984D02*
X9820182Y-15133984D01*
X9877325Y-15133984D02*
X9877325Y-14933984D01*
X9877325Y-14933984D02*
X9858277Y-14962555D01*
X9858277Y-14962555D02*
X9839229Y-14981603D01*
X9839229Y-14981603D02*
X9820182Y-14991127D01*
X10115420Y-14933984D02*
X10020182Y-14933984D01*
X10020182Y-14933984D02*
X10010658Y-15029222D01*
X10010658Y-15029222D02*
X10020182Y-15019698D01*
X10020182Y-15019698D02*
X10039229Y-15010174D01*
X10039229Y-15010174D02*
X10086849Y-15010174D01*
X10086849Y-15010174D02*
X10105896Y-15019698D01*
X10105896Y-15019698D02*
X10115420Y-15029222D01*
X10115420Y-15029222D02*
X10124944Y-15048269D01*
X10124944Y-15048269D02*
X10124944Y-15095888D01*
X10124944Y-15095888D02*
X10115420Y-15114936D01*
X10115420Y-15114936D02*
X10105896Y-15124460D01*
X10105896Y-15124460D02*
X10086849Y-15133984D01*
X10086849Y-15133984D02*
X10039229Y-15133984D01*
X10039229Y-15133984D02*
X10020182Y-15124460D01*
X10020182Y-15124460D02*
X10010658Y-15114936D01*
X10201134Y-14933984D02*
X10201134Y-14972079D01*
X10277325Y-14933984D02*
X10277325Y-14972079D01*
X10572563Y-15210174D02*
X10563039Y-15200650D01*
X10563039Y-15200650D02*
X10543991Y-15172079D01*
X10543991Y-15172079D02*
X10534468Y-15153031D01*
X10534468Y-15153031D02*
X10524944Y-15124460D01*
X10524944Y-15124460D02*
X10515420Y-15076841D01*
X10515420Y-15076841D02*
X10515420Y-15038746D01*
X10515420Y-15038746D02*
X10524944Y-14991127D01*
X10524944Y-14991127D02*
X10534468Y-14962555D01*
X10534468Y-14962555D02*
X10543991Y-14943508D01*
X10543991Y-14943508D02*
X10563039Y-14914936D01*
X10563039Y-14914936D02*
X10572563Y-14905412D01*
X10677325Y-15019698D02*
X10658277Y-15010174D01*
X10658277Y-15010174D02*
X10648753Y-15000650D01*
X10648753Y-15000650D02*
X10639230Y-14981603D01*
X10639230Y-14981603D02*
X10639230Y-14972079D01*
X10639230Y-14972079D02*
X10648753Y-14953031D01*
X10648753Y-14953031D02*
X10658277Y-14943508D01*
X10658277Y-14943508D02*
X10677325Y-14933984D01*
X10677325Y-14933984D02*
X10715420Y-14933984D01*
X10715420Y-14933984D02*
X10734468Y-14943508D01*
X10734468Y-14943508D02*
X10743991Y-14953031D01*
X10743991Y-14953031D02*
X10753515Y-14972079D01*
X10753515Y-14972079D02*
X10753515Y-14981603D01*
X10753515Y-14981603D02*
X10743991Y-15000650D01*
X10743991Y-15000650D02*
X10734468Y-15010174D01*
X10734468Y-15010174D02*
X10715420Y-15019698D01*
X10715420Y-15019698D02*
X10677325Y-15019698D01*
X10677325Y-15019698D02*
X10658277Y-15029222D01*
X10658277Y-15029222D02*
X10648753Y-15038746D01*
X10648753Y-15038746D02*
X10639230Y-15057793D01*
X10639230Y-15057793D02*
X10639230Y-15095888D01*
X10639230Y-15095888D02*
X10648753Y-15114936D01*
X10648753Y-15114936D02*
X10658277Y-15124460D01*
X10658277Y-15124460D02*
X10677325Y-15133984D01*
X10677325Y-15133984D02*
X10715420Y-15133984D01*
X10715420Y-15133984D02*
X10734468Y-15124460D01*
X10734468Y-15124460D02*
X10743991Y-15114936D01*
X10743991Y-15114936D02*
X10753515Y-15095888D01*
X10753515Y-15095888D02*
X10753515Y-15057793D01*
X10753515Y-15057793D02*
X10743991Y-15038746D01*
X10743991Y-15038746D02*
X10734468Y-15029222D01*
X10734468Y-15029222D02*
X10715420Y-15019698D01*
X10991611Y-15133984D02*
X10991611Y-14933984D01*
X11077325Y-15133984D02*
X11077325Y-15029222D01*
X11077325Y-15029222D02*
X11067801Y-15010174D01*
X11067801Y-15010174D02*
X11048753Y-15000650D01*
X11048753Y-15000650D02*
X11020182Y-15000650D01*
X11020182Y-15000650D02*
X11001134Y-15010174D01*
X11001134Y-15010174D02*
X10991611Y-15019698D01*
X11201134Y-15133984D02*
X11182087Y-15124460D01*
X11182087Y-15124460D02*
X11172563Y-15114936D01*
X11172563Y-15114936D02*
X11163039Y-15095888D01*
X11163039Y-15095888D02*
X11163039Y-15038746D01*
X11163039Y-15038746D02*
X11172563Y-15019698D01*
X11172563Y-15019698D02*
X11182087Y-15010174D01*
X11182087Y-15010174D02*
X11201134Y-15000650D01*
X11201134Y-15000650D02*
X11229706Y-15000650D01*
X11229706Y-15000650D02*
X11248753Y-15010174D01*
X11248753Y-15010174D02*
X11258277Y-15019698D01*
X11258277Y-15019698D02*
X11267801Y-15038746D01*
X11267801Y-15038746D02*
X11267801Y-15095888D01*
X11267801Y-15095888D02*
X11258277Y-15114936D01*
X11258277Y-15114936D02*
X11248753Y-15124460D01*
X11248753Y-15124460D02*
X11229706Y-15133984D01*
X11229706Y-15133984D02*
X11201134Y-15133984D01*
X11382087Y-15133984D02*
X11363039Y-15124460D01*
X11363039Y-15124460D02*
X11353515Y-15105412D01*
X11353515Y-15105412D02*
X11353515Y-14933984D01*
X11534468Y-15124460D02*
X11515420Y-15133984D01*
X11515420Y-15133984D02*
X11477325Y-15133984D01*
X11477325Y-15133984D02*
X11458277Y-15124460D01*
X11458277Y-15124460D02*
X11448753Y-15105412D01*
X11448753Y-15105412D02*
X11448753Y-15029222D01*
X11448753Y-15029222D02*
X11458277Y-15010174D01*
X11458277Y-15010174D02*
X11477325Y-15000650D01*
X11477325Y-15000650D02*
X11515420Y-15000650D01*
X11515420Y-15000650D02*
X11534468Y-15010174D01*
X11534468Y-15010174D02*
X11543991Y-15029222D01*
X11543991Y-15029222D02*
X11543991Y-15048269D01*
X11543991Y-15048269D02*
X11448753Y-15067317D01*
X11620182Y-15124460D02*
X11639230Y-15133984D01*
X11639230Y-15133984D02*
X11677325Y-15133984D01*
X11677325Y-15133984D02*
X11696372Y-15124460D01*
X11696372Y-15124460D02*
X11705896Y-15105412D01*
X11705896Y-15105412D02*
X11705896Y-15095888D01*
X11705896Y-15095888D02*
X11696372Y-15076841D01*
X11696372Y-15076841D02*
X11677325Y-15067317D01*
X11677325Y-15067317D02*
X11648753Y-15067317D01*
X11648753Y-15067317D02*
X11629706Y-15057793D01*
X11629706Y-15057793D02*
X11620182Y-15038746D01*
X11620182Y-15038746D02*
X11620182Y-15029222D01*
X11620182Y-15029222D02*
X11629706Y-15010174D01*
X11629706Y-15010174D02*
X11648753Y-15000650D01*
X11648753Y-15000650D02*
X11677325Y-15000650D01*
X11677325Y-15000650D02*
X11696372Y-15010174D01*
X11772563Y-15210174D02*
X11782087Y-15200650D01*
X11782087Y-15200650D02*
X11801134Y-15172079D01*
X11801134Y-15172079D02*
X11810658Y-15153031D01*
X11810658Y-15153031D02*
X11820182Y-15124460D01*
X11820182Y-15124460D02*
X11829706Y-15076841D01*
X11829706Y-15076841D02*
X11829706Y-15038746D01*
X11829706Y-15038746D02*
X11820182Y-14991127D01*
X11820182Y-14991127D02*
X11810658Y-14962555D01*
X11810658Y-14962555D02*
X11801134Y-14943508D01*
X11801134Y-14943508D02*
X11782087Y-14914936D01*
X11782087Y-14914936D02*
X11772563Y-14905412D01*
D12*
X6997500Y-15306500D02*
G75*
G02*
X6911140Y-15306500I-43180J0D01*
G01*
X6911140Y-15306500D02*
G75*
G02*
X6997500Y-15306500I43180J0D01*
G01*
D11*
X7296372Y-15197984D02*
X7315420Y-15197984D01*
X7315420Y-15197984D02*
X7334467Y-15207508D01*
X7334467Y-15207508D02*
X7343991Y-15217031D01*
X7343991Y-15217031D02*
X7353515Y-15236079D01*
X7353515Y-15236079D02*
X7363039Y-15274174D01*
X7363039Y-15274174D02*
X7363039Y-15321793D01*
X7363039Y-15321793D02*
X7353515Y-15359888D01*
X7353515Y-15359888D02*
X7343991Y-15378936D01*
X7343991Y-15378936D02*
X7334467Y-15388460D01*
X7334467Y-15388460D02*
X7315420Y-15397984D01*
X7315420Y-15397984D02*
X7296372Y-15397984D01*
X7296372Y-15397984D02*
X7277324Y-15388460D01*
X7277324Y-15388460D02*
X7267801Y-15378936D01*
X7267801Y-15378936D02*
X7258277Y-15359888D01*
X7258277Y-15359888D02*
X7248753Y-15321793D01*
X7248753Y-15321793D02*
X7248753Y-15274174D01*
X7248753Y-15274174D02*
X7258277Y-15236079D01*
X7258277Y-15236079D02*
X7267801Y-15217031D01*
X7267801Y-15217031D02*
X7277324Y-15207508D01*
X7277324Y-15207508D02*
X7296372Y-15197984D01*
X7448753Y-15378936D02*
X7458277Y-15388460D01*
X7458277Y-15388460D02*
X7448753Y-15397984D01*
X7448753Y-15397984D02*
X7439229Y-15388460D01*
X7439229Y-15388460D02*
X7448753Y-15378936D01*
X7448753Y-15378936D02*
X7448753Y-15397984D01*
X7572562Y-15283698D02*
X7553515Y-15274174D01*
X7553515Y-15274174D02*
X7543991Y-15264650D01*
X7543991Y-15264650D02*
X7534467Y-15245603D01*
X7534467Y-15245603D02*
X7534467Y-15236079D01*
X7534467Y-15236079D02*
X7543991Y-15217031D01*
X7543991Y-15217031D02*
X7553515Y-15207508D01*
X7553515Y-15207508D02*
X7572562Y-15197984D01*
X7572562Y-15197984D02*
X7610658Y-15197984D01*
X7610658Y-15197984D02*
X7629705Y-15207508D01*
X7629705Y-15207508D02*
X7639229Y-15217031D01*
X7639229Y-15217031D02*
X7648753Y-15236079D01*
X7648753Y-15236079D02*
X7648753Y-15245603D01*
X7648753Y-15245603D02*
X7639229Y-15264650D01*
X7639229Y-15264650D02*
X7629705Y-15274174D01*
X7629705Y-15274174D02*
X7610658Y-15283698D01*
X7610658Y-15283698D02*
X7572562Y-15283698D01*
X7572562Y-15283698D02*
X7553515Y-15293222D01*
X7553515Y-15293222D02*
X7543991Y-15302746D01*
X7543991Y-15302746D02*
X7534467Y-15321793D01*
X7534467Y-15321793D02*
X7534467Y-15359888D01*
X7534467Y-15359888D02*
X7543991Y-15378936D01*
X7543991Y-15378936D02*
X7553515Y-15388460D01*
X7553515Y-15388460D02*
X7572562Y-15397984D01*
X7572562Y-15397984D02*
X7610658Y-15397984D01*
X7610658Y-15397984D02*
X7629705Y-15388460D01*
X7629705Y-15388460D02*
X7639229Y-15378936D01*
X7639229Y-15378936D02*
X7648753Y-15359888D01*
X7648753Y-15359888D02*
X7648753Y-15321793D01*
X7648753Y-15321793D02*
X7639229Y-15302746D01*
X7639229Y-15302746D02*
X7629705Y-15293222D01*
X7629705Y-15293222D02*
X7610658Y-15283698D01*
X7820182Y-15197984D02*
X7782086Y-15197984D01*
X7782086Y-15197984D02*
X7763039Y-15207508D01*
X7763039Y-15207508D02*
X7753515Y-15217031D01*
X7753515Y-15217031D02*
X7734467Y-15245603D01*
X7734467Y-15245603D02*
X7724943Y-15283698D01*
X7724943Y-15283698D02*
X7724943Y-15359888D01*
X7724943Y-15359888D02*
X7734467Y-15378936D01*
X7734467Y-15378936D02*
X7743991Y-15388460D01*
X7743991Y-15388460D02*
X7763039Y-15397984D01*
X7763039Y-15397984D02*
X7801134Y-15397984D01*
X7801134Y-15397984D02*
X7820182Y-15388460D01*
X7820182Y-15388460D02*
X7829705Y-15378936D01*
X7829705Y-15378936D02*
X7839229Y-15359888D01*
X7839229Y-15359888D02*
X7839229Y-15312269D01*
X7839229Y-15312269D02*
X7829705Y-15293222D01*
X7829705Y-15293222D02*
X7820182Y-15283698D01*
X7820182Y-15283698D02*
X7801134Y-15274174D01*
X7801134Y-15274174D02*
X7763039Y-15274174D01*
X7763039Y-15274174D02*
X7743991Y-15283698D01*
X7743991Y-15283698D02*
X7734467Y-15293222D01*
X7734467Y-15293222D02*
X7724943Y-15312269D01*
X8010658Y-15264650D02*
X8010658Y-15397984D01*
X7963039Y-15188460D02*
X7915420Y-15331317D01*
X7915420Y-15331317D02*
X8039229Y-15331317D01*
X8115420Y-15397984D02*
X8115420Y-15264650D01*
X8115420Y-15283698D02*
X8124943Y-15274174D01*
X8124943Y-15274174D02*
X8143991Y-15264650D01*
X8143991Y-15264650D02*
X8172563Y-15264650D01*
X8172563Y-15264650D02*
X8191610Y-15274174D01*
X8191610Y-15274174D02*
X8201134Y-15293222D01*
X8201134Y-15293222D02*
X8201134Y-15397984D01*
X8201134Y-15293222D02*
X8210658Y-15274174D01*
X8210658Y-15274174D02*
X8229705Y-15264650D01*
X8229705Y-15264650D02*
X8258277Y-15264650D01*
X8258277Y-15264650D02*
X8277324Y-15274174D01*
X8277324Y-15274174D02*
X8286848Y-15293222D01*
X8286848Y-15293222D02*
X8286848Y-15397984D01*
X8382086Y-15397984D02*
X8382086Y-15264650D01*
X8382086Y-15283698D02*
X8391610Y-15274174D01*
X8391610Y-15274174D02*
X8410658Y-15264650D01*
X8410658Y-15264650D02*
X8439229Y-15264650D01*
X8439229Y-15264650D02*
X8458277Y-15274174D01*
X8458277Y-15274174D02*
X8467801Y-15293222D01*
X8467801Y-15293222D02*
X8467801Y-15397984D01*
X8467801Y-15293222D02*
X8477325Y-15274174D01*
X8477325Y-15274174D02*
X8496372Y-15264650D01*
X8496372Y-15264650D02*
X8524944Y-15264650D01*
X8524944Y-15264650D02*
X8543991Y-15274174D01*
X8543991Y-15274174D02*
X8553515Y-15293222D01*
X8553515Y-15293222D02*
X8553515Y-15397984D01*
X8943991Y-15188460D02*
X8772563Y-15445603D01*
X9201134Y-15197984D02*
X9220182Y-15197984D01*
X9220182Y-15197984D02*
X9239229Y-15207508D01*
X9239229Y-15207508D02*
X9248753Y-15217031D01*
X9248753Y-15217031D02*
X9258277Y-15236079D01*
X9258277Y-15236079D02*
X9267801Y-15274174D01*
X9267801Y-15274174D02*
X9267801Y-15321793D01*
X9267801Y-15321793D02*
X9258277Y-15359888D01*
X9258277Y-15359888D02*
X9248753Y-15378936D01*
X9248753Y-15378936D02*
X9239229Y-15388460D01*
X9239229Y-15388460D02*
X9220182Y-15397984D01*
X9220182Y-15397984D02*
X9201134Y-15397984D01*
X9201134Y-15397984D02*
X9182087Y-15388460D01*
X9182087Y-15388460D02*
X9172563Y-15378936D01*
X9172563Y-15378936D02*
X9163039Y-15359888D01*
X9163039Y-15359888D02*
X9153515Y-15321793D01*
X9153515Y-15321793D02*
X9153515Y-15274174D01*
X9153515Y-15274174D02*
X9163039Y-15236079D01*
X9163039Y-15236079D02*
X9172563Y-15217031D01*
X9172563Y-15217031D02*
X9182087Y-15207508D01*
X9182087Y-15207508D02*
X9201134Y-15197984D01*
X9353515Y-15378936D02*
X9363039Y-15388460D01*
X9363039Y-15388460D02*
X9353515Y-15397984D01*
X9353515Y-15397984D02*
X9343991Y-15388460D01*
X9343991Y-15388460D02*
X9353515Y-15378936D01*
X9353515Y-15378936D02*
X9353515Y-15397984D01*
X9486848Y-15197984D02*
X9505896Y-15197984D01*
X9505896Y-15197984D02*
X9524944Y-15207508D01*
X9524944Y-15207508D02*
X9534468Y-15217031D01*
X9534468Y-15217031D02*
X9543991Y-15236079D01*
X9543991Y-15236079D02*
X9553515Y-15274174D01*
X9553515Y-15274174D02*
X9553515Y-15321793D01*
X9553515Y-15321793D02*
X9543991Y-15359888D01*
X9543991Y-15359888D02*
X9534468Y-15378936D01*
X9534468Y-15378936D02*
X9524944Y-15388460D01*
X9524944Y-15388460D02*
X9505896Y-15397984D01*
X9505896Y-15397984D02*
X9486848Y-15397984D01*
X9486848Y-15397984D02*
X9467801Y-15388460D01*
X9467801Y-15388460D02*
X9458277Y-15378936D01*
X9458277Y-15378936D02*
X9448753Y-15359888D01*
X9448753Y-15359888D02*
X9439229Y-15321793D01*
X9439229Y-15321793D02*
X9439229Y-15274174D01*
X9439229Y-15274174D02*
X9448753Y-15236079D01*
X9448753Y-15236079D02*
X9458277Y-15217031D01*
X9458277Y-15217031D02*
X9467801Y-15207508D01*
X9467801Y-15207508D02*
X9486848Y-15197984D01*
X9620182Y-15197984D02*
X9743991Y-15197984D01*
X9743991Y-15197984D02*
X9677325Y-15274174D01*
X9677325Y-15274174D02*
X9705896Y-15274174D01*
X9705896Y-15274174D02*
X9724944Y-15283698D01*
X9724944Y-15283698D02*
X9734468Y-15293222D01*
X9734468Y-15293222D02*
X9743991Y-15312269D01*
X9743991Y-15312269D02*
X9743991Y-15359888D01*
X9743991Y-15359888D02*
X9734468Y-15378936D01*
X9734468Y-15378936D02*
X9724944Y-15388460D01*
X9724944Y-15388460D02*
X9705896Y-15397984D01*
X9705896Y-15397984D02*
X9648753Y-15397984D01*
X9648753Y-15397984D02*
X9629706Y-15388460D01*
X9629706Y-15388460D02*
X9620182Y-15378936D01*
X9915420Y-15264650D02*
X9915420Y-15397984D01*
X9867801Y-15188460D02*
X9820182Y-15331317D01*
X9820182Y-15331317D02*
X9943991Y-15331317D01*
X10058277Y-15197984D02*
X10077325Y-15197984D01*
X10077325Y-15197984D02*
X10096372Y-15207508D01*
X10096372Y-15207508D02*
X10105896Y-15217031D01*
X10105896Y-15217031D02*
X10115420Y-15236079D01*
X10115420Y-15236079D02*
X10124944Y-15274174D01*
X10124944Y-15274174D02*
X10124944Y-15321793D01*
X10124944Y-15321793D02*
X10115420Y-15359888D01*
X10115420Y-15359888D02*
X10105896Y-15378936D01*
X10105896Y-15378936D02*
X10096372Y-15388460D01*
X10096372Y-15388460D02*
X10077325Y-15397984D01*
X10077325Y-15397984D02*
X10058277Y-15397984D01*
X10058277Y-15397984D02*
X10039229Y-15388460D01*
X10039229Y-15388460D02*
X10029706Y-15378936D01*
X10029706Y-15378936D02*
X10020182Y-15359888D01*
X10020182Y-15359888D02*
X10010658Y-15321793D01*
X10010658Y-15321793D02*
X10010658Y-15274174D01*
X10010658Y-15274174D02*
X10020182Y-15236079D01*
X10020182Y-15236079D02*
X10029706Y-15217031D01*
X10029706Y-15217031D02*
X10039229Y-15207508D01*
X10039229Y-15207508D02*
X10058277Y-15197984D01*
X10201134Y-15197984D02*
X10201134Y-15236079D01*
X10277325Y-15197984D02*
X10277325Y-15236079D01*
X10572563Y-15474174D02*
X10563039Y-15464650D01*
X10563039Y-15464650D02*
X10543991Y-15436079D01*
X10543991Y-15436079D02*
X10534468Y-15417031D01*
X10534468Y-15417031D02*
X10524944Y-15388460D01*
X10524944Y-15388460D02*
X10515420Y-15340841D01*
X10515420Y-15340841D02*
X10515420Y-15302746D01*
X10515420Y-15302746D02*
X10524944Y-15255127D01*
X10524944Y-15255127D02*
X10534468Y-15226555D01*
X10534468Y-15226555D02*
X10543991Y-15207508D01*
X10543991Y-15207508D02*
X10563039Y-15178936D01*
X10563039Y-15178936D02*
X10572563Y-15169412D01*
X10639230Y-15217031D02*
X10648753Y-15207508D01*
X10648753Y-15207508D02*
X10667801Y-15197984D01*
X10667801Y-15197984D02*
X10715420Y-15197984D01*
X10715420Y-15197984D02*
X10734468Y-15207508D01*
X10734468Y-15207508D02*
X10743991Y-15217031D01*
X10743991Y-15217031D02*
X10753515Y-15236079D01*
X10753515Y-15236079D02*
X10753515Y-15255127D01*
X10753515Y-15255127D02*
X10743991Y-15283698D01*
X10743991Y-15283698D02*
X10629706Y-15397984D01*
X10629706Y-15397984D02*
X10753515Y-15397984D01*
X10991611Y-15397984D02*
X10991611Y-15197984D01*
X11077325Y-15397984D02*
X11077325Y-15293222D01*
X11077325Y-15293222D02*
X11067801Y-15274174D01*
X11067801Y-15274174D02*
X11048753Y-15264650D01*
X11048753Y-15264650D02*
X11020182Y-15264650D01*
X11020182Y-15264650D02*
X11001134Y-15274174D01*
X11001134Y-15274174D02*
X10991611Y-15283698D01*
X11201134Y-15397984D02*
X11182087Y-15388460D01*
X11182087Y-15388460D02*
X11172563Y-15378936D01*
X11172563Y-15378936D02*
X11163039Y-15359888D01*
X11163039Y-15359888D02*
X11163039Y-15302746D01*
X11163039Y-15302746D02*
X11172563Y-15283698D01*
X11172563Y-15283698D02*
X11182087Y-15274174D01*
X11182087Y-15274174D02*
X11201134Y-15264650D01*
X11201134Y-15264650D02*
X11229706Y-15264650D01*
X11229706Y-15264650D02*
X11248753Y-15274174D01*
X11248753Y-15274174D02*
X11258277Y-15283698D01*
X11258277Y-15283698D02*
X11267801Y-15302746D01*
X11267801Y-15302746D02*
X11267801Y-15359888D01*
X11267801Y-15359888D02*
X11258277Y-15378936D01*
X11258277Y-15378936D02*
X11248753Y-15388460D01*
X11248753Y-15388460D02*
X11229706Y-15397984D01*
X11229706Y-15397984D02*
X11201134Y-15397984D01*
X11382087Y-15397984D02*
X11363039Y-15388460D01*
X11363039Y-15388460D02*
X11353515Y-15369412D01*
X11353515Y-15369412D02*
X11353515Y-15197984D01*
X11534468Y-15388460D02*
X11515420Y-15397984D01*
X11515420Y-15397984D02*
X11477325Y-15397984D01*
X11477325Y-15397984D02*
X11458277Y-15388460D01*
X11458277Y-15388460D02*
X11448753Y-15369412D01*
X11448753Y-15369412D02*
X11448753Y-15293222D01*
X11448753Y-15293222D02*
X11458277Y-15274174D01*
X11458277Y-15274174D02*
X11477325Y-15264650D01*
X11477325Y-15264650D02*
X11515420Y-15264650D01*
X11515420Y-15264650D02*
X11534468Y-15274174D01*
X11534468Y-15274174D02*
X11543991Y-15293222D01*
X11543991Y-15293222D02*
X11543991Y-15312269D01*
X11543991Y-15312269D02*
X11448753Y-15331317D01*
X11620182Y-15388460D02*
X11639230Y-15397984D01*
X11639230Y-15397984D02*
X11677325Y-15397984D01*
X11677325Y-15397984D02*
X11696372Y-15388460D01*
X11696372Y-15388460D02*
X11705896Y-15369412D01*
X11705896Y-15369412D02*
X11705896Y-15359888D01*
X11705896Y-15359888D02*
X11696372Y-15340841D01*
X11696372Y-15340841D02*
X11677325Y-15331317D01*
X11677325Y-15331317D02*
X11648753Y-15331317D01*
X11648753Y-15331317D02*
X11629706Y-15321793D01*
X11629706Y-15321793D02*
X11620182Y-15302746D01*
X11620182Y-15302746D02*
X11620182Y-15293222D01*
X11620182Y-15293222D02*
X11629706Y-15274174D01*
X11629706Y-15274174D02*
X11648753Y-15264650D01*
X11648753Y-15264650D02*
X11677325Y-15264650D01*
X11677325Y-15264650D02*
X11696372Y-15274174D01*
X11772563Y-15474174D02*
X11782087Y-15464650D01*
X11782087Y-15464650D02*
X11801134Y-15436079D01*
X11801134Y-15436079D02*
X11810658Y-15417031D01*
X11810658Y-15417031D02*
X11820182Y-15388460D01*
X11820182Y-15388460D02*
X11829706Y-15340841D01*
X11829706Y-15340841D02*
X11829706Y-15302746D01*
X11829706Y-15302746D02*
X11820182Y-15255127D01*
X11820182Y-15255127D02*
X11810658Y-15226555D01*
X11810658Y-15226555D02*
X11801134Y-15207508D01*
X11801134Y-15207508D02*
X11782087Y-15178936D01*
X11782087Y-15178936D02*
X11772563Y-15169412D01*
D12*
X6952500Y-15525500D02*
X6952500Y-15615500D01*
X6907500Y-15570500D02*
X6997500Y-15570500D01*
D11*
X7296372Y-15461984D02*
X7315420Y-15461984D01*
X7315420Y-15461984D02*
X7334467Y-15471508D01*
X7334467Y-15471508D02*
X7343991Y-15481031D01*
X7343991Y-15481031D02*
X7353515Y-15500079D01*
X7353515Y-15500079D02*
X7363039Y-15538174D01*
X7363039Y-15538174D02*
X7363039Y-15585793D01*
X7363039Y-15585793D02*
X7353515Y-15623888D01*
X7353515Y-15623888D02*
X7343991Y-15642936D01*
X7343991Y-15642936D02*
X7334467Y-15652460D01*
X7334467Y-15652460D02*
X7315420Y-15661984D01*
X7315420Y-15661984D02*
X7296372Y-15661984D01*
X7296372Y-15661984D02*
X7277324Y-15652460D01*
X7277324Y-15652460D02*
X7267801Y-15642936D01*
X7267801Y-15642936D02*
X7258277Y-15623888D01*
X7258277Y-15623888D02*
X7248753Y-15585793D01*
X7248753Y-15585793D02*
X7248753Y-15538174D01*
X7248753Y-15538174D02*
X7258277Y-15500079D01*
X7258277Y-15500079D02*
X7267801Y-15481031D01*
X7267801Y-15481031D02*
X7277324Y-15471508D01*
X7277324Y-15471508D02*
X7296372Y-15461984D01*
X7448753Y-15642936D02*
X7458277Y-15652460D01*
X7458277Y-15652460D02*
X7448753Y-15661984D01*
X7448753Y-15661984D02*
X7439229Y-15652460D01*
X7439229Y-15652460D02*
X7448753Y-15642936D01*
X7448753Y-15642936D02*
X7448753Y-15661984D01*
X7553515Y-15661984D02*
X7591610Y-15661984D01*
X7591610Y-15661984D02*
X7610658Y-15652460D01*
X7610658Y-15652460D02*
X7620182Y-15642936D01*
X7620182Y-15642936D02*
X7639229Y-15614365D01*
X7639229Y-15614365D02*
X7648753Y-15576269D01*
X7648753Y-15576269D02*
X7648753Y-15500079D01*
X7648753Y-15500079D02*
X7639229Y-15481031D01*
X7639229Y-15481031D02*
X7629705Y-15471508D01*
X7629705Y-15471508D02*
X7610658Y-15461984D01*
X7610658Y-15461984D02*
X7572562Y-15461984D01*
X7572562Y-15461984D02*
X7553515Y-15471508D01*
X7553515Y-15471508D02*
X7543991Y-15481031D01*
X7543991Y-15481031D02*
X7534467Y-15500079D01*
X7534467Y-15500079D02*
X7534467Y-15547698D01*
X7534467Y-15547698D02*
X7543991Y-15566746D01*
X7543991Y-15566746D02*
X7553515Y-15576269D01*
X7553515Y-15576269D02*
X7572562Y-15585793D01*
X7572562Y-15585793D02*
X7610658Y-15585793D01*
X7610658Y-15585793D02*
X7629705Y-15576269D01*
X7629705Y-15576269D02*
X7639229Y-15566746D01*
X7639229Y-15566746D02*
X7648753Y-15547698D01*
X7772562Y-15461984D02*
X7791610Y-15461984D01*
X7791610Y-15461984D02*
X7810658Y-15471508D01*
X7810658Y-15471508D02*
X7820182Y-15481031D01*
X7820182Y-15481031D02*
X7829705Y-15500079D01*
X7829705Y-15500079D02*
X7839229Y-15538174D01*
X7839229Y-15538174D02*
X7839229Y-15585793D01*
X7839229Y-15585793D02*
X7829705Y-15623888D01*
X7829705Y-15623888D02*
X7820182Y-15642936D01*
X7820182Y-15642936D02*
X7810658Y-15652460D01*
X7810658Y-15652460D02*
X7791610Y-15661984D01*
X7791610Y-15661984D02*
X7772562Y-15661984D01*
X7772562Y-15661984D02*
X7753515Y-15652460D01*
X7753515Y-15652460D02*
X7743991Y-15642936D01*
X7743991Y-15642936D02*
X7734467Y-15623888D01*
X7734467Y-15623888D02*
X7724943Y-15585793D01*
X7724943Y-15585793D02*
X7724943Y-15538174D01*
X7724943Y-15538174D02*
X7734467Y-15500079D01*
X7734467Y-15500079D02*
X7743991Y-15481031D01*
X7743991Y-15481031D02*
X7753515Y-15471508D01*
X7753515Y-15471508D02*
X7772562Y-15461984D01*
X7963039Y-15461984D02*
X7982086Y-15461984D01*
X7982086Y-15461984D02*
X8001134Y-15471508D01*
X8001134Y-15471508D02*
X8010658Y-15481031D01*
X8010658Y-15481031D02*
X8020182Y-15500079D01*
X8020182Y-15500079D02*
X8029705Y-15538174D01*
X8029705Y-15538174D02*
X8029705Y-15585793D01*
X8029705Y-15585793D02*
X8020182Y-15623888D01*
X8020182Y-15623888D02*
X8010658Y-15642936D01*
X8010658Y-15642936D02*
X8001134Y-15652460D01*
X8001134Y-15652460D02*
X7982086Y-15661984D01*
X7982086Y-15661984D02*
X7963039Y-15661984D01*
X7963039Y-15661984D02*
X7943991Y-15652460D01*
X7943991Y-15652460D02*
X7934467Y-15642936D01*
X7934467Y-15642936D02*
X7924943Y-15623888D01*
X7924943Y-15623888D02*
X7915420Y-15585793D01*
X7915420Y-15585793D02*
X7915420Y-15538174D01*
X7915420Y-15538174D02*
X7924943Y-15500079D01*
X7924943Y-15500079D02*
X7934467Y-15481031D01*
X7934467Y-15481031D02*
X7943991Y-15471508D01*
X7943991Y-15471508D02*
X7963039Y-15461984D01*
X8115420Y-15661984D02*
X8115420Y-15528650D01*
X8115420Y-15547698D02*
X8124943Y-15538174D01*
X8124943Y-15538174D02*
X8143991Y-15528650D01*
X8143991Y-15528650D02*
X8172563Y-15528650D01*
X8172563Y-15528650D02*
X8191610Y-15538174D01*
X8191610Y-15538174D02*
X8201134Y-15557222D01*
X8201134Y-15557222D02*
X8201134Y-15661984D01*
X8201134Y-15557222D02*
X8210658Y-15538174D01*
X8210658Y-15538174D02*
X8229705Y-15528650D01*
X8229705Y-15528650D02*
X8258277Y-15528650D01*
X8258277Y-15528650D02*
X8277324Y-15538174D01*
X8277324Y-15538174D02*
X8286848Y-15557222D01*
X8286848Y-15557222D02*
X8286848Y-15661984D01*
X8382086Y-15661984D02*
X8382086Y-15528650D01*
X8382086Y-15547698D02*
X8391610Y-15538174D01*
X8391610Y-15538174D02*
X8410658Y-15528650D01*
X8410658Y-15528650D02*
X8439229Y-15528650D01*
X8439229Y-15528650D02*
X8458277Y-15538174D01*
X8458277Y-15538174D02*
X8467801Y-15557222D01*
X8467801Y-15557222D02*
X8467801Y-15661984D01*
X8467801Y-15557222D02*
X8477325Y-15538174D01*
X8477325Y-15538174D02*
X8496372Y-15528650D01*
X8496372Y-15528650D02*
X8524944Y-15528650D01*
X8524944Y-15528650D02*
X8543991Y-15538174D01*
X8543991Y-15538174D02*
X8553515Y-15557222D01*
X8553515Y-15557222D02*
X8553515Y-15661984D01*
X8943991Y-15452460D02*
X8772563Y-15709603D01*
X9201134Y-15461984D02*
X9220182Y-15461984D01*
X9220182Y-15461984D02*
X9239229Y-15471508D01*
X9239229Y-15471508D02*
X9248753Y-15481031D01*
X9248753Y-15481031D02*
X9258277Y-15500079D01*
X9258277Y-15500079D02*
X9267801Y-15538174D01*
X9267801Y-15538174D02*
X9267801Y-15585793D01*
X9267801Y-15585793D02*
X9258277Y-15623888D01*
X9258277Y-15623888D02*
X9248753Y-15642936D01*
X9248753Y-15642936D02*
X9239229Y-15652460D01*
X9239229Y-15652460D02*
X9220182Y-15661984D01*
X9220182Y-15661984D02*
X9201134Y-15661984D01*
X9201134Y-15661984D02*
X9182087Y-15652460D01*
X9182087Y-15652460D02*
X9172563Y-15642936D01*
X9172563Y-15642936D02*
X9163039Y-15623888D01*
X9163039Y-15623888D02*
X9153515Y-15585793D01*
X9153515Y-15585793D02*
X9153515Y-15538174D01*
X9153515Y-15538174D02*
X9163039Y-15500079D01*
X9163039Y-15500079D02*
X9172563Y-15481031D01*
X9172563Y-15481031D02*
X9182087Y-15471508D01*
X9182087Y-15471508D02*
X9201134Y-15461984D01*
X9353515Y-15642936D02*
X9363039Y-15652460D01*
X9363039Y-15652460D02*
X9353515Y-15661984D01*
X9353515Y-15661984D02*
X9343991Y-15652460D01*
X9343991Y-15652460D02*
X9353515Y-15642936D01*
X9353515Y-15642936D02*
X9353515Y-15661984D01*
X9486848Y-15461984D02*
X9505896Y-15461984D01*
X9505896Y-15461984D02*
X9524944Y-15471508D01*
X9524944Y-15471508D02*
X9534468Y-15481031D01*
X9534468Y-15481031D02*
X9543991Y-15500079D01*
X9543991Y-15500079D02*
X9553515Y-15538174D01*
X9553515Y-15538174D02*
X9553515Y-15585793D01*
X9553515Y-15585793D02*
X9543991Y-15623888D01*
X9543991Y-15623888D02*
X9534468Y-15642936D01*
X9534468Y-15642936D02*
X9524944Y-15652460D01*
X9524944Y-15652460D02*
X9505896Y-15661984D01*
X9505896Y-15661984D02*
X9486848Y-15661984D01*
X9486848Y-15661984D02*
X9467801Y-15652460D01*
X9467801Y-15652460D02*
X9458277Y-15642936D01*
X9458277Y-15642936D02*
X9448753Y-15623888D01*
X9448753Y-15623888D02*
X9439229Y-15585793D01*
X9439229Y-15585793D02*
X9439229Y-15538174D01*
X9439229Y-15538174D02*
X9448753Y-15500079D01*
X9448753Y-15500079D02*
X9458277Y-15481031D01*
X9458277Y-15481031D02*
X9467801Y-15471508D01*
X9467801Y-15471508D02*
X9486848Y-15461984D01*
X9620182Y-15461984D02*
X9743991Y-15461984D01*
X9743991Y-15461984D02*
X9677325Y-15538174D01*
X9677325Y-15538174D02*
X9705896Y-15538174D01*
X9705896Y-15538174D02*
X9724944Y-15547698D01*
X9724944Y-15547698D02*
X9734468Y-15557222D01*
X9734468Y-15557222D02*
X9743991Y-15576269D01*
X9743991Y-15576269D02*
X9743991Y-15623888D01*
X9743991Y-15623888D02*
X9734468Y-15642936D01*
X9734468Y-15642936D02*
X9724944Y-15652460D01*
X9724944Y-15652460D02*
X9705896Y-15661984D01*
X9705896Y-15661984D02*
X9648753Y-15661984D01*
X9648753Y-15661984D02*
X9629706Y-15652460D01*
X9629706Y-15652460D02*
X9620182Y-15642936D01*
X9924944Y-15461984D02*
X9829706Y-15461984D01*
X9829706Y-15461984D02*
X9820182Y-15557222D01*
X9820182Y-15557222D02*
X9829706Y-15547698D01*
X9829706Y-15547698D02*
X9848753Y-15538174D01*
X9848753Y-15538174D02*
X9896372Y-15538174D01*
X9896372Y-15538174D02*
X9915420Y-15547698D01*
X9915420Y-15547698D02*
X9924944Y-15557222D01*
X9924944Y-15557222D02*
X9934468Y-15576269D01*
X9934468Y-15576269D02*
X9934468Y-15623888D01*
X9934468Y-15623888D02*
X9924944Y-15642936D01*
X9924944Y-15642936D02*
X9915420Y-15652460D01*
X9915420Y-15652460D02*
X9896372Y-15661984D01*
X9896372Y-15661984D02*
X9848753Y-15661984D01*
X9848753Y-15661984D02*
X9829706Y-15652460D01*
X9829706Y-15652460D02*
X9820182Y-15642936D01*
X10105896Y-15528650D02*
X10105896Y-15661984D01*
X10058277Y-15452460D02*
X10010658Y-15595317D01*
X10010658Y-15595317D02*
X10134468Y-15595317D01*
X10201134Y-15461984D02*
X10201134Y-15500079D01*
X10277325Y-15461984D02*
X10277325Y-15500079D01*
X10572563Y-15738174D02*
X10563039Y-15728650D01*
X10563039Y-15728650D02*
X10543991Y-15700079D01*
X10543991Y-15700079D02*
X10534468Y-15681031D01*
X10534468Y-15681031D02*
X10524944Y-15652460D01*
X10524944Y-15652460D02*
X10515420Y-15604841D01*
X10515420Y-15604841D02*
X10515420Y-15566746D01*
X10515420Y-15566746D02*
X10524944Y-15519127D01*
X10524944Y-15519127D02*
X10534468Y-15490555D01*
X10534468Y-15490555D02*
X10543991Y-15471508D01*
X10543991Y-15471508D02*
X10563039Y-15442936D01*
X10563039Y-15442936D02*
X10572563Y-15433412D01*
X10734468Y-15528650D02*
X10734468Y-15661984D01*
X10686849Y-15452460D02*
X10639230Y-15595317D01*
X10639230Y-15595317D02*
X10763039Y-15595317D01*
X10991611Y-15661984D02*
X10991611Y-15461984D01*
X11077325Y-15661984D02*
X11077325Y-15557222D01*
X11077325Y-15557222D02*
X11067801Y-15538174D01*
X11067801Y-15538174D02*
X11048753Y-15528650D01*
X11048753Y-15528650D02*
X11020182Y-15528650D01*
X11020182Y-15528650D02*
X11001134Y-15538174D01*
X11001134Y-15538174D02*
X10991611Y-15547698D01*
X11201134Y-15661984D02*
X11182087Y-15652460D01*
X11182087Y-15652460D02*
X11172563Y-15642936D01*
X11172563Y-15642936D02*
X11163039Y-15623888D01*
X11163039Y-15623888D02*
X11163039Y-15566746D01*
X11163039Y-15566746D02*
X11172563Y-15547698D01*
X11172563Y-15547698D02*
X11182087Y-15538174D01*
X11182087Y-15538174D02*
X11201134Y-15528650D01*
X11201134Y-15528650D02*
X11229706Y-15528650D01*
X11229706Y-15528650D02*
X11248753Y-15538174D01*
X11248753Y-15538174D02*
X11258277Y-15547698D01*
X11258277Y-15547698D02*
X11267801Y-15566746D01*
X11267801Y-15566746D02*
X11267801Y-15623888D01*
X11267801Y-15623888D02*
X11258277Y-15642936D01*
X11258277Y-15642936D02*
X11248753Y-15652460D01*
X11248753Y-15652460D02*
X11229706Y-15661984D01*
X11229706Y-15661984D02*
X11201134Y-15661984D01*
X11382087Y-15661984D02*
X11363039Y-15652460D01*
X11363039Y-15652460D02*
X11353515Y-15633412D01*
X11353515Y-15633412D02*
X11353515Y-15461984D01*
X11534468Y-15652460D02*
X11515420Y-15661984D01*
X11515420Y-15661984D02*
X11477325Y-15661984D01*
X11477325Y-15661984D02*
X11458277Y-15652460D01*
X11458277Y-15652460D02*
X11448753Y-15633412D01*
X11448753Y-15633412D02*
X11448753Y-15557222D01*
X11448753Y-15557222D02*
X11458277Y-15538174D01*
X11458277Y-15538174D02*
X11477325Y-15528650D01*
X11477325Y-15528650D02*
X11515420Y-15528650D01*
X11515420Y-15528650D02*
X11534468Y-15538174D01*
X11534468Y-15538174D02*
X11543991Y-15557222D01*
X11543991Y-15557222D02*
X11543991Y-15576269D01*
X11543991Y-15576269D02*
X11448753Y-15595317D01*
X11620182Y-15652460D02*
X11639230Y-15661984D01*
X11639230Y-15661984D02*
X11677325Y-15661984D01*
X11677325Y-15661984D02*
X11696372Y-15652460D01*
X11696372Y-15652460D02*
X11705896Y-15633412D01*
X11705896Y-15633412D02*
X11705896Y-15623888D01*
X11705896Y-15623888D02*
X11696372Y-15604841D01*
X11696372Y-15604841D02*
X11677325Y-15595317D01*
X11677325Y-15595317D02*
X11648753Y-15595317D01*
X11648753Y-15595317D02*
X11629706Y-15585793D01*
X11629706Y-15585793D02*
X11620182Y-15566746D01*
X11620182Y-15566746D02*
X11620182Y-15557222D01*
X11620182Y-15557222D02*
X11629706Y-15538174D01*
X11629706Y-15538174D02*
X11648753Y-15528650D01*
X11648753Y-15528650D02*
X11677325Y-15528650D01*
X11677325Y-15528650D02*
X11696372Y-15538174D01*
X11772563Y-15738174D02*
X11782087Y-15728650D01*
X11782087Y-15728650D02*
X11801134Y-15700079D01*
X11801134Y-15700079D02*
X11810658Y-15681031D01*
X11810658Y-15681031D02*
X11820182Y-15652460D01*
X11820182Y-15652460D02*
X11829706Y-15604841D01*
X11829706Y-15604841D02*
X11829706Y-15566746D01*
X11829706Y-15566746D02*
X11820182Y-15519127D01*
X11820182Y-15519127D02*
X11810658Y-15490555D01*
X11810658Y-15490555D02*
X11801134Y-15471508D01*
X11801134Y-15471508D02*
X11782087Y-15442936D01*
X11782087Y-15442936D02*
X11772563Y-15433412D01*
D12*
X6982856Y-15869856D02*
X6982856Y-15799144D01*
X6912144Y-15799144D01*
X6912144Y-15869856D01*
X6982856Y-15869856D01*
D11*
X7363039Y-15925984D02*
X7248753Y-15925984D01*
X7305896Y-15925984D02*
X7305896Y-15725984D01*
X7305896Y-15725984D02*
X7286848Y-15754555D01*
X7286848Y-15754555D02*
X7267801Y-15773603D01*
X7267801Y-15773603D02*
X7248753Y-15783127D01*
X7448753Y-15906936D02*
X7458277Y-15916460D01*
X7458277Y-15916460D02*
X7448753Y-15925984D01*
X7448753Y-15925984D02*
X7439229Y-15916460D01*
X7439229Y-15916460D02*
X7448753Y-15906936D01*
X7448753Y-15906936D02*
X7448753Y-15925984D01*
X7582086Y-15725984D02*
X7601134Y-15725984D01*
X7601134Y-15725984D02*
X7620182Y-15735508D01*
X7620182Y-15735508D02*
X7629705Y-15745031D01*
X7629705Y-15745031D02*
X7639229Y-15764079D01*
X7639229Y-15764079D02*
X7648753Y-15802174D01*
X7648753Y-15802174D02*
X7648753Y-15849793D01*
X7648753Y-15849793D02*
X7639229Y-15887888D01*
X7639229Y-15887888D02*
X7629705Y-15906936D01*
X7629705Y-15906936D02*
X7620182Y-15916460D01*
X7620182Y-15916460D02*
X7601134Y-15925984D01*
X7601134Y-15925984D02*
X7582086Y-15925984D01*
X7582086Y-15925984D02*
X7563039Y-15916460D01*
X7563039Y-15916460D02*
X7553515Y-15906936D01*
X7553515Y-15906936D02*
X7543991Y-15887888D01*
X7543991Y-15887888D02*
X7534467Y-15849793D01*
X7534467Y-15849793D02*
X7534467Y-15802174D01*
X7534467Y-15802174D02*
X7543991Y-15764079D01*
X7543991Y-15764079D02*
X7553515Y-15745031D01*
X7553515Y-15745031D02*
X7563039Y-15735508D01*
X7563039Y-15735508D02*
X7582086Y-15725984D01*
X7772562Y-15725984D02*
X7791610Y-15725984D01*
X7791610Y-15725984D02*
X7810658Y-15735508D01*
X7810658Y-15735508D02*
X7820182Y-15745031D01*
X7820182Y-15745031D02*
X7829705Y-15764079D01*
X7829705Y-15764079D02*
X7839229Y-15802174D01*
X7839229Y-15802174D02*
X7839229Y-15849793D01*
X7839229Y-15849793D02*
X7829705Y-15887888D01*
X7829705Y-15887888D02*
X7820182Y-15906936D01*
X7820182Y-15906936D02*
X7810658Y-15916460D01*
X7810658Y-15916460D02*
X7791610Y-15925984D01*
X7791610Y-15925984D02*
X7772562Y-15925984D01*
X7772562Y-15925984D02*
X7753515Y-15916460D01*
X7753515Y-15916460D02*
X7743991Y-15906936D01*
X7743991Y-15906936D02*
X7734467Y-15887888D01*
X7734467Y-15887888D02*
X7724943Y-15849793D01*
X7724943Y-15849793D02*
X7724943Y-15802174D01*
X7724943Y-15802174D02*
X7734467Y-15764079D01*
X7734467Y-15764079D02*
X7743991Y-15745031D01*
X7743991Y-15745031D02*
X7753515Y-15735508D01*
X7753515Y-15735508D02*
X7772562Y-15725984D01*
X7963039Y-15725984D02*
X7982086Y-15725984D01*
X7982086Y-15725984D02*
X8001134Y-15735508D01*
X8001134Y-15735508D02*
X8010658Y-15745031D01*
X8010658Y-15745031D02*
X8020182Y-15764079D01*
X8020182Y-15764079D02*
X8029705Y-15802174D01*
X8029705Y-15802174D02*
X8029705Y-15849793D01*
X8029705Y-15849793D02*
X8020182Y-15887888D01*
X8020182Y-15887888D02*
X8010658Y-15906936D01*
X8010658Y-15906936D02*
X8001134Y-15916460D01*
X8001134Y-15916460D02*
X7982086Y-15925984D01*
X7982086Y-15925984D02*
X7963039Y-15925984D01*
X7963039Y-15925984D02*
X7943991Y-15916460D01*
X7943991Y-15916460D02*
X7934467Y-15906936D01*
X7934467Y-15906936D02*
X7924943Y-15887888D01*
X7924943Y-15887888D02*
X7915420Y-15849793D01*
X7915420Y-15849793D02*
X7915420Y-15802174D01*
X7915420Y-15802174D02*
X7924943Y-15764079D01*
X7924943Y-15764079D02*
X7934467Y-15745031D01*
X7934467Y-15745031D02*
X7943991Y-15735508D01*
X7943991Y-15735508D02*
X7963039Y-15725984D01*
X8115420Y-15925984D02*
X8115420Y-15792650D01*
X8115420Y-15811698D02*
X8124943Y-15802174D01*
X8124943Y-15802174D02*
X8143991Y-15792650D01*
X8143991Y-15792650D02*
X8172563Y-15792650D01*
X8172563Y-15792650D02*
X8191610Y-15802174D01*
X8191610Y-15802174D02*
X8201134Y-15821222D01*
X8201134Y-15821222D02*
X8201134Y-15925984D01*
X8201134Y-15821222D02*
X8210658Y-15802174D01*
X8210658Y-15802174D02*
X8229705Y-15792650D01*
X8229705Y-15792650D02*
X8258277Y-15792650D01*
X8258277Y-15792650D02*
X8277324Y-15802174D01*
X8277324Y-15802174D02*
X8286848Y-15821222D01*
X8286848Y-15821222D02*
X8286848Y-15925984D01*
X8382086Y-15925984D02*
X8382086Y-15792650D01*
X8382086Y-15811698D02*
X8391610Y-15802174D01*
X8391610Y-15802174D02*
X8410658Y-15792650D01*
X8410658Y-15792650D02*
X8439229Y-15792650D01*
X8439229Y-15792650D02*
X8458277Y-15802174D01*
X8458277Y-15802174D02*
X8467801Y-15821222D01*
X8467801Y-15821222D02*
X8467801Y-15925984D01*
X8467801Y-15821222D02*
X8477325Y-15802174D01*
X8477325Y-15802174D02*
X8496372Y-15792650D01*
X8496372Y-15792650D02*
X8524944Y-15792650D01*
X8524944Y-15792650D02*
X8543991Y-15802174D01*
X8543991Y-15802174D02*
X8553515Y-15821222D01*
X8553515Y-15821222D02*
X8553515Y-15925984D01*
X8943991Y-15716460D02*
X8772563Y-15973603D01*
X9201134Y-15725984D02*
X9220182Y-15725984D01*
X9220182Y-15725984D02*
X9239229Y-15735508D01*
X9239229Y-15735508D02*
X9248753Y-15745031D01*
X9248753Y-15745031D02*
X9258277Y-15764079D01*
X9258277Y-15764079D02*
X9267801Y-15802174D01*
X9267801Y-15802174D02*
X9267801Y-15849793D01*
X9267801Y-15849793D02*
X9258277Y-15887888D01*
X9258277Y-15887888D02*
X9248753Y-15906936D01*
X9248753Y-15906936D02*
X9239229Y-15916460D01*
X9239229Y-15916460D02*
X9220182Y-15925984D01*
X9220182Y-15925984D02*
X9201134Y-15925984D01*
X9201134Y-15925984D02*
X9182087Y-15916460D01*
X9182087Y-15916460D02*
X9172563Y-15906936D01*
X9172563Y-15906936D02*
X9163039Y-15887888D01*
X9163039Y-15887888D02*
X9153515Y-15849793D01*
X9153515Y-15849793D02*
X9153515Y-15802174D01*
X9153515Y-15802174D02*
X9163039Y-15764079D01*
X9163039Y-15764079D02*
X9172563Y-15745031D01*
X9172563Y-15745031D02*
X9182087Y-15735508D01*
X9182087Y-15735508D02*
X9201134Y-15725984D01*
X9353515Y-15906936D02*
X9363039Y-15916460D01*
X9363039Y-15916460D02*
X9353515Y-15925984D01*
X9353515Y-15925984D02*
X9343991Y-15916460D01*
X9343991Y-15916460D02*
X9353515Y-15906936D01*
X9353515Y-15906936D02*
X9353515Y-15925984D01*
X9486848Y-15725984D02*
X9505896Y-15725984D01*
X9505896Y-15725984D02*
X9524944Y-15735508D01*
X9524944Y-15735508D02*
X9534468Y-15745031D01*
X9534468Y-15745031D02*
X9543991Y-15764079D01*
X9543991Y-15764079D02*
X9553515Y-15802174D01*
X9553515Y-15802174D02*
X9553515Y-15849793D01*
X9553515Y-15849793D02*
X9543991Y-15887888D01*
X9543991Y-15887888D02*
X9534468Y-15906936D01*
X9534468Y-15906936D02*
X9524944Y-15916460D01*
X9524944Y-15916460D02*
X9505896Y-15925984D01*
X9505896Y-15925984D02*
X9486848Y-15925984D01*
X9486848Y-15925984D02*
X9467801Y-15916460D01*
X9467801Y-15916460D02*
X9458277Y-15906936D01*
X9458277Y-15906936D02*
X9448753Y-15887888D01*
X9448753Y-15887888D02*
X9439229Y-15849793D01*
X9439229Y-15849793D02*
X9439229Y-15802174D01*
X9439229Y-15802174D02*
X9448753Y-15764079D01*
X9448753Y-15764079D02*
X9458277Y-15745031D01*
X9458277Y-15745031D02*
X9467801Y-15735508D01*
X9467801Y-15735508D02*
X9486848Y-15725984D01*
X9620182Y-15725984D02*
X9743991Y-15725984D01*
X9743991Y-15725984D02*
X9677325Y-15802174D01*
X9677325Y-15802174D02*
X9705896Y-15802174D01*
X9705896Y-15802174D02*
X9724944Y-15811698D01*
X9724944Y-15811698D02*
X9734468Y-15821222D01*
X9734468Y-15821222D02*
X9743991Y-15840269D01*
X9743991Y-15840269D02*
X9743991Y-15887888D01*
X9743991Y-15887888D02*
X9734468Y-15906936D01*
X9734468Y-15906936D02*
X9724944Y-15916460D01*
X9724944Y-15916460D02*
X9705896Y-15925984D01*
X9705896Y-15925984D02*
X9648753Y-15925984D01*
X9648753Y-15925984D02*
X9629706Y-15916460D01*
X9629706Y-15916460D02*
X9620182Y-15906936D01*
X9839229Y-15925984D02*
X9877325Y-15925984D01*
X9877325Y-15925984D02*
X9896372Y-15916460D01*
X9896372Y-15916460D02*
X9905896Y-15906936D01*
X9905896Y-15906936D02*
X9924944Y-15878365D01*
X9924944Y-15878365D02*
X9934468Y-15840269D01*
X9934468Y-15840269D02*
X9934468Y-15764079D01*
X9934468Y-15764079D02*
X9924944Y-15745031D01*
X9924944Y-15745031D02*
X9915420Y-15735508D01*
X9915420Y-15735508D02*
X9896372Y-15725984D01*
X9896372Y-15725984D02*
X9858277Y-15725984D01*
X9858277Y-15725984D02*
X9839229Y-15735508D01*
X9839229Y-15735508D02*
X9829706Y-15745031D01*
X9829706Y-15745031D02*
X9820182Y-15764079D01*
X9820182Y-15764079D02*
X9820182Y-15811698D01*
X9820182Y-15811698D02*
X9829706Y-15830746D01*
X9829706Y-15830746D02*
X9839229Y-15840269D01*
X9839229Y-15840269D02*
X9858277Y-15849793D01*
X9858277Y-15849793D02*
X9896372Y-15849793D01*
X9896372Y-15849793D02*
X9915420Y-15840269D01*
X9915420Y-15840269D02*
X9924944Y-15830746D01*
X9924944Y-15830746D02*
X9934468Y-15811698D01*
X10105896Y-15792650D02*
X10105896Y-15925984D01*
X10058277Y-15716460D02*
X10010658Y-15859317D01*
X10010658Y-15859317D02*
X10134468Y-15859317D01*
X10201134Y-15725984D02*
X10201134Y-15764079D01*
X10277325Y-15725984D02*
X10277325Y-15764079D01*
X10572563Y-16002174D02*
X10563039Y-15992650D01*
X10563039Y-15992650D02*
X10543991Y-15964079D01*
X10543991Y-15964079D02*
X10534468Y-15945031D01*
X10534468Y-15945031D02*
X10524944Y-15916460D01*
X10524944Y-15916460D02*
X10515420Y-15868841D01*
X10515420Y-15868841D02*
X10515420Y-15830746D01*
X10515420Y-15830746D02*
X10524944Y-15783127D01*
X10524944Y-15783127D02*
X10534468Y-15754555D01*
X10534468Y-15754555D02*
X10543991Y-15735508D01*
X10543991Y-15735508D02*
X10563039Y-15706936D01*
X10563039Y-15706936D02*
X10572563Y-15697412D01*
X10734468Y-15792650D02*
X10734468Y-15925984D01*
X10686849Y-15716460D02*
X10639230Y-15859317D01*
X10639230Y-15859317D02*
X10763039Y-15859317D01*
X10991611Y-15925984D02*
X10991611Y-15725984D01*
X11077325Y-15925984D02*
X11077325Y-15821222D01*
X11077325Y-15821222D02*
X11067801Y-15802174D01*
X11067801Y-15802174D02*
X11048753Y-15792650D01*
X11048753Y-15792650D02*
X11020182Y-15792650D01*
X11020182Y-15792650D02*
X11001134Y-15802174D01*
X11001134Y-15802174D02*
X10991611Y-15811698D01*
X11201134Y-15925984D02*
X11182087Y-15916460D01*
X11182087Y-15916460D02*
X11172563Y-15906936D01*
X11172563Y-15906936D02*
X11163039Y-15887888D01*
X11163039Y-15887888D02*
X11163039Y-15830746D01*
X11163039Y-15830746D02*
X11172563Y-15811698D01*
X11172563Y-15811698D02*
X11182087Y-15802174D01*
X11182087Y-15802174D02*
X11201134Y-15792650D01*
X11201134Y-15792650D02*
X11229706Y-15792650D01*
X11229706Y-15792650D02*
X11248753Y-15802174D01*
X11248753Y-15802174D02*
X11258277Y-15811698D01*
X11258277Y-15811698D02*
X11267801Y-15830746D01*
X11267801Y-15830746D02*
X11267801Y-15887888D01*
X11267801Y-15887888D02*
X11258277Y-15906936D01*
X11258277Y-15906936D02*
X11248753Y-15916460D01*
X11248753Y-15916460D02*
X11229706Y-15925984D01*
X11229706Y-15925984D02*
X11201134Y-15925984D01*
X11382087Y-15925984D02*
X11363039Y-15916460D01*
X11363039Y-15916460D02*
X11353515Y-15897412D01*
X11353515Y-15897412D02*
X11353515Y-15725984D01*
X11534468Y-15916460D02*
X11515420Y-15925984D01*
X11515420Y-15925984D02*
X11477325Y-15925984D01*
X11477325Y-15925984D02*
X11458277Y-15916460D01*
X11458277Y-15916460D02*
X11448753Y-15897412D01*
X11448753Y-15897412D02*
X11448753Y-15821222D01*
X11448753Y-15821222D02*
X11458277Y-15802174D01*
X11458277Y-15802174D02*
X11477325Y-15792650D01*
X11477325Y-15792650D02*
X11515420Y-15792650D01*
X11515420Y-15792650D02*
X11534468Y-15802174D01*
X11534468Y-15802174D02*
X11543991Y-15821222D01*
X11543991Y-15821222D02*
X11543991Y-15840269D01*
X11543991Y-15840269D02*
X11448753Y-15859317D01*
X11620182Y-15916460D02*
X11639230Y-15925984D01*
X11639230Y-15925984D02*
X11677325Y-15925984D01*
X11677325Y-15925984D02*
X11696372Y-15916460D01*
X11696372Y-15916460D02*
X11705896Y-15897412D01*
X11705896Y-15897412D02*
X11705896Y-15887888D01*
X11705896Y-15887888D02*
X11696372Y-15868841D01*
X11696372Y-15868841D02*
X11677325Y-15859317D01*
X11677325Y-15859317D02*
X11648753Y-15859317D01*
X11648753Y-15859317D02*
X11629706Y-15849793D01*
X11629706Y-15849793D02*
X11620182Y-15830746D01*
X11620182Y-15830746D02*
X11620182Y-15821222D01*
X11620182Y-15821222D02*
X11629706Y-15802174D01*
X11629706Y-15802174D02*
X11648753Y-15792650D01*
X11648753Y-15792650D02*
X11677325Y-15792650D01*
X11677325Y-15792650D02*
X11696372Y-15802174D01*
X11772563Y-16002174D02*
X11782087Y-15992650D01*
X11782087Y-15992650D02*
X11801134Y-15964079D01*
X11801134Y-15964079D02*
X11810658Y-15945031D01*
X11810658Y-15945031D02*
X11820182Y-15916460D01*
X11820182Y-15916460D02*
X11829706Y-15868841D01*
X11829706Y-15868841D02*
X11829706Y-15830746D01*
X11829706Y-15830746D02*
X11820182Y-15783127D01*
X11820182Y-15783127D02*
X11810658Y-15754555D01*
X11810658Y-15754555D02*
X11801134Y-15735508D01*
X11801134Y-15735508D02*
X11782087Y-15706936D01*
X11782087Y-15706936D02*
X11772563Y-15697412D01*
D13*
X6944500Y-16151500D02*
X6997500Y-16098500D01*
X6944500Y-16045500D01*
X6891500Y-16098500D01*
X6944500Y-16151500D01*
D11*
X7363039Y-16189984D02*
X7248753Y-16189984D01*
X7305896Y-16189984D02*
X7305896Y-15989984D01*
X7305896Y-15989984D02*
X7286848Y-16018555D01*
X7286848Y-16018555D02*
X7267801Y-16037603D01*
X7267801Y-16037603D02*
X7248753Y-16047127D01*
X7448753Y-16170936D02*
X7458277Y-16180460D01*
X7458277Y-16180460D02*
X7448753Y-16189984D01*
X7448753Y-16189984D02*
X7439229Y-16180460D01*
X7439229Y-16180460D02*
X7448753Y-16170936D01*
X7448753Y-16170936D02*
X7448753Y-16189984D01*
X7582086Y-15989984D02*
X7601134Y-15989984D01*
X7601134Y-15989984D02*
X7620182Y-15999508D01*
X7620182Y-15999508D02*
X7629705Y-16009031D01*
X7629705Y-16009031D02*
X7639229Y-16028079D01*
X7639229Y-16028079D02*
X7648753Y-16066174D01*
X7648753Y-16066174D02*
X7648753Y-16113793D01*
X7648753Y-16113793D02*
X7639229Y-16151888D01*
X7639229Y-16151888D02*
X7629705Y-16170936D01*
X7629705Y-16170936D02*
X7620182Y-16180460D01*
X7620182Y-16180460D02*
X7601134Y-16189984D01*
X7601134Y-16189984D02*
X7582086Y-16189984D01*
X7582086Y-16189984D02*
X7563039Y-16180460D01*
X7563039Y-16180460D02*
X7553515Y-16170936D01*
X7553515Y-16170936D02*
X7543991Y-16151888D01*
X7543991Y-16151888D02*
X7534467Y-16113793D01*
X7534467Y-16113793D02*
X7534467Y-16066174D01*
X7534467Y-16066174D02*
X7543991Y-16028079D01*
X7543991Y-16028079D02*
X7553515Y-16009031D01*
X7553515Y-16009031D02*
X7563039Y-15999508D01*
X7563039Y-15999508D02*
X7582086Y-15989984D01*
X7820182Y-15989984D02*
X7782086Y-15989984D01*
X7782086Y-15989984D02*
X7763039Y-15999508D01*
X7763039Y-15999508D02*
X7753515Y-16009031D01*
X7753515Y-16009031D02*
X7734467Y-16037603D01*
X7734467Y-16037603D02*
X7724943Y-16075698D01*
X7724943Y-16075698D02*
X7724943Y-16151888D01*
X7724943Y-16151888D02*
X7734467Y-16170936D01*
X7734467Y-16170936D02*
X7743991Y-16180460D01*
X7743991Y-16180460D02*
X7763039Y-16189984D01*
X7763039Y-16189984D02*
X7801134Y-16189984D01*
X7801134Y-16189984D02*
X7820182Y-16180460D01*
X7820182Y-16180460D02*
X7829705Y-16170936D01*
X7829705Y-16170936D02*
X7839229Y-16151888D01*
X7839229Y-16151888D02*
X7839229Y-16104269D01*
X7839229Y-16104269D02*
X7829705Y-16085222D01*
X7829705Y-16085222D02*
X7820182Y-16075698D01*
X7820182Y-16075698D02*
X7801134Y-16066174D01*
X7801134Y-16066174D02*
X7763039Y-16066174D01*
X7763039Y-16066174D02*
X7743991Y-16075698D01*
X7743991Y-16075698D02*
X7734467Y-16085222D01*
X7734467Y-16085222D02*
X7724943Y-16104269D01*
X7963039Y-15989984D02*
X7982086Y-15989984D01*
X7982086Y-15989984D02*
X8001134Y-15999508D01*
X8001134Y-15999508D02*
X8010658Y-16009031D01*
X8010658Y-16009031D02*
X8020182Y-16028079D01*
X8020182Y-16028079D02*
X8029705Y-16066174D01*
X8029705Y-16066174D02*
X8029705Y-16113793D01*
X8029705Y-16113793D02*
X8020182Y-16151888D01*
X8020182Y-16151888D02*
X8010658Y-16170936D01*
X8010658Y-16170936D02*
X8001134Y-16180460D01*
X8001134Y-16180460D02*
X7982086Y-16189984D01*
X7982086Y-16189984D02*
X7963039Y-16189984D01*
X7963039Y-16189984D02*
X7943991Y-16180460D01*
X7943991Y-16180460D02*
X7934467Y-16170936D01*
X7934467Y-16170936D02*
X7924943Y-16151888D01*
X7924943Y-16151888D02*
X7915420Y-16113793D01*
X7915420Y-16113793D02*
X7915420Y-16066174D01*
X7915420Y-16066174D02*
X7924943Y-16028079D01*
X7924943Y-16028079D02*
X7934467Y-16009031D01*
X7934467Y-16009031D02*
X7943991Y-15999508D01*
X7943991Y-15999508D02*
X7963039Y-15989984D01*
X8115420Y-16189984D02*
X8115420Y-16056650D01*
X8115420Y-16075698D02*
X8124943Y-16066174D01*
X8124943Y-16066174D02*
X8143991Y-16056650D01*
X8143991Y-16056650D02*
X8172563Y-16056650D01*
X8172563Y-16056650D02*
X8191610Y-16066174D01*
X8191610Y-16066174D02*
X8201134Y-16085222D01*
X8201134Y-16085222D02*
X8201134Y-16189984D01*
X8201134Y-16085222D02*
X8210658Y-16066174D01*
X8210658Y-16066174D02*
X8229705Y-16056650D01*
X8229705Y-16056650D02*
X8258277Y-16056650D01*
X8258277Y-16056650D02*
X8277324Y-16066174D01*
X8277324Y-16066174D02*
X8286848Y-16085222D01*
X8286848Y-16085222D02*
X8286848Y-16189984D01*
X8382086Y-16189984D02*
X8382086Y-16056650D01*
X8382086Y-16075698D02*
X8391610Y-16066174D01*
X8391610Y-16066174D02*
X8410658Y-16056650D01*
X8410658Y-16056650D02*
X8439229Y-16056650D01*
X8439229Y-16056650D02*
X8458277Y-16066174D01*
X8458277Y-16066174D02*
X8467801Y-16085222D01*
X8467801Y-16085222D02*
X8467801Y-16189984D01*
X8467801Y-16085222D02*
X8477325Y-16066174D01*
X8477325Y-16066174D02*
X8496372Y-16056650D01*
X8496372Y-16056650D02*
X8524944Y-16056650D01*
X8524944Y-16056650D02*
X8543991Y-16066174D01*
X8543991Y-16066174D02*
X8553515Y-16085222D01*
X8553515Y-16085222D02*
X8553515Y-16189984D01*
X8943991Y-15980460D02*
X8772563Y-16237603D01*
X9201134Y-15989984D02*
X9220182Y-15989984D01*
X9220182Y-15989984D02*
X9239229Y-15999508D01*
X9239229Y-15999508D02*
X9248753Y-16009031D01*
X9248753Y-16009031D02*
X9258277Y-16028079D01*
X9258277Y-16028079D02*
X9267801Y-16066174D01*
X9267801Y-16066174D02*
X9267801Y-16113793D01*
X9267801Y-16113793D02*
X9258277Y-16151888D01*
X9258277Y-16151888D02*
X9248753Y-16170936D01*
X9248753Y-16170936D02*
X9239229Y-16180460D01*
X9239229Y-16180460D02*
X9220182Y-16189984D01*
X9220182Y-16189984D02*
X9201134Y-16189984D01*
X9201134Y-16189984D02*
X9182087Y-16180460D01*
X9182087Y-16180460D02*
X9172563Y-16170936D01*
X9172563Y-16170936D02*
X9163039Y-16151888D01*
X9163039Y-16151888D02*
X9153515Y-16113793D01*
X9153515Y-16113793D02*
X9153515Y-16066174D01*
X9153515Y-16066174D02*
X9163039Y-16028079D01*
X9163039Y-16028079D02*
X9172563Y-16009031D01*
X9172563Y-16009031D02*
X9182087Y-15999508D01*
X9182087Y-15999508D02*
X9201134Y-15989984D01*
X9353515Y-16170936D02*
X9363039Y-16180460D01*
X9363039Y-16180460D02*
X9353515Y-16189984D01*
X9353515Y-16189984D02*
X9343991Y-16180460D01*
X9343991Y-16180460D02*
X9353515Y-16170936D01*
X9353515Y-16170936D02*
X9353515Y-16189984D01*
X9486848Y-15989984D02*
X9505896Y-15989984D01*
X9505896Y-15989984D02*
X9524944Y-15999508D01*
X9524944Y-15999508D02*
X9534468Y-16009031D01*
X9534468Y-16009031D02*
X9543991Y-16028079D01*
X9543991Y-16028079D02*
X9553515Y-16066174D01*
X9553515Y-16066174D02*
X9553515Y-16113793D01*
X9553515Y-16113793D02*
X9543991Y-16151888D01*
X9543991Y-16151888D02*
X9534468Y-16170936D01*
X9534468Y-16170936D02*
X9524944Y-16180460D01*
X9524944Y-16180460D02*
X9505896Y-16189984D01*
X9505896Y-16189984D02*
X9486848Y-16189984D01*
X9486848Y-16189984D02*
X9467801Y-16180460D01*
X9467801Y-16180460D02*
X9458277Y-16170936D01*
X9458277Y-16170936D02*
X9448753Y-16151888D01*
X9448753Y-16151888D02*
X9439229Y-16113793D01*
X9439229Y-16113793D02*
X9439229Y-16066174D01*
X9439229Y-16066174D02*
X9448753Y-16028079D01*
X9448753Y-16028079D02*
X9458277Y-16009031D01*
X9458277Y-16009031D02*
X9467801Y-15999508D01*
X9467801Y-15999508D02*
X9486848Y-15989984D01*
X9724944Y-16056650D02*
X9724944Y-16189984D01*
X9677325Y-15980460D02*
X9629706Y-16123317D01*
X9629706Y-16123317D02*
X9753515Y-16123317D01*
X9934468Y-16189984D02*
X9820182Y-16189984D01*
X9877325Y-16189984D02*
X9877325Y-15989984D01*
X9877325Y-15989984D02*
X9858277Y-16018555D01*
X9858277Y-16018555D02*
X9839229Y-16037603D01*
X9839229Y-16037603D02*
X9820182Y-16047127D01*
X10001134Y-15989984D02*
X10134468Y-15989984D01*
X10134468Y-15989984D02*
X10048753Y-16189984D01*
X10201134Y-15989984D02*
X10201134Y-16028079D01*
X10277325Y-15989984D02*
X10277325Y-16028079D01*
X10572563Y-16266174D02*
X10563039Y-16256650D01*
X10563039Y-16256650D02*
X10543991Y-16228079D01*
X10543991Y-16228079D02*
X10534468Y-16209031D01*
X10534468Y-16209031D02*
X10524944Y-16180460D01*
X10524944Y-16180460D02*
X10515420Y-16132841D01*
X10515420Y-16132841D02*
X10515420Y-16094746D01*
X10515420Y-16094746D02*
X10524944Y-16047127D01*
X10524944Y-16047127D02*
X10534468Y-16018555D01*
X10534468Y-16018555D02*
X10543991Y-15999508D01*
X10543991Y-15999508D02*
X10563039Y-15970936D01*
X10563039Y-15970936D02*
X10572563Y-15961412D01*
X10743991Y-15989984D02*
X10648753Y-15989984D01*
X10648753Y-15989984D02*
X10639230Y-16085222D01*
X10639230Y-16085222D02*
X10648753Y-16075698D01*
X10648753Y-16075698D02*
X10667801Y-16066174D01*
X10667801Y-16066174D02*
X10715420Y-16066174D01*
X10715420Y-16066174D02*
X10734468Y-16075698D01*
X10734468Y-16075698D02*
X10743991Y-16085222D01*
X10743991Y-16085222D02*
X10753515Y-16104269D01*
X10753515Y-16104269D02*
X10753515Y-16151888D01*
X10753515Y-16151888D02*
X10743991Y-16170936D01*
X10743991Y-16170936D02*
X10734468Y-16180460D01*
X10734468Y-16180460D02*
X10715420Y-16189984D01*
X10715420Y-16189984D02*
X10667801Y-16189984D01*
X10667801Y-16189984D02*
X10648753Y-16180460D01*
X10648753Y-16180460D02*
X10639230Y-16170936D01*
X10991611Y-16189984D02*
X10991611Y-15989984D01*
X11077325Y-16189984D02*
X11077325Y-16085222D01*
X11077325Y-16085222D02*
X11067801Y-16066174D01*
X11067801Y-16066174D02*
X11048753Y-16056650D01*
X11048753Y-16056650D02*
X11020182Y-16056650D01*
X11020182Y-16056650D02*
X11001134Y-16066174D01*
X11001134Y-16066174D02*
X10991611Y-16075698D01*
X11201134Y-16189984D02*
X11182087Y-16180460D01*
X11182087Y-16180460D02*
X11172563Y-16170936D01*
X11172563Y-16170936D02*
X11163039Y-16151888D01*
X11163039Y-16151888D02*
X11163039Y-16094746D01*
X11163039Y-16094746D02*
X11172563Y-16075698D01*
X11172563Y-16075698D02*
X11182087Y-16066174D01*
X11182087Y-16066174D02*
X11201134Y-16056650D01*
X11201134Y-16056650D02*
X11229706Y-16056650D01*
X11229706Y-16056650D02*
X11248753Y-16066174D01*
X11248753Y-16066174D02*
X11258277Y-16075698D01*
X11258277Y-16075698D02*
X11267801Y-16094746D01*
X11267801Y-16094746D02*
X11267801Y-16151888D01*
X11267801Y-16151888D02*
X11258277Y-16170936D01*
X11258277Y-16170936D02*
X11248753Y-16180460D01*
X11248753Y-16180460D02*
X11229706Y-16189984D01*
X11229706Y-16189984D02*
X11201134Y-16189984D01*
X11382087Y-16189984D02*
X11363039Y-16180460D01*
X11363039Y-16180460D02*
X11353515Y-16161412D01*
X11353515Y-16161412D02*
X11353515Y-15989984D01*
X11534468Y-16180460D02*
X11515420Y-16189984D01*
X11515420Y-16189984D02*
X11477325Y-16189984D01*
X11477325Y-16189984D02*
X11458277Y-16180460D01*
X11458277Y-16180460D02*
X11448753Y-16161412D01*
X11448753Y-16161412D02*
X11448753Y-16085222D01*
X11448753Y-16085222D02*
X11458277Y-16066174D01*
X11458277Y-16066174D02*
X11477325Y-16056650D01*
X11477325Y-16056650D02*
X11515420Y-16056650D01*
X11515420Y-16056650D02*
X11534468Y-16066174D01*
X11534468Y-16066174D02*
X11543991Y-16085222D01*
X11543991Y-16085222D02*
X11543991Y-16104269D01*
X11543991Y-16104269D02*
X11448753Y-16123317D01*
X11620182Y-16180460D02*
X11639230Y-16189984D01*
X11639230Y-16189984D02*
X11677325Y-16189984D01*
X11677325Y-16189984D02*
X11696372Y-16180460D01*
X11696372Y-16180460D02*
X11705896Y-16161412D01*
X11705896Y-16161412D02*
X11705896Y-16151888D01*
X11705896Y-16151888D02*
X11696372Y-16132841D01*
X11696372Y-16132841D02*
X11677325Y-16123317D01*
X11677325Y-16123317D02*
X11648753Y-16123317D01*
X11648753Y-16123317D02*
X11629706Y-16113793D01*
X11629706Y-16113793D02*
X11620182Y-16094746D01*
X11620182Y-16094746D02*
X11620182Y-16085222D01*
X11620182Y-16085222D02*
X11629706Y-16066174D01*
X11629706Y-16066174D02*
X11648753Y-16056650D01*
X11648753Y-16056650D02*
X11677325Y-16056650D01*
X11677325Y-16056650D02*
X11696372Y-16066174D01*
X11772563Y-16266174D02*
X11782087Y-16256650D01*
X11782087Y-16256650D02*
X11801134Y-16228079D01*
X11801134Y-16228079D02*
X11810658Y-16209031D01*
X11810658Y-16209031D02*
X11820182Y-16180460D01*
X11820182Y-16180460D02*
X11829706Y-16132841D01*
X11829706Y-16132841D02*
X11829706Y-16094746D01*
X11829706Y-16094746D02*
X11820182Y-16047127D01*
X11820182Y-16047127D02*
X11810658Y-16018555D01*
X11810658Y-16018555D02*
X11801134Y-15999508D01*
X11801134Y-15999508D02*
X11782087Y-15970936D01*
X11782087Y-15970936D02*
X11772563Y-15961412D01*
D14*
X6877500Y-16302500D02*
X6997500Y-16422500D01*
X6997500Y-16302500D02*
X6877500Y-16422500D01*
X6997500Y-16362500D02*
G75*
G02*
X6877500Y-16362500I-60000J0D01*
G01*
X6877500Y-16362500D02*
G75*
G02*
X6997500Y-16362500I60000J0D01*
G01*
D11*
X7363039Y-16453984D02*
X7248753Y-16453984D01*
X7305896Y-16453984D02*
X7305896Y-16253984D01*
X7305896Y-16253984D02*
X7286848Y-16282555D01*
X7286848Y-16282555D02*
X7267801Y-16301603D01*
X7267801Y-16301603D02*
X7248753Y-16311127D01*
X7448753Y-16434936D02*
X7458277Y-16444460D01*
X7458277Y-16444460D02*
X7448753Y-16453984D01*
X7448753Y-16453984D02*
X7439229Y-16444460D01*
X7439229Y-16444460D02*
X7448753Y-16434936D01*
X7448753Y-16434936D02*
X7448753Y-16453984D01*
X7534467Y-16273031D02*
X7543991Y-16263508D01*
X7543991Y-16263508D02*
X7563039Y-16253984D01*
X7563039Y-16253984D02*
X7610658Y-16253984D01*
X7610658Y-16253984D02*
X7629705Y-16263508D01*
X7629705Y-16263508D02*
X7639229Y-16273031D01*
X7639229Y-16273031D02*
X7648753Y-16292079D01*
X7648753Y-16292079D02*
X7648753Y-16311127D01*
X7648753Y-16311127D02*
X7639229Y-16339698D01*
X7639229Y-16339698D02*
X7524943Y-16453984D01*
X7524943Y-16453984D02*
X7648753Y-16453984D01*
X7772562Y-16253984D02*
X7791610Y-16253984D01*
X7791610Y-16253984D02*
X7810658Y-16263508D01*
X7810658Y-16263508D02*
X7820182Y-16273031D01*
X7820182Y-16273031D02*
X7829705Y-16292079D01*
X7829705Y-16292079D02*
X7839229Y-16330174D01*
X7839229Y-16330174D02*
X7839229Y-16377793D01*
X7839229Y-16377793D02*
X7829705Y-16415888D01*
X7829705Y-16415888D02*
X7820182Y-16434936D01*
X7820182Y-16434936D02*
X7810658Y-16444460D01*
X7810658Y-16444460D02*
X7791610Y-16453984D01*
X7791610Y-16453984D02*
X7772562Y-16453984D01*
X7772562Y-16453984D02*
X7753515Y-16444460D01*
X7753515Y-16444460D02*
X7743991Y-16434936D01*
X7743991Y-16434936D02*
X7734467Y-16415888D01*
X7734467Y-16415888D02*
X7724943Y-16377793D01*
X7724943Y-16377793D02*
X7724943Y-16330174D01*
X7724943Y-16330174D02*
X7734467Y-16292079D01*
X7734467Y-16292079D02*
X7743991Y-16273031D01*
X7743991Y-16273031D02*
X7753515Y-16263508D01*
X7753515Y-16263508D02*
X7772562Y-16253984D01*
X7963039Y-16253984D02*
X7982086Y-16253984D01*
X7982086Y-16253984D02*
X8001134Y-16263508D01*
X8001134Y-16263508D02*
X8010658Y-16273031D01*
X8010658Y-16273031D02*
X8020182Y-16292079D01*
X8020182Y-16292079D02*
X8029705Y-16330174D01*
X8029705Y-16330174D02*
X8029705Y-16377793D01*
X8029705Y-16377793D02*
X8020182Y-16415888D01*
X8020182Y-16415888D02*
X8010658Y-16434936D01*
X8010658Y-16434936D02*
X8001134Y-16444460D01*
X8001134Y-16444460D02*
X7982086Y-16453984D01*
X7982086Y-16453984D02*
X7963039Y-16453984D01*
X7963039Y-16453984D02*
X7943991Y-16444460D01*
X7943991Y-16444460D02*
X7934467Y-16434936D01*
X7934467Y-16434936D02*
X7924943Y-16415888D01*
X7924943Y-16415888D02*
X7915420Y-16377793D01*
X7915420Y-16377793D02*
X7915420Y-16330174D01*
X7915420Y-16330174D02*
X7924943Y-16292079D01*
X7924943Y-16292079D02*
X7934467Y-16273031D01*
X7934467Y-16273031D02*
X7943991Y-16263508D01*
X7943991Y-16263508D02*
X7963039Y-16253984D01*
X8115420Y-16453984D02*
X8115420Y-16320650D01*
X8115420Y-16339698D02*
X8124943Y-16330174D01*
X8124943Y-16330174D02*
X8143991Y-16320650D01*
X8143991Y-16320650D02*
X8172563Y-16320650D01*
X8172563Y-16320650D02*
X8191610Y-16330174D01*
X8191610Y-16330174D02*
X8201134Y-16349222D01*
X8201134Y-16349222D02*
X8201134Y-16453984D01*
X8201134Y-16349222D02*
X8210658Y-16330174D01*
X8210658Y-16330174D02*
X8229705Y-16320650D01*
X8229705Y-16320650D02*
X8258277Y-16320650D01*
X8258277Y-16320650D02*
X8277324Y-16330174D01*
X8277324Y-16330174D02*
X8286848Y-16349222D01*
X8286848Y-16349222D02*
X8286848Y-16453984D01*
X8382086Y-16453984D02*
X8382086Y-16320650D01*
X8382086Y-16339698D02*
X8391610Y-16330174D01*
X8391610Y-16330174D02*
X8410658Y-16320650D01*
X8410658Y-16320650D02*
X8439229Y-16320650D01*
X8439229Y-16320650D02*
X8458277Y-16330174D01*
X8458277Y-16330174D02*
X8467801Y-16349222D01*
X8467801Y-16349222D02*
X8467801Y-16453984D01*
X8467801Y-16349222D02*
X8477325Y-16330174D01*
X8477325Y-16330174D02*
X8496372Y-16320650D01*
X8496372Y-16320650D02*
X8524944Y-16320650D01*
X8524944Y-16320650D02*
X8543991Y-16330174D01*
X8543991Y-16330174D02*
X8553515Y-16349222D01*
X8553515Y-16349222D02*
X8553515Y-16453984D01*
X8943991Y-16244460D02*
X8772563Y-16501603D01*
X9201134Y-16253984D02*
X9220182Y-16253984D01*
X9220182Y-16253984D02*
X9239229Y-16263508D01*
X9239229Y-16263508D02*
X9248753Y-16273031D01*
X9248753Y-16273031D02*
X9258277Y-16292079D01*
X9258277Y-16292079D02*
X9267801Y-16330174D01*
X9267801Y-16330174D02*
X9267801Y-16377793D01*
X9267801Y-16377793D02*
X9258277Y-16415888D01*
X9258277Y-16415888D02*
X9248753Y-16434936D01*
X9248753Y-16434936D02*
X9239229Y-16444460D01*
X9239229Y-16444460D02*
X9220182Y-16453984D01*
X9220182Y-16453984D02*
X9201134Y-16453984D01*
X9201134Y-16453984D02*
X9182087Y-16444460D01*
X9182087Y-16444460D02*
X9172563Y-16434936D01*
X9172563Y-16434936D02*
X9163039Y-16415888D01*
X9163039Y-16415888D02*
X9153515Y-16377793D01*
X9153515Y-16377793D02*
X9153515Y-16330174D01*
X9153515Y-16330174D02*
X9163039Y-16292079D01*
X9163039Y-16292079D02*
X9172563Y-16273031D01*
X9172563Y-16273031D02*
X9182087Y-16263508D01*
X9182087Y-16263508D02*
X9201134Y-16253984D01*
X9353515Y-16434936D02*
X9363039Y-16444460D01*
X9363039Y-16444460D02*
X9353515Y-16453984D01*
X9353515Y-16453984D02*
X9343991Y-16444460D01*
X9343991Y-16444460D02*
X9353515Y-16434936D01*
X9353515Y-16434936D02*
X9353515Y-16453984D01*
X9486848Y-16253984D02*
X9505896Y-16253984D01*
X9505896Y-16253984D02*
X9524944Y-16263508D01*
X9524944Y-16263508D02*
X9534468Y-16273031D01*
X9534468Y-16273031D02*
X9543991Y-16292079D01*
X9543991Y-16292079D02*
X9553515Y-16330174D01*
X9553515Y-16330174D02*
X9553515Y-16377793D01*
X9553515Y-16377793D02*
X9543991Y-16415888D01*
X9543991Y-16415888D02*
X9534468Y-16434936D01*
X9534468Y-16434936D02*
X9524944Y-16444460D01*
X9524944Y-16444460D02*
X9505896Y-16453984D01*
X9505896Y-16453984D02*
X9486848Y-16453984D01*
X9486848Y-16453984D02*
X9467801Y-16444460D01*
X9467801Y-16444460D02*
X9458277Y-16434936D01*
X9458277Y-16434936D02*
X9448753Y-16415888D01*
X9448753Y-16415888D02*
X9439229Y-16377793D01*
X9439229Y-16377793D02*
X9439229Y-16330174D01*
X9439229Y-16330174D02*
X9448753Y-16292079D01*
X9448753Y-16292079D02*
X9458277Y-16273031D01*
X9458277Y-16273031D02*
X9467801Y-16263508D01*
X9467801Y-16263508D02*
X9486848Y-16253984D01*
X9724944Y-16320650D02*
X9724944Y-16453984D01*
X9677325Y-16244460D02*
X9629706Y-16387317D01*
X9629706Y-16387317D02*
X9753515Y-16387317D01*
X9810658Y-16253984D02*
X9943991Y-16253984D01*
X9943991Y-16253984D02*
X9858277Y-16453984D01*
X10010658Y-16273031D02*
X10020182Y-16263508D01*
X10020182Y-16263508D02*
X10039229Y-16253984D01*
X10039229Y-16253984D02*
X10086849Y-16253984D01*
X10086849Y-16253984D02*
X10105896Y-16263508D01*
X10105896Y-16263508D02*
X10115420Y-16273031D01*
X10115420Y-16273031D02*
X10124944Y-16292079D01*
X10124944Y-16292079D02*
X10124944Y-16311127D01*
X10124944Y-16311127D02*
X10115420Y-16339698D01*
X10115420Y-16339698D02*
X10001134Y-16453984D01*
X10001134Y-16453984D02*
X10124944Y-16453984D01*
X10201134Y-16253984D02*
X10201134Y-16292079D01*
X10277325Y-16253984D02*
X10277325Y-16292079D01*
X10572563Y-16530174D02*
X10563039Y-16520650D01*
X10563039Y-16520650D02*
X10543991Y-16492079D01*
X10543991Y-16492079D02*
X10534468Y-16473031D01*
X10534468Y-16473031D02*
X10524944Y-16444460D01*
X10524944Y-16444460D02*
X10515420Y-16396841D01*
X10515420Y-16396841D02*
X10515420Y-16358746D01*
X10515420Y-16358746D02*
X10524944Y-16311127D01*
X10524944Y-16311127D02*
X10534468Y-16282555D01*
X10534468Y-16282555D02*
X10543991Y-16263508D01*
X10543991Y-16263508D02*
X10563039Y-16234936D01*
X10563039Y-16234936D02*
X10572563Y-16225412D01*
X10753515Y-16453984D02*
X10639230Y-16453984D01*
X10696372Y-16453984D02*
X10696372Y-16253984D01*
X10696372Y-16253984D02*
X10677325Y-16282555D01*
X10677325Y-16282555D02*
X10658277Y-16301603D01*
X10658277Y-16301603D02*
X10639230Y-16311127D01*
X10924944Y-16320650D02*
X10924944Y-16453984D01*
X10877325Y-16244460D02*
X10829706Y-16387317D01*
X10829706Y-16387317D02*
X10953515Y-16387317D01*
X11182087Y-16453984D02*
X11182087Y-16253984D01*
X11267801Y-16453984D02*
X11267801Y-16349222D01*
X11267801Y-16349222D02*
X11258277Y-16330174D01*
X11258277Y-16330174D02*
X11239230Y-16320650D01*
X11239230Y-16320650D02*
X11210658Y-16320650D01*
X11210658Y-16320650D02*
X11191610Y-16330174D01*
X11191610Y-16330174D02*
X11182087Y-16339698D01*
X11391610Y-16453984D02*
X11372563Y-16444460D01*
X11372563Y-16444460D02*
X11363039Y-16434936D01*
X11363039Y-16434936D02*
X11353515Y-16415888D01*
X11353515Y-16415888D02*
X11353515Y-16358746D01*
X11353515Y-16358746D02*
X11363039Y-16339698D01*
X11363039Y-16339698D02*
X11372563Y-16330174D01*
X11372563Y-16330174D02*
X11391610Y-16320650D01*
X11391610Y-16320650D02*
X11420182Y-16320650D01*
X11420182Y-16320650D02*
X11439230Y-16330174D01*
X11439230Y-16330174D02*
X11448753Y-16339698D01*
X11448753Y-16339698D02*
X11458277Y-16358746D01*
X11458277Y-16358746D02*
X11458277Y-16415888D01*
X11458277Y-16415888D02*
X11448753Y-16434936D01*
X11448753Y-16434936D02*
X11439230Y-16444460D01*
X11439230Y-16444460D02*
X11420182Y-16453984D01*
X11420182Y-16453984D02*
X11391610Y-16453984D01*
X11572563Y-16453984D02*
X11553515Y-16444460D01*
X11553515Y-16444460D02*
X11543991Y-16425412D01*
X11543991Y-16425412D02*
X11543991Y-16253984D01*
X11724944Y-16444460D02*
X11705896Y-16453984D01*
X11705896Y-16453984D02*
X11667801Y-16453984D01*
X11667801Y-16453984D02*
X11648753Y-16444460D01*
X11648753Y-16444460D02*
X11639230Y-16425412D01*
X11639230Y-16425412D02*
X11639230Y-16349222D01*
X11639230Y-16349222D02*
X11648753Y-16330174D01*
X11648753Y-16330174D02*
X11667801Y-16320650D01*
X11667801Y-16320650D02*
X11705896Y-16320650D01*
X11705896Y-16320650D02*
X11724944Y-16330174D01*
X11724944Y-16330174D02*
X11734468Y-16349222D01*
X11734468Y-16349222D02*
X11734468Y-16368269D01*
X11734468Y-16368269D02*
X11639230Y-16387317D01*
X11810658Y-16444460D02*
X11829706Y-16453984D01*
X11829706Y-16453984D02*
X11867801Y-16453984D01*
X11867801Y-16453984D02*
X11886849Y-16444460D01*
X11886849Y-16444460D02*
X11896372Y-16425412D01*
X11896372Y-16425412D02*
X11896372Y-16415888D01*
X11896372Y-16415888D02*
X11886849Y-16396841D01*
X11886849Y-16396841D02*
X11867801Y-16387317D01*
X11867801Y-16387317D02*
X11839230Y-16387317D01*
X11839230Y-16387317D02*
X11820182Y-16377793D01*
X11820182Y-16377793D02*
X11810658Y-16358746D01*
X11810658Y-16358746D02*
X11810658Y-16349222D01*
X11810658Y-16349222D02*
X11820182Y-16330174D01*
X11820182Y-16330174D02*
X11839230Y-16320650D01*
X11839230Y-16320650D02*
X11867801Y-16320650D01*
X11867801Y-16320650D02*
X11886849Y-16330174D01*
X11963039Y-16530174D02*
X11972563Y-16520650D01*
X11972563Y-16520650D02*
X11991611Y-16492079D01*
X11991611Y-16492079D02*
X12001134Y-16473031D01*
X12001134Y-16473031D02*
X12010658Y-16444460D01*
X12010658Y-16444460D02*
X12020182Y-16396841D01*
X12020182Y-16396841D02*
X12020182Y-16358746D01*
X12020182Y-16358746D02*
X12010658Y-16311127D01*
X12010658Y-16311127D02*
X12001134Y-16282555D01*
X12001134Y-16282555D02*
X11991611Y-16263508D01*
X11991611Y-16263508D02*
X11972563Y-16234936D01*
X11972563Y-16234936D02*
X11963039Y-16225412D01*
D15*
X6867500Y-16561500D02*
X6997500Y-16691500D01*
X6997500Y-16561500D02*
X6867500Y-16691500D01*
X6932500Y-16561500D02*
X6932500Y-16691500D01*
X6867500Y-16626500D02*
X6997500Y-16626500D01*
D11*
X7363039Y-16717984D02*
X7248753Y-16717984D01*
X7305896Y-16717984D02*
X7305896Y-16517984D01*
X7305896Y-16517984D02*
X7286848Y-16546555D01*
X7286848Y-16546555D02*
X7267801Y-16565603D01*
X7267801Y-16565603D02*
X7248753Y-16575127D01*
X7448753Y-16698936D02*
X7458277Y-16708460D01*
X7458277Y-16708460D02*
X7448753Y-16717984D01*
X7448753Y-16717984D02*
X7439229Y-16708460D01*
X7439229Y-16708460D02*
X7448753Y-16698936D01*
X7448753Y-16698936D02*
X7448753Y-16717984D01*
X7524943Y-16517984D02*
X7648753Y-16517984D01*
X7648753Y-16517984D02*
X7582086Y-16594174D01*
X7582086Y-16594174D02*
X7610658Y-16594174D01*
X7610658Y-16594174D02*
X7629705Y-16603698D01*
X7629705Y-16603698D02*
X7639229Y-16613222D01*
X7639229Y-16613222D02*
X7648753Y-16632269D01*
X7648753Y-16632269D02*
X7648753Y-16679888D01*
X7648753Y-16679888D02*
X7639229Y-16698936D01*
X7639229Y-16698936D02*
X7629705Y-16708460D01*
X7629705Y-16708460D02*
X7610658Y-16717984D01*
X7610658Y-16717984D02*
X7553515Y-16717984D01*
X7553515Y-16717984D02*
X7534467Y-16708460D01*
X7534467Y-16708460D02*
X7524943Y-16698936D01*
X7772562Y-16517984D02*
X7791610Y-16517984D01*
X7791610Y-16517984D02*
X7810658Y-16527508D01*
X7810658Y-16527508D02*
X7820182Y-16537031D01*
X7820182Y-16537031D02*
X7829705Y-16556079D01*
X7829705Y-16556079D02*
X7839229Y-16594174D01*
X7839229Y-16594174D02*
X7839229Y-16641793D01*
X7839229Y-16641793D02*
X7829705Y-16679888D01*
X7829705Y-16679888D02*
X7820182Y-16698936D01*
X7820182Y-16698936D02*
X7810658Y-16708460D01*
X7810658Y-16708460D02*
X7791610Y-16717984D01*
X7791610Y-16717984D02*
X7772562Y-16717984D01*
X7772562Y-16717984D02*
X7753515Y-16708460D01*
X7753515Y-16708460D02*
X7743991Y-16698936D01*
X7743991Y-16698936D02*
X7734467Y-16679888D01*
X7734467Y-16679888D02*
X7724943Y-16641793D01*
X7724943Y-16641793D02*
X7724943Y-16594174D01*
X7724943Y-16594174D02*
X7734467Y-16556079D01*
X7734467Y-16556079D02*
X7743991Y-16537031D01*
X7743991Y-16537031D02*
X7753515Y-16527508D01*
X7753515Y-16527508D02*
X7772562Y-16517984D01*
X7963039Y-16517984D02*
X7982086Y-16517984D01*
X7982086Y-16517984D02*
X8001134Y-16527508D01*
X8001134Y-16527508D02*
X8010658Y-16537031D01*
X8010658Y-16537031D02*
X8020182Y-16556079D01*
X8020182Y-16556079D02*
X8029705Y-16594174D01*
X8029705Y-16594174D02*
X8029705Y-16641793D01*
X8029705Y-16641793D02*
X8020182Y-16679888D01*
X8020182Y-16679888D02*
X8010658Y-16698936D01*
X8010658Y-16698936D02*
X8001134Y-16708460D01*
X8001134Y-16708460D02*
X7982086Y-16717984D01*
X7982086Y-16717984D02*
X7963039Y-16717984D01*
X7963039Y-16717984D02*
X7943991Y-16708460D01*
X7943991Y-16708460D02*
X7934467Y-16698936D01*
X7934467Y-16698936D02*
X7924943Y-16679888D01*
X7924943Y-16679888D02*
X7915420Y-16641793D01*
X7915420Y-16641793D02*
X7915420Y-16594174D01*
X7915420Y-16594174D02*
X7924943Y-16556079D01*
X7924943Y-16556079D02*
X7934467Y-16537031D01*
X7934467Y-16537031D02*
X7943991Y-16527508D01*
X7943991Y-16527508D02*
X7963039Y-16517984D01*
X8115420Y-16717984D02*
X8115420Y-16584650D01*
X8115420Y-16603698D02*
X8124943Y-16594174D01*
X8124943Y-16594174D02*
X8143991Y-16584650D01*
X8143991Y-16584650D02*
X8172563Y-16584650D01*
X8172563Y-16584650D02*
X8191610Y-16594174D01*
X8191610Y-16594174D02*
X8201134Y-16613222D01*
X8201134Y-16613222D02*
X8201134Y-16717984D01*
X8201134Y-16613222D02*
X8210658Y-16594174D01*
X8210658Y-16594174D02*
X8229705Y-16584650D01*
X8229705Y-16584650D02*
X8258277Y-16584650D01*
X8258277Y-16584650D02*
X8277324Y-16594174D01*
X8277324Y-16594174D02*
X8286848Y-16613222D01*
X8286848Y-16613222D02*
X8286848Y-16717984D01*
X8382086Y-16717984D02*
X8382086Y-16584650D01*
X8382086Y-16603698D02*
X8391610Y-16594174D01*
X8391610Y-16594174D02*
X8410658Y-16584650D01*
X8410658Y-16584650D02*
X8439229Y-16584650D01*
X8439229Y-16584650D02*
X8458277Y-16594174D01*
X8458277Y-16594174D02*
X8467801Y-16613222D01*
X8467801Y-16613222D02*
X8467801Y-16717984D01*
X8467801Y-16613222D02*
X8477325Y-16594174D01*
X8477325Y-16594174D02*
X8496372Y-16584650D01*
X8496372Y-16584650D02*
X8524944Y-16584650D01*
X8524944Y-16584650D02*
X8543991Y-16594174D01*
X8543991Y-16594174D02*
X8553515Y-16613222D01*
X8553515Y-16613222D02*
X8553515Y-16717984D01*
X8943991Y-16508460D02*
X8772563Y-16765603D01*
X9201134Y-16517984D02*
X9220182Y-16517984D01*
X9220182Y-16517984D02*
X9239229Y-16527508D01*
X9239229Y-16527508D02*
X9248753Y-16537031D01*
X9248753Y-16537031D02*
X9258277Y-16556079D01*
X9258277Y-16556079D02*
X9267801Y-16594174D01*
X9267801Y-16594174D02*
X9267801Y-16641793D01*
X9267801Y-16641793D02*
X9258277Y-16679888D01*
X9258277Y-16679888D02*
X9248753Y-16698936D01*
X9248753Y-16698936D02*
X9239229Y-16708460D01*
X9239229Y-16708460D02*
X9220182Y-16717984D01*
X9220182Y-16717984D02*
X9201134Y-16717984D01*
X9201134Y-16717984D02*
X9182087Y-16708460D01*
X9182087Y-16708460D02*
X9172563Y-16698936D01*
X9172563Y-16698936D02*
X9163039Y-16679888D01*
X9163039Y-16679888D02*
X9153515Y-16641793D01*
X9153515Y-16641793D02*
X9153515Y-16594174D01*
X9153515Y-16594174D02*
X9163039Y-16556079D01*
X9163039Y-16556079D02*
X9172563Y-16537031D01*
X9172563Y-16537031D02*
X9182087Y-16527508D01*
X9182087Y-16527508D02*
X9201134Y-16517984D01*
X9353515Y-16698936D02*
X9363039Y-16708460D01*
X9363039Y-16708460D02*
X9353515Y-16717984D01*
X9353515Y-16717984D02*
X9343991Y-16708460D01*
X9343991Y-16708460D02*
X9353515Y-16698936D01*
X9353515Y-16698936D02*
X9353515Y-16717984D01*
X9486848Y-16517984D02*
X9505896Y-16517984D01*
X9505896Y-16517984D02*
X9524944Y-16527508D01*
X9524944Y-16527508D02*
X9534468Y-16537031D01*
X9534468Y-16537031D02*
X9543991Y-16556079D01*
X9543991Y-16556079D02*
X9553515Y-16594174D01*
X9553515Y-16594174D02*
X9553515Y-16641793D01*
X9553515Y-16641793D02*
X9543991Y-16679888D01*
X9543991Y-16679888D02*
X9534468Y-16698936D01*
X9534468Y-16698936D02*
X9524944Y-16708460D01*
X9524944Y-16708460D02*
X9505896Y-16717984D01*
X9505896Y-16717984D02*
X9486848Y-16717984D01*
X9486848Y-16717984D02*
X9467801Y-16708460D01*
X9467801Y-16708460D02*
X9458277Y-16698936D01*
X9458277Y-16698936D02*
X9448753Y-16679888D01*
X9448753Y-16679888D02*
X9439229Y-16641793D01*
X9439229Y-16641793D02*
X9439229Y-16594174D01*
X9439229Y-16594174D02*
X9448753Y-16556079D01*
X9448753Y-16556079D02*
X9458277Y-16537031D01*
X9458277Y-16537031D02*
X9467801Y-16527508D01*
X9467801Y-16527508D02*
X9486848Y-16517984D01*
X9734468Y-16517984D02*
X9639229Y-16517984D01*
X9639229Y-16517984D02*
X9629706Y-16613222D01*
X9629706Y-16613222D02*
X9639229Y-16603698D01*
X9639229Y-16603698D02*
X9658277Y-16594174D01*
X9658277Y-16594174D02*
X9705896Y-16594174D01*
X9705896Y-16594174D02*
X9724944Y-16603698D01*
X9724944Y-16603698D02*
X9734468Y-16613222D01*
X9734468Y-16613222D02*
X9743991Y-16632269D01*
X9743991Y-16632269D02*
X9743991Y-16679888D01*
X9743991Y-16679888D02*
X9734468Y-16698936D01*
X9734468Y-16698936D02*
X9724944Y-16708460D01*
X9724944Y-16708460D02*
X9705896Y-16717984D01*
X9705896Y-16717984D02*
X9658277Y-16717984D01*
X9658277Y-16717984D02*
X9639229Y-16708460D01*
X9639229Y-16708460D02*
X9629706Y-16698936D01*
X9934468Y-16717984D02*
X9820182Y-16717984D01*
X9877325Y-16717984D02*
X9877325Y-16517984D01*
X9877325Y-16517984D02*
X9858277Y-16546555D01*
X9858277Y-16546555D02*
X9839229Y-16565603D01*
X9839229Y-16565603D02*
X9820182Y-16575127D01*
X10010658Y-16537031D02*
X10020182Y-16527508D01*
X10020182Y-16527508D02*
X10039229Y-16517984D01*
X10039229Y-16517984D02*
X10086849Y-16517984D01*
X10086849Y-16517984D02*
X10105896Y-16527508D01*
X10105896Y-16527508D02*
X10115420Y-16537031D01*
X10115420Y-16537031D02*
X10124944Y-16556079D01*
X10124944Y-16556079D02*
X10124944Y-16575127D01*
X10124944Y-16575127D02*
X10115420Y-16603698D01*
X10115420Y-16603698D02*
X10001134Y-16717984D01*
X10001134Y-16717984D02*
X10124944Y-16717984D01*
X10201134Y-16517984D02*
X10201134Y-16556079D01*
X10277325Y-16517984D02*
X10277325Y-16556079D01*
X10572563Y-16794174D02*
X10563039Y-16784650D01*
X10563039Y-16784650D02*
X10543991Y-16756079D01*
X10543991Y-16756079D02*
X10534468Y-16737031D01*
X10534468Y-16737031D02*
X10524944Y-16708460D01*
X10524944Y-16708460D02*
X10515420Y-16660841D01*
X10515420Y-16660841D02*
X10515420Y-16622746D01*
X10515420Y-16622746D02*
X10524944Y-16575127D01*
X10524944Y-16575127D02*
X10534468Y-16546555D01*
X10534468Y-16546555D02*
X10543991Y-16527508D01*
X10543991Y-16527508D02*
X10563039Y-16498936D01*
X10563039Y-16498936D02*
X10572563Y-16489412D01*
X10734468Y-16584650D02*
X10734468Y-16717984D01*
X10686849Y-16508460D02*
X10639230Y-16651317D01*
X10639230Y-16651317D02*
X10763039Y-16651317D01*
X10991611Y-16717984D02*
X10991611Y-16517984D01*
X11077325Y-16717984D02*
X11077325Y-16613222D01*
X11077325Y-16613222D02*
X11067801Y-16594174D01*
X11067801Y-16594174D02*
X11048753Y-16584650D01*
X11048753Y-16584650D02*
X11020182Y-16584650D01*
X11020182Y-16584650D02*
X11001134Y-16594174D01*
X11001134Y-16594174D02*
X10991611Y-16603698D01*
X11201134Y-16717984D02*
X11182087Y-16708460D01*
X11182087Y-16708460D02*
X11172563Y-16698936D01*
X11172563Y-16698936D02*
X11163039Y-16679888D01*
X11163039Y-16679888D02*
X11163039Y-16622746D01*
X11163039Y-16622746D02*
X11172563Y-16603698D01*
X11172563Y-16603698D02*
X11182087Y-16594174D01*
X11182087Y-16594174D02*
X11201134Y-16584650D01*
X11201134Y-16584650D02*
X11229706Y-16584650D01*
X11229706Y-16584650D02*
X11248753Y-16594174D01*
X11248753Y-16594174D02*
X11258277Y-16603698D01*
X11258277Y-16603698D02*
X11267801Y-16622746D01*
X11267801Y-16622746D02*
X11267801Y-16679888D01*
X11267801Y-16679888D02*
X11258277Y-16698936D01*
X11258277Y-16698936D02*
X11248753Y-16708460D01*
X11248753Y-16708460D02*
X11229706Y-16717984D01*
X11229706Y-16717984D02*
X11201134Y-16717984D01*
X11382087Y-16717984D02*
X11363039Y-16708460D01*
X11363039Y-16708460D02*
X11353515Y-16689412D01*
X11353515Y-16689412D02*
X11353515Y-16517984D01*
X11534468Y-16708460D02*
X11515420Y-16717984D01*
X11515420Y-16717984D02*
X11477325Y-16717984D01*
X11477325Y-16717984D02*
X11458277Y-16708460D01*
X11458277Y-16708460D02*
X11448753Y-16689412D01*
X11448753Y-16689412D02*
X11448753Y-16613222D01*
X11448753Y-16613222D02*
X11458277Y-16594174D01*
X11458277Y-16594174D02*
X11477325Y-16584650D01*
X11477325Y-16584650D02*
X11515420Y-16584650D01*
X11515420Y-16584650D02*
X11534468Y-16594174D01*
X11534468Y-16594174D02*
X11543991Y-16613222D01*
X11543991Y-16613222D02*
X11543991Y-16632269D01*
X11543991Y-16632269D02*
X11448753Y-16651317D01*
X11620182Y-16708460D02*
X11639230Y-16717984D01*
X11639230Y-16717984D02*
X11677325Y-16717984D01*
X11677325Y-16717984D02*
X11696372Y-16708460D01*
X11696372Y-16708460D02*
X11705896Y-16689412D01*
X11705896Y-16689412D02*
X11705896Y-16679888D01*
X11705896Y-16679888D02*
X11696372Y-16660841D01*
X11696372Y-16660841D02*
X11677325Y-16651317D01*
X11677325Y-16651317D02*
X11648753Y-16651317D01*
X11648753Y-16651317D02*
X11629706Y-16641793D01*
X11629706Y-16641793D02*
X11620182Y-16622746D01*
X11620182Y-16622746D02*
X11620182Y-16613222D01*
X11620182Y-16613222D02*
X11629706Y-16594174D01*
X11629706Y-16594174D02*
X11648753Y-16584650D01*
X11648753Y-16584650D02*
X11677325Y-16584650D01*
X11677325Y-16584650D02*
X11696372Y-16594174D01*
X11772563Y-16794174D02*
X11782087Y-16784650D01*
X11782087Y-16784650D02*
X11801134Y-16756079D01*
X11801134Y-16756079D02*
X11810658Y-16737031D01*
X11810658Y-16737031D02*
X11820182Y-16708460D01*
X11820182Y-16708460D02*
X11829706Y-16660841D01*
X11829706Y-16660841D02*
X11829706Y-16622746D01*
X11829706Y-16622746D02*
X11820182Y-16575127D01*
X11820182Y-16575127D02*
X11810658Y-16546555D01*
X11810658Y-16546555D02*
X11801134Y-16527508D01*
X11801134Y-16527508D02*
X11782087Y-16498936D01*
X11782087Y-16498936D02*
X11772563Y-16489412D01*
D16*
X6837500Y-16810500D02*
X6997500Y-16970500D01*
X6997500Y-16810500D02*
X6837500Y-16970500D01*
X6974069Y-16947069D02*
X6974069Y-16833931D01*
X6860931Y-16833931D01*
X6860931Y-16947069D01*
X6974069Y-16947069D01*
D11*
X7363039Y-16981984D02*
X7248753Y-16981984D01*
X7305896Y-16981984D02*
X7305896Y-16781984D01*
X7305896Y-16781984D02*
X7286848Y-16810555D01*
X7286848Y-16810555D02*
X7267801Y-16829603D01*
X7267801Y-16829603D02*
X7248753Y-16839127D01*
X7448753Y-16962936D02*
X7458277Y-16972460D01*
X7458277Y-16972460D02*
X7448753Y-16981984D01*
X7448753Y-16981984D02*
X7439229Y-16972460D01*
X7439229Y-16972460D02*
X7448753Y-16962936D01*
X7448753Y-16962936D02*
X7448753Y-16981984D01*
X7629705Y-16781984D02*
X7591610Y-16781984D01*
X7591610Y-16781984D02*
X7572562Y-16791508D01*
X7572562Y-16791508D02*
X7563039Y-16801031D01*
X7563039Y-16801031D02*
X7543991Y-16829603D01*
X7543991Y-16829603D02*
X7534467Y-16867698D01*
X7534467Y-16867698D02*
X7534467Y-16943889D01*
X7534467Y-16943889D02*
X7543991Y-16962936D01*
X7543991Y-16962936D02*
X7553515Y-16972460D01*
X7553515Y-16972460D02*
X7572562Y-16981984D01*
X7572562Y-16981984D02*
X7610658Y-16981984D01*
X7610658Y-16981984D02*
X7629705Y-16972460D01*
X7629705Y-16972460D02*
X7639229Y-16962936D01*
X7639229Y-16962936D02*
X7648753Y-16943889D01*
X7648753Y-16943889D02*
X7648753Y-16896270D01*
X7648753Y-16896270D02*
X7639229Y-16877222D01*
X7639229Y-16877222D02*
X7629705Y-16867698D01*
X7629705Y-16867698D02*
X7610658Y-16858174D01*
X7610658Y-16858174D02*
X7572562Y-16858174D01*
X7572562Y-16858174D02*
X7553515Y-16867698D01*
X7553515Y-16867698D02*
X7543991Y-16877222D01*
X7543991Y-16877222D02*
X7534467Y-16896270D01*
X7772562Y-16781984D02*
X7791610Y-16781984D01*
X7791610Y-16781984D02*
X7810658Y-16791508D01*
X7810658Y-16791508D02*
X7820182Y-16801031D01*
X7820182Y-16801031D02*
X7829705Y-16820079D01*
X7829705Y-16820079D02*
X7839229Y-16858174D01*
X7839229Y-16858174D02*
X7839229Y-16905793D01*
X7839229Y-16905793D02*
X7829705Y-16943889D01*
X7829705Y-16943889D02*
X7820182Y-16962936D01*
X7820182Y-16962936D02*
X7810658Y-16972460D01*
X7810658Y-16972460D02*
X7791610Y-16981984D01*
X7791610Y-16981984D02*
X7772562Y-16981984D01*
X7772562Y-16981984D02*
X7753515Y-16972460D01*
X7753515Y-16972460D02*
X7743991Y-16962936D01*
X7743991Y-16962936D02*
X7734467Y-16943889D01*
X7734467Y-16943889D02*
X7724943Y-16905793D01*
X7724943Y-16905793D02*
X7724943Y-16858174D01*
X7724943Y-16858174D02*
X7734467Y-16820079D01*
X7734467Y-16820079D02*
X7743991Y-16801031D01*
X7743991Y-16801031D02*
X7753515Y-16791508D01*
X7753515Y-16791508D02*
X7772562Y-16781984D01*
X7963039Y-16781984D02*
X7982086Y-16781984D01*
X7982086Y-16781984D02*
X8001134Y-16791508D01*
X8001134Y-16791508D02*
X8010658Y-16801031D01*
X8010658Y-16801031D02*
X8020182Y-16820079D01*
X8020182Y-16820079D02*
X8029705Y-16858174D01*
X8029705Y-16858174D02*
X8029705Y-16905793D01*
X8029705Y-16905793D02*
X8020182Y-16943889D01*
X8020182Y-16943889D02*
X8010658Y-16962936D01*
X8010658Y-16962936D02*
X8001134Y-16972460D01*
X8001134Y-16972460D02*
X7982086Y-16981984D01*
X7982086Y-16981984D02*
X7963039Y-16981984D01*
X7963039Y-16981984D02*
X7943991Y-16972460D01*
X7943991Y-16972460D02*
X7934467Y-16962936D01*
X7934467Y-16962936D02*
X7924943Y-16943889D01*
X7924943Y-16943889D02*
X7915420Y-16905793D01*
X7915420Y-16905793D02*
X7915420Y-16858174D01*
X7915420Y-16858174D02*
X7924943Y-16820079D01*
X7924943Y-16820079D02*
X7934467Y-16801031D01*
X7934467Y-16801031D02*
X7943991Y-16791508D01*
X7943991Y-16791508D02*
X7963039Y-16781984D01*
X8115420Y-16981984D02*
X8115420Y-16848650D01*
X8115420Y-16867698D02*
X8124943Y-16858174D01*
X8124943Y-16858174D02*
X8143991Y-16848650D01*
X8143991Y-16848650D02*
X8172563Y-16848650D01*
X8172563Y-16848650D02*
X8191610Y-16858174D01*
X8191610Y-16858174D02*
X8201134Y-16877222D01*
X8201134Y-16877222D02*
X8201134Y-16981984D01*
X8201134Y-16877222D02*
X8210658Y-16858174D01*
X8210658Y-16858174D02*
X8229705Y-16848650D01*
X8229705Y-16848650D02*
X8258277Y-16848650D01*
X8258277Y-16848650D02*
X8277324Y-16858174D01*
X8277324Y-16858174D02*
X8286848Y-16877222D01*
X8286848Y-16877222D02*
X8286848Y-16981984D01*
X8382086Y-16981984D02*
X8382086Y-16848650D01*
X8382086Y-16867698D02*
X8391610Y-16858174D01*
X8391610Y-16858174D02*
X8410658Y-16848650D01*
X8410658Y-16848650D02*
X8439229Y-16848650D01*
X8439229Y-16848650D02*
X8458277Y-16858174D01*
X8458277Y-16858174D02*
X8467801Y-16877222D01*
X8467801Y-16877222D02*
X8467801Y-16981984D01*
X8467801Y-16877222D02*
X8477325Y-16858174D01*
X8477325Y-16858174D02*
X8496372Y-16848650D01*
X8496372Y-16848650D02*
X8524944Y-16848650D01*
X8524944Y-16848650D02*
X8543991Y-16858174D01*
X8543991Y-16858174D02*
X8553515Y-16877222D01*
X8553515Y-16877222D02*
X8553515Y-16981984D01*
X8943991Y-16772460D02*
X8772563Y-17029603D01*
X9201134Y-16781984D02*
X9220182Y-16781984D01*
X9220182Y-16781984D02*
X9239229Y-16791508D01*
X9239229Y-16791508D02*
X9248753Y-16801031D01*
X9248753Y-16801031D02*
X9258277Y-16820079D01*
X9258277Y-16820079D02*
X9267801Y-16858174D01*
X9267801Y-16858174D02*
X9267801Y-16905793D01*
X9267801Y-16905793D02*
X9258277Y-16943889D01*
X9258277Y-16943889D02*
X9248753Y-16962936D01*
X9248753Y-16962936D02*
X9239229Y-16972460D01*
X9239229Y-16972460D02*
X9220182Y-16981984D01*
X9220182Y-16981984D02*
X9201134Y-16981984D01*
X9201134Y-16981984D02*
X9182087Y-16972460D01*
X9182087Y-16972460D02*
X9172563Y-16962936D01*
X9172563Y-16962936D02*
X9163039Y-16943889D01*
X9163039Y-16943889D02*
X9153515Y-16905793D01*
X9153515Y-16905793D02*
X9153515Y-16858174D01*
X9153515Y-16858174D02*
X9163039Y-16820079D01*
X9163039Y-16820079D02*
X9172563Y-16801031D01*
X9172563Y-16801031D02*
X9182087Y-16791508D01*
X9182087Y-16791508D02*
X9201134Y-16781984D01*
X9353515Y-16962936D02*
X9363039Y-16972460D01*
X9363039Y-16972460D02*
X9353515Y-16981984D01*
X9353515Y-16981984D02*
X9343991Y-16972460D01*
X9343991Y-16972460D02*
X9353515Y-16962936D01*
X9353515Y-16962936D02*
X9353515Y-16981984D01*
X9486848Y-16781984D02*
X9505896Y-16781984D01*
X9505896Y-16781984D02*
X9524944Y-16791508D01*
X9524944Y-16791508D02*
X9534468Y-16801031D01*
X9534468Y-16801031D02*
X9543991Y-16820079D01*
X9543991Y-16820079D02*
X9553515Y-16858174D01*
X9553515Y-16858174D02*
X9553515Y-16905793D01*
X9553515Y-16905793D02*
X9543991Y-16943889D01*
X9543991Y-16943889D02*
X9534468Y-16962936D01*
X9534468Y-16962936D02*
X9524944Y-16972460D01*
X9524944Y-16972460D02*
X9505896Y-16981984D01*
X9505896Y-16981984D02*
X9486848Y-16981984D01*
X9486848Y-16981984D02*
X9467801Y-16972460D01*
X9467801Y-16972460D02*
X9458277Y-16962936D01*
X9458277Y-16962936D02*
X9448753Y-16943889D01*
X9448753Y-16943889D02*
X9439229Y-16905793D01*
X9439229Y-16905793D02*
X9439229Y-16858174D01*
X9439229Y-16858174D02*
X9448753Y-16820079D01*
X9448753Y-16820079D02*
X9458277Y-16801031D01*
X9458277Y-16801031D02*
X9467801Y-16791508D01*
X9467801Y-16791508D02*
X9486848Y-16781984D01*
X9724944Y-16781984D02*
X9686848Y-16781984D01*
X9686848Y-16781984D02*
X9667801Y-16791508D01*
X9667801Y-16791508D02*
X9658277Y-16801031D01*
X9658277Y-16801031D02*
X9639229Y-16829603D01*
X9639229Y-16829603D02*
X9629706Y-16867698D01*
X9629706Y-16867698D02*
X9629706Y-16943889D01*
X9629706Y-16943889D02*
X9639229Y-16962936D01*
X9639229Y-16962936D02*
X9648753Y-16972460D01*
X9648753Y-16972460D02*
X9667801Y-16981984D01*
X9667801Y-16981984D02*
X9705896Y-16981984D01*
X9705896Y-16981984D02*
X9724944Y-16972460D01*
X9724944Y-16972460D02*
X9734468Y-16962936D01*
X9734468Y-16962936D02*
X9743991Y-16943889D01*
X9743991Y-16943889D02*
X9743991Y-16896270D01*
X9743991Y-16896270D02*
X9734468Y-16877222D01*
X9734468Y-16877222D02*
X9724944Y-16867698D01*
X9724944Y-16867698D02*
X9705896Y-16858174D01*
X9705896Y-16858174D02*
X9667801Y-16858174D01*
X9667801Y-16858174D02*
X9648753Y-16867698D01*
X9648753Y-16867698D02*
X9639229Y-16877222D01*
X9639229Y-16877222D02*
X9629706Y-16896270D01*
X9810658Y-16781984D02*
X9934468Y-16781984D01*
X9934468Y-16781984D02*
X9867801Y-16858174D01*
X9867801Y-16858174D02*
X9896372Y-16858174D01*
X9896372Y-16858174D02*
X9915420Y-16867698D01*
X9915420Y-16867698D02*
X9924944Y-16877222D01*
X9924944Y-16877222D02*
X9934468Y-16896270D01*
X9934468Y-16896270D02*
X9934468Y-16943889D01*
X9934468Y-16943889D02*
X9924944Y-16962936D01*
X9924944Y-16962936D02*
X9915420Y-16972460D01*
X9915420Y-16972460D02*
X9896372Y-16981984D01*
X9896372Y-16981984D02*
X9839229Y-16981984D01*
X9839229Y-16981984D02*
X9820182Y-16972460D01*
X9820182Y-16972460D02*
X9810658Y-16962936D01*
X10058277Y-16781984D02*
X10077325Y-16781984D01*
X10077325Y-16781984D02*
X10096372Y-16791508D01*
X10096372Y-16791508D02*
X10105896Y-16801031D01*
X10105896Y-16801031D02*
X10115420Y-16820079D01*
X10115420Y-16820079D02*
X10124944Y-16858174D01*
X10124944Y-16858174D02*
X10124944Y-16905793D01*
X10124944Y-16905793D02*
X10115420Y-16943889D01*
X10115420Y-16943889D02*
X10105896Y-16962936D01*
X10105896Y-16962936D02*
X10096372Y-16972460D01*
X10096372Y-16972460D02*
X10077325Y-16981984D01*
X10077325Y-16981984D02*
X10058277Y-16981984D01*
X10058277Y-16981984D02*
X10039229Y-16972460D01*
X10039229Y-16972460D02*
X10029706Y-16962936D01*
X10029706Y-16962936D02*
X10020182Y-16943889D01*
X10020182Y-16943889D02*
X10010658Y-16905793D01*
X10010658Y-16905793D02*
X10010658Y-16858174D01*
X10010658Y-16858174D02*
X10020182Y-16820079D01*
X10020182Y-16820079D02*
X10029706Y-16801031D01*
X10029706Y-16801031D02*
X10039229Y-16791508D01*
X10039229Y-16791508D02*
X10058277Y-16781984D01*
X10201134Y-16781984D02*
X10201134Y-16820079D01*
X10277325Y-16781984D02*
X10277325Y-16820079D01*
X10572563Y-17058174D02*
X10563039Y-17048650D01*
X10563039Y-17048650D02*
X10543991Y-17020079D01*
X10543991Y-17020079D02*
X10534468Y-17001031D01*
X10534468Y-17001031D02*
X10524944Y-16972460D01*
X10524944Y-16972460D02*
X10515420Y-16924841D01*
X10515420Y-16924841D02*
X10515420Y-16886746D01*
X10515420Y-16886746D02*
X10524944Y-16839127D01*
X10524944Y-16839127D02*
X10534468Y-16810555D01*
X10534468Y-16810555D02*
X10543991Y-16791508D01*
X10543991Y-16791508D02*
X10563039Y-16762936D01*
X10563039Y-16762936D02*
X10572563Y-16753412D01*
X10734468Y-16848650D02*
X10734468Y-16981984D01*
X10686849Y-16772460D02*
X10639230Y-16915317D01*
X10639230Y-16915317D02*
X10763039Y-16915317D01*
X10991611Y-16981984D02*
X10991611Y-16781984D01*
X11077325Y-16981984D02*
X11077325Y-16877222D01*
X11077325Y-16877222D02*
X11067801Y-16858174D01*
X11067801Y-16858174D02*
X11048753Y-16848650D01*
X11048753Y-16848650D02*
X11020182Y-16848650D01*
X11020182Y-16848650D02*
X11001134Y-16858174D01*
X11001134Y-16858174D02*
X10991611Y-16867698D01*
X11201134Y-16981984D02*
X11182087Y-16972460D01*
X11182087Y-16972460D02*
X11172563Y-16962936D01*
X11172563Y-16962936D02*
X11163039Y-16943889D01*
X11163039Y-16943889D02*
X11163039Y-16886746D01*
X11163039Y-16886746D02*
X11172563Y-16867698D01*
X11172563Y-16867698D02*
X11182087Y-16858174D01*
X11182087Y-16858174D02*
X11201134Y-16848650D01*
X11201134Y-16848650D02*
X11229706Y-16848650D01*
X11229706Y-16848650D02*
X11248753Y-16858174D01*
X11248753Y-16858174D02*
X11258277Y-16867698D01*
X11258277Y-16867698D02*
X11267801Y-16886746D01*
X11267801Y-16886746D02*
X11267801Y-16943889D01*
X11267801Y-16943889D02*
X11258277Y-16962936D01*
X11258277Y-16962936D02*
X11248753Y-16972460D01*
X11248753Y-16972460D02*
X11229706Y-16981984D01*
X11229706Y-16981984D02*
X11201134Y-16981984D01*
X11382087Y-16981984D02*
X11363039Y-16972460D01*
X11363039Y-16972460D02*
X11353515Y-16953412D01*
X11353515Y-16953412D02*
X11353515Y-16781984D01*
X11534468Y-16972460D02*
X11515420Y-16981984D01*
X11515420Y-16981984D02*
X11477325Y-16981984D01*
X11477325Y-16981984D02*
X11458277Y-16972460D01*
X11458277Y-16972460D02*
X11448753Y-16953412D01*
X11448753Y-16953412D02*
X11448753Y-16877222D01*
X11448753Y-16877222D02*
X11458277Y-16858174D01*
X11458277Y-16858174D02*
X11477325Y-16848650D01*
X11477325Y-16848650D02*
X11515420Y-16848650D01*
X11515420Y-16848650D02*
X11534468Y-16858174D01*
X11534468Y-16858174D02*
X11543991Y-16877222D01*
X11543991Y-16877222D02*
X11543991Y-16896270D01*
X11543991Y-16896270D02*
X11448753Y-16915317D01*
X11620182Y-16972460D02*
X11639230Y-16981984D01*
X11639230Y-16981984D02*
X11677325Y-16981984D01*
X11677325Y-16981984D02*
X11696372Y-16972460D01*
X11696372Y-16972460D02*
X11705896Y-16953412D01*
X11705896Y-16953412D02*
X11705896Y-16943889D01*
X11705896Y-16943889D02*
X11696372Y-16924841D01*
X11696372Y-16924841D02*
X11677325Y-16915317D01*
X11677325Y-16915317D02*
X11648753Y-16915317D01*
X11648753Y-16915317D02*
X11629706Y-16905793D01*
X11629706Y-16905793D02*
X11620182Y-16886746D01*
X11620182Y-16886746D02*
X11620182Y-16877222D01*
X11620182Y-16877222D02*
X11629706Y-16858174D01*
X11629706Y-16858174D02*
X11648753Y-16848650D01*
X11648753Y-16848650D02*
X11677325Y-16848650D01*
X11677325Y-16848650D02*
X11696372Y-16858174D01*
X11772563Y-17058174D02*
X11782087Y-17048650D01*
X11782087Y-17048650D02*
X11801134Y-17020079D01*
X11801134Y-17020079D02*
X11810658Y-17001031D01*
X11810658Y-17001031D02*
X11820182Y-16972460D01*
X11820182Y-16972460D02*
X11829706Y-16924841D01*
X11829706Y-16924841D02*
X11829706Y-16886746D01*
X11829706Y-16886746D02*
X11820182Y-16839127D01*
X11820182Y-16839127D02*
X11810658Y-16810555D01*
X11810658Y-16810555D02*
X11801134Y-16791508D01*
X11801134Y-16791508D02*
X11782087Y-16762936D01*
X11782087Y-16762936D02*
X11772563Y-16753412D01*
M02*
