%TF.GenerationSoftware,KiCad,Pcbnew,9.0.7-9.0.7~ubuntu24.04.1*%
%TF.CreationDate,2026-02-08T18:37:26+03:00*%
%TF.ProjectId,Linear_PowerSup_v1,4c696e65-6172-45f5-906f-776572537570,rev?*%
%TF.SameCoordinates,Original*%
%TF.FileFunction,Drillmap*%
%TF.FilePolarity,Positive*%
%FSLAX45Y45*%
G04 Gerber Fmt 4.5, Leading zero omitted, Abs format (unit mm)*
G04 Created by KiCad (PCBNEW 9.0.7-9.0.7~ubuntu24.04.1) date 2026-02-08 18:37:26*
%MOMM*%
%LPD*%
G01*
G04 APERTURE LIST*
%ADD10C,0.050000*%
%ADD11C,0.200000*%
%ADD12C,0.450000*%
G04 APERTURE END LIST*
D10*
X7000000Y-3900000D02*
X17500000Y-3900000D01*
X7000000Y-14400000D02*
X7000000Y-3900000D01*
X17500000Y-14400000D02*
X7000000Y-14400000D01*
X17500000Y-3900000D02*
X17500000Y-14400000D01*
D11*
D12*
X11215000Y-5292500D02*
X11665000Y-5742500D01*
X11665000Y-5292500D02*
X11215000Y-5742500D01*
X11215000Y-12755000D02*
X11665000Y-13205000D01*
X11665000Y-12755000D02*
X11215000Y-13205000D01*
X14985000Y-12755000D02*
X15435000Y-13205000D01*
X15435000Y-12755000D02*
X14985000Y-13205000D01*
X14985018Y-5294730D02*
X15435018Y-5744730D01*
X15435018Y-5294730D02*
X14985018Y-5744730D01*
D11*
X7258277Y-14713984D02*
X7258277Y-14513984D01*
X7258277Y-14513984D02*
X7305896Y-14513984D01*
X7305896Y-14513984D02*
X7334467Y-14523508D01*
X7334467Y-14523508D02*
X7353515Y-14542555D01*
X7353515Y-14542555D02*
X7363039Y-14561603D01*
X7363039Y-14561603D02*
X7372562Y-14599698D01*
X7372562Y-14599698D02*
X7372562Y-14628269D01*
X7372562Y-14628269D02*
X7363039Y-14666365D01*
X7363039Y-14666365D02*
X7353515Y-14685412D01*
X7353515Y-14685412D02*
X7334467Y-14704460D01*
X7334467Y-14704460D02*
X7305896Y-14713984D01*
X7305896Y-14713984D02*
X7258277Y-14713984D01*
X7458277Y-14713984D02*
X7458277Y-14580650D01*
X7458277Y-14618746D02*
X7467801Y-14599698D01*
X7467801Y-14599698D02*
X7477324Y-14590174D01*
X7477324Y-14590174D02*
X7496372Y-14580650D01*
X7496372Y-14580650D02*
X7515420Y-14580650D01*
X7582086Y-14713984D02*
X7582086Y-14580650D01*
X7582086Y-14513984D02*
X7572562Y-14523508D01*
X7572562Y-14523508D02*
X7582086Y-14533031D01*
X7582086Y-14533031D02*
X7591610Y-14523508D01*
X7591610Y-14523508D02*
X7582086Y-14513984D01*
X7582086Y-14513984D02*
X7582086Y-14533031D01*
X7705896Y-14713984D02*
X7686848Y-14704460D01*
X7686848Y-14704460D02*
X7677324Y-14685412D01*
X7677324Y-14685412D02*
X7677324Y-14513984D01*
X7810658Y-14713984D02*
X7791610Y-14704460D01*
X7791610Y-14704460D02*
X7782086Y-14685412D01*
X7782086Y-14685412D02*
X7782086Y-14513984D01*
X8039229Y-14713984D02*
X8039229Y-14513984D01*
X8039229Y-14513984D02*
X8105896Y-14656841D01*
X8105896Y-14656841D02*
X8172562Y-14513984D01*
X8172562Y-14513984D02*
X8172562Y-14713984D01*
X8353515Y-14713984D02*
X8353515Y-14609222D01*
X8353515Y-14609222D02*
X8343991Y-14590174D01*
X8343991Y-14590174D02*
X8324943Y-14580650D01*
X8324943Y-14580650D02*
X8286848Y-14580650D01*
X8286848Y-14580650D02*
X8267801Y-14590174D01*
X8353515Y-14704460D02*
X8334467Y-14713984D01*
X8334467Y-14713984D02*
X8286848Y-14713984D01*
X8286848Y-14713984D02*
X8267801Y-14704460D01*
X8267801Y-14704460D02*
X8258277Y-14685412D01*
X8258277Y-14685412D02*
X8258277Y-14666365D01*
X8258277Y-14666365D02*
X8267801Y-14647317D01*
X8267801Y-14647317D02*
X8286848Y-14637793D01*
X8286848Y-14637793D02*
X8334467Y-14637793D01*
X8334467Y-14637793D02*
X8353515Y-14628269D01*
X8448753Y-14580650D02*
X8448753Y-14780650D01*
X8448753Y-14590174D02*
X8467801Y-14580650D01*
X8467801Y-14580650D02*
X8505896Y-14580650D01*
X8505896Y-14580650D02*
X8524944Y-14590174D01*
X8524944Y-14590174D02*
X8534467Y-14599698D01*
X8534467Y-14599698D02*
X8543991Y-14618746D01*
X8543991Y-14618746D02*
X8543991Y-14675888D01*
X8543991Y-14675888D02*
X8534467Y-14694936D01*
X8534467Y-14694936D02*
X8524944Y-14704460D01*
X8524944Y-14704460D02*
X8505896Y-14713984D01*
X8505896Y-14713984D02*
X8467801Y-14713984D01*
X8467801Y-14713984D02*
X8448753Y-14704460D01*
X8629705Y-14694936D02*
X8639229Y-14704460D01*
X8639229Y-14704460D02*
X8629705Y-14713984D01*
X8629705Y-14713984D02*
X8620182Y-14704460D01*
X8620182Y-14704460D02*
X8629705Y-14694936D01*
X8629705Y-14694936D02*
X8629705Y-14713984D01*
X8629705Y-14590174D02*
X8639229Y-14599698D01*
X8639229Y-14599698D02*
X8629705Y-14609222D01*
X8629705Y-14609222D02*
X8620182Y-14599698D01*
X8620182Y-14599698D02*
X8629705Y-14590174D01*
X8629705Y-14590174D02*
X8629705Y-14609222D01*
X6797500Y-14942500D02*
X6997500Y-15142500D01*
X6997500Y-14942500D02*
X6797500Y-15142500D01*
X7343991Y-15000650D02*
X7343991Y-15133984D01*
X7296372Y-14924460D02*
X7248753Y-15067317D01*
X7248753Y-15067317D02*
X7372562Y-15067317D01*
X7448753Y-15114936D02*
X7458277Y-15124460D01*
X7458277Y-15124460D02*
X7448753Y-15133984D01*
X7448753Y-15133984D02*
X7439229Y-15124460D01*
X7439229Y-15124460D02*
X7448753Y-15114936D01*
X7448753Y-15114936D02*
X7448753Y-15133984D01*
X7639229Y-14933984D02*
X7543991Y-14933984D01*
X7543991Y-14933984D02*
X7534467Y-15029222D01*
X7534467Y-15029222D02*
X7543991Y-15019698D01*
X7543991Y-15019698D02*
X7563039Y-15010174D01*
X7563039Y-15010174D02*
X7610658Y-15010174D01*
X7610658Y-15010174D02*
X7629705Y-15019698D01*
X7629705Y-15019698D02*
X7639229Y-15029222D01*
X7639229Y-15029222D02*
X7648753Y-15048269D01*
X7648753Y-15048269D02*
X7648753Y-15095888D01*
X7648753Y-15095888D02*
X7639229Y-15114936D01*
X7639229Y-15114936D02*
X7629705Y-15124460D01*
X7629705Y-15124460D02*
X7610658Y-15133984D01*
X7610658Y-15133984D02*
X7563039Y-15133984D01*
X7563039Y-15133984D02*
X7543991Y-15124460D01*
X7543991Y-15124460D02*
X7534467Y-15114936D01*
X7772562Y-14933984D02*
X7791610Y-14933984D01*
X7791610Y-14933984D02*
X7810658Y-14943508D01*
X7810658Y-14943508D02*
X7820182Y-14953031D01*
X7820182Y-14953031D02*
X7829705Y-14972079D01*
X7829705Y-14972079D02*
X7839229Y-15010174D01*
X7839229Y-15010174D02*
X7839229Y-15057793D01*
X7839229Y-15057793D02*
X7829705Y-15095888D01*
X7829705Y-15095888D02*
X7820182Y-15114936D01*
X7820182Y-15114936D02*
X7810658Y-15124460D01*
X7810658Y-15124460D02*
X7791610Y-15133984D01*
X7791610Y-15133984D02*
X7772562Y-15133984D01*
X7772562Y-15133984D02*
X7753515Y-15124460D01*
X7753515Y-15124460D02*
X7743991Y-15114936D01*
X7743991Y-15114936D02*
X7734467Y-15095888D01*
X7734467Y-15095888D02*
X7724943Y-15057793D01*
X7724943Y-15057793D02*
X7724943Y-15010174D01*
X7724943Y-15010174D02*
X7734467Y-14972079D01*
X7734467Y-14972079D02*
X7743991Y-14953031D01*
X7743991Y-14953031D02*
X7753515Y-14943508D01*
X7753515Y-14943508D02*
X7772562Y-14933984D01*
X7963039Y-14933984D02*
X7982086Y-14933984D01*
X7982086Y-14933984D02*
X8001134Y-14943508D01*
X8001134Y-14943508D02*
X8010658Y-14953031D01*
X8010658Y-14953031D02*
X8020182Y-14972079D01*
X8020182Y-14972079D02*
X8029705Y-15010174D01*
X8029705Y-15010174D02*
X8029705Y-15057793D01*
X8029705Y-15057793D02*
X8020182Y-15095888D01*
X8020182Y-15095888D02*
X8010658Y-15114936D01*
X8010658Y-15114936D02*
X8001134Y-15124460D01*
X8001134Y-15124460D02*
X7982086Y-15133984D01*
X7982086Y-15133984D02*
X7963039Y-15133984D01*
X7963039Y-15133984D02*
X7943991Y-15124460D01*
X7943991Y-15124460D02*
X7934467Y-15114936D01*
X7934467Y-15114936D02*
X7924943Y-15095888D01*
X7924943Y-15095888D02*
X7915420Y-15057793D01*
X7915420Y-15057793D02*
X7915420Y-15010174D01*
X7915420Y-15010174D02*
X7924943Y-14972079D01*
X7924943Y-14972079D02*
X7934467Y-14953031D01*
X7934467Y-14953031D02*
X7943991Y-14943508D01*
X7943991Y-14943508D02*
X7963039Y-14933984D01*
X8115420Y-15133984D02*
X8115420Y-15000650D01*
X8115420Y-15019698D02*
X8124943Y-15010174D01*
X8124943Y-15010174D02*
X8143991Y-15000650D01*
X8143991Y-15000650D02*
X8172563Y-15000650D01*
X8172563Y-15000650D02*
X8191610Y-15010174D01*
X8191610Y-15010174D02*
X8201134Y-15029222D01*
X8201134Y-15029222D02*
X8201134Y-15133984D01*
X8201134Y-15029222D02*
X8210658Y-15010174D01*
X8210658Y-15010174D02*
X8229705Y-15000650D01*
X8229705Y-15000650D02*
X8258277Y-15000650D01*
X8258277Y-15000650D02*
X8277324Y-15010174D01*
X8277324Y-15010174D02*
X8286848Y-15029222D01*
X8286848Y-15029222D02*
X8286848Y-15133984D01*
X8382086Y-15133984D02*
X8382086Y-15000650D01*
X8382086Y-15019698D02*
X8391610Y-15010174D01*
X8391610Y-15010174D02*
X8410658Y-15000650D01*
X8410658Y-15000650D02*
X8439229Y-15000650D01*
X8439229Y-15000650D02*
X8458277Y-15010174D01*
X8458277Y-15010174D02*
X8467801Y-15029222D01*
X8467801Y-15029222D02*
X8467801Y-15133984D01*
X8467801Y-15029222D02*
X8477325Y-15010174D01*
X8477325Y-15010174D02*
X8496372Y-15000650D01*
X8496372Y-15000650D02*
X8524944Y-15000650D01*
X8524944Y-15000650D02*
X8543991Y-15010174D01*
X8543991Y-15010174D02*
X8553515Y-15029222D01*
X8553515Y-15029222D02*
X8553515Y-15133984D01*
X8943991Y-14924460D02*
X8772563Y-15181603D01*
X9201134Y-14933984D02*
X9220182Y-14933984D01*
X9220182Y-14933984D02*
X9239229Y-14943508D01*
X9239229Y-14943508D02*
X9248753Y-14953031D01*
X9248753Y-14953031D02*
X9258277Y-14972079D01*
X9258277Y-14972079D02*
X9267801Y-15010174D01*
X9267801Y-15010174D02*
X9267801Y-15057793D01*
X9267801Y-15057793D02*
X9258277Y-15095888D01*
X9258277Y-15095888D02*
X9248753Y-15114936D01*
X9248753Y-15114936D02*
X9239229Y-15124460D01*
X9239229Y-15124460D02*
X9220182Y-15133984D01*
X9220182Y-15133984D02*
X9201134Y-15133984D01*
X9201134Y-15133984D02*
X9182087Y-15124460D01*
X9182087Y-15124460D02*
X9172563Y-15114936D01*
X9172563Y-15114936D02*
X9163039Y-15095888D01*
X9163039Y-15095888D02*
X9153515Y-15057793D01*
X9153515Y-15057793D02*
X9153515Y-15010174D01*
X9153515Y-15010174D02*
X9163039Y-14972079D01*
X9163039Y-14972079D02*
X9172563Y-14953031D01*
X9172563Y-14953031D02*
X9182087Y-14943508D01*
X9182087Y-14943508D02*
X9201134Y-14933984D01*
X9353515Y-15114936D02*
X9363039Y-15124460D01*
X9363039Y-15124460D02*
X9353515Y-15133984D01*
X9353515Y-15133984D02*
X9343991Y-15124460D01*
X9343991Y-15124460D02*
X9353515Y-15114936D01*
X9353515Y-15114936D02*
X9353515Y-15133984D01*
X9553515Y-15133984D02*
X9439229Y-15133984D01*
X9496372Y-15133984D02*
X9496372Y-14933984D01*
X9496372Y-14933984D02*
X9477325Y-14962555D01*
X9477325Y-14962555D02*
X9458277Y-14981603D01*
X9458277Y-14981603D02*
X9439229Y-14991127D01*
X9620182Y-14933984D02*
X9753515Y-14933984D01*
X9753515Y-14933984D02*
X9667801Y-15133984D01*
X9810658Y-14933984D02*
X9943991Y-14933984D01*
X9943991Y-14933984D02*
X9858277Y-15133984D01*
X10010658Y-14953031D02*
X10020182Y-14943508D01*
X10020182Y-14943508D02*
X10039229Y-14933984D01*
X10039229Y-14933984D02*
X10086849Y-14933984D01*
X10086849Y-14933984D02*
X10105896Y-14943508D01*
X10105896Y-14943508D02*
X10115420Y-14953031D01*
X10115420Y-14953031D02*
X10124944Y-14972079D01*
X10124944Y-14972079D02*
X10124944Y-14991127D01*
X10124944Y-14991127D02*
X10115420Y-15019698D01*
X10115420Y-15019698D02*
X10001134Y-15133984D01*
X10001134Y-15133984D02*
X10124944Y-15133984D01*
X10201134Y-14933984D02*
X10201134Y-14972079D01*
X10277325Y-14933984D02*
X10277325Y-14972079D01*
X10572563Y-15210174D02*
X10563039Y-15200650D01*
X10563039Y-15200650D02*
X10543991Y-15172079D01*
X10543991Y-15172079D02*
X10534468Y-15153031D01*
X10534468Y-15153031D02*
X10524944Y-15124460D01*
X10524944Y-15124460D02*
X10515420Y-15076841D01*
X10515420Y-15076841D02*
X10515420Y-15038746D01*
X10515420Y-15038746D02*
X10524944Y-14991127D01*
X10524944Y-14991127D02*
X10534468Y-14962555D01*
X10534468Y-14962555D02*
X10543991Y-14943508D01*
X10543991Y-14943508D02*
X10563039Y-14914936D01*
X10563039Y-14914936D02*
X10572563Y-14905412D01*
X10734468Y-15000650D02*
X10734468Y-15133984D01*
X10686849Y-14924460D02*
X10639230Y-15067317D01*
X10639230Y-15067317D02*
X10763039Y-15067317D01*
X10991611Y-15133984D02*
X10991611Y-14933984D01*
X11077325Y-15133984D02*
X11077325Y-15029222D01*
X11077325Y-15029222D02*
X11067801Y-15010174D01*
X11067801Y-15010174D02*
X11048753Y-15000650D01*
X11048753Y-15000650D02*
X11020182Y-15000650D01*
X11020182Y-15000650D02*
X11001134Y-15010174D01*
X11001134Y-15010174D02*
X10991611Y-15019698D01*
X11201134Y-15133984D02*
X11182087Y-15124460D01*
X11182087Y-15124460D02*
X11172563Y-15114936D01*
X11172563Y-15114936D02*
X11163039Y-15095888D01*
X11163039Y-15095888D02*
X11163039Y-15038746D01*
X11163039Y-15038746D02*
X11172563Y-15019698D01*
X11172563Y-15019698D02*
X11182087Y-15010174D01*
X11182087Y-15010174D02*
X11201134Y-15000650D01*
X11201134Y-15000650D02*
X11229706Y-15000650D01*
X11229706Y-15000650D02*
X11248753Y-15010174D01*
X11248753Y-15010174D02*
X11258277Y-15019698D01*
X11258277Y-15019698D02*
X11267801Y-15038746D01*
X11267801Y-15038746D02*
X11267801Y-15095888D01*
X11267801Y-15095888D02*
X11258277Y-15114936D01*
X11258277Y-15114936D02*
X11248753Y-15124460D01*
X11248753Y-15124460D02*
X11229706Y-15133984D01*
X11229706Y-15133984D02*
X11201134Y-15133984D01*
X11382087Y-15133984D02*
X11363039Y-15124460D01*
X11363039Y-15124460D02*
X11353515Y-15105412D01*
X11353515Y-15105412D02*
X11353515Y-14933984D01*
X11534468Y-15124460D02*
X11515420Y-15133984D01*
X11515420Y-15133984D02*
X11477325Y-15133984D01*
X11477325Y-15133984D02*
X11458277Y-15124460D01*
X11458277Y-15124460D02*
X11448753Y-15105412D01*
X11448753Y-15105412D02*
X11448753Y-15029222D01*
X11448753Y-15029222D02*
X11458277Y-15010174D01*
X11458277Y-15010174D02*
X11477325Y-15000650D01*
X11477325Y-15000650D02*
X11515420Y-15000650D01*
X11515420Y-15000650D02*
X11534468Y-15010174D01*
X11534468Y-15010174D02*
X11543991Y-15029222D01*
X11543991Y-15029222D02*
X11543991Y-15048269D01*
X11543991Y-15048269D02*
X11448753Y-15067317D01*
X11620182Y-15124460D02*
X11639230Y-15133984D01*
X11639230Y-15133984D02*
X11677325Y-15133984D01*
X11677325Y-15133984D02*
X11696372Y-15124460D01*
X11696372Y-15124460D02*
X11705896Y-15105412D01*
X11705896Y-15105412D02*
X11705896Y-15095888D01*
X11705896Y-15095888D02*
X11696372Y-15076841D01*
X11696372Y-15076841D02*
X11677325Y-15067317D01*
X11677325Y-15067317D02*
X11648753Y-15067317D01*
X11648753Y-15067317D02*
X11629706Y-15057793D01*
X11629706Y-15057793D02*
X11620182Y-15038746D01*
X11620182Y-15038746D02*
X11620182Y-15029222D01*
X11620182Y-15029222D02*
X11629706Y-15010174D01*
X11629706Y-15010174D02*
X11648753Y-15000650D01*
X11648753Y-15000650D02*
X11677325Y-15000650D01*
X11677325Y-15000650D02*
X11696372Y-15010174D01*
X11772563Y-15210174D02*
X11782087Y-15200650D01*
X11782087Y-15200650D02*
X11801134Y-15172079D01*
X11801134Y-15172079D02*
X11810658Y-15153031D01*
X11810658Y-15153031D02*
X11820182Y-15124460D01*
X11820182Y-15124460D02*
X11829706Y-15076841D01*
X11829706Y-15076841D02*
X11829706Y-15038746D01*
X11829706Y-15038746D02*
X11820182Y-14991127D01*
X11820182Y-14991127D02*
X11810658Y-14962555D01*
X11810658Y-14962555D02*
X11801134Y-14943508D01*
X11801134Y-14943508D02*
X11782087Y-14914936D01*
X11782087Y-14914936D02*
X11772563Y-14905412D01*
X12134468Y-15210174D02*
X12124944Y-15200650D01*
X12124944Y-15200650D02*
X12105896Y-15172079D01*
X12105896Y-15172079D02*
X12096372Y-15153031D01*
X12096372Y-15153031D02*
X12086849Y-15124460D01*
X12086849Y-15124460D02*
X12077325Y-15076841D01*
X12077325Y-15076841D02*
X12077325Y-15038746D01*
X12077325Y-15038746D02*
X12086849Y-14991127D01*
X12086849Y-14991127D02*
X12096372Y-14962555D01*
X12096372Y-14962555D02*
X12105896Y-14943508D01*
X12105896Y-14943508D02*
X12124944Y-14914936D01*
X12124944Y-14914936D02*
X12134468Y-14905412D01*
X12210658Y-15000650D02*
X12210658Y-15133984D01*
X12210658Y-15019698D02*
X12220182Y-15010174D01*
X12220182Y-15010174D02*
X12239230Y-15000650D01*
X12239230Y-15000650D02*
X12267801Y-15000650D01*
X12267801Y-15000650D02*
X12286849Y-15010174D01*
X12286849Y-15010174D02*
X12296372Y-15029222D01*
X12296372Y-15029222D02*
X12296372Y-15133984D01*
X12420182Y-15133984D02*
X12401134Y-15124460D01*
X12401134Y-15124460D02*
X12391611Y-15114936D01*
X12391611Y-15114936D02*
X12382087Y-15095888D01*
X12382087Y-15095888D02*
X12382087Y-15038746D01*
X12382087Y-15038746D02*
X12391611Y-15019698D01*
X12391611Y-15019698D02*
X12401134Y-15010174D01*
X12401134Y-15010174D02*
X12420182Y-15000650D01*
X12420182Y-15000650D02*
X12448753Y-15000650D01*
X12448753Y-15000650D02*
X12467801Y-15010174D01*
X12467801Y-15010174D02*
X12477325Y-15019698D01*
X12477325Y-15019698D02*
X12486849Y-15038746D01*
X12486849Y-15038746D02*
X12486849Y-15095888D01*
X12486849Y-15095888D02*
X12477325Y-15114936D01*
X12477325Y-15114936D02*
X12467801Y-15124460D01*
X12467801Y-15124460D02*
X12448753Y-15133984D01*
X12448753Y-15133984D02*
X12420182Y-15133984D01*
X12543992Y-15000650D02*
X12620182Y-15000650D01*
X12572563Y-14933984D02*
X12572563Y-15105412D01*
X12572563Y-15105412D02*
X12582087Y-15124460D01*
X12582087Y-15124460D02*
X12601134Y-15133984D01*
X12601134Y-15133984D02*
X12620182Y-15133984D01*
X12839230Y-15000650D02*
X12839230Y-15200650D01*
X12839230Y-15010174D02*
X12858277Y-15000650D01*
X12858277Y-15000650D02*
X12896373Y-15000650D01*
X12896373Y-15000650D02*
X12915420Y-15010174D01*
X12915420Y-15010174D02*
X12924944Y-15019698D01*
X12924944Y-15019698D02*
X12934468Y-15038746D01*
X12934468Y-15038746D02*
X12934468Y-15095888D01*
X12934468Y-15095888D02*
X12924944Y-15114936D01*
X12924944Y-15114936D02*
X12915420Y-15124460D01*
X12915420Y-15124460D02*
X12896373Y-15133984D01*
X12896373Y-15133984D02*
X12858277Y-15133984D01*
X12858277Y-15133984D02*
X12839230Y-15124460D01*
X13048753Y-15133984D02*
X13029706Y-15124460D01*
X13029706Y-15124460D02*
X13020182Y-15105412D01*
X13020182Y-15105412D02*
X13020182Y-14933984D01*
X13210658Y-15133984D02*
X13210658Y-15029222D01*
X13210658Y-15029222D02*
X13201134Y-15010174D01*
X13201134Y-15010174D02*
X13182087Y-15000650D01*
X13182087Y-15000650D02*
X13143992Y-15000650D01*
X13143992Y-15000650D02*
X13124944Y-15010174D01*
X13210658Y-15124460D02*
X13191611Y-15133984D01*
X13191611Y-15133984D02*
X13143992Y-15133984D01*
X13143992Y-15133984D02*
X13124944Y-15124460D01*
X13124944Y-15124460D02*
X13115420Y-15105412D01*
X13115420Y-15105412D02*
X13115420Y-15086365D01*
X13115420Y-15086365D02*
X13124944Y-15067317D01*
X13124944Y-15067317D02*
X13143992Y-15057793D01*
X13143992Y-15057793D02*
X13191611Y-15057793D01*
X13191611Y-15057793D02*
X13210658Y-15048269D01*
X13277325Y-15000650D02*
X13353515Y-15000650D01*
X13305896Y-14933984D02*
X13305896Y-15105412D01*
X13305896Y-15105412D02*
X13315420Y-15124460D01*
X13315420Y-15124460D02*
X13334468Y-15133984D01*
X13334468Y-15133984D02*
X13353515Y-15133984D01*
X13496373Y-15124460D02*
X13477325Y-15133984D01*
X13477325Y-15133984D02*
X13439230Y-15133984D01*
X13439230Y-15133984D02*
X13420182Y-15124460D01*
X13420182Y-15124460D02*
X13410658Y-15105412D01*
X13410658Y-15105412D02*
X13410658Y-15029222D01*
X13410658Y-15029222D02*
X13420182Y-15010174D01*
X13420182Y-15010174D02*
X13439230Y-15000650D01*
X13439230Y-15000650D02*
X13477325Y-15000650D01*
X13477325Y-15000650D02*
X13496373Y-15010174D01*
X13496373Y-15010174D02*
X13505896Y-15029222D01*
X13505896Y-15029222D02*
X13505896Y-15048269D01*
X13505896Y-15048269D02*
X13410658Y-15067317D01*
X13677325Y-15133984D02*
X13677325Y-14933984D01*
X13677325Y-15124460D02*
X13658277Y-15133984D01*
X13658277Y-15133984D02*
X13620182Y-15133984D01*
X13620182Y-15133984D02*
X13601134Y-15124460D01*
X13601134Y-15124460D02*
X13591611Y-15114936D01*
X13591611Y-15114936D02*
X13582087Y-15095888D01*
X13582087Y-15095888D02*
X13582087Y-15038746D01*
X13582087Y-15038746D02*
X13591611Y-15019698D01*
X13591611Y-15019698D02*
X13601134Y-15010174D01*
X13601134Y-15010174D02*
X13620182Y-15000650D01*
X13620182Y-15000650D02*
X13658277Y-15000650D01*
X13658277Y-15000650D02*
X13677325Y-15010174D01*
X13753515Y-15210174D02*
X13763039Y-15200650D01*
X13763039Y-15200650D02*
X13782087Y-15172079D01*
X13782087Y-15172079D02*
X13791611Y-15153031D01*
X13791611Y-15153031D02*
X13801134Y-15124460D01*
X13801134Y-15124460D02*
X13810658Y-15076841D01*
X13810658Y-15076841D02*
X13810658Y-15038746D01*
X13810658Y-15038746D02*
X13801134Y-14991127D01*
X13801134Y-14991127D02*
X13791611Y-14962555D01*
X13791611Y-14962555D02*
X13782087Y-14943508D01*
X13782087Y-14943508D02*
X13763039Y-14914936D01*
X13763039Y-14914936D02*
X13753515Y-14905412D01*
M02*
