%TF.GenerationSoftware,KiCad,Pcbnew,9.0.7-9.0.7~ubuntu24.04.1*%
%TF.CreationDate,2026-02-08T18:37:26+03:00*%
%TF.ProjectId,Linear_PowerSup_v1,4c696e65-6172-45f5-906f-776572537570,rev?*%
%TF.SameCoordinates,Original*%
%TF.FileFunction,Plated,1,2,PTH,Drill*%
%TF.FilePolarity,Positive*%
%FSLAX46Y46*%
G04 Gerber Fmt 4.6, Leading zero omitted, Abs format (unit mm)*
G04 Created by KiCad (PCBNEW 9.0.7-9.0.7~ubuntu24.04.1) date 2026-02-08 18:37:26*
%MOMM*%
%LPD*%
G01*
G04 APERTURE LIST*
%TA.AperFunction,ComponentDrill*%
%ADD10C,0.800000*%
%TD*%
%TA.AperFunction,ComponentDrill*%
%ADD11C,0.863600*%
%TD*%
%TA.AperFunction,ComponentDrill*%
%ADD12C,0.900000*%
%TD*%
%TA.AperFunction,ComponentDrill*%
%ADD13C,1.000000*%
%TD*%
%TA.AperFunction,ComponentDrill*%
%ADD14C,1.060000*%
%TD*%
%TA.AperFunction,ComponentDrill*%
%ADD15C,1.200000*%
%TD*%
%TA.AperFunction,ComponentDrill*%
%ADD16C,1.300000*%
%TD*%
%TA.AperFunction,ComponentDrill*%
%ADD17C,1.600000*%
%TD*%
G04 APERTURE END LIST*
D10*
%TO.C,C3*%
X88500000Y-66000000D03*
X88500000Y-69500000D03*
%TO.C,C2*%
X94500000Y-70500000D03*
%TO.C,C4*%
X99000000Y-86500000D03*
X99000000Y-91500000D03*
%TO.C,C2*%
X99500000Y-70500000D03*
%TO.C,RV1*%
X162250000Y-83650000D03*
X169750000Y-86350000D03*
D11*
%TO.C,R1*%
X73797700Y-73500000D03*
X85202300Y-73500000D03*
D12*
%TO.C,D2*%
X78460000Y-68000000D03*
X81000000Y-68000000D03*
%TO.C,F1*%
X163000000Y-72920000D03*
X163000000Y-78000000D03*
D13*
%TO.C,C1*%
X83500000Y-96500000D03*
%TO.C,F2*%
X89920000Y-82490000D03*
%TO.C,C1*%
X91000000Y-96500000D03*
%TO.C,F2*%
X95000000Y-82500000D03*
D14*
%TO.C,U1*%
X88700000Y-75000000D03*
X90400000Y-75000000D03*
X92100000Y-75000000D03*
X93800000Y-75000000D03*
X95500000Y-75000000D03*
D15*
%TO.C,TR1*%
X118000000Y-75000000D03*
X118000000Y-80830000D03*
X118000000Y-86660000D03*
X118000000Y-98320000D03*
X118000000Y-104150000D03*
X118000000Y-110000000D03*
X118000686Y-92489964D03*
X148459835Y-74999590D03*
X148469939Y-80830000D03*
X148469939Y-86660000D03*
X148475000Y-92500000D03*
X148485095Y-98325000D03*
X148485095Y-104150000D03*
X148490165Y-110000410D03*
D16*
%TO.C,J2*%
X80000000Y-78500000D03*
X80000000Y-83500000D03*
%TO.C,J1*%
X164500000Y-92000000D03*
X164500000Y-97000000D03*
D17*
%TO.C,D1*%
X103500000Y-81260000D03*
X103500000Y-86340000D03*
X103500000Y-91420000D03*
X103500000Y-96500000D03*
M02*
