G04 #@! TF.GenerationSoftware,KiCad,Pcbnew,9.0.7-9.0.7~ubuntu24.04.1*
G04 #@! TF.CreationDate,2026-02-08T18:38:21+03:00*
G04 #@! TF.ProjectId,Linear_PowerSup_v1,4c696e65-6172-45f5-906f-776572537570,rev?*
G04 #@! TF.SameCoordinates,Original*
G04 #@! TF.FileFunction,Copper,L2,Bot*
G04 #@! TF.FilePolarity,Positive*
%FSLAX46Y46*%
G04 Gerber Fmt 4.6, Leading zero omitted, Abs format (unit mm)*
G04 Created by KiCad (PCBNEW 9.0.7-9.0.7~ubuntu24.04.1) date 2026-02-08 18:38:21*
%MOMM*%
%LPD*%
G01*
G04 APERTURE LIST*
G04 Aperture macros list*
%AMRoundRect*
0 Rectangle with rounded corners*
0 $1 Rounding radius*
0 $2 $3 $4 $5 $6 $7 $8 $9 X,Y pos of 4 corners*
0 Add a 4 corners polygon primitive as box body*
4,1,4,$2,$3,$4,$5,$6,$7,$8,$9,$2,$3,0*
0 Add four circle primitives for the rounded corners*
1,1,$1+$1,$2,$3*
1,1,$1+$1,$4,$5*
1,1,$1+$1,$6,$7*
1,1,$1+$1,$8,$9*
0 Add four rect primitives between the rounded corners*
20,1,$1+$1,$2,$3,$4,$5,0*
20,1,$1+$1,$4,$5,$6,$7,0*
20,1,$1+$1,$6,$7,$8,$9,0*
20,1,$1+$1,$8,$9,$2,$3,0*%
G04 Aperture macros list end*
G04 #@! TA.AperFunction,ComponentPad*
%ADD10C,2.000000*%
G04 #@! TD*
G04 #@! TA.AperFunction,ComponentPad*
%ADD11RoundRect,0.250000X-1.050000X1.050000X-1.050000X-1.050000X1.050000X-1.050000X1.050000X1.050000X0*%
G04 #@! TD*
G04 #@! TA.AperFunction,ComponentPad*
%ADD12C,2.600000*%
G04 #@! TD*
G04 #@! TA.AperFunction,ComponentPad*
%ADD13RoundRect,0.250000X1.050000X-1.050000X1.050000X1.050000X-1.050000X1.050000X-1.050000X-1.050000X0*%
G04 #@! TD*
G04 #@! TA.AperFunction,ComponentPad*
%ADD14R,1.371600X1.371600*%
G04 #@! TD*
G04 #@! TA.AperFunction,ComponentPad*
%ADD15C,1.371600*%
G04 #@! TD*
G04 #@! TA.AperFunction,ComponentPad*
%ADD16C,1.600000*%
G04 #@! TD*
G04 #@! TA.AperFunction,ComponentPad*
%ADD17C,1.350000*%
G04 #@! TD*
G04 #@! TA.AperFunction,ComponentPad*
%ADD18C,1.800000*%
G04 #@! TD*
G04 #@! TA.AperFunction,ComponentPad*
%ADD19RoundRect,0.250000X0.550000X-0.550000X0.550000X0.550000X-0.550000X0.550000X-0.550000X-0.550000X0*%
G04 #@! TD*
G04 #@! TA.AperFunction,ComponentPad*
%ADD20R,1.800000X1.800000*%
G04 #@! TD*
G04 #@! TA.AperFunction,WasherPad*
%ADD21C,5.000000*%
G04 #@! TD*
G04 #@! TA.AperFunction,ComponentPad*
%ADD22R,2.200000X2.200000*%
G04 #@! TD*
G04 #@! TA.AperFunction,ComponentPad*
%ADD23C,2.200000*%
G04 #@! TD*
G04 #@! TA.AperFunction,ComponentPad*
%ADD24R,3.200000X3.200000*%
G04 #@! TD*
G04 #@! TA.AperFunction,ComponentPad*
%ADD25C,3.200000*%
G04 #@! TD*
G04 #@! TA.AperFunction,ComponentPad*
%ADD26R,1.410000X1.410000*%
G04 #@! TD*
G04 #@! TA.AperFunction,ComponentPad*
%ADD27C,1.410000*%
G04 #@! TD*
G04 APERTURE END LIST*
D10*
X91000000Y-96500000D03*
X83500000Y-96500000D03*
D11*
X80000000Y-78500000D03*
D12*
X80000000Y-83500000D03*
D13*
X164500000Y-97000000D03*
D12*
X164500000Y-92000000D03*
D14*
X85202300Y-73500000D03*
D15*
X73797700Y-73500000D03*
D16*
X99000000Y-86500000D03*
X99000000Y-91500000D03*
D17*
X163000000Y-78000000D03*
X163000000Y-72920000D03*
D16*
X94500000Y-70500000D03*
X99500000Y-70500000D03*
D18*
X162250000Y-83650000D03*
X169750000Y-86350000D03*
D19*
X88500000Y-69500000D03*
D16*
X88500000Y-66000000D03*
D20*
X81000000Y-68000000D03*
D18*
X78460000Y-68000000D03*
D21*
X152100184Y-55197303D03*
X152100000Y-129800000D03*
X114400000Y-129800000D03*
X114400000Y-55175000D03*
D22*
X148459835Y-74999590D03*
D23*
X148469939Y-80830000D03*
X148469939Y-86660000D03*
X148475000Y-92500000D03*
X148485095Y-98325000D03*
X148485095Y-104150000D03*
X148490165Y-110000410D03*
X118000000Y-110000000D03*
X118000000Y-104150000D03*
X118000000Y-98320000D03*
X118000686Y-92489964D03*
X118000000Y-86660000D03*
X118000000Y-80830000D03*
X118000000Y-75000000D03*
D24*
X103500000Y-96500000D03*
D25*
X103500000Y-91420000D03*
X103500000Y-86340000D03*
X103500000Y-81260000D03*
D10*
X95000000Y-82500000D03*
X89920000Y-82490000D03*
D26*
X95500000Y-75000000D03*
D27*
X93800000Y-75000000D03*
X92100000Y-75000000D03*
X90400000Y-75000000D03*
X88700000Y-75000000D03*
G04 #@! TA.AperFunction,Conductor*
G36*
X134943039Y-39520185D02*
G01*
X134988794Y-39572989D01*
X135000000Y-39624500D01*
X135000000Y-143375500D01*
X134980315Y-143442539D01*
X134927511Y-143488294D01*
X134876000Y-143499500D01*
X70624500Y-143499500D01*
X70557461Y-143479815D01*
X70511706Y-143427011D01*
X70500500Y-143375500D01*
X70500500Y-129631491D01*
X111399500Y-129631491D01*
X111399500Y-129968508D01*
X111437231Y-130303381D01*
X111437233Y-130303397D01*
X111512223Y-130631953D01*
X111512227Y-130631965D01*
X111623532Y-130950054D01*
X111769752Y-131253683D01*
X111769754Y-131253686D01*
X111949054Y-131539039D01*
X112159175Y-131802523D01*
X112397477Y-132040825D01*
X112660961Y-132250946D01*
X112946314Y-132430246D01*
X113249949Y-132576469D01*
X113488848Y-132660063D01*
X113568034Y-132687772D01*
X113568046Y-132687776D01*
X113896606Y-132762767D01*
X114231492Y-132800499D01*
X114231493Y-132800500D01*
X114231496Y-132800500D01*
X114568507Y-132800500D01*
X114568507Y-132800499D01*
X114903394Y-132762767D01*
X115231954Y-132687776D01*
X115550051Y-132576469D01*
X115853686Y-132430246D01*
X116139039Y-132250946D01*
X116402523Y-132040825D01*
X116640825Y-131802523D01*
X116850946Y-131539039D01*
X117030246Y-131253686D01*
X117176469Y-130950051D01*
X117287776Y-130631954D01*
X117362767Y-130303394D01*
X117400500Y-129968504D01*
X117400500Y-129631496D01*
X117362767Y-129296606D01*
X117287776Y-128968046D01*
X117176469Y-128649949D01*
X117030246Y-128346314D01*
X116850946Y-128060961D01*
X116640825Y-127797477D01*
X116402523Y-127559175D01*
X116139039Y-127349054D01*
X115853686Y-127169754D01*
X115853683Y-127169752D01*
X115550054Y-127023532D01*
X115231965Y-126912227D01*
X115231953Y-126912223D01*
X114903397Y-126837233D01*
X114903381Y-126837231D01*
X114568508Y-126799500D01*
X114568504Y-126799500D01*
X114231496Y-126799500D01*
X114231491Y-126799500D01*
X113896618Y-126837231D01*
X113896602Y-126837233D01*
X113568046Y-126912223D01*
X113568034Y-126912227D01*
X113249945Y-127023532D01*
X112946316Y-127169752D01*
X112660962Y-127349053D01*
X112397477Y-127559174D01*
X112159174Y-127797477D01*
X111949053Y-128060962D01*
X111769752Y-128346316D01*
X111623532Y-128649945D01*
X111512227Y-128968034D01*
X111512223Y-128968046D01*
X111437233Y-129296602D01*
X111437231Y-129296618D01*
X111399500Y-129631491D01*
X70500500Y-129631491D01*
X70500500Y-109874038D01*
X116399500Y-109874038D01*
X116399500Y-110125961D01*
X116438910Y-110374785D01*
X116516760Y-110614383D01*
X116631132Y-110838848D01*
X116779201Y-111042649D01*
X116779205Y-111042654D01*
X116957345Y-111220794D01*
X116957350Y-111220798D01*
X117135117Y-111349952D01*
X117161155Y-111368870D01*
X117304184Y-111441747D01*
X117385616Y-111483239D01*
X117385618Y-111483239D01*
X117385621Y-111483241D01*
X117625215Y-111561090D01*
X117874038Y-111600500D01*
X117874039Y-111600500D01*
X118125961Y-111600500D01*
X118125962Y-111600500D01*
X118374785Y-111561090D01*
X118614379Y-111483241D01*
X118838845Y-111368870D01*
X119042656Y-111220793D01*
X119220793Y-111042656D01*
X119368870Y-110838845D01*
X119483241Y-110614379D01*
X119561090Y-110374785D01*
X119600500Y-110125962D01*
X119600500Y-109874038D01*
X119561090Y-109625215D01*
X119483241Y-109385621D01*
X119483239Y-109385618D01*
X119483239Y-109385616D01*
X119441747Y-109304184D01*
X119368870Y-109161155D01*
X119349952Y-109135117D01*
X119220798Y-108957350D01*
X119220794Y-108957345D01*
X119042654Y-108779205D01*
X119042649Y-108779201D01*
X118838848Y-108631132D01*
X118838847Y-108631131D01*
X118838845Y-108631130D01*
X118768747Y-108595413D01*
X118614383Y-108516760D01*
X118374785Y-108438910D01*
X118125962Y-108399500D01*
X117874038Y-108399500D01*
X117749626Y-108419205D01*
X117625214Y-108438910D01*
X117385616Y-108516760D01*
X117161151Y-108631132D01*
X116957350Y-108779201D01*
X116957345Y-108779205D01*
X116779205Y-108957345D01*
X116779201Y-108957350D01*
X116631132Y-109161151D01*
X116516760Y-109385616D01*
X116438910Y-109625214D01*
X116399500Y-109874038D01*
X70500500Y-109874038D01*
X70500500Y-104024038D01*
X116399500Y-104024038D01*
X116399500Y-104275961D01*
X116438910Y-104524785D01*
X116516760Y-104764383D01*
X116631132Y-104988848D01*
X116779201Y-105192649D01*
X116779205Y-105192654D01*
X116957345Y-105370794D01*
X116957350Y-105370798D01*
X117135117Y-105499952D01*
X117161155Y-105518870D01*
X117304184Y-105591747D01*
X117385616Y-105633239D01*
X117385618Y-105633239D01*
X117385621Y-105633241D01*
X117625215Y-105711090D01*
X117874038Y-105750500D01*
X117874039Y-105750500D01*
X118125961Y-105750500D01*
X118125962Y-105750500D01*
X118374785Y-105711090D01*
X118614379Y-105633241D01*
X118838845Y-105518870D01*
X119042656Y-105370793D01*
X119220793Y-105192656D01*
X119368870Y-104988845D01*
X119483241Y-104764379D01*
X119561090Y-104524785D01*
X119600500Y-104275962D01*
X119600500Y-104024038D01*
X119561090Y-103775215D01*
X119483241Y-103535621D01*
X119483239Y-103535618D01*
X119483239Y-103535616D01*
X119441747Y-103454184D01*
X119368870Y-103311155D01*
X119349952Y-103285117D01*
X119220798Y-103107350D01*
X119220794Y-103107345D01*
X119042654Y-102929205D01*
X119042649Y-102929201D01*
X118838848Y-102781132D01*
X118838847Y-102781131D01*
X118838845Y-102781130D01*
X118768747Y-102745413D01*
X118614383Y-102666760D01*
X118374785Y-102588910D01*
X118125962Y-102549500D01*
X117874038Y-102549500D01*
X117749626Y-102569205D01*
X117625214Y-102588910D01*
X117385616Y-102666760D01*
X117161151Y-102781132D01*
X116957350Y-102929201D01*
X116957345Y-102929205D01*
X116779205Y-103107345D01*
X116779201Y-103107350D01*
X116631132Y-103311151D01*
X116516760Y-103535616D01*
X116438910Y-103775214D01*
X116399500Y-104024038D01*
X70500500Y-104024038D01*
X70500500Y-96381947D01*
X82000000Y-96381947D01*
X82000000Y-96618052D01*
X82036934Y-96851247D01*
X82109897Y-97075802D01*
X82217087Y-97286174D01*
X82277338Y-97369104D01*
X82277340Y-97369105D01*
X83017037Y-96629408D01*
X83034075Y-96692993D01*
X83099901Y-96807007D01*
X83192993Y-96900099D01*
X83307007Y-96965925D01*
X83370590Y-96982962D01*
X82630893Y-97722658D01*
X82713828Y-97782914D01*
X82924197Y-97890102D01*
X83148752Y-97963065D01*
X83148751Y-97963065D01*
X83381948Y-98000000D01*
X83618052Y-98000000D01*
X83851247Y-97963065D01*
X84075802Y-97890102D01*
X84286163Y-97782918D01*
X84286169Y-97782914D01*
X84369104Y-97722658D01*
X84369105Y-97722658D01*
X83629408Y-96982962D01*
X83692993Y-96965925D01*
X83807007Y-96900099D01*
X83900099Y-96807007D01*
X83965925Y-96692993D01*
X83982962Y-96629409D01*
X84722658Y-97369105D01*
X84722658Y-97369104D01*
X84782914Y-97286169D01*
X84782918Y-97286163D01*
X84890102Y-97075802D01*
X84963065Y-96851247D01*
X85000000Y-96618052D01*
X85000000Y-96381947D01*
X84999993Y-96381902D01*
X89499500Y-96381902D01*
X89499500Y-96618097D01*
X89536446Y-96851368D01*
X89609433Y-97075996D01*
X89677178Y-97208951D01*
X89716657Y-97286433D01*
X89855483Y-97477510D01*
X90022490Y-97644517D01*
X90213567Y-97783343D01*
X90312991Y-97834002D01*
X90424003Y-97890566D01*
X90424005Y-97890566D01*
X90424008Y-97890568D01*
X90544412Y-97929689D01*
X90648631Y-97963553D01*
X90881903Y-98000500D01*
X90881908Y-98000500D01*
X91118097Y-98000500D01*
X91351368Y-97963553D01*
X91407809Y-97945214D01*
X91575992Y-97890568D01*
X91786433Y-97783343D01*
X91977510Y-97644517D01*
X92144517Y-97477510D01*
X92283343Y-97286433D01*
X92390568Y-97075992D01*
X92463553Y-96851368D01*
X92484439Y-96719500D01*
X92490816Y-96679240D01*
X92500500Y-96618097D01*
X92500500Y-96381902D01*
X92463553Y-96148631D01*
X92390566Y-95924003D01*
X92322822Y-95791049D01*
X92283343Y-95713567D01*
X92144517Y-95522490D01*
X91977510Y-95355483D01*
X91786433Y-95216657D01*
X91575996Y-95109433D01*
X91351368Y-95036446D01*
X91118097Y-94999500D01*
X91118092Y-94999500D01*
X90881908Y-94999500D01*
X90881903Y-94999500D01*
X90648631Y-95036446D01*
X90424003Y-95109433D01*
X90213566Y-95216657D01*
X90130047Y-95277338D01*
X90022490Y-95355483D01*
X90022488Y-95355485D01*
X90022487Y-95355485D01*
X89855485Y-95522487D01*
X89855485Y-95522488D01*
X89855483Y-95522490D01*
X89795862Y-95604550D01*
X89716657Y-95713566D01*
X89609433Y-95924003D01*
X89536446Y-96148631D01*
X89499500Y-96381902D01*
X84999993Y-96381902D01*
X84963065Y-96148752D01*
X84890102Y-95924197D01*
X84782914Y-95713828D01*
X84722658Y-95630894D01*
X84722658Y-95630893D01*
X83982962Y-96370590D01*
X83965925Y-96307007D01*
X83900099Y-96192993D01*
X83807007Y-96099901D01*
X83692993Y-96034075D01*
X83629409Y-96017037D01*
X84369105Y-95277340D01*
X84369104Y-95277338D01*
X84286174Y-95217087D01*
X84075802Y-95109897D01*
X83851247Y-95036934D01*
X83851248Y-95036934D01*
X83618052Y-95000000D01*
X83381948Y-95000000D01*
X83148752Y-95036934D01*
X82924197Y-95109897D01*
X82713830Y-95217084D01*
X82630894Y-95277340D01*
X83370591Y-96017037D01*
X83307007Y-96034075D01*
X83192993Y-96099901D01*
X83099901Y-96192993D01*
X83034075Y-96307007D01*
X83017037Y-96370591D01*
X82277340Y-95630894D01*
X82217084Y-95713830D01*
X82109897Y-95924197D01*
X82036934Y-96148752D01*
X82000000Y-96381947D01*
X70500500Y-96381947D01*
X70500500Y-94852155D01*
X101400000Y-94852155D01*
X101400000Y-96250000D01*
X102737639Y-96250000D01*
X102730743Y-96266649D01*
X102700000Y-96421207D01*
X102700000Y-96578793D01*
X102730743Y-96733351D01*
X102737639Y-96750000D01*
X101400000Y-96750000D01*
X101400000Y-98147844D01*
X101406401Y-98207372D01*
X101406403Y-98207379D01*
X101456645Y-98342086D01*
X101456649Y-98342093D01*
X101542809Y-98457187D01*
X101542812Y-98457190D01*
X101657906Y-98543350D01*
X101657913Y-98543354D01*
X101792620Y-98593596D01*
X101792627Y-98593598D01*
X101852155Y-98599999D01*
X101852172Y-98600000D01*
X103250000Y-98600000D01*
X103250000Y-97262360D01*
X103266649Y-97269257D01*
X103421207Y-97300000D01*
X103578793Y-97300000D01*
X103733351Y-97269257D01*
X103750000Y-97262360D01*
X103750000Y-98600000D01*
X105147828Y-98600000D01*
X105147844Y-98599999D01*
X105207372Y-98593598D01*
X105207379Y-98593596D01*
X105342086Y-98543354D01*
X105342093Y-98543350D01*
X105457187Y-98457190D01*
X105457190Y-98457187D01*
X105543350Y-98342093D01*
X105543354Y-98342086D01*
X105593596Y-98207380D01*
X105595031Y-98194038D01*
X116399500Y-98194038D01*
X116399500Y-98445962D01*
X116422883Y-98593596D01*
X116438910Y-98694785D01*
X116516760Y-98934383D01*
X116631132Y-99158848D01*
X116779201Y-99362649D01*
X116779205Y-99362654D01*
X116957345Y-99540794D01*
X116957350Y-99540798D01*
X117135117Y-99669952D01*
X117161155Y-99688870D01*
X117304184Y-99761747D01*
X117385616Y-99803239D01*
X117385618Y-99803239D01*
X117385621Y-99803241D01*
X117625215Y-99881090D01*
X117874038Y-99920500D01*
X117874039Y-99920500D01*
X118125961Y-99920500D01*
X118125962Y-99920500D01*
X118374785Y-99881090D01*
X118614379Y-99803241D01*
X118838845Y-99688870D01*
X119042656Y-99540793D01*
X119220793Y-99362656D01*
X119368870Y-99158845D01*
X119483241Y-98934379D01*
X119561090Y-98694785D01*
X119600500Y-98445962D01*
X119600500Y-98194038D01*
X119561090Y-97945215D01*
X119483241Y-97705621D01*
X119483239Y-97705618D01*
X119483239Y-97705616D01*
X119441747Y-97624184D01*
X119368870Y-97481155D01*
X119287461Y-97369105D01*
X119220798Y-97277350D01*
X119220794Y-97277345D01*
X119042654Y-97099205D01*
X119042649Y-97099201D01*
X118838848Y-96951132D01*
X118838847Y-96951131D01*
X118838845Y-96951130D01*
X118738691Y-96900099D01*
X118614383Y-96836760D01*
X118374785Y-96758910D01*
X118318530Y-96750000D01*
X118125962Y-96719500D01*
X117874038Y-96719500D01*
X117786587Y-96733351D01*
X117625214Y-96758910D01*
X117385616Y-96836760D01*
X117161151Y-96951132D01*
X116957350Y-97099201D01*
X116957345Y-97099205D01*
X116779205Y-97277345D01*
X116779201Y-97277350D01*
X116631132Y-97481151D01*
X116516760Y-97705616D01*
X116438910Y-97945214D01*
X116430233Y-98000000D01*
X116399500Y-98194038D01*
X105595031Y-98194038D01*
X105596980Y-98175911D01*
X105596980Y-98175908D01*
X105599999Y-98147839D01*
X105600000Y-98147827D01*
X105600000Y-96750000D01*
X104262361Y-96750000D01*
X104269257Y-96733351D01*
X104300000Y-96578793D01*
X104300000Y-96421207D01*
X104269257Y-96266649D01*
X104262361Y-96250000D01*
X105600000Y-96250000D01*
X105600000Y-94852172D01*
X105599999Y-94852155D01*
X105593598Y-94792627D01*
X105593596Y-94792620D01*
X105543354Y-94657913D01*
X105543350Y-94657906D01*
X105457190Y-94542812D01*
X105457187Y-94542809D01*
X105342093Y-94456649D01*
X105342086Y-94456645D01*
X105207379Y-94406403D01*
X105207372Y-94406401D01*
X105147844Y-94400000D01*
X103750000Y-94400000D01*
X103750000Y-95737639D01*
X103733351Y-95730743D01*
X103578793Y-95700000D01*
X103421207Y-95700000D01*
X103266649Y-95730743D01*
X103250000Y-95737639D01*
X103250000Y-94400000D01*
X101852155Y-94400000D01*
X101792627Y-94406401D01*
X101792620Y-94406403D01*
X101657913Y-94456645D01*
X101657906Y-94456649D01*
X101542812Y-94542809D01*
X101542809Y-94542812D01*
X101456649Y-94657906D01*
X101456645Y-94657913D01*
X101406403Y-94792620D01*
X101406401Y-94792627D01*
X101400000Y-94852155D01*
X70500500Y-94852155D01*
X70500500Y-91397682D01*
X97700000Y-91397682D01*
X97700000Y-91602317D01*
X97732009Y-91804417D01*
X97795244Y-91999031D01*
X97888141Y-92181350D01*
X97888147Y-92181359D01*
X97920523Y-92225921D01*
X97920524Y-92225922D01*
X98600000Y-91546446D01*
X98600000Y-91552661D01*
X98627259Y-91654394D01*
X98679920Y-91745606D01*
X98754394Y-91820080D01*
X98845606Y-91872741D01*
X98947339Y-91900000D01*
X98953553Y-91900000D01*
X98274076Y-92579474D01*
X98318650Y-92611859D01*
X98500968Y-92704755D01*
X98695582Y-92767990D01*
X98897683Y-92800000D01*
X99102317Y-92800000D01*
X99304417Y-92767990D01*
X99499031Y-92704755D01*
X99681349Y-92611859D01*
X99725921Y-92579474D01*
X99046447Y-91900000D01*
X99052661Y-91900000D01*
X99154394Y-91872741D01*
X99245606Y-91820080D01*
X99320080Y-91745606D01*
X99372741Y-91654394D01*
X99400000Y-91552661D01*
X99400000Y-91546448D01*
X100079474Y-92225922D01*
X100079474Y-92225921D01*
X100111859Y-92181349D01*
X100204755Y-91999031D01*
X100267990Y-91804417D01*
X100300000Y-91602317D01*
X100300000Y-91397682D01*
X100284159Y-91297665D01*
X100281730Y-91282332D01*
X101399500Y-91282332D01*
X101399500Y-91557667D01*
X101399501Y-91557684D01*
X101435438Y-91830655D01*
X101435439Y-91830660D01*
X101435440Y-91830666D01*
X101435441Y-91830668D01*
X101506704Y-92096630D01*
X101612075Y-92351017D01*
X101612080Y-92351028D01*
X101694861Y-92494407D01*
X101749751Y-92589479D01*
X101749753Y-92589482D01*
X101749754Y-92589483D01*
X101917370Y-92807926D01*
X101917376Y-92807933D01*
X102112066Y-93002623D01*
X102112072Y-93002628D01*
X102330521Y-93170249D01*
X102483778Y-93258732D01*
X102568971Y-93307919D01*
X102568976Y-93307921D01*
X102568979Y-93307923D01*
X102823368Y-93413295D01*
X103089334Y-93484560D01*
X103362326Y-93520500D01*
X103362333Y-93520500D01*
X103637667Y-93520500D01*
X103637674Y-93520500D01*
X103910666Y-93484560D01*
X104176632Y-93413295D01*
X104431021Y-93307923D01*
X104669479Y-93170249D01*
X104887928Y-93002628D01*
X105082628Y-92807928D01*
X105250249Y-92589479D01*
X105380428Y-92364002D01*
X116400186Y-92364002D01*
X116400186Y-92615925D01*
X116439596Y-92864749D01*
X116517446Y-93104347D01*
X116631818Y-93328812D01*
X116779887Y-93532613D01*
X116779891Y-93532618D01*
X116958031Y-93710758D01*
X116958036Y-93710762D01*
X117135803Y-93839916D01*
X117161841Y-93858834D01*
X117304870Y-93931711D01*
X117386302Y-93973203D01*
X117386304Y-93973203D01*
X117386307Y-93973205D01*
X117625901Y-94051054D01*
X117874724Y-94090464D01*
X117874725Y-94090464D01*
X118126647Y-94090464D01*
X118126648Y-94090464D01*
X118375471Y-94051054D01*
X118615065Y-93973205D01*
X118839531Y-93858834D01*
X119043342Y-93710757D01*
X119221479Y-93532620D01*
X119369556Y-93328809D01*
X119483927Y-93104343D01*
X119561776Y-92864749D01*
X119601186Y-92615926D01*
X119601186Y-92364002D01*
X119561776Y-92115179D01*
X119483927Y-91875585D01*
X119483925Y-91875582D01*
X119483925Y-91875580D01*
X119417699Y-91745606D01*
X119369556Y-91651119D01*
X119301672Y-91557684D01*
X119221484Y-91447314D01*
X119221480Y-91447309D01*
X119043340Y-91269169D01*
X119043335Y-91269165D01*
X118839534Y-91121096D01*
X118839533Y-91121095D01*
X118839531Y-91121094D01*
X118769433Y-91085377D01*
X118615069Y-91006724D01*
X118375471Y-90928874D01*
X118126648Y-90889464D01*
X117874724Y-90889464D01*
X117750312Y-90909169D01*
X117625900Y-90928874D01*
X117386302Y-91006724D01*
X117161837Y-91121096D01*
X116958036Y-91269165D01*
X116958031Y-91269169D01*
X116779891Y-91447309D01*
X116779887Y-91447314D01*
X116631818Y-91651115D01*
X116517446Y-91875580D01*
X116439596Y-92115178D01*
X116400186Y-92364002D01*
X105380428Y-92364002D01*
X105387923Y-92351021D01*
X105493295Y-92096632D01*
X105564560Y-91830666D01*
X105600500Y-91557674D01*
X105600500Y-91282326D01*
X105564560Y-91009334D01*
X105493295Y-90743368D01*
X105387923Y-90488979D01*
X105387921Y-90488976D01*
X105387919Y-90488971D01*
X105338732Y-90403778D01*
X105250249Y-90250521D01*
X105082628Y-90032072D01*
X105082623Y-90032066D01*
X104887933Y-89837376D01*
X104887926Y-89837370D01*
X104669483Y-89669754D01*
X104669482Y-89669753D01*
X104669479Y-89669751D01*
X104574407Y-89614861D01*
X104431028Y-89532080D01*
X104431017Y-89532075D01*
X104176630Y-89426704D01*
X104043649Y-89391072D01*
X103910666Y-89355440D01*
X103910660Y-89355439D01*
X103910655Y-89355438D01*
X103637684Y-89319501D01*
X103637679Y-89319500D01*
X103637674Y-89319500D01*
X103362326Y-89319500D01*
X103362320Y-89319500D01*
X103362315Y-89319501D01*
X103089344Y-89355438D01*
X103089337Y-89355439D01*
X103089334Y-89355440D01*
X103033125Y-89370500D01*
X102823369Y-89426704D01*
X102568982Y-89532075D01*
X102568971Y-89532080D01*
X102330516Y-89669754D01*
X102112073Y-89837370D01*
X102112066Y-89837376D01*
X101917376Y-90032066D01*
X101917370Y-90032073D01*
X101749754Y-90250516D01*
X101612080Y-90488971D01*
X101612075Y-90488982D01*
X101506704Y-90743369D01*
X101486533Y-90818650D01*
X101436140Y-91006724D01*
X101435441Y-91009331D01*
X101435438Y-91009344D01*
X101399501Y-91282315D01*
X101399500Y-91282332D01*
X100281730Y-91282332D01*
X100267989Y-91195581D01*
X100204755Y-91000968D01*
X100111859Y-90818650D01*
X100079474Y-90774077D01*
X100079474Y-90774076D01*
X99400000Y-91453551D01*
X99400000Y-91447339D01*
X99372741Y-91345606D01*
X99320080Y-91254394D01*
X99245606Y-91179920D01*
X99154394Y-91127259D01*
X99052661Y-91100000D01*
X99046446Y-91100000D01*
X99725922Y-90420524D01*
X99725921Y-90420523D01*
X99681359Y-90388147D01*
X99681350Y-90388141D01*
X99499031Y-90295244D01*
X99304417Y-90232009D01*
X99102317Y-90200000D01*
X98897683Y-90200000D01*
X98695582Y-90232009D01*
X98500968Y-90295244D01*
X98318644Y-90388143D01*
X98274077Y-90420523D01*
X98274077Y-90420524D01*
X98953554Y-91100000D01*
X98947339Y-91100000D01*
X98845606Y-91127259D01*
X98754394Y-91179920D01*
X98679920Y-91254394D01*
X98627259Y-91345606D01*
X98600000Y-91447339D01*
X98600000Y-91453553D01*
X97920524Y-90774077D01*
X97920523Y-90774077D01*
X97888143Y-90818644D01*
X97795244Y-91000968D01*
X97732009Y-91195582D01*
X97700000Y-91397682D01*
X70500500Y-91397682D01*
X70500500Y-86397648D01*
X97699500Y-86397648D01*
X97699500Y-86602351D01*
X97731522Y-86804534D01*
X97794781Y-86999223D01*
X97887715Y-87181613D01*
X98008028Y-87347213D01*
X98152786Y-87491971D01*
X98307749Y-87604556D01*
X98318390Y-87612287D01*
X98434607Y-87671503D01*
X98500776Y-87705218D01*
X98500778Y-87705218D01*
X98500781Y-87705220D01*
X98605137Y-87739127D01*
X98695465Y-87768477D01*
X98796557Y-87784488D01*
X98897648Y-87800500D01*
X98897649Y-87800500D01*
X99102351Y-87800500D01*
X99102352Y-87800500D01*
X99304534Y-87768477D01*
X99499219Y-87705220D01*
X99681610Y-87612287D01*
X99823109Y-87509483D01*
X99847213Y-87491971D01*
X99847215Y-87491968D01*
X99847219Y-87491966D01*
X99991966Y-87347219D01*
X99991968Y-87347215D01*
X99991971Y-87347213D01*
X100047330Y-87271017D01*
X100112287Y-87181610D01*
X100205220Y-86999219D01*
X100268477Y-86804534D01*
X100300500Y-86602352D01*
X100300500Y-86397648D01*
X100269564Y-86202332D01*
X101399500Y-86202332D01*
X101399500Y-86477667D01*
X101399501Y-86477684D01*
X101435438Y-86750655D01*
X101435439Y-86750660D01*
X101435440Y-86750666D01*
X101449874Y-86804534D01*
X101506704Y-87016630D01*
X101612075Y-87271017D01*
X101612080Y-87271028D01*
X101656070Y-87347219D01*
X101749751Y-87509479D01*
X101749753Y-87509482D01*
X101749754Y-87509483D01*
X101917370Y-87727926D01*
X101917376Y-87727933D01*
X102112066Y-87922623D01*
X102112072Y-87922628D01*
X102330521Y-88090249D01*
X102422306Y-88143241D01*
X102568971Y-88227919D01*
X102568976Y-88227921D01*
X102568979Y-88227923D01*
X102823368Y-88333295D01*
X103089334Y-88404560D01*
X103362326Y-88440500D01*
X103362333Y-88440500D01*
X103637667Y-88440500D01*
X103637674Y-88440500D01*
X103910666Y-88404560D01*
X104176632Y-88333295D01*
X104431021Y-88227923D01*
X104669479Y-88090249D01*
X104887928Y-87922628D01*
X105082628Y-87727928D01*
X105250249Y-87509479D01*
X105387923Y-87271021D01*
X105493295Y-87016632D01*
X105564560Y-86750666D01*
X105593080Y-86534038D01*
X116399500Y-86534038D01*
X116399500Y-86785962D01*
X116436035Y-87016630D01*
X116438910Y-87034785D01*
X116516760Y-87274383D01*
X116631132Y-87498848D01*
X116779201Y-87702649D01*
X116779205Y-87702654D01*
X116957345Y-87880794D01*
X116957350Y-87880798D01*
X117014926Y-87922629D01*
X117161155Y-88028870D01*
X117304184Y-88101747D01*
X117385616Y-88143239D01*
X117385618Y-88143239D01*
X117385621Y-88143241D01*
X117625215Y-88221090D01*
X117874038Y-88260500D01*
X117874039Y-88260500D01*
X118125961Y-88260500D01*
X118125962Y-88260500D01*
X118374785Y-88221090D01*
X118614379Y-88143241D01*
X118838845Y-88028870D01*
X119042656Y-87880793D01*
X119220793Y-87702656D01*
X119368870Y-87498845D01*
X119483241Y-87274379D01*
X119561090Y-87034785D01*
X119600500Y-86785962D01*
X119600500Y-86534038D01*
X119561090Y-86285215D01*
X119483241Y-86045621D01*
X119483239Y-86045618D01*
X119483239Y-86045616D01*
X119423988Y-85929331D01*
X119368870Y-85821155D01*
X119349952Y-85795117D01*
X119220798Y-85617350D01*
X119220794Y-85617345D01*
X119042654Y-85439205D01*
X119042649Y-85439201D01*
X118838848Y-85291132D01*
X118838847Y-85291131D01*
X118838845Y-85291130D01*
X118721858Y-85231522D01*
X118614383Y-85176760D01*
X118374785Y-85098910D01*
X118125962Y-85059500D01*
X117874038Y-85059500D01*
X117749626Y-85079205D01*
X117625214Y-85098910D01*
X117385616Y-85176760D01*
X117161151Y-85291132D01*
X116957350Y-85439201D01*
X116957345Y-85439205D01*
X116779205Y-85617345D01*
X116779201Y-85617350D01*
X116631132Y-85821151D01*
X116516760Y-86045616D01*
X116460858Y-86217665D01*
X116438910Y-86285215D01*
X116399500Y-86534038D01*
X105593080Y-86534038D01*
X105600500Y-86477674D01*
X105600500Y-86202326D01*
X105564560Y-85929334D01*
X105493295Y-85663368D01*
X105387923Y-85408979D01*
X105387921Y-85408976D01*
X105387919Y-85408971D01*
X105325003Y-85299999D01*
X105250249Y-85170521D01*
X105082628Y-84952072D01*
X105082623Y-84952066D01*
X104887933Y-84757376D01*
X104887926Y-84757370D01*
X104669483Y-84589754D01*
X104669482Y-84589753D01*
X104669479Y-84589751D01*
X104517804Y-84502181D01*
X104431028Y-84452080D01*
X104431017Y-84452075D01*
X104176630Y-84346704D01*
X104043649Y-84311072D01*
X103910666Y-84275440D01*
X103910660Y-84275439D01*
X103910655Y-84275438D01*
X103637684Y-84239501D01*
X103637679Y-84239500D01*
X103637674Y-84239500D01*
X103362326Y-84239500D01*
X103362320Y-84239500D01*
X103362315Y-84239501D01*
X103089344Y-84275438D01*
X103089337Y-84275439D01*
X103089334Y-84275440D01*
X103033125Y-84290500D01*
X102823369Y-84346704D01*
X102568982Y-84452075D01*
X102568971Y-84452080D01*
X102330516Y-84589754D01*
X102112073Y-84757370D01*
X102112066Y-84757376D01*
X101917376Y-84952066D01*
X101917370Y-84952073D01*
X101749754Y-85170516D01*
X101749751Y-85170520D01*
X101749751Y-85170521D01*
X101746149Y-85176760D01*
X101612080Y-85408971D01*
X101612075Y-85408982D01*
X101506704Y-85663369D01*
X101435441Y-85929331D01*
X101435438Y-85929344D01*
X101399501Y-86202315D01*
X101399500Y-86202332D01*
X100269564Y-86202332D01*
X100268477Y-86195466D01*
X100268477Y-86195465D01*
X100205218Y-86000776D01*
X100168814Y-85929331D01*
X100112287Y-85818390D01*
X100104556Y-85807749D01*
X99991971Y-85652786D01*
X99847213Y-85508028D01*
X99681613Y-85387715D01*
X99681612Y-85387714D01*
X99681610Y-85387713D01*
X99624653Y-85358691D01*
X99499223Y-85294781D01*
X99304534Y-85231522D01*
X99129995Y-85203878D01*
X99102352Y-85199500D01*
X98897648Y-85199500D01*
X98873329Y-85203351D01*
X98695465Y-85231522D01*
X98500776Y-85294781D01*
X98318386Y-85387715D01*
X98152786Y-85508028D01*
X98008028Y-85652786D01*
X97887715Y-85818386D01*
X97794781Y-86000776D01*
X97731522Y-86195465D01*
X97699500Y-86397648D01*
X70500500Y-86397648D01*
X70500500Y-83382014D01*
X78200000Y-83382014D01*
X78200000Y-83617985D01*
X78230799Y-83851914D01*
X78291870Y-84079837D01*
X78382160Y-84297819D01*
X78382165Y-84297828D01*
X78500144Y-84502171D01*
X78500145Y-84502172D01*
X78562721Y-84583723D01*
X79398958Y-83747487D01*
X79423978Y-83807890D01*
X79495112Y-83914351D01*
X79585649Y-84004888D01*
X79692110Y-84076022D01*
X79752511Y-84101041D01*
X78916275Y-84937277D01*
X78997827Y-84999854D01*
X78997828Y-84999855D01*
X79202171Y-85117834D01*
X79202180Y-85117839D01*
X79420163Y-85208129D01*
X79420161Y-85208129D01*
X79648085Y-85269200D01*
X79882014Y-85299999D01*
X79882029Y-85300000D01*
X80117971Y-85300000D01*
X80117985Y-85299999D01*
X80351914Y-85269200D01*
X80579837Y-85208129D01*
X80797819Y-85117839D01*
X80797828Y-85117834D01*
X81002181Y-84999850D01*
X81083723Y-84937279D01*
X81083723Y-84937276D01*
X80247487Y-84101041D01*
X80307890Y-84076022D01*
X80414351Y-84004888D01*
X80504888Y-83914351D01*
X80576022Y-83807890D01*
X80601041Y-83747488D01*
X81437276Y-84583723D01*
X81437279Y-84583723D01*
X81499850Y-84502181D01*
X81617834Y-84297828D01*
X81617839Y-84297819D01*
X81708129Y-84079837D01*
X81769200Y-83851914D01*
X81799999Y-83617985D01*
X81800000Y-83617971D01*
X81800000Y-83382028D01*
X81799999Y-83382014D01*
X81769200Y-83148085D01*
X81708129Y-82920162D01*
X81617839Y-82702180D01*
X81617834Y-82702171D01*
X81499855Y-82497828D01*
X81499848Y-82497817D01*
X81457421Y-82442526D01*
X81457418Y-82442523D01*
X81437277Y-82416275D01*
X80601041Y-83252511D01*
X80576022Y-83192110D01*
X80504888Y-83085649D01*
X80414351Y-82995112D01*
X80307890Y-82923978D01*
X80247488Y-82898958D01*
X80774543Y-82371902D01*
X88419500Y-82371902D01*
X88419500Y-82608097D01*
X88456446Y-82841368D01*
X88529433Y-83065996D01*
X88636657Y-83276433D01*
X88775483Y-83467510D01*
X88942490Y-83634517D01*
X89133567Y-83773343D01*
X89232991Y-83824002D01*
X89344003Y-83880566D01*
X89344005Y-83880566D01*
X89344008Y-83880568D01*
X89447981Y-83914351D01*
X89568631Y-83953553D01*
X89801903Y-83990500D01*
X89801908Y-83990500D01*
X90038097Y-83990500D01*
X90271368Y-83953553D01*
X90495992Y-83880568D01*
X90706433Y-83773343D01*
X90897510Y-83634517D01*
X91064517Y-83467510D01*
X91203343Y-83276433D01*
X91310568Y-83065992D01*
X91383553Y-82841368D01*
X91420500Y-82608097D01*
X91420500Y-82381902D01*
X93499500Y-82381902D01*
X93499500Y-82618097D01*
X93536446Y-82851368D01*
X93609433Y-83075996D01*
X93646165Y-83148085D01*
X93716657Y-83286433D01*
X93855483Y-83477510D01*
X94022490Y-83644517D01*
X94213567Y-83783343D01*
X94312991Y-83834002D01*
X94424003Y-83890566D01*
X94424005Y-83890566D01*
X94424008Y-83890568D01*
X94544412Y-83929689D01*
X94648631Y-83963553D01*
X94881903Y-84000500D01*
X94881908Y-84000500D01*
X95118097Y-84000500D01*
X95351368Y-83963553D01*
X95575992Y-83890568D01*
X95786433Y-83783343D01*
X95977510Y-83644517D01*
X96144517Y-83477510D01*
X96283343Y-83286433D01*
X96390568Y-83075992D01*
X96463553Y-82851368D01*
X96487182Y-82702180D01*
X96500500Y-82618097D01*
X96500500Y-82381902D01*
X96463553Y-82148631D01*
X96415306Y-82000144D01*
X96390568Y-81924008D01*
X96390566Y-81924005D01*
X96390566Y-81924003D01*
X96283342Y-81713566D01*
X96144517Y-81522490D01*
X95977510Y-81355483D01*
X95789087Y-81218585D01*
X95789086Y-81218584D01*
X95786435Y-81216658D01*
X95601311Y-81122332D01*
X101399500Y-81122332D01*
X101399500Y-81397667D01*
X101399501Y-81397684D01*
X101435438Y-81670655D01*
X101435439Y-81670660D01*
X101435440Y-81670666D01*
X101451553Y-81730799D01*
X101506704Y-81936630D01*
X101612075Y-82191017D01*
X101612080Y-82191028D01*
X101682640Y-82313239D01*
X101749751Y-82429479D01*
X101749753Y-82429482D01*
X101749754Y-82429483D01*
X101917370Y-82647926D01*
X101917376Y-82647933D01*
X102112066Y-82842623D01*
X102112072Y-82842628D01*
X102330521Y-83010249D01*
X102483778Y-83098732D01*
X102568971Y-83147919D01*
X102568976Y-83147921D01*
X102568979Y-83147923D01*
X102823368Y-83253295D01*
X103089334Y-83324560D01*
X103362326Y-83360500D01*
X103362333Y-83360500D01*
X103637667Y-83360500D01*
X103637674Y-83360500D01*
X103910666Y-83324560D01*
X104176632Y-83253295D01*
X104431021Y-83147923D01*
X104669479Y-83010249D01*
X104887928Y-82842628D01*
X105082628Y-82647928D01*
X105250249Y-82429479D01*
X105387923Y-82191021D01*
X105493295Y-81936632D01*
X105564560Y-81670666D01*
X105600500Y-81397674D01*
X105600500Y-81122326D01*
X105564560Y-80849334D01*
X105525628Y-80704038D01*
X116399500Y-80704038D01*
X116399500Y-80955962D01*
X116423808Y-81109433D01*
X116438910Y-81204785D01*
X116516760Y-81444383D01*
X116631132Y-81668848D01*
X116779201Y-81872649D01*
X116779205Y-81872654D01*
X116957345Y-82050794D01*
X116957350Y-82050798D01*
X117078243Y-82138631D01*
X117161155Y-82198870D01*
X117304184Y-82271747D01*
X117385616Y-82313239D01*
X117385618Y-82313239D01*
X117385621Y-82313241D01*
X117625215Y-82391090D01*
X117874038Y-82430500D01*
X117874039Y-82430500D01*
X118125961Y-82430500D01*
X118125962Y-82430500D01*
X118374785Y-82391090D01*
X118614379Y-82313241D01*
X118838845Y-82198870D01*
X119042656Y-82050793D01*
X119220793Y-81872656D01*
X119368870Y-81668845D01*
X119483241Y-81444379D01*
X119561090Y-81204785D01*
X119600500Y-80955962D01*
X119600500Y-80704038D01*
X119561090Y-80455215D01*
X119483241Y-80215621D01*
X119483239Y-80215618D01*
X119483239Y-80215616D01*
X119419497Y-80090516D01*
X119368870Y-79991155D01*
X119282352Y-79872073D01*
X119220798Y-79787350D01*
X119220794Y-79787345D01*
X119042654Y-79609205D01*
X119042649Y-79609201D01*
X118838848Y-79461132D01*
X118838847Y-79461131D01*
X118838845Y-79461130D01*
X118768747Y-79425413D01*
X118614383Y-79346760D01*
X118374785Y-79268910D01*
X118360857Y-79266704D01*
X118125962Y-79229500D01*
X117874038Y-79229500D01*
X117749626Y-79249205D01*
X117625214Y-79268910D01*
X117385616Y-79346760D01*
X117161151Y-79461132D01*
X116957350Y-79609201D01*
X116957345Y-79609205D01*
X116779205Y-79787345D01*
X116779201Y-79787350D01*
X116631132Y-79991151D01*
X116516760Y-80215616D01*
X116438910Y-80455214D01*
X116438910Y-80455215D01*
X116399500Y-80704038D01*
X105525628Y-80704038D01*
X105493295Y-80583368D01*
X105387923Y-80328979D01*
X105387921Y-80328976D01*
X105387919Y-80328971D01*
X105333556Y-80234812D01*
X105250249Y-80090521D01*
X105082628Y-79872072D01*
X105082623Y-79872066D01*
X104887933Y-79677376D01*
X104887926Y-79677370D01*
X104669483Y-79509754D01*
X104669482Y-79509753D01*
X104669479Y-79509751D01*
X104574407Y-79454861D01*
X104431028Y-79372080D01*
X104431017Y-79372075D01*
X104176630Y-79266704D01*
X104037780Y-79229500D01*
X103910666Y-79195440D01*
X103910660Y-79195439D01*
X103910655Y-79195438D01*
X103637684Y-79159501D01*
X103637679Y-79159500D01*
X103637674Y-79159500D01*
X103362326Y-79159500D01*
X103362320Y-79159500D01*
X103362315Y-79159501D01*
X103089344Y-79195438D01*
X103089337Y-79195439D01*
X103089334Y-79195440D01*
X103033125Y-79210500D01*
X102823369Y-79266704D01*
X102568982Y-79372075D01*
X102568971Y-79372080D01*
X102330516Y-79509754D01*
X102112073Y-79677370D01*
X102112066Y-79677376D01*
X101917376Y-79872066D01*
X101917370Y-79872073D01*
X101749754Y-80090516D01*
X101612080Y-80328971D01*
X101612075Y-80328982D01*
X101506704Y-80583369D01*
X101435441Y-80849331D01*
X101435438Y-80849344D01*
X101399501Y-81122315D01*
X101399500Y-81122332D01*
X95601311Y-81122332D01*
X95575996Y-81109433D01*
X95351368Y-81036446D01*
X95118097Y-80999500D01*
X95118092Y-80999500D01*
X94881908Y-80999500D01*
X94881903Y-80999500D01*
X94648631Y-81036446D01*
X94424003Y-81109433D01*
X94213566Y-81216657D01*
X94104550Y-81295862D01*
X94022490Y-81355483D01*
X94022488Y-81355485D01*
X94022487Y-81355485D01*
X93855485Y-81522487D01*
X93855485Y-81522488D01*
X93855483Y-81522490D01*
X93795862Y-81604550D01*
X93716657Y-81713566D01*
X93609433Y-81924003D01*
X93536446Y-82148631D01*
X93499500Y-82381902D01*
X91420500Y-82381902D01*
X91420500Y-82371902D01*
X91383553Y-82138631D01*
X91313817Y-81924008D01*
X91310568Y-81914008D01*
X91310566Y-81914005D01*
X91310566Y-81914003D01*
X91208438Y-81713567D01*
X91203343Y-81703567D01*
X91064517Y-81512490D01*
X90897510Y-81345483D01*
X90706433Y-81206657D01*
X90702759Y-81204785D01*
X90495996Y-81099433D01*
X90271368Y-81026446D01*
X90038097Y-80989500D01*
X90038092Y-80989500D01*
X89801908Y-80989500D01*
X89801903Y-80989500D01*
X89568631Y-81026446D01*
X89344003Y-81099433D01*
X89133566Y-81206657D01*
X89024550Y-81285862D01*
X88942490Y-81345483D01*
X88942488Y-81345485D01*
X88942487Y-81345485D01*
X88775485Y-81512487D01*
X88775485Y-81512488D01*
X88775483Y-81512490D01*
X88768220Y-81522487D01*
X88636657Y-81703566D01*
X88529433Y-81914003D01*
X88456446Y-82138631D01*
X88419500Y-82371902D01*
X80774543Y-82371902D01*
X81083723Y-82062721D01*
X81002172Y-82000145D01*
X81002171Y-82000144D01*
X80797828Y-81882165D01*
X80797819Y-81882160D01*
X80579836Y-81791870D01*
X80579838Y-81791870D01*
X80351914Y-81730799D01*
X80117985Y-81700000D01*
X79882014Y-81700000D01*
X79648085Y-81730799D01*
X79420162Y-81791870D01*
X79202180Y-81882160D01*
X79202171Y-81882165D01*
X78997828Y-82000144D01*
X78997818Y-82000150D01*
X78916275Y-82062720D01*
X78916275Y-82062721D01*
X79752512Y-82898958D01*
X79692110Y-82923978D01*
X79585649Y-82995112D01*
X79495112Y-83085649D01*
X79423978Y-83192110D01*
X79398958Y-83252511D01*
X78562721Y-82416275D01*
X78562720Y-82416275D01*
X78500150Y-82497818D01*
X78500144Y-82497828D01*
X78382165Y-82702171D01*
X78382160Y-82702180D01*
X78291870Y-82920162D01*
X78230799Y-83148085D01*
X78200000Y-83382014D01*
X70500500Y-83382014D01*
X70500500Y-77399983D01*
X78199500Y-77399983D01*
X78199500Y-79600001D01*
X78199501Y-79600018D01*
X78210000Y-79702796D01*
X78210001Y-79702799D01*
X78238017Y-79787344D01*
X78265186Y-79869334D01*
X78357288Y-80018656D01*
X78481344Y-80142712D01*
X78630666Y-80234814D01*
X78797203Y-80289999D01*
X78899991Y-80300500D01*
X81100008Y-80300499D01*
X81202797Y-80289999D01*
X81369334Y-80234814D01*
X81518656Y-80142712D01*
X81642712Y-80018656D01*
X81734814Y-79869334D01*
X81789999Y-79702797D01*
X81800500Y-79600009D01*
X81800499Y-77399992D01*
X81789999Y-77297203D01*
X81734814Y-77130666D01*
X81642712Y-76981344D01*
X81518656Y-76857288D01*
X81369334Y-76765186D01*
X81202797Y-76710001D01*
X81202795Y-76710000D01*
X81100010Y-76699500D01*
X78899998Y-76699500D01*
X78899981Y-76699501D01*
X78797203Y-76710000D01*
X78797200Y-76710001D01*
X78630668Y-76765185D01*
X78630663Y-76765187D01*
X78481342Y-76857289D01*
X78357289Y-76981342D01*
X78265187Y-77130663D01*
X78265186Y-77130666D01*
X78210001Y-77297203D01*
X78210001Y-77297204D01*
X78210000Y-77297204D01*
X78199500Y-77399983D01*
X70500500Y-77399983D01*
X70500500Y-74905119D01*
X87494500Y-74905119D01*
X87494500Y-75094880D01*
X87524182Y-75282289D01*
X87582820Y-75462756D01*
X87642063Y-75579024D01*
X87660079Y-75614383D01*
X87668966Y-75631823D01*
X87780490Y-75785324D01*
X87780494Y-75785329D01*
X87914670Y-75919505D01*
X87914675Y-75919509D01*
X87952975Y-75947335D01*
X88068180Y-76031036D01*
X88158010Y-76076807D01*
X88237243Y-76117179D01*
X88237245Y-76117179D01*
X88237248Y-76117181D01*
X88333980Y-76148611D01*
X88417710Y-76175817D01*
X88605120Y-76205500D01*
X88605125Y-76205500D01*
X88794880Y-76205500D01*
X88982289Y-76175817D01*
X88983791Y-76175329D01*
X89162752Y-76117181D01*
X89331820Y-76031036D01*
X89447025Y-75947335D01*
X89477115Y-75925474D01*
X89542921Y-75901994D01*
X89610975Y-75917820D01*
X89622885Y-75925474D01*
X89741952Y-76011980D01*
X89768180Y-76031036D01*
X89858010Y-76076807D01*
X89937243Y-76117179D01*
X89937245Y-76117179D01*
X89937248Y-76117181D01*
X90033980Y-76148611D01*
X90117710Y-76175817D01*
X90305120Y-76205500D01*
X90305125Y-76205500D01*
X90494880Y-76205500D01*
X90682289Y-76175817D01*
X90683791Y-76175329D01*
X90862752Y-76117181D01*
X91031820Y-76031036D01*
X91147025Y-75947335D01*
X91177115Y-75925474D01*
X91242921Y-75901994D01*
X91310975Y-75917820D01*
X91322885Y-75925474D01*
X91441952Y-76011980D01*
X91468180Y-76031036D01*
X91558010Y-76076807D01*
X91637243Y-76117179D01*
X91637245Y-76117179D01*
X91637248Y-76117181D01*
X91733980Y-76148611D01*
X91817710Y-76175817D01*
X92005120Y-76205500D01*
X92005125Y-76205500D01*
X92194880Y-76205500D01*
X92382289Y-76175817D01*
X92383791Y-76175329D01*
X92562752Y-76117181D01*
X92731820Y-76031036D01*
X92885331Y-75919504D01*
X93019504Y-75785331D01*
X93131036Y-75631820D01*
X93217181Y-75462752D01*
X93275817Y-75282289D01*
X93290527Y-75189408D01*
X93297892Y-75173871D01*
X93306119Y-75204572D01*
X93375895Y-75325427D01*
X93474573Y-75424105D01*
X93595428Y-75493881D01*
X93646093Y-75507457D01*
X93207508Y-75946041D01*
X93142803Y-76011980D01*
X93168441Y-76030607D01*
X93337438Y-76116715D01*
X93517832Y-76175329D01*
X93517831Y-76175329D01*
X93705165Y-76205000D01*
X93894835Y-76205000D01*
X94082167Y-76175329D01*
X94262555Y-76116717D01*
X94340884Y-76076807D01*
X94409553Y-76063911D01*
X94471490Y-76088026D01*
X94552664Y-76148793D01*
X94552671Y-76148797D01*
X94687517Y-76199091D01*
X94687516Y-76199091D01*
X94694444Y-76199835D01*
X94747127Y-76205500D01*
X96252872Y-76205499D01*
X96312483Y-76199091D01*
X96447331Y-76148796D01*
X96562546Y-76062546D01*
X96648796Y-75947331D01*
X96699091Y-75812483D01*
X96705500Y-75752873D01*
X96705499Y-74874038D01*
X116399500Y-74874038D01*
X116399500Y-75125962D01*
X116409549Y-75189410D01*
X116438910Y-75374785D01*
X116516760Y-75614383D01*
X116587325Y-75752872D01*
X116617697Y-75812482D01*
X116631132Y-75838848D01*
X116779201Y-76042649D01*
X116779205Y-76042654D01*
X116957345Y-76220794D01*
X116957350Y-76220798D01*
X117135117Y-76349952D01*
X117161155Y-76368870D01*
X117304184Y-76441747D01*
X117385616Y-76483239D01*
X117385618Y-76483239D01*
X117385621Y-76483241D01*
X117625215Y-76561090D01*
X117874038Y-76600500D01*
X117874039Y-76600500D01*
X118125961Y-76600500D01*
X118125962Y-76600500D01*
X118374785Y-76561090D01*
X118614379Y-76483241D01*
X118838845Y-76368870D01*
X119042656Y-76220793D01*
X119220793Y-76042656D01*
X119368870Y-75838845D01*
X119483241Y-75614379D01*
X119561090Y-75374785D01*
X119600500Y-75125962D01*
X119600500Y-74874038D01*
X119561090Y-74625215D01*
X119483241Y-74385621D01*
X119483239Y-74385618D01*
X119483239Y-74385616D01*
X119436192Y-74293282D01*
X119368870Y-74161155D01*
X119310268Y-74080496D01*
X119220798Y-73957350D01*
X119220794Y-73957345D01*
X119042654Y-73779205D01*
X119042649Y-73779201D01*
X118838848Y-73631132D01*
X118838847Y-73631131D01*
X118838845Y-73631130D01*
X118764723Y-73593363D01*
X118614383Y-73516760D01*
X118374785Y-73438910D01*
X118125962Y-73399500D01*
X117874038Y-73399500D01*
X117749626Y-73419205D01*
X117625214Y-73438910D01*
X117385616Y-73516760D01*
X117161151Y-73631132D01*
X116957350Y-73779201D01*
X116957345Y-73779205D01*
X116779205Y-73957345D01*
X116779201Y-73957350D01*
X116631132Y-74161151D01*
X116516760Y-74385616D01*
X116438910Y-74625214D01*
X116424260Y-74717710D01*
X116399500Y-74874038D01*
X96705499Y-74874038D01*
X96705499Y-74247128D01*
X96699091Y-74187517D01*
X96674341Y-74121160D01*
X96648797Y-74052671D01*
X96648793Y-74052664D01*
X96562547Y-73937455D01*
X96562544Y-73937452D01*
X96447335Y-73851206D01*
X96447328Y-73851202D01*
X96312482Y-73800908D01*
X96312483Y-73800908D01*
X96252883Y-73794501D01*
X96252881Y-73794500D01*
X96252873Y-73794500D01*
X96252864Y-73794500D01*
X94747129Y-73794500D01*
X94747123Y-73794501D01*
X94687516Y-73800908D01*
X94552671Y-73851202D01*
X94552669Y-73851203D01*
X94471491Y-73911974D01*
X94406027Y-73936391D01*
X94340885Y-73923192D01*
X94262561Y-73883284D01*
X94082167Y-73824670D01*
X94082168Y-73824670D01*
X93894835Y-73795000D01*
X93705165Y-73795000D01*
X93517832Y-73824670D01*
X93337438Y-73883284D01*
X93168439Y-73969393D01*
X93142804Y-73988017D01*
X93207555Y-74054002D01*
X93646095Y-74492542D01*
X93595428Y-74506119D01*
X93474573Y-74575895D01*
X93375895Y-74674573D01*
X93306119Y-74795428D01*
X93297440Y-74827817D01*
X93291834Y-74817550D01*
X93290527Y-74810589D01*
X93288353Y-74796865D01*
X93275817Y-74717711D01*
X93217181Y-74537248D01*
X93131036Y-74368180D01*
X93043083Y-74247123D01*
X93024492Y-74221534D01*
X93024490Y-74221532D01*
X93019504Y-74214669D01*
X92885331Y-74080496D01*
X92885329Y-74080494D01*
X92885324Y-74080490D01*
X92731823Y-73968966D01*
X92731822Y-73968965D01*
X92731820Y-73968964D01*
X92667892Y-73936391D01*
X92562756Y-73882820D01*
X92382289Y-73824182D01*
X92194880Y-73794500D01*
X92194875Y-73794500D01*
X92005125Y-73794500D01*
X92005120Y-73794500D01*
X91817710Y-73824182D01*
X91637243Y-73882820D01*
X91468180Y-73968963D01*
X91322885Y-74074526D01*
X91257078Y-74098005D01*
X91189025Y-74082179D01*
X91177115Y-74074526D01*
X91031819Y-73968963D01*
X90862756Y-73882820D01*
X90682289Y-73824182D01*
X90494880Y-73794500D01*
X90494875Y-73794500D01*
X90305125Y-73794500D01*
X90305120Y-73794500D01*
X90117710Y-73824182D01*
X89937243Y-73882820D01*
X89768180Y-73968963D01*
X89622885Y-74074526D01*
X89557078Y-74098005D01*
X89489025Y-74082179D01*
X89477115Y-74074526D01*
X89331819Y-73968963D01*
X89162756Y-73882820D01*
X88982289Y-73824182D01*
X88794880Y-73794500D01*
X88794875Y-73794500D01*
X88605125Y-73794500D01*
X88605120Y-73794500D01*
X88417710Y-73824182D01*
X88237243Y-73882820D01*
X88068176Y-73968966D01*
X87914675Y-74080490D01*
X87914670Y-74080494D01*
X87780494Y-74214670D01*
X87780490Y-74214675D01*
X87668966Y-74368176D01*
X87582820Y-74537243D01*
X87524182Y-74717710D01*
X87494500Y-74905119D01*
X70500500Y-74905119D01*
X70500500Y-73406636D01*
X72611400Y-73406636D01*
X72611400Y-73593364D01*
X72640611Y-73777793D01*
X72698313Y-73955381D01*
X72783085Y-74121757D01*
X72892841Y-74272822D01*
X73024878Y-74404859D01*
X73175943Y-74514615D01*
X73342319Y-74599387D01*
X73519907Y-74657089D01*
X73704336Y-74686300D01*
X73704337Y-74686300D01*
X73891063Y-74686300D01*
X73891064Y-74686300D01*
X74075493Y-74657089D01*
X74253081Y-74599387D01*
X74419457Y-74514615D01*
X74570522Y-74404859D01*
X74702559Y-74272822D01*
X74812315Y-74121757D01*
X74897087Y-73955381D01*
X74954789Y-73777793D01*
X74984000Y-73593364D01*
X74984000Y-73406636D01*
X74954789Y-73222207D01*
X74897087Y-73044619D01*
X74812315Y-72878243D01*
X74731008Y-72766335D01*
X84016000Y-72766335D01*
X84016000Y-74233670D01*
X84016001Y-74233676D01*
X84022408Y-74293283D01*
X84072702Y-74428128D01*
X84072706Y-74428135D01*
X84158952Y-74543344D01*
X84158955Y-74543347D01*
X84274164Y-74629593D01*
X84274171Y-74629597D01*
X84409017Y-74679891D01*
X84409016Y-74679891D01*
X84415944Y-74680635D01*
X84468627Y-74686300D01*
X85935972Y-74686299D01*
X85995583Y-74679891D01*
X86130431Y-74629596D01*
X86245646Y-74543346D01*
X86331896Y-74428131D01*
X86382191Y-74293283D01*
X86388600Y-74233673D01*
X86388599Y-72766328D01*
X86382191Y-72706717D01*
X86340576Y-72595142D01*
X86331897Y-72571871D01*
X86331893Y-72571864D01*
X86245647Y-72456655D01*
X86245644Y-72456652D01*
X86130435Y-72370406D01*
X86130428Y-72370402D01*
X85995582Y-72320108D01*
X85995583Y-72320108D01*
X85935983Y-72313701D01*
X85935981Y-72313700D01*
X85935973Y-72313700D01*
X85935964Y-72313700D01*
X84468629Y-72313700D01*
X84468623Y-72313701D01*
X84409016Y-72320108D01*
X84274171Y-72370402D01*
X84274164Y-72370406D01*
X84158955Y-72456652D01*
X84158952Y-72456655D01*
X84072706Y-72571864D01*
X84072702Y-72571871D01*
X84022408Y-72706717D01*
X84016001Y-72766316D01*
X84016001Y-72766323D01*
X84016000Y-72766335D01*
X74731008Y-72766335D01*
X74702559Y-72727178D01*
X74570522Y-72595141D01*
X74419457Y-72485385D01*
X74253081Y-72400613D01*
X74075493Y-72342911D01*
X74075491Y-72342910D01*
X74075489Y-72342910D01*
X73931522Y-72320108D01*
X73891064Y-72313700D01*
X73704336Y-72313700D01*
X73663878Y-72320108D01*
X73519910Y-72342910D01*
X73342316Y-72400614D01*
X73175942Y-72485385D01*
X73024876Y-72595142D01*
X72892842Y-72727176D01*
X72783085Y-72878242D01*
X72698314Y-73044616D01*
X72640610Y-73222210D01*
X72612530Y-73399500D01*
X72611400Y-73406636D01*
X70500500Y-73406636D01*
X70500500Y-67889778D01*
X77059500Y-67889778D01*
X77059500Y-68110222D01*
X77076742Y-68219086D01*
X77093985Y-68327952D01*
X77162103Y-68537603D01*
X77162104Y-68537606D01*
X77262187Y-68734025D01*
X77391752Y-68912358D01*
X77391756Y-68912363D01*
X77547636Y-69068243D01*
X77547641Y-69068247D01*
X77703192Y-69181260D01*
X77725978Y-69197815D01*
X77842501Y-69257187D01*
X77922393Y-69297895D01*
X77922396Y-69297896D01*
X78027221Y-69331955D01*
X78132049Y-69366015D01*
X78349778Y-69400500D01*
X78349779Y-69400500D01*
X78570221Y-69400500D01*
X78570222Y-69400500D01*
X78787951Y-69366015D01*
X78997606Y-69297895D01*
X79194022Y-69197815D01*
X79372365Y-69068242D01*
X79422924Y-69017682D01*
X79484245Y-68984198D01*
X79553936Y-68989182D01*
X79609870Y-69031053D01*
X79626786Y-69062030D01*
X79656646Y-69142087D01*
X79656649Y-69142093D01*
X79742809Y-69257187D01*
X79742812Y-69257190D01*
X79857906Y-69343350D01*
X79857913Y-69343354D01*
X79992620Y-69393596D01*
X79992627Y-69393598D01*
X80052155Y-69399999D01*
X80052172Y-69400000D01*
X80750000Y-69400000D01*
X80750000Y-68375277D01*
X80826306Y-68419333D01*
X80940756Y-68450000D01*
X81059244Y-68450000D01*
X81173694Y-68419333D01*
X81250000Y-68375277D01*
X81250000Y-69400000D01*
X81947828Y-69400000D01*
X81947844Y-69399999D01*
X82007372Y-69393598D01*
X82007379Y-69393596D01*
X82142086Y-69343354D01*
X82142093Y-69343350D01*
X82257187Y-69257190D01*
X82257190Y-69257187D01*
X82343350Y-69142093D01*
X82343354Y-69142086D01*
X82393596Y-69007379D01*
X82393598Y-69007372D01*
X82399999Y-68947844D01*
X82400000Y-68947827D01*
X82400000Y-68899983D01*
X87199500Y-68899983D01*
X87199500Y-70100001D01*
X87199501Y-70100018D01*
X87210000Y-70202796D01*
X87210001Y-70202799D01*
X87257323Y-70345606D01*
X87265186Y-70369334D01*
X87357288Y-70518656D01*
X87481344Y-70642712D01*
X87630666Y-70734814D01*
X87797203Y-70789999D01*
X87899991Y-70800500D01*
X89100008Y-70800499D01*
X89202797Y-70789999D01*
X89369334Y-70734814D01*
X89518656Y-70642712D01*
X89642712Y-70518656D01*
X89717350Y-70397648D01*
X93199500Y-70397648D01*
X93199500Y-70602351D01*
X93231522Y-70804534D01*
X93294781Y-70999223D01*
X93358691Y-71124653D01*
X93387585Y-71181359D01*
X93387715Y-71181613D01*
X93508028Y-71347213D01*
X93652786Y-71491971D01*
X93773226Y-71579474D01*
X93818390Y-71612287D01*
X93934607Y-71671503D01*
X94000776Y-71705218D01*
X94000778Y-71705218D01*
X94000781Y-71705220D01*
X94105137Y-71739127D01*
X94195465Y-71768477D01*
X94296557Y-71784488D01*
X94397648Y-71800500D01*
X94397649Y-71800500D01*
X94602351Y-71800500D01*
X94602352Y-71800500D01*
X94804534Y-71768477D01*
X94999219Y-71705220D01*
X95181610Y-71612287D01*
X95274590Y-71544732D01*
X95347213Y-71491971D01*
X95347215Y-71491968D01*
X95347219Y-71491966D01*
X95491966Y-71347219D01*
X95491968Y-71347215D01*
X95491971Y-71347213D01*
X95544732Y-71274590D01*
X95612287Y-71181610D01*
X95705220Y-70999219D01*
X95768477Y-70804534D01*
X95800500Y-70602352D01*
X95800500Y-70397682D01*
X98200000Y-70397682D01*
X98200000Y-70602317D01*
X98232009Y-70804417D01*
X98295244Y-70999031D01*
X98388141Y-71181350D01*
X98388147Y-71181359D01*
X98420523Y-71225921D01*
X98420524Y-71225922D01*
X99100000Y-70546446D01*
X99100000Y-70552661D01*
X99127259Y-70654394D01*
X99179920Y-70745606D01*
X99254394Y-70820080D01*
X99345606Y-70872741D01*
X99447339Y-70900000D01*
X99453553Y-70900000D01*
X98774076Y-71579474D01*
X98818650Y-71611859D01*
X99000968Y-71704755D01*
X99195582Y-71767990D01*
X99397683Y-71800000D01*
X99602317Y-71800000D01*
X99804417Y-71767990D01*
X99999031Y-71704755D01*
X100181349Y-71611859D01*
X100225921Y-71579474D01*
X99546447Y-70900000D01*
X99552661Y-70900000D01*
X99654394Y-70872741D01*
X99745606Y-70820080D01*
X99820080Y-70745606D01*
X99872741Y-70654394D01*
X99900000Y-70552661D01*
X99900000Y-70546447D01*
X100579474Y-71225921D01*
X100611859Y-71181349D01*
X100704755Y-70999031D01*
X100767990Y-70804417D01*
X100800000Y-70602317D01*
X100800000Y-70397682D01*
X100767990Y-70195582D01*
X100704755Y-70000968D01*
X100611859Y-69818650D01*
X100579474Y-69774077D01*
X100579474Y-69774076D01*
X99900000Y-70453551D01*
X99900000Y-70447339D01*
X99872741Y-70345606D01*
X99820080Y-70254394D01*
X99745606Y-70179920D01*
X99654394Y-70127259D01*
X99552661Y-70100000D01*
X99546446Y-70100000D01*
X100225922Y-69420524D01*
X100225921Y-69420523D01*
X100181359Y-69388147D01*
X100181350Y-69388141D01*
X99999031Y-69295244D01*
X99804417Y-69232009D01*
X99602317Y-69200000D01*
X99397683Y-69200000D01*
X99195582Y-69232009D01*
X99000968Y-69295244D01*
X98818644Y-69388143D01*
X98774077Y-69420523D01*
X98774077Y-69420524D01*
X99453554Y-70100000D01*
X99447339Y-70100000D01*
X99345606Y-70127259D01*
X99254394Y-70179920D01*
X99179920Y-70254394D01*
X99127259Y-70345606D01*
X99100000Y-70447339D01*
X99100000Y-70453553D01*
X98420524Y-69774077D01*
X98420523Y-69774077D01*
X98388143Y-69818644D01*
X98295244Y-70000968D01*
X98232009Y-70195582D01*
X98200000Y-70397682D01*
X95800500Y-70397682D01*
X95800500Y-70397648D01*
X95792257Y-70345606D01*
X95768477Y-70195465D01*
X95737458Y-70100000D01*
X95705220Y-70000781D01*
X95705218Y-70000778D01*
X95705218Y-70000776D01*
X95612419Y-69818650D01*
X95612287Y-69818390D01*
X95580092Y-69774077D01*
X95491971Y-69652786D01*
X95347213Y-69508028D01*
X95181613Y-69387715D01*
X95181612Y-69387714D01*
X95181610Y-69387713D01*
X95094543Y-69343350D01*
X94999223Y-69294781D01*
X94804534Y-69231522D01*
X94629995Y-69203878D01*
X94602352Y-69199500D01*
X94397648Y-69199500D01*
X94373329Y-69203351D01*
X94195465Y-69231522D01*
X94000776Y-69294781D01*
X93818386Y-69387715D01*
X93652786Y-69508028D01*
X93508028Y-69652786D01*
X93387715Y-69818386D01*
X93294781Y-70000776D01*
X93231522Y-70195465D01*
X93199500Y-70397648D01*
X89717350Y-70397648D01*
X89734814Y-70369334D01*
X89789999Y-70202797D01*
X89800500Y-70100009D01*
X89800499Y-68899992D01*
X89789999Y-68797203D01*
X89734814Y-68630666D01*
X89642712Y-68481344D01*
X89518656Y-68357288D01*
X89425888Y-68300069D01*
X89369336Y-68265187D01*
X89369331Y-68265185D01*
X89367862Y-68264698D01*
X89202797Y-68210001D01*
X89202795Y-68210000D01*
X89100010Y-68199500D01*
X87899998Y-68199500D01*
X87899981Y-68199501D01*
X87797203Y-68210000D01*
X87797200Y-68210001D01*
X87630668Y-68265185D01*
X87630663Y-68265187D01*
X87481342Y-68357289D01*
X87357289Y-68481342D01*
X87265187Y-68630663D01*
X87265186Y-68630666D01*
X87210001Y-68797203D01*
X87210001Y-68797204D01*
X87210000Y-68797204D01*
X87199500Y-68899983D01*
X82400000Y-68899983D01*
X82400000Y-68250000D01*
X81375278Y-68250000D01*
X81419333Y-68173694D01*
X81450000Y-68059244D01*
X81450000Y-67940756D01*
X81419333Y-67826306D01*
X81375278Y-67750000D01*
X82400000Y-67750000D01*
X82400000Y-67052172D01*
X82399999Y-67052167D01*
X82399280Y-67045476D01*
X82399280Y-67045471D01*
X82393598Y-66992626D01*
X82393596Y-66992620D01*
X82343354Y-66857913D01*
X82343350Y-66857906D01*
X82257190Y-66742812D01*
X82257187Y-66742809D01*
X82142093Y-66656649D01*
X82142086Y-66656645D01*
X82007379Y-66606403D01*
X82007372Y-66606401D01*
X81947844Y-66600000D01*
X81250000Y-66600000D01*
X81250000Y-67624722D01*
X81173694Y-67580667D01*
X81059244Y-67550000D01*
X80940756Y-67550000D01*
X80826306Y-67580667D01*
X80750000Y-67624722D01*
X80750000Y-66600000D01*
X80052155Y-66600000D01*
X79992627Y-66606401D01*
X79992620Y-66606403D01*
X79857913Y-66656645D01*
X79857906Y-66656649D01*
X79742812Y-66742809D01*
X79742809Y-66742812D01*
X79656649Y-66857906D01*
X79656643Y-66857918D01*
X79626785Y-66937969D01*
X79584914Y-66993903D01*
X79519449Y-67018319D01*
X79451176Y-67003467D01*
X79422923Y-66982316D01*
X79372363Y-66931756D01*
X79372358Y-66931752D01*
X79194025Y-66802187D01*
X79194024Y-66802186D01*
X79194022Y-66802185D01*
X79131096Y-66770122D01*
X78997606Y-66702104D01*
X78997603Y-66702103D01*
X78787952Y-66633985D01*
X78679086Y-66616742D01*
X78570222Y-66599500D01*
X78349778Y-66599500D01*
X78277201Y-66610995D01*
X78132047Y-66633985D01*
X77922396Y-66702103D01*
X77922393Y-66702104D01*
X77725974Y-66802187D01*
X77547641Y-66931752D01*
X77547636Y-66931756D01*
X77391756Y-67087636D01*
X77391752Y-67087641D01*
X77262187Y-67265974D01*
X77162104Y-67462393D01*
X77162103Y-67462396D01*
X77093985Y-67672047D01*
X77093985Y-67672049D01*
X77059500Y-67889778D01*
X70500500Y-67889778D01*
X70500500Y-65897682D01*
X87200000Y-65897682D01*
X87200000Y-66102317D01*
X87232009Y-66304417D01*
X87295244Y-66499031D01*
X87388141Y-66681350D01*
X87388147Y-66681359D01*
X87420523Y-66725921D01*
X87420524Y-66725922D01*
X88100000Y-66046446D01*
X88100000Y-66052661D01*
X88127259Y-66154394D01*
X88179920Y-66245606D01*
X88254394Y-66320080D01*
X88345606Y-66372741D01*
X88447339Y-66400000D01*
X88453553Y-66400000D01*
X87774076Y-67079474D01*
X87818650Y-67111859D01*
X88000968Y-67204755D01*
X88195582Y-67267990D01*
X88397683Y-67300000D01*
X88602317Y-67300000D01*
X88804417Y-67267990D01*
X88999031Y-67204755D01*
X89181349Y-67111859D01*
X89225921Y-67079474D01*
X88546447Y-66400000D01*
X88552661Y-66400000D01*
X88654394Y-66372741D01*
X88745606Y-66320080D01*
X88820080Y-66245606D01*
X88872741Y-66154394D01*
X88900000Y-66052661D01*
X88900000Y-66046447D01*
X89579474Y-66725921D01*
X89611859Y-66681349D01*
X89704755Y-66499031D01*
X89767990Y-66304417D01*
X89800000Y-66102317D01*
X89800000Y-65897682D01*
X89767990Y-65695582D01*
X89704755Y-65500968D01*
X89611859Y-65318650D01*
X89579474Y-65274077D01*
X89579474Y-65274076D01*
X88900000Y-65953551D01*
X88900000Y-65947339D01*
X88872741Y-65845606D01*
X88820080Y-65754394D01*
X88745606Y-65679920D01*
X88654394Y-65627259D01*
X88552661Y-65600000D01*
X88546446Y-65600000D01*
X89225922Y-64920524D01*
X89225921Y-64920523D01*
X89181359Y-64888147D01*
X89181350Y-64888141D01*
X88999031Y-64795244D01*
X88804417Y-64732009D01*
X88602317Y-64700000D01*
X88397683Y-64700000D01*
X88195582Y-64732009D01*
X88000968Y-64795244D01*
X87818644Y-64888143D01*
X87774077Y-64920523D01*
X87774077Y-64920524D01*
X88453554Y-65600000D01*
X88447339Y-65600000D01*
X88345606Y-65627259D01*
X88254394Y-65679920D01*
X88179920Y-65754394D01*
X88127259Y-65845606D01*
X88100000Y-65947339D01*
X88100000Y-65953553D01*
X87420524Y-65274077D01*
X87420523Y-65274077D01*
X87388143Y-65318644D01*
X87295244Y-65500968D01*
X87232009Y-65695582D01*
X87200000Y-65897682D01*
X70500500Y-65897682D01*
X70500500Y-55006491D01*
X111399500Y-55006491D01*
X111399500Y-55343508D01*
X111437231Y-55678381D01*
X111437233Y-55678397D01*
X111512223Y-56006953D01*
X111512227Y-56006965D01*
X111623532Y-56325054D01*
X111769752Y-56628683D01*
X111769754Y-56628686D01*
X111949054Y-56914039D01*
X112159175Y-57177523D01*
X112397477Y-57415825D01*
X112660961Y-57625946D01*
X112946314Y-57805246D01*
X113249949Y-57951469D01*
X113488848Y-58035063D01*
X113568034Y-58062772D01*
X113568046Y-58062776D01*
X113896606Y-58137767D01*
X114231492Y-58175499D01*
X114231493Y-58175500D01*
X114231496Y-58175500D01*
X114568507Y-58175500D01*
X114568507Y-58175499D01*
X114903394Y-58137767D01*
X115231954Y-58062776D01*
X115550051Y-57951469D01*
X115853686Y-57805246D01*
X116139039Y-57625946D01*
X116402523Y-57415825D01*
X116640825Y-57177523D01*
X116850946Y-56914039D01*
X117030246Y-56628686D01*
X117176469Y-56325051D01*
X117287776Y-56006954D01*
X117362767Y-55678394D01*
X117400500Y-55343504D01*
X117400500Y-55006496D01*
X117362767Y-54671606D01*
X117287776Y-54343046D01*
X117176469Y-54024949D01*
X117030246Y-53721314D01*
X116850946Y-53435961D01*
X116640825Y-53172477D01*
X116402523Y-52934175D01*
X116139039Y-52724054D01*
X115853686Y-52544754D01*
X115853683Y-52544752D01*
X115550054Y-52398532D01*
X115231965Y-52287227D01*
X115231953Y-52287223D01*
X114903397Y-52212233D01*
X114903381Y-52212231D01*
X114568508Y-52174500D01*
X114568504Y-52174500D01*
X114231496Y-52174500D01*
X114231491Y-52174500D01*
X113896618Y-52212231D01*
X113896602Y-52212233D01*
X113568046Y-52287223D01*
X113568034Y-52287227D01*
X113249945Y-52398532D01*
X112946316Y-52544752D01*
X112660962Y-52724053D01*
X112397477Y-52934174D01*
X112159174Y-53172477D01*
X111949053Y-53435962D01*
X111769752Y-53721316D01*
X111623532Y-54024945D01*
X111512227Y-54343034D01*
X111512223Y-54343046D01*
X111437233Y-54671602D01*
X111437231Y-54671618D01*
X111399500Y-55006491D01*
X70500500Y-55006491D01*
X70500500Y-39624500D01*
X70520185Y-39557461D01*
X70572989Y-39511706D01*
X70624500Y-39500500D01*
X134876000Y-39500500D01*
X134943039Y-39520185D01*
G37*
G04 #@! TD.AperFunction*
M02*
