G04 #@! TF.GenerationSoftware,KiCad,Pcbnew,9.0.7-9.0.7~ubuntu24.04.1*
G04 #@! TF.CreationDate,2026-02-08T18:38:21+03:00*
G04 #@! TF.ProjectId,Linear_PowerSup_v1,4c696e65-6172-45f5-906f-776572537570,rev?*
G04 #@! TF.SameCoordinates,Original*
G04 #@! TF.FileFunction,Soldermask,Top*
G04 #@! TF.FilePolarity,Negative*
%FSLAX46Y46*%
G04 Gerber Fmt 4.6, Leading zero omitted, Abs format (unit mm)*
G04 Created by KiCad (PCBNEW 9.0.7-9.0.7~ubuntu24.04.1) date 2026-02-08 18:38:21*
%MOMM*%
%LPD*%
G01*
G04 APERTURE LIST*
G04 Aperture macros list*
%AMRoundRect*
0 Rectangle with rounded corners*
0 $1 Rounding radius*
0 $2 $3 $4 $5 $6 $7 $8 $9 X,Y pos of 4 corners*
0 Add a 4 corners polygon primitive as box body*
4,1,4,$2,$3,$4,$5,$6,$7,$8,$9,$2,$3,0*
0 Add four circle primitives for the rounded corners*
1,1,$1+$1,$2,$3*
1,1,$1+$1,$4,$5*
1,1,$1+$1,$6,$7*
1,1,$1+$1,$8,$9*
0 Add four rect primitives between the rounded corners*
20,1,$1+$1,$2,$3,$4,$5,0*
20,1,$1+$1,$4,$5,$6,$7,0*
20,1,$1+$1,$6,$7,$8,$9,0*
20,1,$1+$1,$8,$9,$2,$3,0*%
G04 Aperture macros list end*
%ADD10C,2.000000*%
%ADD11RoundRect,0.250000X-1.050000X1.050000X-1.050000X-1.050000X1.050000X-1.050000X1.050000X1.050000X0*%
%ADD12C,2.600000*%
%ADD13RoundRect,0.250000X1.050000X-1.050000X1.050000X1.050000X-1.050000X1.050000X-1.050000X-1.050000X0*%
%ADD14R,1.371600X1.371600*%
%ADD15C,1.371600*%
%ADD16C,1.600000*%
%ADD17C,1.554000*%
%ADD18C,1.800000*%
%ADD19RoundRect,0.250000X0.550000X-0.550000X0.550000X0.550000X-0.550000X0.550000X-0.550000X-0.550000X0*%
%ADD20R,1.800000X1.800000*%
%ADD21C,5.000000*%
%ADD22R,2.200000X2.200000*%
%ADD23C,2.200000*%
%ADD24R,3.200000X3.200000*%
%ADD25C,3.200000*%
%ADD26RoundRect,0.102000X-0.705000X-0.705000X0.705000X-0.705000X0.705000X0.705000X-0.705000X0.705000X0*%
%ADD27C,1.614000*%
G04 APERTURE END LIST*
D10*
X91000000Y-96500000D03*
X83500000Y-96500000D03*
D11*
X80000000Y-78500000D03*
D12*
X80000000Y-83500000D03*
D13*
X164500000Y-97000000D03*
D12*
X164500000Y-92000000D03*
D14*
X85202300Y-73500000D03*
D15*
X73797700Y-73500000D03*
D16*
X99000000Y-86500000D03*
X99000000Y-91500000D03*
D17*
X163000000Y-78000000D03*
X163000000Y-72920000D03*
D16*
X94500000Y-70500000D03*
X99500000Y-70500000D03*
D18*
X162250000Y-83650000D03*
X169750000Y-86350000D03*
D19*
X88500000Y-69500000D03*
D16*
X88500000Y-66000000D03*
D20*
X81000000Y-68000000D03*
D18*
X78460000Y-68000000D03*
D21*
X152100184Y-55197303D03*
X152100000Y-129800000D03*
X114400000Y-129800000D03*
X114400000Y-55175000D03*
D22*
X148459835Y-74999590D03*
D23*
X148469939Y-80830000D03*
X148469939Y-86660000D03*
X148475000Y-92500000D03*
X148485095Y-98325000D03*
X148485095Y-104150000D03*
X148490165Y-110000410D03*
X118000000Y-110000000D03*
X118000000Y-104150000D03*
X118000000Y-98320000D03*
X118000686Y-92489964D03*
X118000000Y-86660000D03*
X118000000Y-80830000D03*
X118000000Y-75000000D03*
D24*
X103500000Y-96500000D03*
D25*
X103500000Y-91420000D03*
X103500000Y-86340000D03*
X103500000Y-81260000D03*
D10*
X95000000Y-82500000D03*
X89920000Y-82490000D03*
D26*
X95500000Y-75000000D03*
D27*
X93800000Y-75000000D03*
X92100000Y-75000000D03*
X90400000Y-75000000D03*
X88700000Y-75000000D03*
M02*
