%TF.GenerationSoftware,KiCad,Pcbnew,9.0.7-9.0.7~ubuntu24.04.1*%
%TF.CreationDate,2026-02-05T01:08:48+03:00*%
%TF.ProjectId,Linear_PowerSup_v1,4c696e65-6172-45f5-906f-776572537570,rev?*%
%TF.SameCoordinates,Original*%
%TF.FileFunction,Copper,L1,Top*%
%TF.FilePolarity,Positive*%
%FSLAX46Y46*%
G04 Gerber Fmt 4.6, Leading zero omitted, Abs format (unit mm)*
G04 Created by KiCad (PCBNEW 9.0.7-9.0.7~ubuntu24.04.1) date 2026-02-05 01:08:48*
%MOMM*%
%LPD*%
G01*
G04 APERTURE LIST*
G04 Aperture macros list*
%AMRoundRect*
0 Rectangle with rounded corners*
0 $1 Rounding radius*
0 $2 $3 $4 $5 $6 $7 $8 $9 X,Y pos of 4 corners*
0 Add a 4 corners polygon primitive as box body*
4,1,4,$2,$3,$4,$5,$6,$7,$8,$9,$2,$3,0*
0 Add four circle primitives for the rounded corners*
1,1,$1+$1,$2,$3*
1,1,$1+$1,$4,$5*
1,1,$1+$1,$6,$7*
1,1,$1+$1,$8,$9*
0 Add four rect primitives between the rounded corners*
20,1,$1+$1,$2,$3,$4,$5,0*
20,1,$1+$1,$4,$5,$6,$7,0*
20,1,$1+$1,$6,$7,$8,$9,0*
20,1,$1+$1,$8,$9,$2,$3,0*%
G04 Aperture macros list end*
%TA.AperFunction,ComponentPad*%
%ADD10C,2.000000*%
%TD*%
%TA.AperFunction,ComponentPad*%
%ADD11RoundRect,0.250000X-1.050000X1.050000X-1.050000X-1.050000X1.050000X-1.050000X1.050000X1.050000X0*%
%TD*%
%TA.AperFunction,ComponentPad*%
%ADD12C,2.600000*%
%TD*%
%TA.AperFunction,ComponentPad*%
%ADD13RoundRect,0.250000X1.050000X-1.050000X1.050000X1.050000X-1.050000X1.050000X-1.050000X-1.050000X0*%
%TD*%
%TA.AperFunction,ComponentPad*%
%ADD14R,1.371600X1.371600*%
%TD*%
%TA.AperFunction,ComponentPad*%
%ADD15C,1.371600*%
%TD*%
%TA.AperFunction,ComponentPad*%
%ADD16C,1.600000*%
%TD*%
%TA.AperFunction,ComponentPad*%
%ADD17C,1.350000*%
%TD*%
%TA.AperFunction,ComponentPad*%
%ADD18R,1.410000X1.410000*%
%TD*%
%TA.AperFunction,ComponentPad*%
%ADD19C,1.410000*%
%TD*%
%TA.AperFunction,ComponentPad*%
%ADD20RoundRect,0.250000X0.550000X-0.550000X0.550000X0.550000X-0.550000X0.550000X-0.550000X-0.550000X0*%
%TD*%
%TA.AperFunction,ComponentPad*%
%ADD21R,1.800000X1.800000*%
%TD*%
%TA.AperFunction,ComponentPad*%
%ADD22C,1.800000*%
%TD*%
%TA.AperFunction,WasherPad*%
%ADD23C,5.000000*%
%TD*%
%TA.AperFunction,ComponentPad*%
%ADD24R,2.200000X2.200000*%
%TD*%
%TA.AperFunction,ComponentPad*%
%ADD25C,2.200000*%
%TD*%
%TA.AperFunction,ComponentPad*%
%ADD26R,3.200000X3.200000*%
%TD*%
%TA.AperFunction,ComponentPad*%
%ADD27C,3.200000*%
%TD*%
%TA.AperFunction,Conductor*%
%ADD28C,1.500000*%
%TD*%
%TA.AperFunction,Conductor*%
%ADD29C,0.200000*%
%TD*%
%TA.AperFunction,Conductor*%
%ADD30C,1.000000*%
%TD*%
G04 APERTURE END LIST*
D10*
%TO.P,C1,1*%
%TO.N,Net-(D1-+)*%
X91000000Y-110500000D03*
%TO.P,C1,2*%
%TO.N,GND*%
X83500000Y-110500000D03*
%TD*%
D11*
%TO.P,J2,1,Pin_1*%
%TO.N,Net-(J2-Pin_1)*%
X80000000Y-87000000D03*
D12*
%TO.P,J2,2,Pin_2*%
%TO.N,GND*%
X80000000Y-92000000D03*
%TD*%
D10*
%TO.P,F2,1*%
%TO.N,Net-(U1-Vout)*%
X83000000Y-80010000D03*
%TO.P,F2,2*%
%TO.N,Net-(J2-Pin_1)*%
X77920000Y-80000000D03*
%TD*%
D13*
%TO.P,J1,1,Pin_1*%
%TO.N,NEUT*%
X164000000Y-92000000D03*
D12*
%TO.P,J1,2,Pin_2*%
%TO.N,LINE*%
X164000000Y-87000000D03*
%TD*%
D14*
%TO.P,R1,1*%
%TO.N,Net-(U1-Vout)*%
X86000000Y-74500000D03*
D15*
%TO.P,R1,2*%
%TO.N,Net-(D2-A)*%
X74595400Y-74500000D03*
%TD*%
D16*
%TO.P,C4,1*%
%TO.N,Net-(D1-+)*%
X96000000Y-94000000D03*
%TO.P,C4,2*%
%TO.N,GND*%
X91000000Y-94000000D03*
%TD*%
D17*
%TO.P,F1,1*%
%TO.N,LINE*%
X163000000Y-74000000D03*
%TO.P,F1,2*%
%TO.N,Net-(F1-Pad2)*%
X163000000Y-68920000D03*
%TD*%
D16*
%TO.P,C2,1*%
%TO.N,Net-(U1-Vout)*%
X91000000Y-80000000D03*
%TO.P,C2,2*%
%TO.N,GND*%
X96000000Y-80000000D03*
%TD*%
D18*
%TO.P,U1,1,Vin*%
%TO.N,Net-(D1-+)*%
X95100000Y-86000000D03*
D19*
%TO.P,U1,2,GND*%
%TO.N,GND*%
X93400000Y-86000000D03*
%TO.P,U1,3,Vout*%
%TO.N,Net-(U1-Vout)*%
X91700000Y-86000000D03*
%TO.P,U1,4*%
%TO.N,N/C*%
X90000000Y-86000000D03*
%TO.P,U1,5*%
X88300000Y-86000000D03*
%TD*%
D20*
%TO.P,C3,1*%
%TO.N,Net-(U1-Vout)*%
X93500000Y-73000000D03*
D16*
%TO.P,C3,2*%
%TO.N,GND*%
X93500000Y-69500000D03*
%TD*%
D21*
%TO.P,D2,1,K*%
%TO.N,GND*%
X81797700Y-68500000D03*
D22*
%TO.P,D2,2,A*%
%TO.N,Net-(D2-A)*%
X79257700Y-68500000D03*
%TD*%
D23*
%TO.P,TR1,*%
%TO.N,*%
X152100184Y-55197303D03*
X152100000Y-129800000D03*
X114400000Y-129800000D03*
X114400000Y-55175000D03*
D24*
%TO.P,TR1,1*%
%TO.N,Net-(F1-Pad2)*%
X148459835Y-74999590D03*
D25*
%TO.P,TR1,2*%
%TO.N,N/C*%
X148469939Y-80830000D03*
%TO.P,TR1,3*%
X148469939Y-86660000D03*
%TO.P,TR1,4*%
X148475000Y-92500000D03*
%TO.P,TR1,5*%
X148485095Y-98325000D03*
%TO.P,TR1,6*%
X148485095Y-104150000D03*
%TO.P,TR1,7*%
%TO.N,NEUT*%
X148490165Y-110000410D03*
%TO.P,TR1,8*%
%TO.N,N/C*%
X118000000Y-110000000D03*
%TO.P,TR1,9*%
%TO.N,Net-(D1-Pad2)*%
X118000000Y-104150000D03*
%TO.P,TR1,10*%
%TO.N,N/C*%
X118000000Y-98320000D03*
%TO.P,TR1,11*%
X118000686Y-92489964D03*
%TO.P,TR1,12*%
X118000000Y-86660000D03*
%TO.P,TR1,13*%
%TO.N,Net-(D1-Pad3)*%
X118000000Y-80830000D03*
%TO.P,TR1,14*%
%TO.N,N/C*%
X118000000Y-75000000D03*
%TD*%
D26*
%TO.P,D1,1,-*%
%TO.N,GND*%
X103000000Y-95000000D03*
D27*
%TO.P,D1,2*%
%TO.N,Net-(D1-Pad2)*%
X103000000Y-89920000D03*
%TO.P,D1,3*%
%TO.N,Net-(D1-Pad3)*%
X103000000Y-84840000D03*
%TO.P,D1,4,+*%
%TO.N,Net-(D1-+)*%
X103000000Y-79760000D03*
%TD*%
D28*
%TO.N,Net-(D1-+)*%
X91000000Y-110500000D02*
X96000000Y-105500000D01*
X95100000Y-93100000D02*
X96000000Y-94000000D01*
X101340000Y-79760000D02*
X95100000Y-86000000D01*
X95100000Y-86000000D02*
X95100000Y-93100000D01*
X103000000Y-79760000D02*
X101340000Y-79760000D01*
X96000000Y-105500000D02*
X96000000Y-94000000D01*
D29*
%TO.N,Net-(U1-Vout)*%
X91000000Y-75500000D02*
X93500000Y-73000000D01*
X91000000Y-80000000D02*
X91000000Y-75500000D01*
X83000000Y-80010000D02*
X86000000Y-77010000D01*
X91000000Y-80000000D02*
X91000000Y-81000000D01*
X91700000Y-81700000D02*
X91700000Y-86000000D01*
X86000000Y-77010000D02*
X86000000Y-74500000D01*
X88990000Y-80000000D02*
X91000000Y-80000000D01*
X93500000Y-73000000D02*
X93500000Y-73500000D01*
X91000000Y-81000000D02*
X91700000Y-81700000D01*
X86000000Y-77010000D02*
X88990000Y-80000000D01*
D30*
%TO.N,NEUT*%
X164000000Y-92000000D02*
X164000000Y-94490575D01*
X163699000Y-92301000D02*
X164000000Y-92301000D01*
X164000000Y-94490575D02*
X148490165Y-110000410D01*
D28*
%TO.N,Net-(D1-Pad2)*%
X118000000Y-104150000D02*
X103770000Y-89920000D01*
X103770000Y-89920000D02*
X103000000Y-89920000D01*
D29*
%TO.N,Net-(D2-A)*%
X74595400Y-74500000D02*
X79257700Y-69837700D01*
X79257700Y-69837700D02*
X79257700Y-68500000D01*
D30*
%TO.N,LINE*%
X164000000Y-75000000D02*
X163000000Y-74000000D01*
X164000000Y-87000000D02*
X164000000Y-75000000D01*
D29*
%TO.N,Net-(J2-Pin_1)*%
X80000000Y-82080000D02*
X77920000Y-80000000D01*
X80000000Y-87000000D02*
X80000000Y-82080000D01*
D28*
%TO.N,Net-(D1-Pad3)*%
X118000000Y-80830000D02*
X107010000Y-80830000D01*
X107010000Y-80830000D02*
X103000000Y-84840000D01*
D30*
%TO.N,Net-(F1-Pad2)*%
X154539425Y-68920000D02*
X148459835Y-74999590D01*
X163000000Y-68920000D02*
X154539425Y-68920000D01*
%TD*%
%TA.AperFunction,Conductor*%
%TO.N,GND*%
G36*
X174442539Y-39520185D02*
G01*
X174488294Y-39572989D01*
X174499500Y-39624500D01*
X174499500Y-143375500D01*
X174479815Y-143442539D01*
X174427011Y-143488294D01*
X174375500Y-143499500D01*
X70624500Y-143499500D01*
X70557461Y-143479815D01*
X70511706Y-143427011D01*
X70500500Y-143375500D01*
X70500500Y-129631491D01*
X111399500Y-129631491D01*
X111399500Y-129968508D01*
X111437231Y-130303381D01*
X111437233Y-130303397D01*
X111512223Y-130631953D01*
X111512227Y-130631965D01*
X111623532Y-130950054D01*
X111769752Y-131253683D01*
X111769754Y-131253686D01*
X111949054Y-131539039D01*
X112159175Y-131802523D01*
X112397477Y-132040825D01*
X112660961Y-132250946D01*
X112946314Y-132430246D01*
X113249949Y-132576469D01*
X113488848Y-132660063D01*
X113568034Y-132687772D01*
X113568046Y-132687776D01*
X113896606Y-132762767D01*
X114231492Y-132800499D01*
X114231493Y-132800500D01*
X114231496Y-132800500D01*
X114568507Y-132800500D01*
X114568507Y-132800499D01*
X114903394Y-132762767D01*
X115231954Y-132687776D01*
X115550051Y-132576469D01*
X115853686Y-132430246D01*
X116139039Y-132250946D01*
X116402523Y-132040825D01*
X116640825Y-131802523D01*
X116850946Y-131539039D01*
X117030246Y-131253686D01*
X117176469Y-130950051D01*
X117287776Y-130631954D01*
X117362767Y-130303394D01*
X117400500Y-129968504D01*
X117400500Y-129631496D01*
X117400499Y-129631491D01*
X149099500Y-129631491D01*
X149099500Y-129968508D01*
X149137231Y-130303381D01*
X149137233Y-130303397D01*
X149212223Y-130631953D01*
X149212227Y-130631965D01*
X149323532Y-130950054D01*
X149469752Y-131253683D01*
X149469754Y-131253686D01*
X149649054Y-131539039D01*
X149859175Y-131802523D01*
X150097477Y-132040825D01*
X150360961Y-132250946D01*
X150646314Y-132430246D01*
X150949949Y-132576469D01*
X151188848Y-132660063D01*
X151268034Y-132687772D01*
X151268046Y-132687776D01*
X151596606Y-132762767D01*
X151931492Y-132800499D01*
X151931493Y-132800500D01*
X151931496Y-132800500D01*
X152268507Y-132800500D01*
X152268507Y-132800499D01*
X152603394Y-132762767D01*
X152931954Y-132687776D01*
X153250051Y-132576469D01*
X153553686Y-132430246D01*
X153839039Y-132250946D01*
X154102523Y-132040825D01*
X154340825Y-131802523D01*
X154550946Y-131539039D01*
X154730246Y-131253686D01*
X154876469Y-130950051D01*
X154987776Y-130631954D01*
X155062767Y-130303394D01*
X155100500Y-129968504D01*
X155100500Y-129631496D01*
X155062767Y-129296606D01*
X154987776Y-128968046D01*
X154876469Y-128649949D01*
X154730246Y-128346314D01*
X154550946Y-128060961D01*
X154340825Y-127797477D01*
X154102523Y-127559175D01*
X153839039Y-127349054D01*
X153553686Y-127169754D01*
X153553683Y-127169752D01*
X153250054Y-127023532D01*
X152931965Y-126912227D01*
X152931953Y-126912223D01*
X152603397Y-126837233D01*
X152603381Y-126837231D01*
X152268508Y-126799500D01*
X152268504Y-126799500D01*
X151931496Y-126799500D01*
X151931491Y-126799500D01*
X151596618Y-126837231D01*
X151596602Y-126837233D01*
X151268046Y-126912223D01*
X151268034Y-126912227D01*
X150949945Y-127023532D01*
X150646316Y-127169752D01*
X150360962Y-127349053D01*
X150097477Y-127559174D01*
X149859174Y-127797477D01*
X149649053Y-128060962D01*
X149469752Y-128346316D01*
X149323532Y-128649945D01*
X149212227Y-128968034D01*
X149212223Y-128968046D01*
X149137233Y-129296602D01*
X149137231Y-129296618D01*
X149099500Y-129631491D01*
X117400499Y-129631491D01*
X117362767Y-129296606D01*
X117287776Y-128968046D01*
X117176469Y-128649949D01*
X117030246Y-128346314D01*
X116850946Y-128060961D01*
X116640825Y-127797477D01*
X116402523Y-127559175D01*
X116139039Y-127349054D01*
X115853686Y-127169754D01*
X115853683Y-127169752D01*
X115550054Y-127023532D01*
X115231965Y-126912227D01*
X115231953Y-126912223D01*
X114903397Y-126837233D01*
X114903381Y-126837231D01*
X114568508Y-126799500D01*
X114568504Y-126799500D01*
X114231496Y-126799500D01*
X114231491Y-126799500D01*
X113896618Y-126837231D01*
X113896602Y-126837233D01*
X113568046Y-126912223D01*
X113568034Y-126912227D01*
X113249945Y-127023532D01*
X112946316Y-127169752D01*
X112660962Y-127349053D01*
X112397477Y-127559174D01*
X112159174Y-127797477D01*
X111949053Y-128060962D01*
X111769752Y-128346316D01*
X111623532Y-128649945D01*
X111512227Y-128968034D01*
X111512223Y-128968046D01*
X111437233Y-129296602D01*
X111437231Y-129296618D01*
X111399500Y-129631491D01*
X70500500Y-129631491D01*
X70500500Y-110381947D01*
X82000000Y-110381947D01*
X82000000Y-110618052D01*
X82036934Y-110851247D01*
X82109897Y-111075802D01*
X82217087Y-111286174D01*
X82277338Y-111369104D01*
X82277340Y-111369105D01*
X83017037Y-110629408D01*
X83034075Y-110692993D01*
X83099901Y-110807007D01*
X83192993Y-110900099D01*
X83307007Y-110965925D01*
X83370590Y-110982962D01*
X82630893Y-111722658D01*
X82713828Y-111782914D01*
X82924197Y-111890102D01*
X83148752Y-111963065D01*
X83148751Y-111963065D01*
X83381948Y-112000000D01*
X83618052Y-112000000D01*
X83851247Y-111963065D01*
X84075802Y-111890102D01*
X84286163Y-111782918D01*
X84286169Y-111782914D01*
X84369104Y-111722658D01*
X84369105Y-111722658D01*
X83629408Y-110982962D01*
X83692993Y-110965925D01*
X83807007Y-110900099D01*
X83900099Y-110807007D01*
X83965925Y-110692993D01*
X83982962Y-110629409D01*
X84722658Y-111369105D01*
X84722658Y-111369104D01*
X84782914Y-111286169D01*
X84782918Y-111286163D01*
X84890102Y-111075802D01*
X84963065Y-110851247D01*
X85000000Y-110618052D01*
X85000000Y-110381947D01*
X84963065Y-110148752D01*
X84890102Y-109924197D01*
X84782914Y-109713828D01*
X84722658Y-109630894D01*
X84722658Y-109630893D01*
X83982962Y-110370590D01*
X83965925Y-110307007D01*
X83900099Y-110192993D01*
X83807007Y-110099901D01*
X83692993Y-110034075D01*
X83629409Y-110017037D01*
X84369105Y-109277340D01*
X84369104Y-109277338D01*
X84286174Y-109217087D01*
X84075802Y-109109897D01*
X83851247Y-109036934D01*
X83851248Y-109036934D01*
X83618052Y-109000000D01*
X83381948Y-109000000D01*
X83148752Y-109036934D01*
X82924197Y-109109897D01*
X82713830Y-109217084D01*
X82630894Y-109277340D01*
X83370591Y-110017037D01*
X83307007Y-110034075D01*
X83192993Y-110099901D01*
X83099901Y-110192993D01*
X83034075Y-110307007D01*
X83017037Y-110370591D01*
X82277340Y-109630894D01*
X82217084Y-109713830D01*
X82109897Y-109924197D01*
X82036934Y-110148752D01*
X82000000Y-110381947D01*
X70500500Y-110381947D01*
X70500500Y-93897682D01*
X89700000Y-93897682D01*
X89700000Y-94102317D01*
X89732009Y-94304417D01*
X89795244Y-94499031D01*
X89888141Y-94681350D01*
X89888147Y-94681359D01*
X89920523Y-94725921D01*
X89920524Y-94725922D01*
X90600000Y-94046446D01*
X90600000Y-94052661D01*
X90627259Y-94154394D01*
X90679920Y-94245606D01*
X90754394Y-94320080D01*
X90845606Y-94372741D01*
X90947339Y-94400000D01*
X90953553Y-94400000D01*
X90274076Y-95079474D01*
X90318650Y-95111859D01*
X90500968Y-95204755D01*
X90695582Y-95267990D01*
X90897683Y-95300000D01*
X91102317Y-95300000D01*
X91304417Y-95267990D01*
X91499031Y-95204755D01*
X91681349Y-95111859D01*
X91725921Y-95079474D01*
X91046447Y-94400000D01*
X91052661Y-94400000D01*
X91154394Y-94372741D01*
X91245606Y-94320080D01*
X91320080Y-94245606D01*
X91372741Y-94154394D01*
X91400000Y-94052661D01*
X91400000Y-94046447D01*
X92079474Y-94725921D01*
X92111859Y-94681349D01*
X92204755Y-94499031D01*
X92267990Y-94304417D01*
X92300000Y-94102317D01*
X92300000Y-93897682D01*
X92267990Y-93695582D01*
X92204755Y-93500968D01*
X92111859Y-93318650D01*
X92079474Y-93274077D01*
X92079474Y-93274076D01*
X91400000Y-93953551D01*
X91400000Y-93947339D01*
X91372741Y-93845606D01*
X91320080Y-93754394D01*
X91245606Y-93679920D01*
X91154394Y-93627259D01*
X91052661Y-93600000D01*
X91046446Y-93600000D01*
X91725922Y-92920524D01*
X91725921Y-92920523D01*
X91681359Y-92888147D01*
X91681350Y-92888141D01*
X91499031Y-92795244D01*
X91304417Y-92732009D01*
X91102317Y-92700000D01*
X90897683Y-92700000D01*
X90695582Y-92732009D01*
X90500968Y-92795244D01*
X90318644Y-92888143D01*
X90274077Y-92920523D01*
X90274077Y-92920524D01*
X90953554Y-93600000D01*
X90947339Y-93600000D01*
X90845606Y-93627259D01*
X90754394Y-93679920D01*
X90679920Y-93754394D01*
X90627259Y-93845606D01*
X90600000Y-93947339D01*
X90600000Y-93953553D01*
X89920524Y-93274077D01*
X89920523Y-93274077D01*
X89888143Y-93318644D01*
X89795244Y-93500968D01*
X89732009Y-93695582D01*
X89700000Y-93897682D01*
X70500500Y-93897682D01*
X70500500Y-91882014D01*
X78200000Y-91882014D01*
X78200000Y-92117985D01*
X78230799Y-92351914D01*
X78291870Y-92579837D01*
X78382160Y-92797819D01*
X78382165Y-92797828D01*
X78500144Y-93002171D01*
X78500145Y-93002172D01*
X78562721Y-93083723D01*
X79398958Y-92247487D01*
X79423978Y-92307890D01*
X79495112Y-92414351D01*
X79585649Y-92504888D01*
X79692110Y-92576022D01*
X79752511Y-92601041D01*
X78916275Y-93437277D01*
X78997827Y-93499854D01*
X78997828Y-93499855D01*
X79202171Y-93617834D01*
X79202180Y-93617839D01*
X79420163Y-93708129D01*
X79420161Y-93708129D01*
X79648085Y-93769200D01*
X79882014Y-93799999D01*
X79882029Y-93800000D01*
X80117971Y-93800000D01*
X80117985Y-93799999D01*
X80346780Y-93769877D01*
X80351914Y-93769200D01*
X80579837Y-93708129D01*
X80797819Y-93617839D01*
X80797828Y-93617834D01*
X81002181Y-93499850D01*
X81083723Y-93437279D01*
X81083723Y-93437276D01*
X80247487Y-92601041D01*
X80307890Y-92576022D01*
X80414351Y-92504888D01*
X80504888Y-92414351D01*
X80576022Y-92307890D01*
X80601041Y-92247488D01*
X81437276Y-93083723D01*
X81437279Y-93083723D01*
X81499850Y-93002181D01*
X81555507Y-92905782D01*
X81617834Y-92797828D01*
X81617839Y-92797819D01*
X81708129Y-92579837D01*
X81769200Y-92351914D01*
X81799999Y-92117985D01*
X81800000Y-92117971D01*
X81800000Y-91882028D01*
X81799999Y-91882014D01*
X81769200Y-91648085D01*
X81708129Y-91420162D01*
X81617839Y-91202180D01*
X81617834Y-91202171D01*
X81499855Y-90997828D01*
X81499854Y-90997827D01*
X81437277Y-90916275D01*
X80601041Y-91752511D01*
X80576022Y-91692110D01*
X80504888Y-91585649D01*
X80414351Y-91495112D01*
X80307890Y-91423978D01*
X80247488Y-91398958D01*
X81083723Y-90562721D01*
X81002172Y-90500145D01*
X81002171Y-90500144D01*
X80797828Y-90382165D01*
X80797819Y-90382160D01*
X80579836Y-90291870D01*
X80579838Y-90291870D01*
X80351914Y-90230799D01*
X80117985Y-90200000D01*
X79882014Y-90200000D01*
X79648085Y-90230799D01*
X79420162Y-90291870D01*
X79202180Y-90382160D01*
X79202171Y-90382165D01*
X78997828Y-90500144D01*
X78997818Y-90500150D01*
X78916275Y-90562720D01*
X78916275Y-90562721D01*
X79752512Y-91398958D01*
X79692110Y-91423978D01*
X79585649Y-91495112D01*
X79495112Y-91585649D01*
X79423978Y-91692110D01*
X79398958Y-91752511D01*
X78562721Y-90916275D01*
X78562720Y-90916275D01*
X78500150Y-90997818D01*
X78500144Y-90997828D01*
X78382165Y-91202171D01*
X78382160Y-91202180D01*
X78291870Y-91420162D01*
X78230799Y-91648085D01*
X78200000Y-91882014D01*
X70500500Y-91882014D01*
X70500500Y-79881902D01*
X76419500Y-79881902D01*
X76419500Y-80118097D01*
X76456446Y-80351368D01*
X76529433Y-80575996D01*
X76605825Y-80725922D01*
X76636657Y-80786433D01*
X76775483Y-80977510D01*
X76942490Y-81144517D01*
X77133567Y-81283343D01*
X77227668Y-81331290D01*
X77344003Y-81390566D01*
X77344005Y-81390566D01*
X77344008Y-81390568D01*
X77436292Y-81420553D01*
X77568631Y-81463553D01*
X77801903Y-81500500D01*
X77801908Y-81500500D01*
X78038097Y-81500500D01*
X78144126Y-81483705D01*
X78271368Y-81463553D01*
X78397566Y-81422547D01*
X78467404Y-81420553D01*
X78523563Y-81452798D01*
X79363181Y-82292416D01*
X79396666Y-82353739D01*
X79399500Y-82380097D01*
X79399500Y-85075500D01*
X79379815Y-85142539D01*
X79327011Y-85188294D01*
X79275500Y-85199500D01*
X78899998Y-85199500D01*
X78899980Y-85199501D01*
X78797203Y-85210000D01*
X78797200Y-85210001D01*
X78630668Y-85265185D01*
X78630663Y-85265187D01*
X78481342Y-85357289D01*
X78357289Y-85481342D01*
X78265187Y-85630663D01*
X78265185Y-85630668D01*
X78239834Y-85707174D01*
X78210001Y-85797203D01*
X78210001Y-85797204D01*
X78210000Y-85797204D01*
X78199500Y-85899983D01*
X78199500Y-88100001D01*
X78199501Y-88100018D01*
X78210000Y-88202796D01*
X78210001Y-88202799D01*
X78254594Y-88337370D01*
X78265186Y-88369334D01*
X78357288Y-88518656D01*
X78481344Y-88642712D01*
X78630666Y-88734814D01*
X78797203Y-88789999D01*
X78899991Y-88800500D01*
X81100008Y-88800499D01*
X81202797Y-88789999D01*
X81369334Y-88734814D01*
X81518656Y-88642712D01*
X81642712Y-88518656D01*
X81734814Y-88369334D01*
X81789999Y-88202797D01*
X81800500Y-88100009D01*
X81800499Y-85899992D01*
X81789999Y-85797203D01*
X81734814Y-85630666D01*
X81642712Y-85481344D01*
X81518656Y-85357288D01*
X81425888Y-85300069D01*
X81369336Y-85265187D01*
X81369331Y-85265185D01*
X81367862Y-85264698D01*
X81202797Y-85210001D01*
X81202795Y-85210000D01*
X81100016Y-85199500D01*
X81100009Y-85199500D01*
X80724500Y-85199500D01*
X80657461Y-85179815D01*
X80611706Y-85127011D01*
X80600500Y-85075500D01*
X80600500Y-82000945D01*
X80600500Y-82000943D01*
X80562869Y-81860500D01*
X80562869Y-81860499D01*
X80562869Y-81860498D01*
X80559579Y-81848220D01*
X80559576Y-81848214D01*
X80545919Y-81824560D01*
X80542700Y-81818985D01*
X80519648Y-81779056D01*
X80519647Y-81779055D01*
X80480521Y-81711286D01*
X80480520Y-81711284D01*
X80368716Y-81599480D01*
X80368715Y-81599479D01*
X80364385Y-81595149D01*
X80364374Y-81595139D01*
X79372798Y-80603563D01*
X79339313Y-80542240D01*
X79342547Y-80477566D01*
X79383553Y-80351368D01*
X79412173Y-80170668D01*
X79420500Y-80118097D01*
X79420500Y-79891902D01*
X81499500Y-79891902D01*
X81499500Y-80128097D01*
X81536446Y-80361368D01*
X81609433Y-80585996D01*
X81662950Y-80691028D01*
X81716657Y-80796433D01*
X81855483Y-80987510D01*
X82022490Y-81154517D01*
X82213567Y-81293343D01*
X82288042Y-81331290D01*
X82424003Y-81400566D01*
X82424005Y-81400566D01*
X82424008Y-81400568D01*
X82544412Y-81439689D01*
X82648631Y-81473553D01*
X82881903Y-81510500D01*
X82881908Y-81510500D01*
X83118097Y-81510500D01*
X83351368Y-81473553D01*
X83575992Y-81400568D01*
X83786433Y-81293343D01*
X83977510Y-81154517D01*
X84144517Y-80987510D01*
X84283343Y-80796433D01*
X84390568Y-80585992D01*
X84463553Y-80361368D01*
X84493757Y-80170668D01*
X84500500Y-80128097D01*
X84500500Y-79891902D01*
X84469387Y-79695466D01*
X84463553Y-79658632D01*
X84422547Y-79532433D01*
X84420553Y-79462593D01*
X84452796Y-79406437D01*
X85912322Y-77946912D01*
X85973641Y-77913430D01*
X86043333Y-77918414D01*
X86087679Y-77946914D01*
X88621284Y-80480520D01*
X88621286Y-80480521D01*
X88621290Y-80480524D01*
X88728187Y-80542240D01*
X88758216Y-80559577D01*
X88910943Y-80600501D01*
X88910945Y-80600501D01*
X89076654Y-80600501D01*
X89076670Y-80600500D01*
X89770398Y-80600500D01*
X89837437Y-80620185D01*
X89880883Y-80668205D01*
X89887715Y-80681614D01*
X90008028Y-80847213D01*
X90008034Y-80847219D01*
X90152781Y-80991966D01*
X90318390Y-81112287D01*
X90350226Y-81128508D01*
X90373444Y-81140338D01*
X90424240Y-81188313D01*
X90428870Y-81197023D01*
X90433916Y-81207501D01*
X90440423Y-81231785D01*
X90469360Y-81281904D01*
X90471678Y-81285919D01*
X90471681Y-81285925D01*
X90519479Y-81368714D01*
X90519481Y-81368717D01*
X90638349Y-81487585D01*
X90638355Y-81487590D01*
X91063181Y-81912416D01*
X91096666Y-81973739D01*
X91099500Y-82000097D01*
X91099500Y-84883027D01*
X91097958Y-84888276D01*
X91099045Y-84893639D01*
X91088220Y-84921441D01*
X91079815Y-84950066D01*
X91075153Y-84955001D01*
X91073695Y-84958748D01*
X91048385Y-84983346D01*
X90922885Y-85074526D01*
X90857078Y-85098005D01*
X90789025Y-85082179D01*
X90777115Y-85074526D01*
X90631819Y-84968963D01*
X90462756Y-84882820D01*
X90282289Y-84824182D01*
X90094880Y-84794500D01*
X90094875Y-84794500D01*
X89905125Y-84794500D01*
X89905120Y-84794500D01*
X89717710Y-84824182D01*
X89537243Y-84882820D01*
X89368180Y-84968963D01*
X89222885Y-85074526D01*
X89157078Y-85098005D01*
X89089025Y-85082179D01*
X89077115Y-85074526D01*
X88931819Y-84968963D01*
X88762756Y-84882820D01*
X88582289Y-84824182D01*
X88394880Y-84794500D01*
X88394875Y-84794500D01*
X88205125Y-84794500D01*
X88205120Y-84794500D01*
X88017710Y-84824182D01*
X87837243Y-84882820D01*
X87668176Y-84968966D01*
X87514675Y-85080490D01*
X87514670Y-85080494D01*
X87380494Y-85214670D01*
X87380490Y-85214675D01*
X87268966Y-85368176D01*
X87182820Y-85537243D01*
X87124182Y-85717710D01*
X87094500Y-85905119D01*
X87094500Y-86094880D01*
X87124182Y-86282289D01*
X87182820Y-86462756D01*
X87268966Y-86631823D01*
X87380490Y-86785324D01*
X87380494Y-86785329D01*
X87514670Y-86919505D01*
X87514675Y-86919509D01*
X87641952Y-87011980D01*
X87668180Y-87031036D01*
X87775907Y-87085925D01*
X87837243Y-87117179D01*
X87837245Y-87117179D01*
X87837248Y-87117181D01*
X87933980Y-87148611D01*
X88017710Y-87175817D01*
X88205120Y-87205500D01*
X88205125Y-87205500D01*
X88394880Y-87205500D01*
X88582289Y-87175817D01*
X88588798Y-87173702D01*
X88762752Y-87117181D01*
X88931820Y-87031036D01*
X89048806Y-86946041D01*
X89077115Y-86925474D01*
X89142921Y-86901994D01*
X89210975Y-86917820D01*
X89222885Y-86925474D01*
X89341952Y-87011980D01*
X89368180Y-87031036D01*
X89475907Y-87085925D01*
X89537243Y-87117179D01*
X89537245Y-87117179D01*
X89537248Y-87117181D01*
X89633980Y-87148611D01*
X89717710Y-87175817D01*
X89905120Y-87205500D01*
X89905125Y-87205500D01*
X90094880Y-87205500D01*
X90282289Y-87175817D01*
X90288798Y-87173702D01*
X90462752Y-87117181D01*
X90631820Y-87031036D01*
X90748806Y-86946041D01*
X90777115Y-86925474D01*
X90842921Y-86901994D01*
X90910975Y-86917820D01*
X90922885Y-86925474D01*
X91041952Y-87011980D01*
X91068180Y-87031036D01*
X91175907Y-87085925D01*
X91237243Y-87117179D01*
X91237245Y-87117179D01*
X91237248Y-87117181D01*
X91333980Y-87148611D01*
X91417710Y-87175817D01*
X91605120Y-87205500D01*
X91605125Y-87205500D01*
X91794880Y-87205500D01*
X91982289Y-87175817D01*
X91988798Y-87173702D01*
X92162752Y-87117181D01*
X92331820Y-87031036D01*
X92485331Y-86919504D01*
X92619504Y-86785331D01*
X92731036Y-86631820D01*
X92817181Y-86462752D01*
X92875817Y-86282289D01*
X92890527Y-86189408D01*
X92897892Y-86173871D01*
X92906119Y-86204572D01*
X92975895Y-86325427D01*
X93074573Y-86424105D01*
X93195428Y-86493881D01*
X93246093Y-86507457D01*
X92807508Y-86946041D01*
X92742803Y-87011980D01*
X92768441Y-87030607D01*
X92937438Y-87116715D01*
X93117832Y-87175329D01*
X93117831Y-87175329D01*
X93305165Y-87205000D01*
X93494835Y-87205000D01*
X93682168Y-87175329D01*
X93682169Y-87175329D01*
X93687177Y-87173702D01*
X93757018Y-87171703D01*
X93816852Y-87207781D01*
X93847683Y-87270481D01*
X93849500Y-87291631D01*
X93849500Y-93198422D01*
X93880290Y-93392826D01*
X93941117Y-93580030D01*
X94007727Y-93710758D01*
X94030476Y-93755405D01*
X94146172Y-93914646D01*
X94146174Y-93914648D01*
X94713181Y-94481655D01*
X94746666Y-94542978D01*
X94749500Y-94569336D01*
X94749500Y-104930663D01*
X94729815Y-104997702D01*
X94713181Y-105018344D01*
X90732308Y-108999216D01*
X90670985Y-109032701D01*
X90664030Y-109034008D01*
X90648631Y-109036447D01*
X90424005Y-109109433D01*
X90213566Y-109216657D01*
X90130047Y-109277338D01*
X90022490Y-109355483D01*
X90022488Y-109355485D01*
X90022487Y-109355485D01*
X89855485Y-109522487D01*
X89855485Y-109522488D01*
X89855483Y-109522490D01*
X89795862Y-109604550D01*
X89716657Y-109713566D01*
X89609433Y-109924003D01*
X89536446Y-110148631D01*
X89499500Y-110381902D01*
X89499500Y-110618097D01*
X89536446Y-110851368D01*
X89609433Y-111075996D01*
X89683212Y-111220794D01*
X89716657Y-111286433D01*
X89855483Y-111477510D01*
X90022490Y-111644517D01*
X90213567Y-111783343D01*
X90250582Y-111802203D01*
X90424003Y-111890566D01*
X90424005Y-111890566D01*
X90424008Y-111890568D01*
X90544412Y-111929689D01*
X90648631Y-111963553D01*
X90881903Y-112000500D01*
X90881908Y-112000500D01*
X91118097Y-112000500D01*
X91351368Y-111963553D01*
X91352870Y-111963065D01*
X91575992Y-111890568D01*
X91786433Y-111783343D01*
X91977510Y-111644517D01*
X92144517Y-111477510D01*
X92283343Y-111286433D01*
X92390568Y-111075992D01*
X92463553Y-110851368D01*
X92465990Y-110835976D01*
X92495915Y-110772843D01*
X92500765Y-110767707D01*
X93394434Y-109874038D01*
X116399500Y-109874038D01*
X116399500Y-110125962D01*
X116403091Y-110148632D01*
X116438910Y-110374785D01*
X116516760Y-110614383D01*
X116561636Y-110702456D01*
X116629670Y-110835980D01*
X116631132Y-110838848D01*
X116779201Y-111042649D01*
X116779205Y-111042654D01*
X116957345Y-111220794D01*
X116957350Y-111220798D01*
X117135117Y-111349952D01*
X117161155Y-111368870D01*
X117304184Y-111441747D01*
X117385616Y-111483239D01*
X117385618Y-111483239D01*
X117385621Y-111483241D01*
X117625215Y-111561090D01*
X117874038Y-111600500D01*
X117874039Y-111600500D01*
X118125961Y-111600500D01*
X118125962Y-111600500D01*
X118374785Y-111561090D01*
X118614379Y-111483241D01*
X118838845Y-111368870D01*
X119042656Y-111220793D01*
X119220793Y-111042656D01*
X119368870Y-110838845D01*
X119483241Y-110614379D01*
X119561090Y-110374785D01*
X119600500Y-110125962D01*
X119600500Y-109874038D01*
X119561090Y-109625215D01*
X119483241Y-109385621D01*
X119483239Y-109385618D01*
X119483239Y-109385616D01*
X119428068Y-109277338D01*
X119368870Y-109161155D01*
X119331291Y-109109432D01*
X119220798Y-108957350D01*
X119220794Y-108957345D01*
X119042654Y-108779205D01*
X119042649Y-108779201D01*
X118838848Y-108631132D01*
X118838847Y-108631131D01*
X118838845Y-108631130D01*
X118768747Y-108595413D01*
X118614383Y-108516760D01*
X118374785Y-108438910D01*
X118125962Y-108399500D01*
X117874038Y-108399500D01*
X117749626Y-108419205D01*
X117625214Y-108438910D01*
X117385616Y-108516760D01*
X117161151Y-108631132D01*
X116957350Y-108779201D01*
X116957345Y-108779205D01*
X116779205Y-108957345D01*
X116779201Y-108957350D01*
X116631132Y-109161151D01*
X116516760Y-109385616D01*
X116438910Y-109625214D01*
X116424916Y-109713566D01*
X116399500Y-109874038D01*
X93394434Y-109874038D01*
X96953828Y-106314646D01*
X97069524Y-106155405D01*
X97158884Y-105980026D01*
X97219709Y-105792826D01*
X97226413Y-105750500D01*
X97244985Y-105633239D01*
X97250500Y-105598422D01*
X97250500Y-94379500D01*
X97256569Y-94341182D01*
X97268477Y-94304534D01*
X97300500Y-94102352D01*
X97300500Y-93897648D01*
X97277971Y-93755405D01*
X97268477Y-93695465D01*
X97237458Y-93600000D01*
X97205220Y-93500781D01*
X97205218Y-93500778D01*
X97205218Y-93500776D01*
X97172863Y-93437277D01*
X97112287Y-93318390D01*
X97112285Y-93318387D01*
X97112284Y-93318385D01*
X96991971Y-93152786D01*
X96847213Y-93008028D01*
X96681611Y-92887713D01*
X96647272Y-92870216D01*
X96615887Y-92847413D01*
X96386819Y-92618345D01*
X96353334Y-92557022D01*
X96350500Y-92530664D01*
X96350500Y-89782332D01*
X100899500Y-89782332D01*
X100899500Y-90057667D01*
X100899501Y-90057684D01*
X100935438Y-90330655D01*
X100935439Y-90330660D01*
X100935440Y-90330666D01*
X100949238Y-90382160D01*
X101006704Y-90596630D01*
X101112075Y-90851017D01*
X101112080Y-90851028D01*
X101194861Y-90994407D01*
X101249751Y-91089479D01*
X101249753Y-91089482D01*
X101249754Y-91089483D01*
X101417370Y-91307926D01*
X101417376Y-91307933D01*
X101612066Y-91502623D01*
X101612072Y-91502628D01*
X101830521Y-91670249D01*
X101983778Y-91758732D01*
X102068971Y-91807919D01*
X102068976Y-91807921D01*
X102068979Y-91807923D01*
X102323368Y-91913295D01*
X102589334Y-91984560D01*
X102862326Y-92020500D01*
X102862333Y-92020500D01*
X103137667Y-92020500D01*
X103137674Y-92020500D01*
X103410666Y-91984560D01*
X103676632Y-91913295D01*
X103825082Y-91851804D01*
X103894545Y-91844336D01*
X103957025Y-91875610D01*
X103960211Y-91878685D01*
X104773180Y-92691654D01*
X104806665Y-92752977D01*
X104801681Y-92822669D01*
X104759809Y-92878602D01*
X104694345Y-92903019D01*
X104672244Y-92902625D01*
X104647828Y-92900000D01*
X103250000Y-92900000D01*
X103250000Y-94237639D01*
X103233351Y-94230743D01*
X103078793Y-94200000D01*
X102921207Y-94200000D01*
X102766649Y-94230743D01*
X102750000Y-94237639D01*
X102750000Y-92900000D01*
X101352155Y-92900000D01*
X101292627Y-92906401D01*
X101292620Y-92906403D01*
X101157913Y-92956645D01*
X101157906Y-92956649D01*
X101042812Y-93042809D01*
X101042809Y-93042812D01*
X100956649Y-93157906D01*
X100956645Y-93157913D01*
X100906403Y-93292620D01*
X100906401Y-93292627D01*
X100900000Y-93352155D01*
X100900000Y-94750000D01*
X102237639Y-94750000D01*
X102230743Y-94766649D01*
X102200000Y-94921207D01*
X102200000Y-95078793D01*
X102230743Y-95233351D01*
X102237639Y-95250000D01*
X100900000Y-95250000D01*
X100900000Y-96647844D01*
X100906401Y-96707372D01*
X100906403Y-96707379D01*
X100956645Y-96842086D01*
X100956649Y-96842093D01*
X101042809Y-96957187D01*
X101042812Y-96957190D01*
X101157906Y-97043350D01*
X101157913Y-97043354D01*
X101292620Y-97093596D01*
X101292627Y-97093598D01*
X101352155Y-97099999D01*
X101352172Y-97100000D01*
X102750000Y-97100000D01*
X102750000Y-95762360D01*
X102766649Y-95769257D01*
X102921207Y-95800000D01*
X103078793Y-95800000D01*
X103233351Y-95769257D01*
X103250000Y-95762360D01*
X103250000Y-97100000D01*
X104647828Y-97100000D01*
X104647844Y-97099999D01*
X104707372Y-97093598D01*
X104707379Y-97093596D01*
X104842086Y-97043354D01*
X104842093Y-97043350D01*
X104957187Y-96957190D01*
X104957190Y-96957187D01*
X105043350Y-96842093D01*
X105043354Y-96842086D01*
X105093596Y-96707379D01*
X105093598Y-96707372D01*
X105099999Y-96647844D01*
X105100000Y-96647827D01*
X105100000Y-95250000D01*
X103762361Y-95250000D01*
X103769257Y-95233351D01*
X103800000Y-95078793D01*
X103800000Y-94921207D01*
X103769257Y-94766649D01*
X103762361Y-94750000D01*
X105100000Y-94750000D01*
X105100000Y-93352172D01*
X105099999Y-93352163D01*
X105097375Y-93327759D01*
X105109778Y-93258999D01*
X105157387Y-93207860D01*
X105225086Y-93190579D01*
X105291381Y-93212642D01*
X105308345Y-93226819D01*
X116378916Y-104297390D01*
X116412401Y-104358713D01*
X116413708Y-104365672D01*
X116438909Y-104524782D01*
X116516760Y-104764381D01*
X116631132Y-104988848D01*
X116779201Y-105192649D01*
X116779205Y-105192654D01*
X116957345Y-105370794D01*
X116957350Y-105370798D01*
X117135117Y-105499952D01*
X117161155Y-105518870D01*
X117304184Y-105591747D01*
X117385616Y-105633239D01*
X117385618Y-105633239D01*
X117385621Y-105633241D01*
X117625215Y-105711090D01*
X117874038Y-105750500D01*
X117874039Y-105750500D01*
X118125961Y-105750500D01*
X118125962Y-105750500D01*
X118374785Y-105711090D01*
X118614379Y-105633241D01*
X118838845Y-105518870D01*
X119042656Y-105370793D01*
X119220793Y-105192656D01*
X119368870Y-104988845D01*
X119483241Y-104764379D01*
X119561090Y-104524785D01*
X119600500Y-104275962D01*
X119600500Y-104024038D01*
X119561090Y-103775215D01*
X119483241Y-103535621D01*
X119483239Y-103535618D01*
X119483239Y-103535616D01*
X119441747Y-103454184D01*
X119368870Y-103311155D01*
X119349952Y-103285117D01*
X119220798Y-103107350D01*
X119220794Y-103107345D01*
X119042654Y-102929205D01*
X119042649Y-102929201D01*
X118838848Y-102781132D01*
X118838847Y-102781131D01*
X118838845Y-102781130D01*
X118614379Y-102666759D01*
X118374785Y-102588910D01*
X118374783Y-102588909D01*
X118215672Y-102563708D01*
X118152538Y-102533778D01*
X118147390Y-102528916D01*
X113812512Y-98194038D01*
X116399500Y-98194038D01*
X116399500Y-98445961D01*
X116438910Y-98694785D01*
X116516760Y-98934383D01*
X116631132Y-99158848D01*
X116779201Y-99362649D01*
X116779205Y-99362654D01*
X116957345Y-99540794D01*
X116957350Y-99540798D01*
X117135117Y-99669952D01*
X117161155Y-99688870D01*
X117304184Y-99761747D01*
X117385616Y-99803239D01*
X117385618Y-99803239D01*
X117385621Y-99803241D01*
X117625215Y-99881090D01*
X117874038Y-99920500D01*
X117874039Y-99920500D01*
X118125961Y-99920500D01*
X118125962Y-99920500D01*
X118374785Y-99881090D01*
X118614379Y-99803241D01*
X118838845Y-99688870D01*
X119042656Y-99540793D01*
X119220793Y-99362656D01*
X119368870Y-99158845D01*
X119483241Y-98934379D01*
X119561090Y-98694785D01*
X119600500Y-98445962D01*
X119600500Y-98199038D01*
X146884595Y-98199038D01*
X146884595Y-98450961D01*
X146924005Y-98699785D01*
X147001855Y-98939383D01*
X147080508Y-99093747D01*
X147113677Y-99158845D01*
X147116227Y-99163848D01*
X147264296Y-99367649D01*
X147264300Y-99367654D01*
X147442440Y-99545794D01*
X147442445Y-99545798D01*
X147620212Y-99674952D01*
X147646250Y-99693870D01*
X147789279Y-99766747D01*
X147870711Y-99808239D01*
X147870713Y-99808239D01*
X147870716Y-99808241D01*
X148110310Y-99886090D01*
X148359133Y-99925500D01*
X148359134Y-99925500D01*
X148611056Y-99925500D01*
X148611057Y-99925500D01*
X148859880Y-99886090D01*
X149099474Y-99808241D01*
X149323940Y-99693870D01*
X149527751Y-99545793D01*
X149705888Y-99367656D01*
X149853965Y-99163845D01*
X149968336Y-98939379D01*
X150046185Y-98699785D01*
X150085595Y-98450962D01*
X150085595Y-98199038D01*
X150046185Y-97950215D01*
X149968336Y-97710621D01*
X149968334Y-97710618D01*
X149968334Y-97710616D01*
X149926842Y-97629184D01*
X149853965Y-97486155D01*
X149835047Y-97460117D01*
X149705893Y-97282350D01*
X149705889Y-97282345D01*
X149527749Y-97104205D01*
X149527744Y-97104201D01*
X149323943Y-96956132D01*
X149323942Y-96956131D01*
X149323940Y-96956130D01*
X149253842Y-96920413D01*
X149099478Y-96841760D01*
X148859880Y-96763910D01*
X148828311Y-96758910D01*
X148611057Y-96724500D01*
X148359133Y-96724500D01*
X148234721Y-96744205D01*
X148110309Y-96763910D01*
X147870711Y-96841760D01*
X147646246Y-96956132D01*
X147442445Y-97104201D01*
X147442440Y-97104205D01*
X147264300Y-97282345D01*
X147264296Y-97282350D01*
X147116227Y-97486151D01*
X147001855Y-97710616D01*
X146924005Y-97950214D01*
X146884595Y-98199038D01*
X119600500Y-98199038D01*
X119600500Y-98194038D01*
X119561090Y-97945215D01*
X119483241Y-97705621D01*
X119483239Y-97705618D01*
X119483239Y-97705616D01*
X119441747Y-97624184D01*
X119368870Y-97481155D01*
X119349952Y-97455117D01*
X119220798Y-97277350D01*
X119220794Y-97277345D01*
X119042654Y-97099205D01*
X119042649Y-97099201D01*
X118838848Y-96951132D01*
X118838847Y-96951131D01*
X118838845Y-96951130D01*
X118768747Y-96915413D01*
X118614383Y-96836760D01*
X118374785Y-96758910D01*
X118125962Y-96719500D01*
X117874038Y-96719500D01*
X117749626Y-96739205D01*
X117625214Y-96758910D01*
X117385616Y-96836760D01*
X117161151Y-96951132D01*
X116957350Y-97099201D01*
X116957345Y-97099205D01*
X116779205Y-97277345D01*
X116779201Y-97277350D01*
X116631132Y-97481151D01*
X116516760Y-97705616D01*
X116438910Y-97945214D01*
X116399500Y-98194038D01*
X113812512Y-98194038D01*
X107982476Y-92364002D01*
X116400186Y-92364002D01*
X116400186Y-92615926D01*
X116401776Y-92625962D01*
X116439596Y-92864749D01*
X116517446Y-93104347D01*
X116596099Y-93258711D01*
X116626507Y-93318390D01*
X116631818Y-93328812D01*
X116779887Y-93532613D01*
X116779891Y-93532618D01*
X116958031Y-93710758D01*
X116958036Y-93710762D01*
X117135803Y-93839916D01*
X117161841Y-93858834D01*
X117304870Y-93931711D01*
X117386302Y-93973203D01*
X117386304Y-93973203D01*
X117386307Y-93973205D01*
X117625901Y-94051054D01*
X117874724Y-94090464D01*
X117874725Y-94090464D01*
X118126647Y-94090464D01*
X118126648Y-94090464D01*
X118375471Y-94051054D01*
X118615065Y-93973205D01*
X118839531Y-93858834D01*
X119043342Y-93710757D01*
X119221479Y-93532620D01*
X119369556Y-93328809D01*
X119483927Y-93104343D01*
X119561776Y-92864749D01*
X119601186Y-92615926D01*
X119601186Y-92374038D01*
X146874500Y-92374038D01*
X146874500Y-92625961D01*
X146913910Y-92874785D01*
X146991760Y-93114383D01*
X147041826Y-93212642D01*
X147101016Y-93328809D01*
X147106132Y-93338848D01*
X147254201Y-93542649D01*
X147254205Y-93542654D01*
X147432345Y-93720794D01*
X147432350Y-93720798D01*
X147499902Y-93769877D01*
X147636155Y-93868870D01*
X147771546Y-93937855D01*
X147860616Y-93983239D01*
X147860618Y-93983239D01*
X147860621Y-93983241D01*
X148100215Y-94061090D01*
X148349038Y-94100500D01*
X148349039Y-94100500D01*
X148600961Y-94100500D01*
X148600962Y-94100500D01*
X148849785Y-94061090D01*
X149089379Y-93983241D01*
X149313845Y-93868870D01*
X149517656Y-93720793D01*
X149695793Y-93542656D01*
X149843870Y-93338845D01*
X149958241Y-93114379D01*
X150036090Y-92874785D01*
X150075500Y-92625962D01*
X150075500Y-92374038D01*
X150036090Y-92125215D01*
X149958241Y-91885621D01*
X149958239Y-91885618D01*
X149958239Y-91885616D01*
X149859642Y-91692110D01*
X149843870Y-91661155D01*
X149789012Y-91585649D01*
X149695798Y-91457350D01*
X149695794Y-91457345D01*
X149517654Y-91279205D01*
X149517649Y-91279201D01*
X149313848Y-91131132D01*
X149313847Y-91131131D01*
X149313845Y-91131130D01*
X149232100Y-91089479D01*
X149089383Y-91016760D01*
X148849785Y-90938910D01*
X148600962Y-90899500D01*
X148349038Y-90899500D01*
X148243126Y-90916275D01*
X148100214Y-90938910D01*
X147860616Y-91016760D01*
X147636151Y-91131132D01*
X147432350Y-91279201D01*
X147432345Y-91279205D01*
X147254205Y-91457345D01*
X147254201Y-91457350D01*
X147106132Y-91661151D01*
X146991760Y-91885616D01*
X146913910Y-92125214D01*
X146874500Y-92374038D01*
X119601186Y-92374038D01*
X119601186Y-92364002D01*
X119561776Y-92115179D01*
X119483927Y-91875585D01*
X119483925Y-91875582D01*
X119483925Y-91875580D01*
X119442433Y-91794148D01*
X119369556Y-91651119D01*
X119350638Y-91625081D01*
X119221484Y-91447314D01*
X119221480Y-91447309D01*
X119043340Y-91269169D01*
X119043335Y-91269165D01*
X118839534Y-91121096D01*
X118839533Y-91121095D01*
X118839531Y-91121094D01*
X118769433Y-91085377D01*
X118615069Y-91006724D01*
X118375471Y-90928874D01*
X118126648Y-90889464D01*
X117874724Y-90889464D01*
X117811360Y-90899500D01*
X117625900Y-90928874D01*
X117386302Y-91006724D01*
X117161837Y-91121096D01*
X116958036Y-91269165D01*
X116958031Y-91269169D01*
X116779891Y-91447309D01*
X116779887Y-91447314D01*
X116631818Y-91651115D01*
X116517446Y-91875580D01*
X116439596Y-92115178D01*
X116438006Y-92125215D01*
X116400186Y-92364002D01*
X107982476Y-92364002D01*
X105064903Y-89446429D01*
X105032810Y-89390842D01*
X104993295Y-89243368D01*
X104887923Y-88988979D01*
X104887921Y-88988976D01*
X104887919Y-88988971D01*
X104779104Y-88800500D01*
X104750249Y-88750521D01*
X104622537Y-88584083D01*
X104582629Y-88532073D01*
X104582623Y-88532066D01*
X104387933Y-88337376D01*
X104387926Y-88337370D01*
X104169483Y-88169754D01*
X104169482Y-88169753D01*
X104169479Y-88169751D01*
X104048695Y-88100016D01*
X103931028Y-88032080D01*
X103931017Y-88032075D01*
X103676630Y-87926704D01*
X103543649Y-87891072D01*
X103410666Y-87855440D01*
X103410660Y-87855439D01*
X103410655Y-87855438D01*
X103137684Y-87819501D01*
X103137679Y-87819500D01*
X103137674Y-87819500D01*
X102862326Y-87819500D01*
X102862320Y-87819500D01*
X102862315Y-87819501D01*
X102589344Y-87855438D01*
X102589337Y-87855439D01*
X102589334Y-87855440D01*
X102533125Y-87870500D01*
X102323369Y-87926704D01*
X102068982Y-88032075D01*
X102068971Y-88032080D01*
X101830516Y-88169754D01*
X101612073Y-88337370D01*
X101612066Y-88337376D01*
X101417376Y-88532066D01*
X101417370Y-88532073D01*
X101249754Y-88750516D01*
X101112080Y-88988971D01*
X101112075Y-88988982D01*
X101006704Y-89243369D01*
X100935441Y-89509331D01*
X100935438Y-89509344D01*
X100899501Y-89782315D01*
X100899500Y-89782332D01*
X96350500Y-89782332D01*
X96350500Y-86569336D01*
X96370185Y-86502297D01*
X96386819Y-86481655D01*
X98705106Y-84163368D01*
X101486390Y-81382083D01*
X101547711Y-81348600D01*
X101617403Y-81353584D01*
X101649555Y-81371390D01*
X101687581Y-81400568D01*
X101830521Y-81510249D01*
X101977555Y-81595139D01*
X102068971Y-81647919D01*
X102068976Y-81647921D01*
X102068979Y-81647923D01*
X102323368Y-81753295D01*
X102589334Y-81824560D01*
X102862326Y-81860500D01*
X102862333Y-81860500D01*
X103137667Y-81860500D01*
X103137674Y-81860500D01*
X103410666Y-81824560D01*
X103676632Y-81753295D01*
X103931021Y-81647923D01*
X104169479Y-81510249D01*
X104336506Y-81382085D01*
X104352449Y-81369852D01*
X104417618Y-81344658D01*
X104486063Y-81358696D01*
X104536052Y-81407510D01*
X104551716Y-81475602D01*
X104528079Y-81541352D01*
X104515616Y-81555909D01*
X103352654Y-82718870D01*
X103291331Y-82752355D01*
X103248788Y-82754128D01*
X103137684Y-82739501D01*
X103137679Y-82739500D01*
X103137674Y-82739500D01*
X102862326Y-82739500D01*
X102862320Y-82739500D01*
X102862315Y-82739501D01*
X102589344Y-82775438D01*
X102589337Y-82775439D01*
X102589334Y-82775440D01*
X102533125Y-82790500D01*
X102323369Y-82846704D01*
X102068982Y-82952075D01*
X102068971Y-82952080D01*
X101830516Y-83089754D01*
X101612073Y-83257370D01*
X101612066Y-83257376D01*
X101417376Y-83452066D01*
X101417370Y-83452073D01*
X101249754Y-83670516D01*
X101112080Y-83908971D01*
X101112075Y-83908982D01*
X101006704Y-84163369D01*
X100935441Y-84429331D01*
X100935438Y-84429344D01*
X100899501Y-84702315D01*
X100899500Y-84702332D01*
X100899500Y-84977667D01*
X100899501Y-84977684D01*
X100935438Y-85250655D01*
X100935439Y-85250660D01*
X100935440Y-85250666D01*
X100946283Y-85291132D01*
X101006704Y-85516630D01*
X101112075Y-85771017D01*
X101112080Y-85771028D01*
X101186542Y-85899998D01*
X101249751Y-86009479D01*
X101249753Y-86009482D01*
X101249754Y-86009483D01*
X101417370Y-86227926D01*
X101417376Y-86227933D01*
X101612066Y-86422623D01*
X101612073Y-86422629D01*
X101622709Y-86430790D01*
X101830521Y-86590249D01*
X101983778Y-86678732D01*
X102068971Y-86727919D01*
X102068976Y-86727921D01*
X102068979Y-86727923D01*
X102323368Y-86833295D01*
X102589334Y-86904560D01*
X102862326Y-86940500D01*
X102862333Y-86940500D01*
X103137667Y-86940500D01*
X103137674Y-86940500D01*
X103410666Y-86904560D01*
X103676632Y-86833295D01*
X103931021Y-86727923D01*
X104169479Y-86590249D01*
X104242735Y-86534038D01*
X116399500Y-86534038D01*
X116399500Y-86785962D01*
X116420652Y-86919509D01*
X116438910Y-87034785D01*
X116516760Y-87274383D01*
X116631132Y-87498848D01*
X116779201Y-87702649D01*
X116779205Y-87702654D01*
X116957345Y-87880794D01*
X116957350Y-87880798D01*
X117135117Y-88009952D01*
X117161155Y-88028870D01*
X117300758Y-88100001D01*
X117385616Y-88143239D01*
X117385618Y-88143239D01*
X117385621Y-88143241D01*
X117625215Y-88221090D01*
X117874038Y-88260500D01*
X117874039Y-88260500D01*
X118125961Y-88260500D01*
X118125962Y-88260500D01*
X118374785Y-88221090D01*
X118614379Y-88143241D01*
X118838845Y-88028870D01*
X119042656Y-87880793D01*
X119220793Y-87702656D01*
X119368870Y-87498845D01*
X119483241Y-87274379D01*
X119561090Y-87034785D01*
X119600500Y-86785962D01*
X119600500Y-86534038D01*
X146869439Y-86534038D01*
X146869439Y-86785962D01*
X146890591Y-86919509D01*
X146908849Y-87034785D01*
X146986699Y-87274383D01*
X147101071Y-87498848D01*
X147249140Y-87702649D01*
X147249144Y-87702654D01*
X147427284Y-87880794D01*
X147427289Y-87880798D01*
X147605056Y-88009952D01*
X147631094Y-88028870D01*
X147770697Y-88100001D01*
X147855555Y-88143239D01*
X147855557Y-88143239D01*
X147855560Y-88143241D01*
X148095154Y-88221090D01*
X148343977Y-88260500D01*
X148343978Y-88260500D01*
X148595900Y-88260500D01*
X148595901Y-88260500D01*
X148844724Y-88221090D01*
X149084318Y-88143241D01*
X149308784Y-88028870D01*
X149512595Y-87880793D01*
X149690732Y-87702656D01*
X149838809Y-87498845D01*
X149953180Y-87274379D01*
X150031029Y-87034785D01*
X150070439Y-86785962D01*
X150070439Y-86534038D01*
X150031029Y-86285215D01*
X149953180Y-86045621D01*
X149953178Y-86045618D01*
X149953178Y-86045616D01*
X149884538Y-85910904D01*
X149838809Y-85821155D01*
X149788446Y-85751836D01*
X149690737Y-85617350D01*
X149690733Y-85617345D01*
X149512593Y-85439205D01*
X149512588Y-85439201D01*
X149308787Y-85291132D01*
X149308786Y-85291131D01*
X149308784Y-85291130D01*
X149222423Y-85247127D01*
X149084322Y-85176760D01*
X148844724Y-85098910D01*
X148728463Y-85080496D01*
X148595901Y-85059500D01*
X148343977Y-85059500D01*
X148242958Y-85075500D01*
X148095153Y-85098910D01*
X147855555Y-85176760D01*
X147631090Y-85291132D01*
X147427289Y-85439201D01*
X147427284Y-85439205D01*
X147249144Y-85617345D01*
X147249140Y-85617350D01*
X147101071Y-85821151D01*
X146986699Y-86045616D01*
X146908849Y-86285214D01*
X146887085Y-86422628D01*
X146869439Y-86534038D01*
X119600500Y-86534038D01*
X119561090Y-86285215D01*
X119483241Y-86045621D01*
X119483239Y-86045618D01*
X119483239Y-86045616D01*
X119414599Y-85910904D01*
X119368870Y-85821155D01*
X119318507Y-85751836D01*
X119220798Y-85617350D01*
X119220794Y-85617345D01*
X119042654Y-85439205D01*
X119042649Y-85439201D01*
X118838848Y-85291132D01*
X118838847Y-85291131D01*
X118838845Y-85291130D01*
X118752484Y-85247127D01*
X118614383Y-85176760D01*
X118374785Y-85098910D01*
X118258524Y-85080496D01*
X118125962Y-85059500D01*
X117874038Y-85059500D01*
X117773019Y-85075500D01*
X117625214Y-85098910D01*
X117385616Y-85176760D01*
X117161151Y-85291132D01*
X116957350Y-85439201D01*
X116957345Y-85439205D01*
X116779205Y-85617345D01*
X116779201Y-85617350D01*
X116631132Y-85821151D01*
X116516760Y-86045616D01*
X116438910Y-86285214D01*
X116417146Y-86422628D01*
X116399500Y-86534038D01*
X104242735Y-86534038D01*
X104335635Y-86462754D01*
X104377292Y-86430790D01*
X104377292Y-86430789D01*
X104387928Y-86422628D01*
X104582628Y-86227928D01*
X104750249Y-86009479D01*
X104887923Y-85771021D01*
X104993295Y-85516632D01*
X105064560Y-85250666D01*
X105100500Y-84977674D01*
X105100500Y-84702326D01*
X105085870Y-84591208D01*
X105096635Y-84522176D01*
X105121125Y-84487347D01*
X107491655Y-82116819D01*
X107552978Y-82083334D01*
X107579336Y-82080500D01*
X116957942Y-82080500D01*
X117024981Y-82100185D01*
X117030827Y-82104182D01*
X117048221Y-82116819D01*
X117161155Y-82198870D01*
X117304184Y-82271747D01*
X117385616Y-82313239D01*
X117385618Y-82313239D01*
X117385621Y-82313241D01*
X117625215Y-82391090D01*
X117874038Y-82430500D01*
X117874039Y-82430500D01*
X118125961Y-82430500D01*
X118125962Y-82430500D01*
X118374785Y-82391090D01*
X118614379Y-82313241D01*
X118838845Y-82198870D01*
X119042656Y-82050793D01*
X119220793Y-81872656D01*
X119368870Y-81668845D01*
X119483241Y-81444379D01*
X119561090Y-81204785D01*
X119600500Y-80955962D01*
X119600500Y-80704038D01*
X146869439Y-80704038D01*
X146869439Y-80955961D01*
X146908849Y-81204785D01*
X146986699Y-81444383D01*
X147020258Y-81510245D01*
X147090409Y-81647924D01*
X147101071Y-81668848D01*
X147249140Y-81872649D01*
X147249144Y-81872654D01*
X147427284Y-82050794D01*
X147427289Y-82050798D01*
X147518160Y-82116819D01*
X147631094Y-82198870D01*
X147774123Y-82271747D01*
X147855555Y-82313239D01*
X147855557Y-82313239D01*
X147855560Y-82313241D01*
X148095154Y-82391090D01*
X148343977Y-82430500D01*
X148343978Y-82430500D01*
X148595900Y-82430500D01*
X148595901Y-82430500D01*
X148844724Y-82391090D01*
X149084318Y-82313241D01*
X149308784Y-82198870D01*
X149512595Y-82050793D01*
X149690732Y-81872656D01*
X149838809Y-81668845D01*
X149953180Y-81444379D01*
X150031029Y-81204785D01*
X150070439Y-80955962D01*
X150070439Y-80704038D01*
X150031029Y-80455215D01*
X149953180Y-80215621D01*
X149953178Y-80215618D01*
X149953178Y-80215616D01*
X149903489Y-80118097D01*
X149838809Y-79991155D01*
X149770886Y-79897667D01*
X149690737Y-79787350D01*
X149690733Y-79787345D01*
X149512593Y-79609205D01*
X149512588Y-79609201D01*
X149308787Y-79461132D01*
X149308786Y-79461131D01*
X149308784Y-79461130D01*
X149201439Y-79406435D01*
X149084322Y-79346760D01*
X148844724Y-79268910D01*
X148595901Y-79229500D01*
X148343977Y-79229500D01*
X148219565Y-79249205D01*
X148095153Y-79268910D01*
X147855555Y-79346760D01*
X147631090Y-79461132D01*
X147427289Y-79609201D01*
X147427284Y-79609205D01*
X147249144Y-79787345D01*
X147249140Y-79787350D01*
X147101071Y-79991151D01*
X146986699Y-80215616D01*
X146908849Y-80455214D01*
X146869439Y-80704038D01*
X119600500Y-80704038D01*
X119561090Y-80455215D01*
X119483241Y-80215621D01*
X119483239Y-80215618D01*
X119483239Y-80215616D01*
X119433550Y-80118097D01*
X119368870Y-79991155D01*
X119300947Y-79897667D01*
X119220798Y-79787350D01*
X119220794Y-79787345D01*
X119042654Y-79609205D01*
X119042649Y-79609201D01*
X118838848Y-79461132D01*
X118838847Y-79461131D01*
X118838845Y-79461130D01*
X118731500Y-79406435D01*
X118614383Y-79346760D01*
X118374785Y-79268910D01*
X118125962Y-79229500D01*
X117874038Y-79229500D01*
X117749626Y-79249205D01*
X117625214Y-79268910D01*
X117385616Y-79346760D01*
X117161151Y-79461132D01*
X117030827Y-79555818D01*
X116965021Y-79579298D01*
X116957942Y-79579500D01*
X106911578Y-79579500D01*
X106717176Y-79610290D01*
X106717171Y-79610291D01*
X106680133Y-79622325D01*
X106680134Y-79622326D01*
X106529970Y-79671117D01*
X106354594Y-79760476D01*
X106317613Y-79787345D01*
X106195354Y-79876172D01*
X106195352Y-79876174D01*
X106195351Y-79876174D01*
X104795908Y-81275616D01*
X104734585Y-81309101D01*
X104664893Y-81304117D01*
X104608960Y-81262245D01*
X104584543Y-81196781D01*
X104599395Y-81128508D01*
X104609841Y-81112462D01*
X104750249Y-80929479D01*
X104887923Y-80691021D01*
X104993295Y-80436632D01*
X105064560Y-80170666D01*
X105100500Y-79897674D01*
X105100500Y-79622326D01*
X105064560Y-79349334D01*
X104993295Y-79083368D01*
X104887923Y-78828979D01*
X104887921Y-78828976D01*
X104887919Y-78828971D01*
X104807958Y-78690476D01*
X104750249Y-78590521D01*
X104582628Y-78372072D01*
X104582623Y-78372066D01*
X104387933Y-78177376D01*
X104387926Y-78177370D01*
X104169483Y-78009754D01*
X104169482Y-78009753D01*
X104169479Y-78009751D01*
X104060644Y-77946915D01*
X103931028Y-77872080D01*
X103931017Y-77872075D01*
X103676630Y-77766704D01*
X103543649Y-77731072D01*
X103410666Y-77695440D01*
X103410660Y-77695439D01*
X103410655Y-77695438D01*
X103137684Y-77659501D01*
X103137679Y-77659500D01*
X103137674Y-77659500D01*
X102862326Y-77659500D01*
X102862320Y-77659500D01*
X102862315Y-77659501D01*
X102589344Y-77695438D01*
X102589337Y-77695439D01*
X102589334Y-77695440D01*
X102533125Y-77710500D01*
X102323369Y-77766704D01*
X102068982Y-77872075D01*
X102068971Y-77872080D01*
X101830516Y-78009754D01*
X101612073Y-78177370D01*
X101612066Y-78177376D01*
X101417376Y-78372066D01*
X101417370Y-78372073D01*
X101349146Y-78460986D01*
X101292718Y-78502189D01*
X101268358Y-78508246D01*
X101259606Y-78509500D01*
X101241583Y-78509500D01*
X101071444Y-78536447D01*
X101070599Y-78536580D01*
X101070528Y-78536591D01*
X101047174Y-78540290D01*
X101047173Y-78540290D01*
X100859969Y-78601117D01*
X100684594Y-78690476D01*
X100634796Y-78726657D01*
X100525355Y-78806171D01*
X100525353Y-78806173D01*
X100525352Y-78806173D01*
X94573343Y-84758181D01*
X94512020Y-84791666D01*
X94485663Y-84794500D01*
X94347130Y-84794500D01*
X94347123Y-84794501D01*
X94287516Y-84800908D01*
X94152671Y-84851202D01*
X94152669Y-84851203D01*
X94071491Y-84911974D01*
X94006027Y-84936391D01*
X93940885Y-84923192D01*
X93862561Y-84883284D01*
X93682167Y-84824670D01*
X93682168Y-84824670D01*
X93494835Y-84795000D01*
X93305165Y-84795000D01*
X93117832Y-84824670D01*
X92937438Y-84883284D01*
X92768439Y-84969393D01*
X92742804Y-84988017D01*
X92807555Y-85054002D01*
X93246095Y-85492542D01*
X93195428Y-85506119D01*
X93074573Y-85575895D01*
X92975895Y-85674573D01*
X92906119Y-85795428D01*
X92897440Y-85827817D01*
X92891834Y-85817550D01*
X92890527Y-85810589D01*
X92888406Y-85797200D01*
X92875817Y-85717711D01*
X92872393Y-85707174D01*
X92847533Y-85630663D01*
X92817181Y-85537248D01*
X92731036Y-85368180D01*
X92705493Y-85333024D01*
X92624492Y-85221534D01*
X92624490Y-85221532D01*
X92619504Y-85214669D01*
X92485331Y-85080496D01*
X92485329Y-85080494D01*
X92485324Y-85080490D01*
X92351615Y-84983345D01*
X92308949Y-84928015D01*
X92300500Y-84883027D01*
X92300500Y-81620945D01*
X92300500Y-81620943D01*
X92259577Y-81468216D01*
X92256885Y-81463553D01*
X92180524Y-81331290D01*
X92180521Y-81331286D01*
X92180520Y-81331284D01*
X92068716Y-81219480D01*
X92068715Y-81219479D01*
X92064385Y-81215149D01*
X92064374Y-81215139D01*
X91931891Y-81082656D01*
X91898406Y-81021333D01*
X91903390Y-80951641D01*
X91931891Y-80907294D01*
X91991966Y-80847219D01*
X91991968Y-80847215D01*
X91991971Y-80847213D01*
X92044732Y-80774590D01*
X92112287Y-80681610D01*
X92205220Y-80499219D01*
X92268477Y-80304534D01*
X92300500Y-80102352D01*
X92300500Y-79897682D01*
X94700000Y-79897682D01*
X94700000Y-80102317D01*
X94732009Y-80304417D01*
X94795244Y-80499031D01*
X94888141Y-80681350D01*
X94888147Y-80681359D01*
X94920523Y-80725921D01*
X94920524Y-80725922D01*
X95600000Y-80046446D01*
X95600000Y-80052661D01*
X95627259Y-80154394D01*
X95679920Y-80245606D01*
X95754394Y-80320080D01*
X95845606Y-80372741D01*
X95947339Y-80400000D01*
X95953553Y-80400000D01*
X95274076Y-81079474D01*
X95318650Y-81111859D01*
X95500968Y-81204755D01*
X95695582Y-81267990D01*
X95897683Y-81300000D01*
X96102317Y-81300000D01*
X96304417Y-81267990D01*
X96499031Y-81204755D01*
X96681349Y-81111859D01*
X96725921Y-81079474D01*
X96046447Y-80400000D01*
X96052661Y-80400000D01*
X96154394Y-80372741D01*
X96245606Y-80320080D01*
X96320080Y-80245606D01*
X96372741Y-80154394D01*
X96400000Y-80052661D01*
X96400000Y-80046447D01*
X97079474Y-80725921D01*
X97111859Y-80681349D01*
X97204755Y-80499031D01*
X97267990Y-80304417D01*
X97300000Y-80102317D01*
X97300000Y-79897682D01*
X97267990Y-79695582D01*
X97204755Y-79500968D01*
X97111859Y-79318650D01*
X97079474Y-79274077D01*
X97079474Y-79274076D01*
X96400000Y-79953551D01*
X96400000Y-79947339D01*
X96372741Y-79845606D01*
X96320080Y-79754394D01*
X96245606Y-79679920D01*
X96154394Y-79627259D01*
X96052661Y-79600000D01*
X96046446Y-79600000D01*
X96725922Y-78920524D01*
X96725921Y-78920523D01*
X96681359Y-78888147D01*
X96681350Y-78888141D01*
X96499031Y-78795244D01*
X96304417Y-78732009D01*
X96102317Y-78700000D01*
X95897683Y-78700000D01*
X95695582Y-78732009D01*
X95500968Y-78795244D01*
X95318644Y-78888143D01*
X95274077Y-78920523D01*
X95274077Y-78920524D01*
X95953554Y-79600000D01*
X95947339Y-79600000D01*
X95845606Y-79627259D01*
X95754394Y-79679920D01*
X95679920Y-79754394D01*
X95627259Y-79845606D01*
X95600000Y-79947339D01*
X95600000Y-79953553D01*
X94920524Y-79274077D01*
X94920523Y-79274077D01*
X94888143Y-79318644D01*
X94795244Y-79500968D01*
X94732009Y-79695582D01*
X94700000Y-79897682D01*
X92300500Y-79897682D01*
X92300500Y-79897648D01*
X92283030Y-79787350D01*
X92268477Y-79695465D01*
X92230732Y-79579298D01*
X92205220Y-79500781D01*
X92205218Y-79500778D01*
X92205218Y-79500776D01*
X92157148Y-79406435D01*
X92112287Y-79318390D01*
X92080092Y-79274077D01*
X91991971Y-79152786D01*
X91847213Y-79008028D01*
X91681610Y-78887712D01*
X91668200Y-78880879D01*
X91617406Y-78832903D01*
X91600500Y-78770397D01*
X91600500Y-75800096D01*
X91620185Y-75733057D01*
X91636814Y-75712420D01*
X92475195Y-74874038D01*
X116399500Y-74874038D01*
X116399500Y-75125962D01*
X116422031Y-75268213D01*
X116438910Y-75374785D01*
X116516760Y-75614383D01*
X116577228Y-75733057D01*
X116611386Y-75800096D01*
X116631132Y-75838848D01*
X116779201Y-76042649D01*
X116779205Y-76042654D01*
X116957345Y-76220794D01*
X116957350Y-76220798D01*
X117135117Y-76349952D01*
X117161155Y-76368870D01*
X117296968Y-76438070D01*
X117385616Y-76483239D01*
X117385618Y-76483239D01*
X117385621Y-76483241D01*
X117625215Y-76561090D01*
X117874038Y-76600500D01*
X117874039Y-76600500D01*
X118125961Y-76600500D01*
X118125962Y-76600500D01*
X118374785Y-76561090D01*
X118614379Y-76483241D01*
X118838845Y-76368870D01*
X119042656Y-76220793D01*
X119220793Y-76042656D01*
X119368870Y-75838845D01*
X119483241Y-75614379D01*
X119561090Y-75374785D01*
X119600500Y-75125962D01*
X119600500Y-74874038D01*
X119561090Y-74625215D01*
X119483241Y-74385621D01*
X119483239Y-74385618D01*
X119483239Y-74385616D01*
X119406400Y-74234812D01*
X119368870Y-74161155D01*
X119284200Y-74044616D01*
X119220798Y-73957350D01*
X119220794Y-73957345D01*
X119042654Y-73779205D01*
X119042649Y-73779201D01*
X119038681Y-73776318D01*
X144959335Y-73776318D01*
X144959335Y-76222861D01*
X144962113Y-76292150D01*
X144962113Y-76292157D01*
X145006425Y-76597198D01*
X145089375Y-76894048D01*
X145089380Y-76894063D01*
X145209612Y-77177874D01*
X145365150Y-77443981D01*
X145365152Y-77443983D01*
X145365154Y-77443986D01*
X145459301Y-77566004D01*
X145553449Y-77688024D01*
X145771400Y-77905975D01*
X145824460Y-77946915D01*
X146015439Y-78094271D01*
X146015441Y-78094272D01*
X146015443Y-78094274D01*
X146281550Y-78249812D01*
X146543959Y-78360977D01*
X146565368Y-78370047D01*
X146862230Y-78453000D01*
X147167263Y-78497311D01*
X147194217Y-78498391D01*
X147236564Y-78500090D01*
X147236575Y-78500090D01*
X149683106Y-78500090D01*
X149716244Y-78498760D01*
X149752407Y-78497311D01*
X150057440Y-78453000D01*
X150354302Y-78370047D01*
X150638119Y-78249812D01*
X150904231Y-78094271D01*
X151148267Y-77905977D01*
X151366222Y-77688022D01*
X151554516Y-77443986D01*
X151710057Y-77177874D01*
X151830292Y-76894057D01*
X151913245Y-76597195D01*
X151957556Y-76292162D01*
X151960335Y-76222850D01*
X151960335Y-75652378D01*
X151980020Y-75585339D01*
X151996654Y-75564697D01*
X155704532Y-71856819D01*
X155765855Y-71823334D01*
X155792213Y-71820500D01*
X160546892Y-71820500D01*
X160613931Y-71840185D01*
X160659686Y-71892989D01*
X160669630Y-71962147D01*
X160643839Y-72021813D01*
X160487789Y-72217493D01*
X160304007Y-72509980D01*
X160154132Y-72821199D01*
X160040045Y-73147239D01*
X160040042Y-73147247D01*
X159963176Y-73484023D01*
X159963173Y-73484037D01*
X159924500Y-73827277D01*
X159924500Y-74172722D01*
X159963173Y-74515962D01*
X159963176Y-74515976D01*
X160040042Y-74852752D01*
X160040045Y-74852760D01*
X160154132Y-75178800D01*
X160304007Y-75490019D01*
X160304009Y-75490022D01*
X160487790Y-75782508D01*
X160532720Y-75838848D01*
X160703163Y-76052577D01*
X160947428Y-76296842D01*
X161052812Y-76380882D01*
X161092953Y-76438070D01*
X161099500Y-76477829D01*
X161099500Y-84656768D01*
X161079815Y-84723807D01*
X161071354Y-84735432D01*
X161024146Y-84792954D01*
X161024143Y-84792959D01*
X160822151Y-85095261D01*
X160822140Y-85095279D01*
X160650756Y-85415916D01*
X160650754Y-85415921D01*
X160511614Y-85751834D01*
X160406067Y-86099776D01*
X160406064Y-86099787D01*
X160335137Y-86456369D01*
X160299500Y-86818209D01*
X160299500Y-87181790D01*
X160335137Y-87543630D01*
X160406064Y-87900212D01*
X160406067Y-87900223D01*
X160511614Y-88248165D01*
X160650754Y-88584078D01*
X160650756Y-88584083D01*
X160822140Y-88904720D01*
X160822151Y-88904738D01*
X160939247Y-89079984D01*
X160960125Y-89146662D01*
X160941640Y-89214042D01*
X160933937Y-89225116D01*
X160759189Y-89449257D01*
X160591372Y-89729853D01*
X160591371Y-89729855D01*
X160459308Y-90028948D01*
X160364999Y-90342011D01*
X160364998Y-90342016D01*
X160309878Y-90664285D01*
X160299500Y-90856640D01*
X160299500Y-93143357D01*
X160309878Y-93335714D01*
X160364998Y-93657983D01*
X160364999Y-93657988D01*
X160394041Y-93754394D01*
X160425503Y-93858834D01*
X160428261Y-93867987D01*
X160428750Y-93937855D01*
X160397212Y-93991435D01*
X150295827Y-104092820D01*
X150234504Y-104126305D01*
X150164812Y-104121321D01*
X150108879Y-104079449D01*
X150085673Y-104024536D01*
X150085595Y-104024043D01*
X150085595Y-104024038D01*
X150046185Y-103775215D01*
X149968336Y-103535621D01*
X149968334Y-103535618D01*
X149968334Y-103535616D01*
X149926842Y-103454184D01*
X149853965Y-103311155D01*
X149835047Y-103285117D01*
X149705893Y-103107350D01*
X149705889Y-103107345D01*
X149527749Y-102929205D01*
X149527744Y-102929201D01*
X149323943Y-102781132D01*
X149323942Y-102781131D01*
X149323940Y-102781130D01*
X149253842Y-102745413D01*
X149099478Y-102666760D01*
X148859880Y-102588910D01*
X148859874Y-102588909D01*
X148611057Y-102549500D01*
X148359133Y-102549500D01*
X148309217Y-102557406D01*
X148110309Y-102588910D01*
X147870711Y-102666760D01*
X147646246Y-102781132D01*
X147442445Y-102929201D01*
X147442440Y-102929205D01*
X147264300Y-103107345D01*
X147264296Y-103107350D01*
X147116227Y-103311151D01*
X147001855Y-103535616D01*
X146924005Y-103775214D01*
X146924005Y-103775215D01*
X146884595Y-104024038D01*
X146884595Y-104275962D01*
X146892501Y-104325880D01*
X146924005Y-104524785D01*
X147001855Y-104764383D01*
X147116227Y-104988848D01*
X147264296Y-105192649D01*
X147264300Y-105192654D01*
X147442440Y-105370794D01*
X147442445Y-105370798D01*
X147620212Y-105499952D01*
X147646250Y-105518870D01*
X147789279Y-105591747D01*
X147870711Y-105633239D01*
X147870713Y-105633239D01*
X147870716Y-105633241D01*
X147999144Y-105674970D01*
X148110309Y-105711090D01*
X148148482Y-105717136D01*
X148359133Y-105750500D01*
X148359139Y-105750500D01*
X148359631Y-105750578D01*
X148422766Y-105780507D01*
X148459698Y-105839818D01*
X148458700Y-105909681D01*
X148427915Y-105960732D01*
X147851608Y-106537039D01*
X147790285Y-106570524D01*
X147788119Y-106570975D01*
X147638592Y-106600719D01*
X147638587Y-106600720D01*
X147638584Y-106600721D01*
X147309458Y-106700560D01*
X146991700Y-106832180D01*
X146991695Y-106832182D01*
X146688389Y-106994303D01*
X146688371Y-106994314D01*
X146402413Y-107185385D01*
X146402399Y-107185395D01*
X146136532Y-107403586D01*
X145893341Y-107646777D01*
X145675150Y-107912644D01*
X145675140Y-107912658D01*
X145484069Y-108198616D01*
X145484058Y-108198634D01*
X145321937Y-108501940D01*
X145321935Y-108501945D01*
X145190315Y-108819703D01*
X145090473Y-109148837D01*
X145023375Y-109486160D01*
X145009121Y-109630893D01*
X144989665Y-109828441D01*
X144989665Y-110172379D01*
X144999916Y-110276464D01*
X145023375Y-110514659D01*
X145090473Y-110851982D01*
X145190315Y-111181116D01*
X145268182Y-111369104D01*
X145315459Y-111483241D01*
X145321935Y-111498874D01*
X145321937Y-111498879D01*
X145484058Y-111802185D01*
X145484069Y-111802203D01*
X145675140Y-112088161D01*
X145675150Y-112088175D01*
X145893341Y-112354042D01*
X146136532Y-112597233D01*
X146136537Y-112597237D01*
X146136538Y-112597238D01*
X146402405Y-112815429D01*
X146688378Y-113006510D01*
X146688387Y-113006515D01*
X146688389Y-113006516D01*
X146991695Y-113168637D01*
X146991697Y-113168637D01*
X146991703Y-113168641D01*
X147309460Y-113300260D01*
X147638587Y-113400100D01*
X147975915Y-113467199D01*
X148318196Y-113500910D01*
X148318199Y-113500910D01*
X148662131Y-113500910D01*
X148662134Y-113500910D01*
X149004415Y-113467199D01*
X149341743Y-113400100D01*
X149670870Y-113300260D01*
X149988627Y-113168641D01*
X150291952Y-113006510D01*
X150577925Y-112815429D01*
X150843792Y-112597238D01*
X151086993Y-112354037D01*
X151305184Y-112088170D01*
X151496265Y-111802197D01*
X151658396Y-111498872D01*
X151790015Y-111181115D01*
X151889855Y-110851988D01*
X151919599Y-110702451D01*
X151951982Y-110640545D01*
X151953478Y-110639021D01*
X166166143Y-96426358D01*
X166369261Y-96171656D01*
X166542586Y-95895812D01*
X166683935Y-95602297D01*
X166791532Y-95294801D01*
X166801644Y-95250500D01*
X166853958Y-95021291D01*
X166887166Y-94961206D01*
X167039783Y-94808591D01*
X167240811Y-94550741D01*
X167282130Y-94481655D01*
X167408627Y-94270146D01*
X167408628Y-94270144D01*
X167408630Y-94270141D01*
X167487965Y-94090464D01*
X167540691Y-93971051D01*
X167547834Y-93947339D01*
X167635001Y-93657987D01*
X167690122Y-93335712D01*
X167700500Y-93143359D01*
X167700499Y-90856642D01*
X167690122Y-90664288D01*
X167635001Y-90342013D01*
X167540693Y-90028955D01*
X167540691Y-90028948D01*
X167408628Y-89729855D01*
X167408627Y-89729853D01*
X167240813Y-89449261D01*
X167066062Y-89225116D01*
X167040367Y-89160142D01*
X167053878Y-89091591D01*
X167060747Y-89079991D01*
X167177853Y-88904732D01*
X167349247Y-88584076D01*
X167488386Y-88248164D01*
X167593930Y-87900233D01*
X167593932Y-87900223D01*
X167593935Y-87900212D01*
X167664862Y-87543630D01*
X167689682Y-87291631D01*
X167700500Y-87181794D01*
X167700500Y-86818206D01*
X167664862Y-86456369D01*
X167658150Y-86422623D01*
X167593935Y-86099787D01*
X167593932Y-86099776D01*
X167593931Y-86099773D01*
X167593930Y-86099767D01*
X167488386Y-85751836D01*
X167349247Y-85415924D01*
X167323727Y-85368180D01*
X167177859Y-85095279D01*
X167177858Y-85095277D01*
X167177853Y-85095268D01*
X166975854Y-84792956D01*
X166975853Y-84792954D01*
X166928646Y-84735432D01*
X166901334Y-84671122D01*
X166900500Y-84656768D01*
X166900500Y-74837108D01*
X166900499Y-74837107D01*
X166895233Y-74790363D01*
X166893816Y-74777789D01*
X166864027Y-74513398D01*
X166864026Y-74513393D01*
X166864025Y-74513384D01*
X166791532Y-74195774D01*
X166779418Y-74161155D01*
X166683935Y-73888278D01*
X166665279Y-73849539D01*
X166625210Y-73766335D01*
X166542589Y-73594768D01*
X166528197Y-73571864D01*
X166384336Y-73342911D01*
X166369261Y-73318919D01*
X166166143Y-73064217D01*
X165935783Y-72833857D01*
X165788997Y-72687071D01*
X165764961Y-72653196D01*
X165695991Y-72509978D01*
X165512210Y-72217492D01*
X165296836Y-71947422D01*
X165052578Y-71703164D01*
X165047983Y-71699500D01*
X165015126Y-71673297D01*
X164869225Y-71556945D01*
X164829087Y-71499759D01*
X164826237Y-71429947D01*
X164861582Y-71369677D01*
X164869215Y-71363062D01*
X165052578Y-71216836D01*
X165296836Y-70972578D01*
X165512210Y-70702508D01*
X165695991Y-70410022D01*
X165845869Y-70098797D01*
X165959958Y-69772749D01*
X166036824Y-69435977D01*
X166039485Y-69412365D01*
X166063910Y-69195582D01*
X166075500Y-69092716D01*
X166075500Y-68747284D01*
X166040963Y-68440756D01*
X166036826Y-68404037D01*
X166036825Y-68404032D01*
X166036824Y-68404023D01*
X165959958Y-68067251D01*
X165845869Y-67741203D01*
X165695991Y-67429978D01*
X165512210Y-67137492D01*
X165296836Y-66867422D01*
X165052578Y-66623164D01*
X164782508Y-66407790D01*
X164580502Y-66280861D01*
X164490019Y-66224007D01*
X164178800Y-66074132D01*
X163852760Y-65960045D01*
X163852752Y-65960042D01*
X163600170Y-65902392D01*
X163515977Y-65883176D01*
X163515974Y-65883175D01*
X163515962Y-65883173D01*
X163172722Y-65844500D01*
X163172716Y-65844500D01*
X162827284Y-65844500D01*
X162827277Y-65844500D01*
X162484037Y-65883173D01*
X162484023Y-65883176D01*
X162147251Y-65960041D01*
X161997215Y-66012542D01*
X161956260Y-66019500D01*
X154376529Y-66019500D01*
X154052823Y-66055972D01*
X154052809Y-66055975D01*
X153836498Y-66105347D01*
X153735195Y-66128468D01*
X153462156Y-66224009D01*
X153462155Y-66224008D01*
X153427700Y-66236066D01*
X153427691Y-66236069D01*
X153134193Y-66377410D01*
X152964786Y-66483856D01*
X152964785Y-66483855D01*
X152858346Y-66550737D01*
X152858337Y-66550744D01*
X152603642Y-66753856D01*
X147894728Y-71462771D01*
X147833405Y-71496256D01*
X147807047Y-71499090D01*
X147236564Y-71499090D01*
X147167274Y-71501868D01*
X147167267Y-71501868D01*
X146862226Y-71546180D01*
X146565376Y-71629130D01*
X146565361Y-71629135D01*
X146281550Y-71749367D01*
X146015443Y-71904905D01*
X146015440Y-71904908D01*
X145771400Y-72093204D01*
X145553449Y-72311155D01*
X145365153Y-72555195D01*
X145365150Y-72555198D01*
X145209612Y-72821305D01*
X145089380Y-73105116D01*
X145089375Y-73105131D01*
X145006425Y-73401981D01*
X144962113Y-73707022D01*
X144962113Y-73707029D01*
X144959335Y-73776318D01*
X119038681Y-73776318D01*
X118838848Y-73631132D01*
X118838847Y-73631131D01*
X118838845Y-73631130D01*
X118722529Y-73571864D01*
X118614383Y-73516760D01*
X118374785Y-73438910D01*
X118125962Y-73399500D01*
X117874038Y-73399500D01*
X117749626Y-73419205D01*
X117625214Y-73438910D01*
X117385616Y-73516760D01*
X117161151Y-73631132D01*
X116957350Y-73779201D01*
X116957345Y-73779205D01*
X116779205Y-73957345D01*
X116779201Y-73957350D01*
X116631132Y-74161151D01*
X116516760Y-74385616D01*
X116449259Y-74593363D01*
X116438910Y-74625215D01*
X116399500Y-74874038D01*
X92475195Y-74874038D01*
X93012416Y-74336817D01*
X93073739Y-74303333D01*
X93100097Y-74300499D01*
X94100002Y-74300499D01*
X94100008Y-74300499D01*
X94202797Y-74289999D01*
X94369334Y-74234814D01*
X94518656Y-74142712D01*
X94642712Y-74018656D01*
X94734814Y-73869334D01*
X94789999Y-73702797D01*
X94800500Y-73600009D01*
X94800499Y-72399992D01*
X94789999Y-72297203D01*
X94734814Y-72130666D01*
X94642712Y-71981344D01*
X94518656Y-71857288D01*
X94369334Y-71765186D01*
X94202797Y-71710001D01*
X94202795Y-71710000D01*
X94100010Y-71699500D01*
X92899998Y-71699500D01*
X92899981Y-71699501D01*
X92797203Y-71710000D01*
X92797200Y-71710001D01*
X92630668Y-71765185D01*
X92630663Y-71765187D01*
X92481342Y-71857289D01*
X92357289Y-71981342D01*
X92265187Y-72130663D01*
X92265186Y-72130666D01*
X92210001Y-72297203D01*
X92210001Y-72297204D01*
X92210000Y-72297204D01*
X92199500Y-72399983D01*
X92199500Y-73399902D01*
X92179815Y-73466941D01*
X92163181Y-73487583D01*
X90519481Y-75131282D01*
X90519477Y-75131287D01*
X90492050Y-75178795D01*
X90492049Y-75178797D01*
X90440423Y-75268215D01*
X90399499Y-75420943D01*
X90399499Y-75420945D01*
X90399499Y-75589046D01*
X90399500Y-75589059D01*
X90399500Y-78770397D01*
X90379815Y-78837436D01*
X90331800Y-78880879D01*
X90318389Y-78887712D01*
X90152786Y-79008028D01*
X90008028Y-79152786D01*
X89887715Y-79318385D01*
X89880883Y-79331795D01*
X89832909Y-79382591D01*
X89770398Y-79399500D01*
X89290098Y-79399500D01*
X89223059Y-79379815D01*
X89202417Y-79363181D01*
X86636819Y-76797583D01*
X86603334Y-76736260D01*
X86600500Y-76709902D01*
X86600500Y-75810299D01*
X86620185Y-75743260D01*
X86672989Y-75697505D01*
X86724500Y-75686299D01*
X86733671Y-75686299D01*
X86733672Y-75686299D01*
X86793283Y-75679891D01*
X86928131Y-75629596D01*
X87043346Y-75543346D01*
X87129596Y-75428131D01*
X87179891Y-75293283D01*
X87186300Y-75233673D01*
X87186299Y-73766328D01*
X87179891Y-73706717D01*
X87178428Y-73702795D01*
X87129597Y-73571871D01*
X87129593Y-73571864D01*
X87043347Y-73456655D01*
X87043344Y-73456652D01*
X86928135Y-73370406D01*
X86928128Y-73370402D01*
X86793282Y-73320108D01*
X86793283Y-73320108D01*
X86733683Y-73313701D01*
X86733681Y-73313700D01*
X86733673Y-73313700D01*
X86733664Y-73313700D01*
X85266329Y-73313700D01*
X85266323Y-73313701D01*
X85206716Y-73320108D01*
X85071871Y-73370402D01*
X85071864Y-73370406D01*
X84956655Y-73456652D01*
X84956652Y-73456655D01*
X84870406Y-73571864D01*
X84870402Y-73571871D01*
X84820108Y-73706717D01*
X84813701Y-73766316D01*
X84813701Y-73766323D01*
X84813700Y-73766335D01*
X84813700Y-75233670D01*
X84813701Y-75233676D01*
X84820108Y-75293283D01*
X84870402Y-75428128D01*
X84870406Y-75428135D01*
X84956652Y-75543344D01*
X84956655Y-75543347D01*
X85071864Y-75629593D01*
X85071871Y-75629597D01*
X85206716Y-75679891D01*
X85266317Y-75686299D01*
X85266318Y-75686299D01*
X85266327Y-75686300D01*
X85275493Y-75686299D01*
X85342531Y-75705978D01*
X85388290Y-75758779D01*
X85399500Y-75810299D01*
X85399500Y-76709902D01*
X85379815Y-76776941D01*
X85363181Y-76797583D01*
X83603563Y-78557200D01*
X83542240Y-78590685D01*
X83477564Y-78587450D01*
X83351370Y-78546447D01*
X83118097Y-78509500D01*
X83118092Y-78509500D01*
X82881908Y-78509500D01*
X82881903Y-78509500D01*
X82648631Y-78546446D01*
X82424003Y-78619433D01*
X82213566Y-78726657D01*
X82153364Y-78770397D01*
X82022490Y-78865483D01*
X82022488Y-78865485D01*
X82022487Y-78865485D01*
X81855485Y-79032487D01*
X81855485Y-79032488D01*
X81855483Y-79032490D01*
X81818518Y-79083368D01*
X81716657Y-79223566D01*
X81609433Y-79434003D01*
X81536446Y-79658631D01*
X81499500Y-79891902D01*
X79420500Y-79891902D01*
X79420500Y-79881902D01*
X79383553Y-79648631D01*
X79335513Y-79500781D01*
X79310568Y-79424008D01*
X79310566Y-79424005D01*
X79310566Y-79424003D01*
X79234174Y-79274076D01*
X79203343Y-79213567D01*
X79064517Y-79022490D01*
X78897510Y-78855483D01*
X78706433Y-78716657D01*
X78655050Y-78690476D01*
X78495996Y-78609433D01*
X78271368Y-78536446D01*
X78038097Y-78499500D01*
X78038092Y-78499500D01*
X77801908Y-78499500D01*
X77801903Y-78499500D01*
X77568631Y-78536446D01*
X77344003Y-78609433D01*
X77133566Y-78716657D01*
X77059600Y-78770397D01*
X76942490Y-78855483D01*
X76942488Y-78855485D01*
X76942487Y-78855485D01*
X76775485Y-79022487D01*
X76775485Y-79022488D01*
X76775483Y-79022490D01*
X76731252Y-79083369D01*
X76636657Y-79213566D01*
X76529433Y-79424003D01*
X76456446Y-79648631D01*
X76419500Y-79881902D01*
X70500500Y-79881902D01*
X70500500Y-74406636D01*
X73409100Y-74406636D01*
X73409100Y-74593364D01*
X73438311Y-74777793D01*
X73496013Y-74955381D01*
X73580785Y-75121757D01*
X73690541Y-75272822D01*
X73822578Y-75404859D01*
X73973643Y-75514615D01*
X74140019Y-75599387D01*
X74317607Y-75657089D01*
X74502036Y-75686300D01*
X74502037Y-75686300D01*
X74688763Y-75686300D01*
X74688764Y-75686300D01*
X74873193Y-75657089D01*
X75050781Y-75599387D01*
X75217157Y-75514615D01*
X75368222Y-75404859D01*
X75500259Y-75272822D01*
X75610015Y-75121757D01*
X75694787Y-74955381D01*
X75752489Y-74777793D01*
X75781700Y-74593364D01*
X75781700Y-74406636D01*
X75758262Y-74258656D01*
X75767216Y-74189365D01*
X75793051Y-74151582D01*
X79626413Y-70318221D01*
X79626416Y-70318220D01*
X79738220Y-70206416D01*
X79788339Y-70119604D01*
X79817277Y-70069485D01*
X79858201Y-69916757D01*
X79858201Y-69841835D01*
X79877886Y-69774796D01*
X79925906Y-69731350D01*
X79991722Y-69697815D01*
X80170065Y-69568242D01*
X80220624Y-69517682D01*
X80281945Y-69484198D01*
X80351636Y-69489182D01*
X80407570Y-69531053D01*
X80424486Y-69562030D01*
X80454346Y-69642087D01*
X80454349Y-69642093D01*
X80540509Y-69757187D01*
X80540512Y-69757190D01*
X80655606Y-69843350D01*
X80655613Y-69843354D01*
X80790320Y-69893596D01*
X80790327Y-69893598D01*
X80849855Y-69899999D01*
X80849872Y-69900000D01*
X81547700Y-69900000D01*
X81547700Y-68875277D01*
X81624006Y-68919333D01*
X81738456Y-68950000D01*
X81856944Y-68950000D01*
X81971394Y-68919333D01*
X82047700Y-68875277D01*
X82047700Y-69900000D01*
X82745528Y-69900000D01*
X82745544Y-69899999D01*
X82805072Y-69893598D01*
X82805079Y-69893596D01*
X82939786Y-69843354D01*
X82939793Y-69843350D01*
X83054887Y-69757190D01*
X83054890Y-69757187D01*
X83141050Y-69642093D01*
X83141054Y-69642086D01*
X83191296Y-69507379D01*
X83191298Y-69507372D01*
X83197699Y-69447844D01*
X83197700Y-69447827D01*
X83197700Y-69397682D01*
X92200000Y-69397682D01*
X92200000Y-69602317D01*
X92232009Y-69804417D01*
X92295244Y-69999031D01*
X92388141Y-70181350D01*
X92388147Y-70181359D01*
X92420523Y-70225921D01*
X92420524Y-70225922D01*
X93100000Y-69546446D01*
X93100000Y-69552661D01*
X93127259Y-69654394D01*
X93179920Y-69745606D01*
X93254394Y-69820080D01*
X93345606Y-69872741D01*
X93447339Y-69900000D01*
X93453553Y-69900000D01*
X92774076Y-70579474D01*
X92818650Y-70611859D01*
X93000968Y-70704755D01*
X93195582Y-70767990D01*
X93397683Y-70800000D01*
X93602317Y-70800000D01*
X93804417Y-70767990D01*
X93999031Y-70704755D01*
X94181349Y-70611859D01*
X94225921Y-70579474D01*
X93546447Y-69900000D01*
X93552661Y-69900000D01*
X93654394Y-69872741D01*
X93745606Y-69820080D01*
X93820080Y-69745606D01*
X93872741Y-69654394D01*
X93900000Y-69552661D01*
X93900000Y-69546447D01*
X94579474Y-70225921D01*
X94611859Y-70181349D01*
X94704755Y-69999031D01*
X94767990Y-69804417D01*
X94800000Y-69602317D01*
X94800000Y-69397682D01*
X94767990Y-69195582D01*
X94704755Y-69000968D01*
X94611859Y-68818650D01*
X94579474Y-68774077D01*
X94579474Y-68774076D01*
X93900000Y-69453551D01*
X93900000Y-69447339D01*
X93872741Y-69345606D01*
X93820080Y-69254394D01*
X93745606Y-69179920D01*
X93654394Y-69127259D01*
X93552661Y-69100000D01*
X93546446Y-69100000D01*
X94225922Y-68420524D01*
X94225921Y-68420523D01*
X94181359Y-68388147D01*
X94181350Y-68388141D01*
X93999031Y-68295244D01*
X93804417Y-68232009D01*
X93602317Y-68200000D01*
X93397683Y-68200000D01*
X93195582Y-68232009D01*
X93000968Y-68295244D01*
X92818644Y-68388143D01*
X92774077Y-68420523D01*
X92774077Y-68420524D01*
X93453554Y-69100000D01*
X93447339Y-69100000D01*
X93345606Y-69127259D01*
X93254394Y-69179920D01*
X93179920Y-69254394D01*
X93127259Y-69345606D01*
X93100000Y-69447339D01*
X93100000Y-69453553D01*
X92420524Y-68774077D01*
X92420523Y-68774077D01*
X92388143Y-68818644D01*
X92295244Y-69000968D01*
X92232009Y-69195582D01*
X92200000Y-69397682D01*
X83197700Y-69397682D01*
X83197700Y-68750000D01*
X82172978Y-68750000D01*
X82217033Y-68673694D01*
X82247700Y-68559244D01*
X82247700Y-68440756D01*
X82217033Y-68326306D01*
X82172978Y-68250000D01*
X83197700Y-68250000D01*
X83197700Y-67552172D01*
X83197699Y-67552155D01*
X83191298Y-67492627D01*
X83191296Y-67492620D01*
X83141054Y-67357913D01*
X83141050Y-67357906D01*
X83054890Y-67242812D01*
X83054887Y-67242809D01*
X82939793Y-67156649D01*
X82939786Y-67156645D01*
X82805079Y-67106403D01*
X82805072Y-67106401D01*
X82745544Y-67100000D01*
X82047700Y-67100000D01*
X82047700Y-68124722D01*
X81971394Y-68080667D01*
X81856944Y-68050000D01*
X81738456Y-68050000D01*
X81624006Y-68080667D01*
X81547700Y-68124722D01*
X81547700Y-67100000D01*
X80849855Y-67100000D01*
X80790327Y-67106401D01*
X80790320Y-67106403D01*
X80655613Y-67156645D01*
X80655606Y-67156649D01*
X80540512Y-67242809D01*
X80540509Y-67242812D01*
X80454349Y-67357906D01*
X80454343Y-67357918D01*
X80424485Y-67437969D01*
X80382614Y-67493903D01*
X80317149Y-67518319D01*
X80248876Y-67503467D01*
X80220623Y-67482316D01*
X80170063Y-67431756D01*
X80170058Y-67431752D01*
X79991725Y-67302187D01*
X79991724Y-67302186D01*
X79991722Y-67302185D01*
X79928796Y-67270122D01*
X79795306Y-67202104D01*
X79795303Y-67202103D01*
X79585652Y-67133985D01*
X79476786Y-67116742D01*
X79367922Y-67099500D01*
X79147478Y-67099500D01*
X79074901Y-67110995D01*
X78929747Y-67133985D01*
X78720096Y-67202103D01*
X78720093Y-67202104D01*
X78523674Y-67302187D01*
X78345341Y-67431752D01*
X78345336Y-67431756D01*
X78189456Y-67587636D01*
X78189452Y-67587641D01*
X78059887Y-67765974D01*
X77959804Y-67962393D01*
X77959803Y-67962396D01*
X77891685Y-68172047D01*
X77857200Y-68389778D01*
X77857200Y-68610221D01*
X77891685Y-68827952D01*
X77959803Y-69037603D01*
X77959804Y-69037606D01*
X78059887Y-69234025D01*
X78189452Y-69412358D01*
X78189456Y-69412363D01*
X78345338Y-69568245D01*
X78420508Y-69622858D01*
X78463175Y-69678188D01*
X78469154Y-69747801D01*
X78436549Y-69809596D01*
X78435305Y-69810858D01*
X74943818Y-73302345D01*
X74882495Y-73335830D01*
X74836739Y-73337137D01*
X74721702Y-73318917D01*
X74688764Y-73313700D01*
X74502036Y-73313700D01*
X74469098Y-73318917D01*
X74317610Y-73342910D01*
X74317607Y-73342911D01*
X74143445Y-73399500D01*
X74140016Y-73400614D01*
X73973642Y-73485385D01*
X73822576Y-73595142D01*
X73690542Y-73727176D01*
X73580785Y-73878242D01*
X73496014Y-74044616D01*
X73438310Y-74222210D01*
X73420158Y-74336818D01*
X73409100Y-74406636D01*
X70500500Y-74406636D01*
X70500500Y-55006491D01*
X111399500Y-55006491D01*
X111399500Y-55343508D01*
X111437231Y-55678381D01*
X111437233Y-55678397D01*
X111512223Y-56006953D01*
X111512227Y-56006965D01*
X111623532Y-56325054D01*
X111769752Y-56628683D01*
X111769754Y-56628686D01*
X111949054Y-56914039D01*
X112159175Y-57177523D01*
X112397477Y-57415825D01*
X112660961Y-57625946D01*
X112946314Y-57805246D01*
X113249949Y-57951469D01*
X113488848Y-58035063D01*
X113568034Y-58062772D01*
X113568046Y-58062776D01*
X113896606Y-58137767D01*
X114231492Y-58175499D01*
X114231493Y-58175500D01*
X114231496Y-58175500D01*
X114568507Y-58175500D01*
X114568507Y-58175499D01*
X114903394Y-58137767D01*
X115231954Y-58062776D01*
X115550051Y-57951469D01*
X115853686Y-57805246D01*
X116139039Y-57625946D01*
X116402523Y-57415825D01*
X116640825Y-57177523D01*
X116850946Y-56914039D01*
X117030246Y-56628686D01*
X117176469Y-56325051D01*
X117287776Y-56006954D01*
X117362767Y-55678394D01*
X117400500Y-55343504D01*
X117400500Y-55028794D01*
X149099684Y-55028794D01*
X149099684Y-55365811D01*
X149137415Y-55700684D01*
X149137417Y-55700700D01*
X149212407Y-56029256D01*
X149212411Y-56029268D01*
X149323716Y-56347357D01*
X149469936Y-56650986D01*
X149469938Y-56650989D01*
X149649238Y-56936342D01*
X149859359Y-57199826D01*
X150097661Y-57438128D01*
X150361145Y-57648249D01*
X150646498Y-57827549D01*
X150950133Y-57973772D01*
X151189032Y-58057366D01*
X151268218Y-58085075D01*
X151268230Y-58085079D01*
X151596790Y-58160070D01*
X151931676Y-58197802D01*
X151931677Y-58197803D01*
X151931680Y-58197803D01*
X152268691Y-58197803D01*
X152268691Y-58197802D01*
X152603578Y-58160070D01*
X152932138Y-58085079D01*
X153250235Y-57973772D01*
X153553870Y-57827549D01*
X153839223Y-57648249D01*
X154102707Y-57438128D01*
X154341009Y-57199826D01*
X154551130Y-56936342D01*
X154730430Y-56650989D01*
X154876653Y-56347354D01*
X154987960Y-56029257D01*
X155062951Y-55700697D01*
X155100684Y-55365807D01*
X155100684Y-55028799D01*
X155062951Y-54693909D01*
X154987960Y-54365349D01*
X154876653Y-54047252D01*
X154730430Y-53743617D01*
X154551130Y-53458264D01*
X154341009Y-53194780D01*
X154102707Y-52956478D01*
X153839223Y-52746357D01*
X153553870Y-52567057D01*
X153553867Y-52567055D01*
X153250238Y-52420835D01*
X152932149Y-52309530D01*
X152932137Y-52309526D01*
X152603581Y-52234536D01*
X152603565Y-52234534D01*
X152268692Y-52196803D01*
X152268688Y-52196803D01*
X151931680Y-52196803D01*
X151931675Y-52196803D01*
X151596802Y-52234534D01*
X151596786Y-52234536D01*
X151268230Y-52309526D01*
X151268218Y-52309530D01*
X150950129Y-52420835D01*
X150646500Y-52567055D01*
X150361146Y-52746356D01*
X150097661Y-52956477D01*
X149859358Y-53194780D01*
X149649237Y-53458265D01*
X149469936Y-53743619D01*
X149323716Y-54047248D01*
X149212411Y-54365337D01*
X149212407Y-54365349D01*
X149137417Y-54693905D01*
X149137415Y-54693921D01*
X149099684Y-55028794D01*
X117400500Y-55028794D01*
X117400500Y-55006496D01*
X117362767Y-54671606D01*
X117287776Y-54343046D01*
X117176469Y-54024949D01*
X117030246Y-53721314D01*
X116850946Y-53435961D01*
X116640825Y-53172477D01*
X116402523Y-52934175D01*
X116139039Y-52724054D01*
X115853686Y-52544754D01*
X115853683Y-52544752D01*
X115550054Y-52398532D01*
X115231965Y-52287227D01*
X115231953Y-52287223D01*
X114903397Y-52212233D01*
X114903381Y-52212231D01*
X114568508Y-52174500D01*
X114568504Y-52174500D01*
X114231496Y-52174500D01*
X114231491Y-52174500D01*
X113896618Y-52212231D01*
X113896602Y-52212233D01*
X113568046Y-52287223D01*
X113568034Y-52287227D01*
X113249945Y-52398532D01*
X112946316Y-52544752D01*
X112660962Y-52724053D01*
X112397477Y-52934174D01*
X112159174Y-53172477D01*
X111949053Y-53435962D01*
X111769752Y-53721316D01*
X111623532Y-54024945D01*
X111512227Y-54343034D01*
X111512223Y-54343046D01*
X111437233Y-54671602D01*
X111437231Y-54671618D01*
X111399500Y-55006491D01*
X70500500Y-55006491D01*
X70500500Y-39624500D01*
X70520185Y-39557461D01*
X70572989Y-39511706D01*
X70624500Y-39500500D01*
X174375500Y-39500500D01*
X174442539Y-39520185D01*
G37*
%TD.AperFunction*%
%TD*%
M02*
