M48
; DRILL file {KiCad 9.0.7-9.0.7~ubuntu24.04.1} date 2026-02-05T01:07:49+0300
; FORMAT={-:-/ absolute / metric / decimal}
; #@! TF.CreationDate,2026-02-05T01:07:49+03:00
; #@! TF.GenerationSoftware,Kicad,Pcbnew,9.0.7-9.0.7~ubuntu24.04.1
; #@! TF.FileFunction,Plated,1,2,PTH
FMAT,2
METRIC
; #@! TA.AperFunction,Plated,PTH,ComponentDrill
T1C0.800
; #@! TA.AperFunction,Plated,PTH,ComponentDrill
T2C0.864
; #@! TA.AperFunction,Plated,PTH,ComponentDrill
T3C0.900
; #@! TA.AperFunction,Plated,PTH,ComponentDrill
T4C1.000
; #@! TA.AperFunction,Plated,PTH,ComponentDrill
T5C1.060
; #@! TA.AperFunction,Plated,PTH,ComponentDrill
T6C1.200
; #@! TA.AperFunction,Plated,PTH,ComponentDrill
T7C1.300
; #@! TA.AperFunction,Plated,PTH,ComponentDrill
T8C1.600
%
G90
G05
T1
X91.0Y-80.0
X91.0Y-94.0
X93.5Y-69.5
X93.5Y-73.0
X96.0Y-80.0
X96.0Y-94.0
T2
X74.595Y-74.5
X86.0Y-74.5
T3
X79.258Y-68.5
X81.798Y-68.5
X163.0Y-68.92
X163.0Y-74.0
T4
X77.92Y-80.0
X83.0Y-80.01
X83.5Y-110.5
X91.0Y-110.5
T5
X88.3Y-86.0
X90.0Y-86.0
X91.7Y-86.0
X93.4Y-86.0
X95.1Y-86.0
T6
X118.0Y-75.0
X118.0Y-80.83
X118.0Y-86.66
X118.0Y-98.32
X118.0Y-104.15
X118.0Y-110.0
X118.001Y-92.49
X148.46Y-75.0
X148.47Y-80.83
X148.47Y-86.66
X148.475Y-92.5
X148.485Y-98.325
X148.485Y-104.15
X148.49Y-110.0
T7
X80.0Y-87.0
X80.0Y-92.0
X164.0Y-87.0
X164.0Y-92.0
T8
X103.0Y-79.76
X103.0Y-84.84
X103.0Y-89.92
X103.0Y-95.0
M30
