%TF.GenerationSoftware,KiCad,Pcbnew,9.0.7-9.0.7~ubuntu24.04.1*%
%TF.CreationDate,2026-02-05T01:08:49+03:00*%
%TF.ProjectId,Linear_PowerSup_v1,4c696e65-6172-45f5-906f-776572537570,rev?*%
%TF.SameCoordinates,Original*%
%TF.FileFunction,Legend,Top*%
%TF.FilePolarity,Positive*%
%FSLAX46Y46*%
G04 Gerber Fmt 4.6, Leading zero omitted, Abs format (unit mm)*
G04 Created by KiCad (PCBNEW 9.0.7-9.0.7~ubuntu24.04.1) date 2026-02-05 01:08:49*
%MOMM*%
%LPD*%
G01*
G04 APERTURE LIST*
%ADD10C,0.150000*%
%ADD11C,0.120000*%
%ADD12C,0.152400*%
%ADD13C,0.127000*%
%ADD14C,0.200000*%
%ADD15C,0.100000*%
G04 APERTURE END LIST*
D10*
X87583333Y-123109580D02*
X87535714Y-123157200D01*
X87535714Y-123157200D02*
X87392857Y-123204819D01*
X87392857Y-123204819D02*
X87297619Y-123204819D01*
X87297619Y-123204819D02*
X87154762Y-123157200D01*
X87154762Y-123157200D02*
X87059524Y-123061961D01*
X87059524Y-123061961D02*
X87011905Y-122966723D01*
X87011905Y-122966723D02*
X86964286Y-122776247D01*
X86964286Y-122776247D02*
X86964286Y-122633390D01*
X86964286Y-122633390D02*
X87011905Y-122442914D01*
X87011905Y-122442914D02*
X87059524Y-122347676D01*
X87059524Y-122347676D02*
X87154762Y-122252438D01*
X87154762Y-122252438D02*
X87297619Y-122204819D01*
X87297619Y-122204819D02*
X87392857Y-122204819D01*
X87392857Y-122204819D02*
X87535714Y-122252438D01*
X87535714Y-122252438D02*
X87583333Y-122300057D01*
X88535714Y-123204819D02*
X87964286Y-123204819D01*
X88250000Y-123204819D02*
X88250000Y-122204819D01*
X88250000Y-122204819D02*
X88154762Y-122347676D01*
X88154762Y-122347676D02*
X88059524Y-122442914D01*
X88059524Y-122442914D02*
X87964286Y-122490533D01*
X84574819Y-89833333D02*
X85289104Y-89833333D01*
X85289104Y-89833333D02*
X85431961Y-89880952D01*
X85431961Y-89880952D02*
X85527200Y-89976190D01*
X85527200Y-89976190D02*
X85574819Y-90119047D01*
X85574819Y-90119047D02*
X85574819Y-90214285D01*
X84670057Y-89404761D02*
X84622438Y-89357142D01*
X84622438Y-89357142D02*
X84574819Y-89261904D01*
X84574819Y-89261904D02*
X84574819Y-89023809D01*
X84574819Y-89023809D02*
X84622438Y-88928571D01*
X84622438Y-88928571D02*
X84670057Y-88880952D01*
X84670057Y-88880952D02*
X84765295Y-88833333D01*
X84765295Y-88833333D02*
X84860533Y-88833333D01*
X84860533Y-88833333D02*
X85003390Y-88880952D01*
X85003390Y-88880952D02*
X85574819Y-89452380D01*
X85574819Y-89452380D02*
X85574819Y-88833333D01*
X80016666Y-82891009D02*
X79683333Y-82891009D01*
X79683333Y-83414819D02*
X79683333Y-82414819D01*
X79683333Y-82414819D02*
X80159523Y-82414819D01*
X80492857Y-82510057D02*
X80540476Y-82462438D01*
X80540476Y-82462438D02*
X80635714Y-82414819D01*
X80635714Y-82414819D02*
X80873809Y-82414819D01*
X80873809Y-82414819D02*
X80969047Y-82462438D01*
X80969047Y-82462438D02*
X81016666Y-82510057D01*
X81016666Y-82510057D02*
X81064285Y-82605295D01*
X81064285Y-82605295D02*
X81064285Y-82700533D01*
X81064285Y-82700533D02*
X81016666Y-82843390D01*
X81016666Y-82843390D02*
X80445238Y-83414819D01*
X80445238Y-83414819D02*
X81064285Y-83414819D01*
X158334819Y-89833333D02*
X159049104Y-89833333D01*
X159049104Y-89833333D02*
X159191961Y-89880952D01*
X159191961Y-89880952D02*
X159287200Y-89976190D01*
X159287200Y-89976190D02*
X159334819Y-90119047D01*
X159334819Y-90119047D02*
X159334819Y-90214285D01*
X159334819Y-88833333D02*
X159334819Y-89404761D01*
X159334819Y-89119047D02*
X158334819Y-89119047D01*
X158334819Y-89119047D02*
X158477676Y-89214285D01*
X158477676Y-89214285D02*
X158572914Y-89309523D01*
X158572914Y-89309523D02*
X158620533Y-89404761D01*
X82333333Y-74954819D02*
X82000000Y-74478628D01*
X81761905Y-74954819D02*
X81761905Y-73954819D01*
X81761905Y-73954819D02*
X82142857Y-73954819D01*
X82142857Y-73954819D02*
X82238095Y-74002438D01*
X82238095Y-74002438D02*
X82285714Y-74050057D01*
X82285714Y-74050057D02*
X82333333Y-74145295D01*
X82333333Y-74145295D02*
X82333333Y-74288152D01*
X82333333Y-74288152D02*
X82285714Y-74383390D01*
X82285714Y-74383390D02*
X82238095Y-74431009D01*
X82238095Y-74431009D02*
X82142857Y-74478628D01*
X82142857Y-74478628D02*
X81761905Y-74478628D01*
X83285714Y-74954819D02*
X82714286Y-74954819D01*
X83000000Y-74954819D02*
X83000000Y-73954819D01*
X83000000Y-73954819D02*
X82904762Y-74097676D01*
X82904762Y-74097676D02*
X82809524Y-74192914D01*
X82809524Y-74192914D02*
X82714286Y-74240533D01*
X93333333Y-91859580D02*
X93285714Y-91907200D01*
X93285714Y-91907200D02*
X93142857Y-91954819D01*
X93142857Y-91954819D02*
X93047619Y-91954819D01*
X93047619Y-91954819D02*
X92904762Y-91907200D01*
X92904762Y-91907200D02*
X92809524Y-91811961D01*
X92809524Y-91811961D02*
X92761905Y-91716723D01*
X92761905Y-91716723D02*
X92714286Y-91526247D01*
X92714286Y-91526247D02*
X92714286Y-91383390D01*
X92714286Y-91383390D02*
X92761905Y-91192914D01*
X92761905Y-91192914D02*
X92809524Y-91097676D01*
X92809524Y-91097676D02*
X92904762Y-91002438D01*
X92904762Y-91002438D02*
X93047619Y-90954819D01*
X93047619Y-90954819D02*
X93142857Y-90954819D01*
X93142857Y-90954819D02*
X93285714Y-91002438D01*
X93285714Y-91002438D02*
X93333333Y-91050057D01*
X94190476Y-91288152D02*
X94190476Y-91954819D01*
X93952381Y-90907200D02*
X93714286Y-91621485D01*
X93714286Y-91621485D02*
X94333333Y-91621485D01*
X159431009Y-71833333D02*
X159431009Y-72166666D01*
X159954819Y-72166666D02*
X158954819Y-72166666D01*
X158954819Y-72166666D02*
X158954819Y-71690476D01*
X159954819Y-70785714D02*
X159954819Y-71357142D01*
X159954819Y-71071428D02*
X158954819Y-71071428D01*
X158954819Y-71071428D02*
X159097676Y-71166666D01*
X159097676Y-71166666D02*
X159192914Y-71261904D01*
X159192914Y-71261904D02*
X159240533Y-71357142D01*
X93333333Y-77859580D02*
X93285714Y-77907200D01*
X93285714Y-77907200D02*
X93142857Y-77954819D01*
X93142857Y-77954819D02*
X93047619Y-77954819D01*
X93047619Y-77954819D02*
X92904762Y-77907200D01*
X92904762Y-77907200D02*
X92809524Y-77811961D01*
X92809524Y-77811961D02*
X92761905Y-77716723D01*
X92761905Y-77716723D02*
X92714286Y-77526247D01*
X92714286Y-77526247D02*
X92714286Y-77383390D01*
X92714286Y-77383390D02*
X92761905Y-77192914D01*
X92761905Y-77192914D02*
X92809524Y-77097676D01*
X92809524Y-77097676D02*
X92904762Y-77002438D01*
X92904762Y-77002438D02*
X93047619Y-76954819D01*
X93047619Y-76954819D02*
X93142857Y-76954819D01*
X93142857Y-76954819D02*
X93285714Y-77002438D01*
X93285714Y-77002438D02*
X93333333Y-77050057D01*
X93714286Y-77050057D02*
X93761905Y-77002438D01*
X93761905Y-77002438D02*
X93857143Y-76954819D01*
X93857143Y-76954819D02*
X94095238Y-76954819D01*
X94095238Y-76954819D02*
X94190476Y-77002438D01*
X94190476Y-77002438D02*
X94238095Y-77050057D01*
X94238095Y-77050057D02*
X94285714Y-77145295D01*
X94285714Y-77145295D02*
X94285714Y-77240533D01*
X94285714Y-77240533D02*
X94238095Y-77383390D01*
X94238095Y-77383390D02*
X93666667Y-77954819D01*
X93666667Y-77954819D02*
X94285714Y-77954819D01*
X90738095Y-87954819D02*
X90738095Y-88764342D01*
X90738095Y-88764342D02*
X90785714Y-88859580D01*
X90785714Y-88859580D02*
X90833333Y-88907200D01*
X90833333Y-88907200D02*
X90928571Y-88954819D01*
X90928571Y-88954819D02*
X91119047Y-88954819D01*
X91119047Y-88954819D02*
X91214285Y-88907200D01*
X91214285Y-88907200D02*
X91261904Y-88859580D01*
X91261904Y-88859580D02*
X91309523Y-88764342D01*
X91309523Y-88764342D02*
X91309523Y-87954819D01*
X92309523Y-88954819D02*
X91738095Y-88954819D01*
X92023809Y-88954819D02*
X92023809Y-87954819D01*
X92023809Y-87954819D02*
X91928571Y-88097676D01*
X91928571Y-88097676D02*
X91833333Y-88192914D01*
X91833333Y-88192914D02*
X91738095Y-88240533D01*
X88609580Y-71416666D02*
X88657200Y-71464285D01*
X88657200Y-71464285D02*
X88704819Y-71607142D01*
X88704819Y-71607142D02*
X88704819Y-71702380D01*
X88704819Y-71702380D02*
X88657200Y-71845237D01*
X88657200Y-71845237D02*
X88561961Y-71940475D01*
X88561961Y-71940475D02*
X88466723Y-71988094D01*
X88466723Y-71988094D02*
X88276247Y-72035713D01*
X88276247Y-72035713D02*
X88133390Y-72035713D01*
X88133390Y-72035713D02*
X87942914Y-71988094D01*
X87942914Y-71988094D02*
X87847676Y-71940475D01*
X87847676Y-71940475D02*
X87752438Y-71845237D01*
X87752438Y-71845237D02*
X87704819Y-71702380D01*
X87704819Y-71702380D02*
X87704819Y-71607142D01*
X87704819Y-71607142D02*
X87752438Y-71464285D01*
X87752438Y-71464285D02*
X87800057Y-71416666D01*
X87704819Y-71083332D02*
X87704819Y-70464285D01*
X87704819Y-70464285D02*
X88085771Y-70797618D01*
X88085771Y-70797618D02*
X88085771Y-70654761D01*
X88085771Y-70654761D02*
X88133390Y-70559523D01*
X88133390Y-70559523D02*
X88181009Y-70511904D01*
X88181009Y-70511904D02*
X88276247Y-70464285D01*
X88276247Y-70464285D02*
X88514342Y-70464285D01*
X88514342Y-70464285D02*
X88609580Y-70511904D01*
X88609580Y-70511904D02*
X88657200Y-70559523D01*
X88657200Y-70559523D02*
X88704819Y-70654761D01*
X88704819Y-70654761D02*
X88704819Y-70940475D01*
X88704819Y-70940475D02*
X88657200Y-71035713D01*
X88657200Y-71035713D02*
X88609580Y-71083332D01*
X79789605Y-72914819D02*
X79789605Y-71914819D01*
X79789605Y-71914819D02*
X80027700Y-71914819D01*
X80027700Y-71914819D02*
X80170557Y-71962438D01*
X80170557Y-71962438D02*
X80265795Y-72057676D01*
X80265795Y-72057676D02*
X80313414Y-72152914D01*
X80313414Y-72152914D02*
X80361033Y-72343390D01*
X80361033Y-72343390D02*
X80361033Y-72486247D01*
X80361033Y-72486247D02*
X80313414Y-72676723D01*
X80313414Y-72676723D02*
X80265795Y-72771961D01*
X80265795Y-72771961D02*
X80170557Y-72867200D01*
X80170557Y-72867200D02*
X80027700Y-72914819D01*
X80027700Y-72914819D02*
X79789605Y-72914819D01*
X80741986Y-72010057D02*
X80789605Y-71962438D01*
X80789605Y-71962438D02*
X80884843Y-71914819D01*
X80884843Y-71914819D02*
X81122938Y-71914819D01*
X81122938Y-71914819D02*
X81218176Y-71962438D01*
X81218176Y-71962438D02*
X81265795Y-72010057D01*
X81265795Y-72010057D02*
X81313414Y-72105295D01*
X81313414Y-72105295D02*
X81313414Y-72200533D01*
X81313414Y-72200533D02*
X81265795Y-72343390D01*
X81265795Y-72343390D02*
X80694367Y-72914819D01*
X80694367Y-72914819D02*
X81313414Y-72914819D01*
X106754819Y-88038094D02*
X105754819Y-88038094D01*
X105754819Y-88038094D02*
X105754819Y-87799999D01*
X105754819Y-87799999D02*
X105802438Y-87657142D01*
X105802438Y-87657142D02*
X105897676Y-87561904D01*
X105897676Y-87561904D02*
X105992914Y-87514285D01*
X105992914Y-87514285D02*
X106183390Y-87466666D01*
X106183390Y-87466666D02*
X106326247Y-87466666D01*
X106326247Y-87466666D02*
X106516723Y-87514285D01*
X106516723Y-87514285D02*
X106611961Y-87561904D01*
X106611961Y-87561904D02*
X106707200Y-87657142D01*
X106707200Y-87657142D02*
X106754819Y-87799999D01*
X106754819Y-87799999D02*
X106754819Y-88038094D01*
X106754819Y-86514285D02*
X106754819Y-87085713D01*
X106754819Y-86799999D02*
X105754819Y-86799999D01*
X105754819Y-86799999D02*
X105897676Y-86895237D01*
X105897676Y-86895237D02*
X105992914Y-86990475D01*
X105992914Y-86990475D02*
X106040533Y-87085713D01*
D11*
%TO.C,C1*%
X96370000Y-110500000D02*
G75*
G02*
X78130000Y-110500000I-9120000J0D01*
G01*
X78130000Y-110500000D02*
G75*
G02*
X96370000Y-110500000I9120000J0D01*
G01*
%TO.C,J2*%
X74880000Y-84380000D02*
X84120000Y-84380000D01*
X74880000Y-86700000D02*
X74880000Y-84380000D01*
X74880000Y-94620000D02*
X74880000Y-87300000D01*
X75400000Y-84380000D02*
X75400000Y-94620000D01*
X76500000Y-84380000D02*
X76500000Y-94620000D01*
X84120000Y-84380000D02*
X84120000Y-94620000D01*
X84120000Y-94620000D02*
X74880000Y-94620000D01*
X74880000Y-87000000D02*
X74270000Y-87440000D01*
X74270000Y-86560000D01*
X74880000Y-87000000D01*
G36*
X74880000Y-87000000D02*
G01*
X74270000Y-87440000D01*
X74270000Y-86560000D01*
X74880000Y-87000000D01*
G37*
%TO.C,F2*%
X76090000Y-77890000D02*
X76090000Y-82130000D01*
X76090000Y-77890000D02*
X84830000Y-77890000D01*
X84830000Y-82130000D02*
X76090000Y-82130000D01*
X84830000Y-82130000D02*
X84830000Y-77890000D01*
%TO.C,J1*%
X159880000Y-84380000D02*
X169120000Y-84380000D01*
X159880000Y-94620000D02*
X159880000Y-84380000D01*
X167500000Y-94620000D02*
X167500000Y-84380000D01*
X168600000Y-94620000D02*
X168600000Y-84380000D01*
X169120000Y-84380000D02*
X169120000Y-91700000D01*
X169120000Y-92300000D02*
X169120000Y-94620000D01*
X169120000Y-94620000D02*
X159880000Y-94620000D01*
X169730000Y-92440000D02*
X169120000Y-92000000D01*
X169730000Y-91560000D01*
X169730000Y-92440000D01*
G36*
X169730000Y-92440000D02*
G01*
X169120000Y-92000000D01*
X169730000Y-91560000D01*
X169730000Y-92440000D01*
G37*
D12*
%TO.C,R1*%
X76868700Y-73128400D02*
X76868700Y-75871600D01*
X76868700Y-75871600D02*
X83726700Y-75871600D01*
X83726700Y-73128400D02*
X76868700Y-73128400D01*
X83726700Y-75871600D02*
X83726700Y-73128400D01*
D11*
%TO.C,C4*%
X89780000Y-92630000D02*
X97220000Y-92630000D01*
X89780000Y-95370000D02*
X89780000Y-92630000D01*
X97220000Y-92630000D02*
X97220000Y-95370000D01*
X97220000Y-95370000D02*
X89780000Y-95370000D01*
D13*
%TO.C,F1*%
X161000000Y-67285000D02*
X161000000Y-75635000D01*
X161000000Y-75635000D02*
X165000000Y-75635000D01*
X165000000Y-67285000D02*
X161000000Y-67285000D01*
X165000000Y-75635000D02*
X165000000Y-67285000D01*
D11*
%TO.C,C2*%
X89780000Y-78630000D02*
X97220000Y-78630000D01*
X89780000Y-81370000D02*
X89780000Y-78630000D01*
X97220000Y-78630000D02*
X97220000Y-81370000D01*
X97220000Y-81370000D02*
X89780000Y-81370000D01*
D13*
%TO.C,U1*%
X86500000Y-83700000D02*
X96900000Y-83700000D01*
X86500000Y-89700000D02*
X86500000Y-83700000D01*
X96900000Y-83700000D02*
X96900000Y-89700000D01*
X96900000Y-89700000D02*
X86500000Y-89700000D01*
D14*
X97750000Y-86000000D02*
G75*
G02*
X97550000Y-86000000I-100000J0D01*
G01*
X97550000Y-86000000D02*
G75*
G02*
X97750000Y-86000000I100000J0D01*
G01*
D11*
%TO.C,C3*%
X89420000Y-71210000D02*
X97580000Y-71210000D01*
X89420000Y-71250000D02*
X97580000Y-71250000D01*
X89421000Y-71170000D02*
X97579000Y-71170000D01*
X89422000Y-71130000D02*
X97578000Y-71130000D01*
X89423000Y-71090000D02*
X97577000Y-71090000D01*
X89425000Y-71050000D02*
X97575000Y-71050000D01*
X89427000Y-71010000D02*
X97573000Y-71010000D01*
X89430000Y-70970000D02*
X97570000Y-70970000D01*
X89432000Y-70930000D02*
X97568000Y-70930000D01*
X89436000Y-70890000D02*
X97564000Y-70890000D01*
X89439000Y-70850000D02*
X97561000Y-70850000D01*
X89444000Y-70810000D02*
X97556000Y-70810000D01*
X89448000Y-70770000D02*
X97552000Y-70770000D01*
X89453000Y-70730000D02*
X97547000Y-70730000D01*
X89458000Y-70690000D02*
X97542000Y-70690000D01*
X89464000Y-70650000D02*
X97536000Y-70650000D01*
X89470000Y-70610000D02*
X97530000Y-70610000D01*
X89477000Y-70570000D02*
X97523000Y-70570000D01*
X89483000Y-70530000D02*
X92460000Y-70530000D01*
X89491000Y-70490000D02*
X92460000Y-70490000D01*
X89498000Y-70450000D02*
X92460000Y-70450000D01*
X89507000Y-70410000D02*
X92460000Y-70410000D01*
X89515000Y-70370000D02*
X92460000Y-70370000D01*
X89524000Y-70330000D02*
X92460000Y-70330000D01*
X89533000Y-70290000D02*
X92460000Y-70290000D01*
X89543000Y-70250000D02*
X92460000Y-70250000D01*
X89553000Y-70210000D02*
X92460000Y-70210000D01*
X89564000Y-70170000D02*
X92460000Y-70170000D01*
X89575000Y-70130000D02*
X92460000Y-70130000D01*
X89587000Y-70090000D02*
X92460000Y-70090000D01*
X89599000Y-70050000D02*
X92460000Y-70050000D01*
X89611000Y-70010000D02*
X92460000Y-70010000D01*
X89624000Y-69970000D02*
X92460000Y-69970000D01*
X89637000Y-69930000D02*
X92460000Y-69930000D01*
X89651000Y-69890000D02*
X92460000Y-69890000D01*
X89665000Y-69850000D02*
X92460000Y-69850000D01*
X89680000Y-69810000D02*
X92460000Y-69810000D01*
X89695000Y-69770000D02*
X92460000Y-69770000D01*
X89711000Y-69730000D02*
X92460000Y-69730000D01*
X89727000Y-69690000D02*
X92460000Y-69690000D01*
X89743000Y-69650000D02*
X92460000Y-69650000D01*
X89760000Y-69610000D02*
X92460000Y-69610000D01*
X89778000Y-69570000D02*
X92460000Y-69570000D01*
X89796000Y-69530000D02*
X92460000Y-69530000D01*
X89815000Y-69490000D02*
X92460000Y-69490000D01*
X89834000Y-69450000D02*
X92460000Y-69450000D01*
X89854000Y-69410000D02*
X92460000Y-69410000D01*
X89874000Y-69370000D02*
X92460000Y-69370000D01*
X89895000Y-69330000D02*
X92460000Y-69330000D01*
X89916000Y-69290000D02*
X92460000Y-69290000D01*
X89938000Y-69250000D02*
X92460000Y-69250000D01*
X89961000Y-69210000D02*
X92460000Y-69210000D01*
X89984000Y-69170000D02*
X92460000Y-69170000D01*
X90007000Y-69130000D02*
X92460000Y-69130000D01*
X90032000Y-69090000D02*
X92460000Y-69090000D01*
X90057000Y-69050000D02*
X92460000Y-69050000D01*
X90082000Y-69010000D02*
X92460000Y-69010000D01*
X90108000Y-68970000D02*
X92460000Y-68970000D01*
X90135000Y-68930000D02*
X92460000Y-68930000D01*
X90163000Y-68890000D02*
X92460000Y-68890000D01*
X90191000Y-68850000D02*
X92460000Y-68850000D01*
X90220000Y-68810000D02*
X92460000Y-68810000D01*
X90250000Y-68770000D02*
X92460000Y-68770000D01*
X90281000Y-68730000D02*
X92460000Y-68730000D01*
X90312000Y-68690000D02*
X92460000Y-68690000D01*
X90344000Y-68650000D02*
X92460000Y-68650000D01*
X90377000Y-68610000D02*
X92460000Y-68610000D01*
X90411000Y-68570000D02*
X92460000Y-68570000D01*
X90445000Y-68530000D02*
X92460000Y-68530000D01*
X90481000Y-68490000D02*
X92460000Y-68490000D01*
X90518000Y-68450000D02*
X96482000Y-68450000D01*
X90555000Y-68410000D02*
X96445000Y-68410000D01*
X90594000Y-68370000D02*
X96406000Y-68370000D01*
X90633000Y-68330000D02*
X96367000Y-68330000D01*
X90674000Y-68290000D02*
X96326000Y-68290000D01*
X90716000Y-68250000D02*
X96284000Y-68250000D01*
X90759000Y-68210000D02*
X96241000Y-68210000D01*
X90785000Y-75259698D02*
X91585000Y-75259698D01*
X90804000Y-68170000D02*
X96196000Y-68170000D01*
X90849000Y-68130000D02*
X96151000Y-68130000D01*
X90896000Y-68090000D02*
X96104000Y-68090000D01*
X90945000Y-68050000D02*
X96055000Y-68050000D01*
X90995000Y-68010000D02*
X96005000Y-68010000D01*
X91047000Y-67970000D02*
X95953000Y-67970000D01*
X91100000Y-67930000D02*
X95900000Y-67930000D01*
X91156000Y-67890000D02*
X95844000Y-67890000D01*
X91185000Y-75659698D02*
X91185000Y-74859698D01*
X91213000Y-67850000D02*
X95787000Y-67850000D01*
X91273000Y-67810000D02*
X95727000Y-67810000D01*
X91335000Y-67770000D02*
X95665000Y-67770000D01*
X91399000Y-67730000D02*
X95601000Y-67730000D01*
X91466000Y-67690000D02*
X95534000Y-67690000D01*
X91536000Y-67650000D02*
X95464000Y-67650000D01*
X91610000Y-67610000D02*
X95390000Y-67610000D01*
X91687000Y-67570000D02*
X95313000Y-67570000D01*
X91769000Y-67530000D02*
X95231000Y-67530000D01*
X91856000Y-67490000D02*
X95144000Y-67490000D01*
X91948000Y-67450000D02*
X95052000Y-67450000D01*
X92047000Y-67410000D02*
X94953000Y-67410000D01*
X92154000Y-67370000D02*
X94846000Y-67370000D01*
X92272000Y-67330000D02*
X94728000Y-67330000D01*
X92403000Y-67290000D02*
X94597000Y-67290000D01*
X92553000Y-67250000D02*
X94447000Y-67250000D01*
X92732000Y-67210000D02*
X94268000Y-67210000D01*
X92967000Y-67170000D02*
X94033000Y-67170000D01*
X94540000Y-68490000D02*
X96519000Y-68490000D01*
X94540000Y-68530000D02*
X96555000Y-68530000D01*
X94540000Y-68570000D02*
X96589000Y-68570000D01*
X94540000Y-68610000D02*
X96623000Y-68610000D01*
X94540000Y-68650000D02*
X96656000Y-68650000D01*
X94540000Y-68690000D02*
X96688000Y-68690000D01*
X94540000Y-68730000D02*
X96719000Y-68730000D01*
X94540000Y-68770000D02*
X96750000Y-68770000D01*
X94540000Y-68810000D02*
X96780000Y-68810000D01*
X94540000Y-68850000D02*
X96809000Y-68850000D01*
X94540000Y-68890000D02*
X96837000Y-68890000D01*
X94540000Y-68930000D02*
X96865000Y-68930000D01*
X94540000Y-68970000D02*
X96892000Y-68970000D01*
X94540000Y-69010000D02*
X96918000Y-69010000D01*
X94540000Y-69050000D02*
X96943000Y-69050000D01*
X94540000Y-69090000D02*
X96968000Y-69090000D01*
X94540000Y-69130000D02*
X96993000Y-69130000D01*
X94540000Y-69170000D02*
X97016000Y-69170000D01*
X94540000Y-69210000D02*
X97039000Y-69210000D01*
X94540000Y-69250000D02*
X97062000Y-69250000D01*
X94540000Y-69290000D02*
X97084000Y-69290000D01*
X94540000Y-69330000D02*
X97105000Y-69330000D01*
X94540000Y-69370000D02*
X97126000Y-69370000D01*
X94540000Y-69410000D02*
X97146000Y-69410000D01*
X94540000Y-69450000D02*
X97166000Y-69450000D01*
X94540000Y-69490000D02*
X97185000Y-69490000D01*
X94540000Y-69530000D02*
X97204000Y-69530000D01*
X94540000Y-69570000D02*
X97222000Y-69570000D01*
X94540000Y-69610000D02*
X97240000Y-69610000D01*
X94540000Y-69650000D02*
X97257000Y-69650000D01*
X94540000Y-69690000D02*
X97273000Y-69690000D01*
X94540000Y-69730000D02*
X97289000Y-69730000D01*
X94540000Y-69770000D02*
X97305000Y-69770000D01*
X94540000Y-69810000D02*
X97320000Y-69810000D01*
X94540000Y-69850000D02*
X97335000Y-69850000D01*
X94540000Y-69890000D02*
X97349000Y-69890000D01*
X94540000Y-69930000D02*
X97363000Y-69930000D01*
X94540000Y-69970000D02*
X97376000Y-69970000D01*
X94540000Y-70010000D02*
X97389000Y-70010000D01*
X94540000Y-70050000D02*
X97401000Y-70050000D01*
X94540000Y-70090000D02*
X97413000Y-70090000D01*
X94540000Y-70130000D02*
X97425000Y-70130000D01*
X94540000Y-70170000D02*
X97436000Y-70170000D01*
X94540000Y-70210000D02*
X97447000Y-70210000D01*
X94540000Y-70250000D02*
X97457000Y-70250000D01*
X94540000Y-70290000D02*
X97467000Y-70290000D01*
X94540000Y-70330000D02*
X97476000Y-70330000D01*
X94540000Y-70370000D02*
X97485000Y-70370000D01*
X94540000Y-70410000D02*
X97493000Y-70410000D01*
X94540000Y-70450000D02*
X97502000Y-70450000D01*
X94540000Y-70490000D02*
X97509000Y-70490000D01*
X94540000Y-70530000D02*
X97517000Y-70530000D01*
X97620000Y-71250000D02*
G75*
G02*
X89380000Y-71250000I-4120000J0D01*
G01*
X89380000Y-71250000D02*
G75*
G02*
X97620000Y-71250000I4120000J0D01*
G01*
%TO.C,D2*%
X83087700Y-70045000D02*
X83087700Y-66955000D01*
X77537700Y-68500000D02*
G75*
G02*
X83087700Y-66955170I2990000J0D01*
G01*
X83087700Y-70044830D02*
G75*
G02*
X77537700Y-68500000I-2560000J1544830D01*
G01*
X83027700Y-68500000D02*
G75*
G02*
X78027700Y-68500000I-2500000J0D01*
G01*
X78027700Y-68500000D02*
G75*
G02*
X83027700Y-68500000I2500000J0D01*
G01*
D15*
%TO.C,TR1*%
X109150000Y-63650000D02*
X157350000Y-63650000D01*
X109150000Y-121350000D02*
X109150000Y-138250000D01*
X109150000Y-138250000D02*
X157350000Y-138250000D01*
X114400000Y-138250000D02*
X114375000Y-138250000D01*
X118060000Y-86660000D02*
X118070000Y-86660000D01*
X118070000Y-80830000D02*
X118000000Y-80830000D01*
X118070000Y-86660000D02*
X117930000Y-86660000D01*
X118110000Y-92490000D02*
X118000686Y-92489964D01*
X118110000Y-98320000D02*
X118000000Y-98320000D01*
X119650000Y-46750000D02*
X119650000Y-63650000D01*
X119650000Y-138250000D02*
X119650000Y-121350000D01*
X146850000Y-46750000D02*
X146850000Y-63650000D01*
X146850000Y-138250000D02*
X146850000Y-121350000D01*
X157350000Y-121350000D02*
X157350000Y-138250000D01*
X157350000Y-121350000D02*
X109150000Y-121350000D01*
X109150000Y-46750000D01*
X157350000Y-46750000D01*
X157350000Y-121350000D01*
D11*
%TO.C,D1*%
X101800000Y-76200000D02*
X105400000Y-76200000D01*
X101800000Y-78200000D02*
X101800000Y-76200000D01*
X101800000Y-83300000D02*
X101800000Y-81300000D01*
X101800000Y-88300000D02*
X101800000Y-86400000D01*
X101800000Y-93000000D02*
X101800000Y-91500000D01*
X101800000Y-98500000D02*
X101800000Y-97000000D01*
X105400000Y-76200000D02*
X105400000Y-98500000D01*
X105400000Y-95300000D02*
X104900000Y-95300000D01*
X105400000Y-98500000D02*
X101800000Y-98500000D01*
%TD*%
M02*
